M48
;DRILL file {KiCad 4.0.4+dfsg1-stable} date Sun Aug 20 17:43:18 2017
;FORMAT={-:-/ absolute / inch / decimal}
FMAT,2
INCH,TZ
T1C0.016
T2C0.025
T3C0.031
T4C0.033
T5C0.039
T6C0.039
T7C0.040
T8C0.043
T9C0.047
T10C0.051
T11C0.055
T12C0.059
T13C0.059
%
G90
G05
M72
T1
X5.575Y-5.7
X6.375Y-4.55
X6.45Y-5.425
X6.525Y-5.125
X6.7Y-4.6287
X6.8666Y-5.0666
X6.9Y-4.9
X6.975Y-4.975
X7.Y-5.4
X7.Y-5.525
X7.0175Y-4.825
X7.05Y-4.775
X7.05Y-4.9
X7.225Y-5.075
X7.25Y-4.85
X7.275Y-4.925
X7.275Y-5.325
X7.325Y-5.475
X7.5Y-4.7
T2
X5.7Y-5.425
X5.7Y-5.6
T3
X5.8Y-4.6
X5.8984Y-4.6
X6.025Y-5.475
X6.025Y-5.5537
X6.25Y-4.35
X6.3878Y-4.35
X6.55Y-5.2463
X6.55Y-5.325
X7.6213Y-4.85
X7.7Y-4.85
T4
X5.05Y-4.9
X5.05Y-5.1
X5.15Y-4.9
X5.15Y-5.1
X5.25Y-4.9
X5.25Y-5.1
X5.45Y-4.9
X5.45Y-5.1
T5
X3.9425Y-2.5122
X3.9425Y-2.7878
X4.2575Y-2.5122
X4.2575Y-2.7878
T6
X4.9Y-2.45
X4.9Y-2.85
X5.6469Y-4.35
X6.0469Y-4.35
T7
X4.0157Y-3.7862
X4.0157Y-3.8862
X4.0157Y-3.9862
X4.0157Y-4.0862
X6.375Y-5.55
X6.475Y-5.55
X6.575Y-5.55
X6.625Y-4.825
X6.625Y-4.925
X6.675Y-5.55
X6.725Y-4.825
X6.725Y-4.925
X6.775Y-5.55
X6.825Y-4.825
X6.825Y-4.925
X6.875Y-5.55
X7.2047Y-3.2862
X7.2047Y-3.3862
X7.2047Y-3.4862
X7.2047Y-3.5862
X7.2047Y-3.6862
X7.2047Y-3.7862
X7.2047Y-3.8862
X7.2047Y-3.9862
X7.2047Y-4.0862
X7.2047Y-4.1862
X7.2047Y-4.2862
X7.2047Y-4.3862
X7.2047Y-4.4862
X7.2047Y-4.5862
T8
X4.65Y-2.45
X4.65Y-3.2492
T9
X5.1Y-2.45
X5.1Y-3.0406
X5.35Y-2.45
X5.35Y-3.0406
X6.2Y-2.775
X6.2Y-2.9719
X6.2Y-3.3506
X6.2Y-3.9411
X7.3872Y-5.65
X7.525Y-5.65
X7.6628Y-5.65
T10
X3.4Y-5.5
X3.5969Y-5.5
X5.1Y-3.4821
X5.1Y-4.3679
X5.75Y-2.95
X5.75Y-3.15
X5.75Y-3.35
X5.75Y-3.55
X5.75Y-3.85
X5.75Y-4.05
T11
X3.975Y-5.425
X3.975Y-5.5904
X4.1915Y-5.425
X4.1915Y-5.5904
X4.7335Y-5.425
X4.7335Y-5.5904
X4.95Y-5.425
X4.95Y-5.5904
T12
X4.375Y-4.9
X4.5Y-5.1
T13
X4.675Y-3.75
X4.675Y-4.35
T0
M30
