G04 #@! TF.FileFunction,Legend,Top*
%FSLAX46Y46*%
G04 Gerber Fmt 4.6, Leading zero omitted, Abs format (unit mm)*
G04 Created by KiCad (PCBNEW 4.0.4+dfsg1-stable) date Sun Aug 20 17:43:16 2017*
%MOMM*%
%LPD*%
G01*
G04 APERTURE LIST*
%ADD10C,0.100000*%
%ADD11C,0.150000*%
%ADD12C,0.300000*%
%ADD13C,0.400000*%
%ADD14C,0.010000*%
%ADD15C,1.270000*%
%ADD16C,0.381000*%
G04 APERTURE END LIST*
D10*
D11*
X147177143Y-141829286D02*
X146820000Y-141829286D01*
X146784286Y-142186429D01*
X146820000Y-142150714D01*
X146891429Y-142115000D01*
X147070000Y-142115000D01*
X147141429Y-142150714D01*
X147177143Y-142186429D01*
X147212858Y-142257857D01*
X147212858Y-142436429D01*
X147177143Y-142507857D01*
X147141429Y-142543571D01*
X147070000Y-142579286D01*
X146891429Y-142579286D01*
X146820000Y-142543571D01*
X146784286Y-142507857D01*
X147427144Y-141829286D02*
X147677144Y-142579286D01*
X147927144Y-141829286D01*
X146748572Y-137420000D02*
X146677143Y-137384286D01*
X146570000Y-137384286D01*
X146462857Y-137420000D01*
X146391429Y-137491429D01*
X146355714Y-137562857D01*
X146320000Y-137705714D01*
X146320000Y-137812857D01*
X146355714Y-137955714D01*
X146391429Y-138027143D01*
X146462857Y-138098571D01*
X146570000Y-138134286D01*
X146641429Y-138134286D01*
X146748572Y-138098571D01*
X146784286Y-138062857D01*
X146784286Y-137812857D01*
X146641429Y-137812857D01*
X147105714Y-138134286D02*
X147105714Y-137384286D01*
X147534286Y-138134286D01*
X147534286Y-137384286D01*
X147891428Y-138134286D02*
X147891428Y-137384286D01*
X148070000Y-137384286D01*
X148177143Y-137420000D01*
X148248571Y-137491429D01*
X148284286Y-137562857D01*
X148320000Y-137705714D01*
X148320000Y-137812857D01*
X148284286Y-137955714D01*
X148248571Y-138027143D01*
X148177143Y-138098571D01*
X148070000Y-138134286D01*
X147891428Y-138134286D01*
X193762429Y-137384286D02*
X194226715Y-137384286D01*
X193976715Y-137670000D01*
X194083857Y-137670000D01*
X194155286Y-137705714D01*
X194191000Y-137741429D01*
X194226715Y-137812857D01*
X194226715Y-137991429D01*
X194191000Y-138062857D01*
X194155286Y-138098571D01*
X194083857Y-138134286D01*
X193869572Y-138134286D01*
X193798143Y-138098571D01*
X193762429Y-138062857D01*
X194441001Y-137384286D02*
X194691001Y-138134286D01*
X194941001Y-137384286D01*
X195119572Y-137384286D02*
X195583858Y-137384286D01*
X195333858Y-137670000D01*
X195441000Y-137670000D01*
X195512429Y-137705714D01*
X195548143Y-137741429D01*
X195583858Y-137812857D01*
X195583858Y-137991429D01*
X195548143Y-138062857D01*
X195512429Y-138098571D01*
X195441000Y-138134286D01*
X195226715Y-138134286D01*
X195155286Y-138098571D01*
X195119572Y-138062857D01*
X190367143Y-138098571D02*
X190474286Y-138134286D01*
X190652857Y-138134286D01*
X190724286Y-138098571D01*
X190760000Y-138062857D01*
X190795715Y-137991429D01*
X190795715Y-137920000D01*
X190760000Y-137848571D01*
X190724286Y-137812857D01*
X190652857Y-137777143D01*
X190510000Y-137741429D01*
X190438572Y-137705714D01*
X190402857Y-137670000D01*
X190367143Y-137598571D01*
X190367143Y-137527143D01*
X190402857Y-137455714D01*
X190438572Y-137420000D01*
X190510000Y-137384286D01*
X190688572Y-137384286D01*
X190795715Y-137420000D01*
X191117143Y-138134286D02*
X191117143Y-137384286D01*
X191867144Y-137420000D02*
X191795715Y-137384286D01*
X191688572Y-137384286D01*
X191581429Y-137420000D01*
X191510001Y-137491429D01*
X191474286Y-137562857D01*
X191438572Y-137705714D01*
X191438572Y-137812857D01*
X191474286Y-137955714D01*
X191510001Y-138027143D01*
X191581429Y-138098571D01*
X191688572Y-138134286D01*
X191760001Y-138134286D01*
X191867144Y-138098571D01*
X191902858Y-138062857D01*
X191902858Y-137812857D01*
X191760001Y-137812857D01*
X187007572Y-137420000D02*
X186936143Y-137384286D01*
X186829000Y-137384286D01*
X186721857Y-137420000D01*
X186650429Y-137491429D01*
X186614714Y-137562857D01*
X186579000Y-137705714D01*
X186579000Y-137812857D01*
X186614714Y-137955714D01*
X186650429Y-138027143D01*
X186721857Y-138098571D01*
X186829000Y-138134286D01*
X186900429Y-138134286D01*
X187007572Y-138098571D01*
X187043286Y-138062857D01*
X187043286Y-137812857D01*
X186900429Y-137812857D01*
X187364714Y-138134286D02*
X187364714Y-137384286D01*
X187793286Y-138134286D01*
X187793286Y-137384286D01*
X188150428Y-138134286D02*
X188150428Y-137384286D01*
X188329000Y-137384286D01*
X188436143Y-137420000D01*
X188507571Y-137491429D01*
X188543286Y-137562857D01*
X188579000Y-137705714D01*
X188579000Y-137812857D01*
X188543286Y-137955714D01*
X188507571Y-138027143D01*
X188436143Y-138098571D01*
X188329000Y-138134286D01*
X188150428Y-138134286D01*
D12*
X184135000Y-147133571D02*
X184992143Y-147133571D01*
X184563572Y-148633571D02*
X184563572Y-147133571D01*
X186063571Y-148562143D02*
X185920714Y-148633571D01*
X185635000Y-148633571D01*
X185492143Y-148562143D01*
X185420714Y-148419286D01*
X185420714Y-147847857D01*
X185492143Y-147705000D01*
X185635000Y-147633571D01*
X185920714Y-147633571D01*
X186063571Y-147705000D01*
X186135000Y-147847857D01*
X186135000Y-147990714D01*
X185420714Y-148133571D01*
X186777857Y-148633571D02*
X186777857Y-147633571D01*
X186777857Y-147776429D02*
X186849285Y-147705000D01*
X186992143Y-147633571D01*
X187206428Y-147633571D01*
X187349285Y-147705000D01*
X187420714Y-147847857D01*
X187420714Y-148633571D01*
X187420714Y-147847857D02*
X187492143Y-147705000D01*
X187635000Y-147633571D01*
X187849285Y-147633571D01*
X187992143Y-147705000D01*
X188063571Y-147847857D01*
X188063571Y-148633571D01*
X188777857Y-147633571D02*
X188777857Y-149133571D01*
X188777857Y-147705000D02*
X188920714Y-147633571D01*
X189206428Y-147633571D01*
X189349285Y-147705000D01*
X189420714Y-147776429D01*
X189492143Y-147919286D01*
X189492143Y-148347857D01*
X189420714Y-148490714D01*
X189349285Y-148562143D01*
X189206428Y-148633571D01*
X188920714Y-148633571D01*
X188777857Y-148562143D01*
X191206428Y-148562143D02*
X191349285Y-148633571D01*
X191635000Y-148633571D01*
X191777857Y-148562143D01*
X191849285Y-148419286D01*
X191849285Y-148347857D01*
X191777857Y-148205000D01*
X191635000Y-148133571D01*
X191420714Y-148133571D01*
X191277857Y-148062143D01*
X191206428Y-147919286D01*
X191206428Y-147847857D01*
X191277857Y-147705000D01*
X191420714Y-147633571D01*
X191635000Y-147633571D01*
X191777857Y-147705000D01*
X193063571Y-148562143D02*
X192920714Y-148633571D01*
X192635000Y-148633571D01*
X192492143Y-148562143D01*
X192420714Y-148419286D01*
X192420714Y-147847857D01*
X192492143Y-147705000D01*
X192635000Y-147633571D01*
X192920714Y-147633571D01*
X193063571Y-147705000D01*
X193135000Y-147847857D01*
X193135000Y-147990714D01*
X192420714Y-148133571D01*
X193777857Y-147633571D02*
X193777857Y-148633571D01*
X193777857Y-147776429D02*
X193849285Y-147705000D01*
X193992143Y-147633571D01*
X194206428Y-147633571D01*
X194349285Y-147705000D01*
X194420714Y-147847857D01*
X194420714Y-148633571D01*
X195063571Y-148562143D02*
X195206428Y-148633571D01*
X195492143Y-148633571D01*
X195635000Y-148562143D01*
X195706428Y-148419286D01*
X195706428Y-148347857D01*
X195635000Y-148205000D01*
X195492143Y-148133571D01*
X195277857Y-148133571D01*
X195135000Y-148062143D01*
X195063571Y-147919286D01*
X195063571Y-147847857D01*
X195135000Y-147705000D01*
X195277857Y-147633571D01*
X195492143Y-147633571D01*
X195635000Y-147705000D01*
X196563572Y-148633571D02*
X196420714Y-148562143D01*
X196349286Y-148490714D01*
X196277857Y-148347857D01*
X196277857Y-147919286D01*
X196349286Y-147776429D01*
X196420714Y-147705000D01*
X196563572Y-147633571D01*
X196777857Y-147633571D01*
X196920714Y-147705000D01*
X196992143Y-147776429D01*
X197063572Y-147919286D01*
X197063572Y-148347857D01*
X196992143Y-148490714D01*
X196920714Y-148562143D01*
X196777857Y-148633571D01*
X196563572Y-148633571D01*
X197706429Y-148633571D02*
X197706429Y-147633571D01*
X197706429Y-147919286D02*
X197777857Y-147776429D01*
X197849286Y-147705000D01*
X197992143Y-147633571D01*
X198135000Y-147633571D01*
X168715715Y-144037857D02*
X168215715Y-144037857D01*
X168215715Y-144823571D02*
X168215715Y-143323571D01*
X168930001Y-143323571D01*
X169287143Y-143323571D02*
X170144286Y-143323571D01*
X169715715Y-144823571D02*
X169715715Y-143323571D01*
X170644286Y-144823571D02*
X170644286Y-143323571D01*
X171001429Y-143323571D01*
X171215714Y-143395000D01*
X171358572Y-143537857D01*
X171430000Y-143680714D01*
X171501429Y-143966429D01*
X171501429Y-144180714D01*
X171430000Y-144466429D01*
X171358572Y-144609286D01*
X171215714Y-144752143D01*
X171001429Y-144823571D01*
X170644286Y-144823571D01*
X172144286Y-144823571D02*
X172144286Y-143323571D01*
X160980715Y-124503571D02*
X160980715Y-123003571D01*
X162552144Y-124360714D02*
X162480715Y-124432143D01*
X162266429Y-124503571D01*
X162123572Y-124503571D01*
X161909287Y-124432143D01*
X161766429Y-124289286D01*
X161695001Y-124146429D01*
X161623572Y-123860714D01*
X161623572Y-123646429D01*
X161695001Y-123360714D01*
X161766429Y-123217857D01*
X161909287Y-123075000D01*
X162123572Y-123003571D01*
X162266429Y-123003571D01*
X162480715Y-123075000D01*
X162552144Y-123146429D01*
X163123572Y-124432143D02*
X163337858Y-124503571D01*
X163695001Y-124503571D01*
X163837858Y-124432143D01*
X163909287Y-124360714D01*
X163980715Y-124217857D01*
X163980715Y-124075000D01*
X163909287Y-123932143D01*
X163837858Y-123860714D01*
X163695001Y-123789286D01*
X163409287Y-123717857D01*
X163266429Y-123646429D01*
X163195001Y-123575000D01*
X163123572Y-123432143D01*
X163123572Y-123289286D01*
X163195001Y-123146429D01*
X163266429Y-123075000D01*
X163409287Y-123003571D01*
X163766429Y-123003571D01*
X163980715Y-123075000D01*
X164623572Y-124503571D02*
X164623572Y-123003571D01*
X165195000Y-123003571D01*
X165337858Y-123075000D01*
X165409286Y-123146429D01*
X165480715Y-123289286D01*
X165480715Y-123503571D01*
X165409286Y-123646429D01*
X165337858Y-123717857D01*
X165195000Y-123789286D01*
X164623572Y-123789286D01*
X83792858Y-130697857D02*
X84292858Y-130697857D01*
X84507144Y-131483571D02*
X83792858Y-131483571D01*
X83792858Y-129983571D01*
X84507144Y-129983571D01*
X85150001Y-130483571D02*
X85150001Y-131483571D01*
X85150001Y-130626429D02*
X85221429Y-130555000D01*
X85364287Y-130483571D01*
X85578572Y-130483571D01*
X85721429Y-130555000D01*
X85792858Y-130697857D01*
X85792858Y-131483571D01*
X87150001Y-131412143D02*
X87007144Y-131483571D01*
X86721430Y-131483571D01*
X86578572Y-131412143D01*
X86507144Y-131340714D01*
X86435715Y-131197857D01*
X86435715Y-130769286D01*
X86507144Y-130626429D01*
X86578572Y-130555000D01*
X86721430Y-130483571D01*
X87007144Y-130483571D01*
X87150001Y-130555000D01*
X88007144Y-131483571D02*
X87864286Y-131412143D01*
X87792858Y-131269286D01*
X87792858Y-129983571D01*
X88792858Y-131483571D02*
X88650000Y-131412143D01*
X88578572Y-131340714D01*
X88507143Y-131197857D01*
X88507143Y-130769286D01*
X88578572Y-130626429D01*
X88650000Y-130555000D01*
X88792858Y-130483571D01*
X89007143Y-130483571D01*
X89150000Y-130555000D01*
X89221429Y-130626429D01*
X89292858Y-130769286D01*
X89292858Y-131197857D01*
X89221429Y-131340714D01*
X89150000Y-131412143D01*
X89007143Y-131483571D01*
X88792858Y-131483571D01*
X89864286Y-131412143D02*
X90007143Y-131483571D01*
X90292858Y-131483571D01*
X90435715Y-131412143D01*
X90507143Y-131269286D01*
X90507143Y-131197857D01*
X90435715Y-131055000D01*
X90292858Y-130983571D01*
X90078572Y-130983571D01*
X89935715Y-130912143D01*
X89864286Y-130769286D01*
X89864286Y-130697857D01*
X89935715Y-130555000D01*
X90078572Y-130483571D01*
X90292858Y-130483571D01*
X90435715Y-130555000D01*
X91792858Y-130483571D02*
X91792858Y-131483571D01*
X91150001Y-130483571D02*
X91150001Y-131269286D01*
X91221429Y-131412143D01*
X91364287Y-131483571D01*
X91578572Y-131483571D01*
X91721429Y-131412143D01*
X91792858Y-131340714D01*
X92507144Y-131483571D02*
X92507144Y-130483571D01*
X92507144Y-130769286D02*
X92578572Y-130626429D01*
X92650001Y-130555000D01*
X92792858Y-130483571D01*
X92935715Y-130483571D01*
X94007143Y-131412143D02*
X93864286Y-131483571D01*
X93578572Y-131483571D01*
X93435715Y-131412143D01*
X93364286Y-131269286D01*
X93364286Y-130697857D01*
X93435715Y-130555000D01*
X93578572Y-130483571D01*
X93864286Y-130483571D01*
X94007143Y-130555000D01*
X94078572Y-130697857D01*
X94078572Y-130840714D01*
X93364286Y-130983571D01*
X86935714Y-133962143D02*
X86792857Y-134033571D01*
X86507143Y-134033571D01*
X86364286Y-133962143D01*
X86292857Y-133819286D01*
X86292857Y-133247857D01*
X86364286Y-133105000D01*
X86507143Y-133033571D01*
X86792857Y-133033571D01*
X86935714Y-133105000D01*
X87007143Y-133247857D01*
X87007143Y-133390714D01*
X86292857Y-133533571D01*
X88292857Y-134033571D02*
X88292857Y-133247857D01*
X88221428Y-133105000D01*
X88078571Y-133033571D01*
X87792857Y-133033571D01*
X87650000Y-133105000D01*
X88292857Y-133962143D02*
X88150000Y-134033571D01*
X87792857Y-134033571D01*
X87650000Y-133962143D01*
X87578571Y-133819286D01*
X87578571Y-133676429D01*
X87650000Y-133533571D01*
X87792857Y-133462143D01*
X88150000Y-133462143D01*
X88292857Y-133390714D01*
X89007143Y-134033571D02*
X89007143Y-133033571D01*
X89007143Y-133319286D02*
X89078571Y-133176429D01*
X89150000Y-133105000D01*
X89292857Y-133033571D01*
X89435714Y-133033571D01*
X89721428Y-133033571D02*
X90292857Y-133033571D01*
X89935714Y-132533571D02*
X89935714Y-133819286D01*
X90007142Y-133962143D01*
X90150000Y-134033571D01*
X90292857Y-134033571D01*
X90792857Y-134033571D02*
X90792857Y-132533571D01*
X91435714Y-134033571D02*
X91435714Y-133247857D01*
X91364285Y-133105000D01*
X91221428Y-133033571D01*
X91007143Y-133033571D01*
X90864285Y-133105000D01*
X90792857Y-133176429D01*
X120368571Y-131483571D02*
X120368571Y-129983571D01*
X120868571Y-131055000D01*
X121368571Y-129983571D01*
X121368571Y-131483571D01*
X122725714Y-131483571D02*
X122725714Y-130697857D01*
X122654285Y-130555000D01*
X122511428Y-130483571D01*
X122225714Y-130483571D01*
X122082857Y-130555000D01*
X122725714Y-131412143D02*
X122582857Y-131483571D01*
X122225714Y-131483571D01*
X122082857Y-131412143D01*
X122011428Y-131269286D01*
X122011428Y-131126429D01*
X122082857Y-130983571D01*
X122225714Y-130912143D01*
X122582857Y-130912143D01*
X122725714Y-130840714D01*
X123440000Y-131483571D02*
X123440000Y-130483571D01*
X123440000Y-129983571D02*
X123368571Y-130055000D01*
X123440000Y-130126429D01*
X123511428Y-130055000D01*
X123440000Y-129983571D01*
X123440000Y-130126429D01*
X124154286Y-130483571D02*
X124154286Y-131483571D01*
X124154286Y-130626429D02*
X124225714Y-130555000D01*
X124368572Y-130483571D01*
X124582857Y-130483571D01*
X124725714Y-130555000D01*
X124797143Y-130697857D01*
X124797143Y-131483571D01*
X125440000Y-131412143D02*
X125582857Y-131483571D01*
X125868572Y-131483571D01*
X126011429Y-131412143D01*
X126082857Y-131269286D01*
X126082857Y-131197857D01*
X126011429Y-131055000D01*
X125868572Y-130983571D01*
X125654286Y-130983571D01*
X125511429Y-130912143D01*
X125440000Y-130769286D01*
X125440000Y-130697857D01*
X125511429Y-130555000D01*
X125654286Y-130483571D01*
X125868572Y-130483571D01*
X126011429Y-130555000D01*
X121975715Y-134033571D02*
X121832857Y-133962143D01*
X121761429Y-133890714D01*
X121690000Y-133747857D01*
X121690000Y-133319286D01*
X121761429Y-133176429D01*
X121832857Y-133105000D01*
X121975715Y-133033571D01*
X122190000Y-133033571D01*
X122332857Y-133105000D01*
X122404286Y-133176429D01*
X122475715Y-133319286D01*
X122475715Y-133747857D01*
X122404286Y-133890714D01*
X122332857Y-133962143D01*
X122190000Y-134033571D01*
X121975715Y-134033571D01*
X123761429Y-133033571D02*
X123761429Y-134033571D01*
X123118572Y-133033571D02*
X123118572Y-133819286D01*
X123190000Y-133962143D01*
X123332858Y-134033571D01*
X123547143Y-134033571D01*
X123690000Y-133962143D01*
X123761429Y-133890714D01*
X124261429Y-133033571D02*
X124832858Y-133033571D01*
X124475715Y-132533571D02*
X124475715Y-133819286D01*
X124547143Y-133962143D01*
X124690001Y-134033571D01*
X124832858Y-134033571D01*
X101318571Y-131483571D02*
X101318571Y-129983571D01*
X101818571Y-131055000D01*
X102318571Y-129983571D01*
X102318571Y-131483571D01*
X103675714Y-131483571D02*
X103675714Y-130697857D01*
X103604285Y-130555000D01*
X103461428Y-130483571D01*
X103175714Y-130483571D01*
X103032857Y-130555000D01*
X103675714Y-131412143D02*
X103532857Y-131483571D01*
X103175714Y-131483571D01*
X103032857Y-131412143D01*
X102961428Y-131269286D01*
X102961428Y-131126429D01*
X103032857Y-130983571D01*
X103175714Y-130912143D01*
X103532857Y-130912143D01*
X103675714Y-130840714D01*
X104390000Y-131483571D02*
X104390000Y-130483571D01*
X104390000Y-129983571D02*
X104318571Y-130055000D01*
X104390000Y-130126429D01*
X104461428Y-130055000D01*
X104390000Y-129983571D01*
X104390000Y-130126429D01*
X105104286Y-130483571D02*
X105104286Y-131483571D01*
X105104286Y-130626429D02*
X105175714Y-130555000D01*
X105318572Y-130483571D01*
X105532857Y-130483571D01*
X105675714Y-130555000D01*
X105747143Y-130697857D01*
X105747143Y-131483571D01*
X106390000Y-131412143D02*
X106532857Y-131483571D01*
X106818572Y-131483571D01*
X106961429Y-131412143D01*
X107032857Y-131269286D01*
X107032857Y-131197857D01*
X106961429Y-131055000D01*
X106818572Y-130983571D01*
X106604286Y-130983571D01*
X106461429Y-130912143D01*
X106390000Y-130769286D01*
X106390000Y-130697857D01*
X106461429Y-130555000D01*
X106604286Y-130483571D01*
X106818572Y-130483571D01*
X106961429Y-130555000D01*
X103461429Y-134033571D02*
X103461429Y-133033571D01*
X103461429Y-132533571D02*
X103390000Y-132605000D01*
X103461429Y-132676429D01*
X103532857Y-132605000D01*
X103461429Y-132533571D01*
X103461429Y-132676429D01*
X104175715Y-133033571D02*
X104175715Y-134033571D01*
X104175715Y-133176429D02*
X104247143Y-133105000D01*
X104390001Y-133033571D01*
X104604286Y-133033571D01*
X104747143Y-133105000D01*
X104818572Y-133247857D01*
X104818572Y-134033571D01*
D13*
X160990475Y-56464524D02*
X161276190Y-56559762D01*
X161752380Y-56559762D01*
X161942856Y-56464524D01*
X162038094Y-56369286D01*
X162133333Y-56178810D01*
X162133333Y-55988333D01*
X162038094Y-55797857D01*
X161942856Y-55702619D01*
X161752380Y-55607381D01*
X161371428Y-55512143D01*
X161180952Y-55416905D01*
X161085713Y-55321667D01*
X160990475Y-55131190D01*
X160990475Y-54940714D01*
X161085713Y-54750238D01*
X161180952Y-54655000D01*
X161371428Y-54559762D01*
X161847618Y-54559762D01*
X162133333Y-54655000D01*
X163276190Y-56559762D02*
X163085714Y-56464524D01*
X162990475Y-56274048D01*
X162990475Y-54559762D01*
X164323809Y-56559762D02*
X164133333Y-56464524D01*
X164038094Y-56369286D01*
X163942856Y-56178810D01*
X163942856Y-55607381D01*
X164038094Y-55416905D01*
X164133333Y-55321667D01*
X164323809Y-55226429D01*
X164609523Y-55226429D01*
X164799999Y-55321667D01*
X164895237Y-55416905D01*
X164990475Y-55607381D01*
X164990475Y-56178810D01*
X164895237Y-56369286D01*
X164799999Y-56464524D01*
X164609523Y-56559762D01*
X164323809Y-56559762D01*
X165657142Y-55226429D02*
X166038095Y-56559762D01*
X166419047Y-55607381D01*
X166799999Y-56559762D01*
X167180952Y-55226429D01*
X170323809Y-56464524D02*
X170133333Y-56559762D01*
X169752381Y-56559762D01*
X169561905Y-56464524D01*
X169466666Y-56369286D01*
X169371428Y-56178810D01*
X169371428Y-55607381D01*
X169466666Y-55416905D01*
X169561905Y-55321667D01*
X169752381Y-55226429D01*
X170133333Y-55226429D01*
X170323809Y-55321667D01*
X171466667Y-56559762D02*
X171276191Y-56464524D01*
X171180952Y-56369286D01*
X171085714Y-56178810D01*
X171085714Y-55607381D01*
X171180952Y-55416905D01*
X171276191Y-55321667D01*
X171466667Y-55226429D01*
X171752381Y-55226429D01*
X171942857Y-55321667D01*
X172038095Y-55416905D01*
X172133333Y-55607381D01*
X172133333Y-56178810D01*
X172038095Y-56369286D01*
X171942857Y-56464524D01*
X171752381Y-56559762D01*
X171466667Y-56559762D01*
X173276191Y-56559762D02*
X173085715Y-56464524D01*
X172990476Y-56369286D01*
X172895238Y-56178810D01*
X172895238Y-55607381D01*
X172990476Y-55416905D01*
X173085715Y-55321667D01*
X173276191Y-55226429D01*
X173561905Y-55226429D01*
X173752381Y-55321667D01*
X173847619Y-55416905D01*
X173942857Y-55607381D01*
X173942857Y-56178810D01*
X173847619Y-56369286D01*
X173752381Y-56464524D01*
X173561905Y-56559762D01*
X173276191Y-56559762D01*
X174800000Y-56559762D02*
X174800000Y-54559762D01*
X174990477Y-55797857D02*
X175561905Y-56559762D01*
X175561905Y-55226429D02*
X174800000Y-55988333D01*
X177180953Y-56464524D02*
X176990477Y-56559762D01*
X176609525Y-56559762D01*
X176419048Y-56464524D01*
X176323810Y-56274048D01*
X176323810Y-55512143D01*
X176419048Y-55321667D01*
X176609525Y-55226429D01*
X176990477Y-55226429D01*
X177180953Y-55321667D01*
X177276191Y-55512143D01*
X177276191Y-55702619D01*
X176323810Y-55893095D01*
X178133334Y-56559762D02*
X178133334Y-55226429D01*
X178133334Y-55607381D02*
X178228573Y-55416905D01*
X178323811Y-55321667D01*
X178514287Y-55226429D01*
X178704763Y-55226429D01*
X181752382Y-56464524D02*
X181561906Y-56559762D01*
X181180954Y-56559762D01*
X180990478Y-56464524D01*
X180895239Y-56369286D01*
X180800001Y-56178810D01*
X180800001Y-55607381D01*
X180895239Y-55416905D01*
X180990478Y-55321667D01*
X181180954Y-55226429D01*
X181561906Y-55226429D01*
X181752382Y-55321667D01*
X182895240Y-56559762D02*
X182704764Y-56464524D01*
X182609525Y-56369286D01*
X182514287Y-56178810D01*
X182514287Y-55607381D01*
X182609525Y-55416905D01*
X182704764Y-55321667D01*
X182895240Y-55226429D01*
X183180954Y-55226429D01*
X183371430Y-55321667D01*
X183466668Y-55416905D01*
X183561906Y-55607381D01*
X183561906Y-56178810D01*
X183466668Y-56369286D01*
X183371430Y-56464524D01*
X183180954Y-56559762D01*
X182895240Y-56559762D01*
X184419049Y-55226429D02*
X184419049Y-56559762D01*
X184419049Y-55416905D02*
X184514288Y-55321667D01*
X184704764Y-55226429D01*
X184990478Y-55226429D01*
X185180954Y-55321667D01*
X185276192Y-55512143D01*
X185276192Y-56559762D01*
X185942859Y-55226429D02*
X186704764Y-55226429D01*
X186228573Y-54559762D02*
X186228573Y-56274048D01*
X186323812Y-56464524D01*
X186514288Y-56559762D01*
X186704764Y-56559762D01*
X187371430Y-56559762D02*
X187371430Y-55226429D01*
X187371430Y-55607381D02*
X187466669Y-55416905D01*
X187561907Y-55321667D01*
X187752383Y-55226429D01*
X187942859Y-55226429D01*
X188895240Y-56559762D02*
X188704764Y-56464524D01*
X188609525Y-56369286D01*
X188514287Y-56178810D01*
X188514287Y-55607381D01*
X188609525Y-55416905D01*
X188704764Y-55321667D01*
X188895240Y-55226429D01*
X189180954Y-55226429D01*
X189371430Y-55321667D01*
X189466668Y-55416905D01*
X189561906Y-55607381D01*
X189561906Y-56178810D01*
X189466668Y-56369286D01*
X189371430Y-56464524D01*
X189180954Y-56559762D01*
X188895240Y-56559762D01*
X190704764Y-56559762D02*
X190514288Y-56464524D01*
X190419049Y-56274048D01*
X190419049Y-54559762D01*
X191752383Y-56559762D02*
X191561907Y-56464524D01*
X191466668Y-56274048D01*
X191466668Y-54559762D01*
X193276192Y-56464524D02*
X193085716Y-56559762D01*
X192704764Y-56559762D01*
X192514287Y-56464524D01*
X192419049Y-56274048D01*
X192419049Y-55512143D01*
X192514287Y-55321667D01*
X192704764Y-55226429D01*
X193085716Y-55226429D01*
X193276192Y-55321667D01*
X193371430Y-55512143D01*
X193371430Y-55702619D01*
X192419049Y-55893095D01*
X194228573Y-56559762D02*
X194228573Y-55226429D01*
X194228573Y-55607381D02*
X194323812Y-55416905D01*
X194419050Y-55321667D01*
X194609526Y-55226429D01*
X194800002Y-55226429D01*
X174942857Y-58626429D02*
X175419048Y-59959762D01*
X175895238Y-58626429D01*
X177704763Y-59959762D02*
X176561905Y-59959762D01*
X177133334Y-59959762D02*
X177133334Y-57959762D01*
X176942858Y-58245476D01*
X176752382Y-58435952D01*
X176561905Y-58531190D01*
X178561905Y-59769286D02*
X178657144Y-59864524D01*
X178561905Y-59959762D01*
X178466667Y-59864524D01*
X178561905Y-59769286D01*
X178561905Y-59959762D01*
X179895239Y-57959762D02*
X180085715Y-57959762D01*
X180276191Y-58055000D01*
X180371429Y-58150238D01*
X180466667Y-58340714D01*
X180561906Y-58721667D01*
X180561906Y-59197857D01*
X180466667Y-59578810D01*
X180371429Y-59769286D01*
X180276191Y-59864524D01*
X180085715Y-59959762D01*
X179895239Y-59959762D01*
X179704763Y-59864524D01*
X179609525Y-59769286D01*
X179514286Y-59578810D01*
X179419048Y-59197857D01*
X179419048Y-58721667D01*
X179514286Y-58340714D01*
X179609525Y-58150238D01*
X179704763Y-58055000D01*
X179895239Y-57959762D01*
X168847617Y-63264524D02*
X169133332Y-63359762D01*
X169609522Y-63359762D01*
X169799998Y-63264524D01*
X169895236Y-63169286D01*
X169990475Y-62978810D01*
X169990475Y-62788333D01*
X169895236Y-62597857D01*
X169799998Y-62502619D01*
X169609522Y-62407381D01*
X169228570Y-62312143D01*
X169038094Y-62216905D01*
X168942855Y-62121667D01*
X168847617Y-61931190D01*
X168847617Y-61740714D01*
X168942855Y-61550238D01*
X169038094Y-61455000D01*
X169228570Y-61359762D01*
X169704760Y-61359762D01*
X169990475Y-61455000D01*
X171609522Y-63264524D02*
X171419046Y-63359762D01*
X171038094Y-63359762D01*
X170847617Y-63264524D01*
X170752379Y-63074048D01*
X170752379Y-62312143D01*
X170847617Y-62121667D01*
X171038094Y-62026429D01*
X171419046Y-62026429D01*
X171609522Y-62121667D01*
X171704760Y-62312143D01*
X171704760Y-62502619D01*
X170752379Y-62693095D01*
X173419046Y-63359762D02*
X173419046Y-62312143D01*
X173323808Y-62121667D01*
X173133332Y-62026429D01*
X172752380Y-62026429D01*
X172561903Y-62121667D01*
X173419046Y-63264524D02*
X173228570Y-63359762D01*
X172752380Y-63359762D01*
X172561903Y-63264524D01*
X172466665Y-63074048D01*
X172466665Y-62883571D01*
X172561903Y-62693095D01*
X172752380Y-62597857D01*
X173228570Y-62597857D01*
X173419046Y-62502619D01*
X174371427Y-62026429D02*
X174371427Y-63359762D01*
X174371427Y-62216905D02*
X174466666Y-62121667D01*
X174657142Y-62026429D01*
X174942856Y-62026429D01*
X175133332Y-62121667D01*
X175228570Y-62312143D01*
X175228570Y-63359762D01*
X178657142Y-63359762D02*
X177704761Y-63359762D01*
X177704761Y-61359762D01*
X180085714Y-63264524D02*
X179895238Y-63359762D01*
X179514286Y-63359762D01*
X179323809Y-63264524D01*
X179228571Y-63074048D01*
X179228571Y-62312143D01*
X179323809Y-62121667D01*
X179514286Y-62026429D01*
X179895238Y-62026429D01*
X180085714Y-62121667D01*
X180180952Y-62312143D01*
X180180952Y-62502619D01*
X179228571Y-62693095D01*
X181895238Y-63359762D02*
X181895238Y-62312143D01*
X181800000Y-62121667D01*
X181609524Y-62026429D01*
X181228572Y-62026429D01*
X181038095Y-62121667D01*
X181895238Y-63264524D02*
X181704762Y-63359762D01*
X181228572Y-63359762D01*
X181038095Y-63264524D01*
X180942857Y-63074048D01*
X180942857Y-62883571D01*
X181038095Y-62693095D01*
X181228572Y-62597857D01*
X181704762Y-62597857D01*
X181895238Y-62502619D01*
X182657143Y-62026429D02*
X183133334Y-63359762D01*
X183609524Y-62026429D01*
X185133334Y-63264524D02*
X184942858Y-63359762D01*
X184561906Y-63359762D01*
X184371429Y-63264524D01*
X184276191Y-63074048D01*
X184276191Y-62312143D01*
X184371429Y-62121667D01*
X184561906Y-62026429D01*
X184942858Y-62026429D01*
X185133334Y-62121667D01*
X185228572Y-62312143D01*
X185228572Y-62502619D01*
X184276191Y-62693095D01*
X185895239Y-62026429D02*
X186371430Y-63359762D01*
X186847620Y-62026429D02*
X186371430Y-63359762D01*
X186180954Y-63835952D01*
X186085715Y-63931190D01*
X185895239Y-64026429D01*
D11*
X184670000Y-134200000D02*
X184670000Y-133975000D01*
X177420000Y-134200000D02*
X177420000Y-133875000D01*
X177420000Y-126950000D02*
X177420000Y-127275000D01*
X184670000Y-126950000D02*
X184670000Y-127275000D01*
X184670000Y-134200000D02*
X184345000Y-134200000D01*
X184670000Y-126950000D02*
X184345000Y-126950000D01*
X177420000Y-126950000D02*
X177745000Y-126950000D01*
X177420000Y-134200000D02*
X177745000Y-134200000D01*
X184670000Y-133975000D02*
X186095000Y-133975000D01*
X194655000Y-120691000D02*
X194655000Y-125689000D01*
X194795000Y-120699000D02*
X194795000Y-123036000D01*
X194795000Y-123344000D02*
X194795000Y-125681000D01*
X194935000Y-120715000D02*
X194935000Y-122717000D01*
X194935000Y-123663000D02*
X194935000Y-125665000D01*
X195075000Y-120739000D02*
X195075000Y-122570000D01*
X195075000Y-123810000D02*
X195075000Y-125641000D01*
X195215000Y-120772000D02*
X195215000Y-122478000D01*
X195215000Y-123902000D02*
X195215000Y-125608000D01*
X195355000Y-120813000D02*
X195355000Y-122422000D01*
X195355000Y-123958000D02*
X195355000Y-125567000D01*
X195495000Y-120863000D02*
X195495000Y-122395000D01*
X195495000Y-123985000D02*
X195495000Y-125517000D01*
X195635000Y-120924000D02*
X195635000Y-122392000D01*
X195635000Y-123988000D02*
X195635000Y-125456000D01*
X195775000Y-120994000D02*
X195775000Y-122414000D01*
X195775000Y-123966000D02*
X195775000Y-125386000D01*
X195915000Y-121076000D02*
X195915000Y-122464000D01*
X195915000Y-123916000D02*
X195915000Y-125304000D01*
X196055000Y-121171000D02*
X196055000Y-122546000D01*
X196055000Y-123834000D02*
X196055000Y-125209000D01*
X196195000Y-121282000D02*
X196195000Y-122678000D01*
X196195000Y-123702000D02*
X196195000Y-125098000D01*
X196335000Y-121410000D02*
X196335000Y-122925000D01*
X196335000Y-123455000D02*
X196335000Y-124970000D01*
X196475000Y-121559000D02*
X196475000Y-124821000D01*
X196615000Y-121738000D02*
X196615000Y-124642000D01*
X196755000Y-121957000D02*
X196755000Y-124423000D01*
X196895000Y-122246000D02*
X196895000Y-124134000D01*
X197035000Y-122718000D02*
X197035000Y-123662000D01*
X196380000Y-123190000D02*
G75*
G03X196380000Y-123190000I-800000J0D01*
G01*
X197117500Y-123190000D02*
G75*
G03X197117500Y-123190000I-2537500J0D01*
G01*
X155534000Y-140140000D02*
X150536000Y-140140000D01*
X155526000Y-140280000D02*
X153189000Y-140280000D01*
X152881000Y-140280000D02*
X150544000Y-140280000D01*
X155510000Y-140420000D02*
X153508000Y-140420000D01*
X152562000Y-140420000D02*
X150560000Y-140420000D01*
X155486000Y-140560000D02*
X153655000Y-140560000D01*
X152415000Y-140560000D02*
X150584000Y-140560000D01*
X155453000Y-140700000D02*
X153747000Y-140700000D01*
X152323000Y-140700000D02*
X150617000Y-140700000D01*
X155412000Y-140840000D02*
X153803000Y-140840000D01*
X152267000Y-140840000D02*
X150658000Y-140840000D01*
X155362000Y-140980000D02*
X153830000Y-140980000D01*
X152240000Y-140980000D02*
X150708000Y-140980000D01*
X155301000Y-141120000D02*
X153833000Y-141120000D01*
X152237000Y-141120000D02*
X150769000Y-141120000D01*
X155231000Y-141260000D02*
X153811000Y-141260000D01*
X152259000Y-141260000D02*
X150839000Y-141260000D01*
X155149000Y-141400000D02*
X153761000Y-141400000D01*
X152309000Y-141400000D02*
X150921000Y-141400000D01*
X155054000Y-141540000D02*
X153679000Y-141540000D01*
X152391000Y-141540000D02*
X151016000Y-141540000D01*
X154943000Y-141680000D02*
X153547000Y-141680000D01*
X152523000Y-141680000D02*
X151127000Y-141680000D01*
X154815000Y-141820000D02*
X153300000Y-141820000D01*
X152770000Y-141820000D02*
X151255000Y-141820000D01*
X154666000Y-141960000D02*
X151404000Y-141960000D01*
X154487000Y-142100000D02*
X151583000Y-142100000D01*
X154268000Y-142240000D02*
X151802000Y-142240000D01*
X153979000Y-142380000D02*
X152091000Y-142380000D01*
X153507000Y-142520000D02*
X152563000Y-142520000D01*
X153835000Y-141065000D02*
G75*
G03X153835000Y-141065000I-800000J0D01*
G01*
X155572500Y-140065000D02*
G75*
G03X155572500Y-140065000I-2537500J0D01*
G01*
X190135000Y-136280000D02*
X192135000Y-136280000D01*
X192135000Y-134230000D02*
X190135000Y-134230000D01*
X186960000Y-124215000D02*
X188960000Y-124215000D01*
X188960000Y-122165000D02*
X186960000Y-122165000D01*
X171815000Y-129150000D02*
X169815000Y-129150000D01*
X169815000Y-131200000D02*
X171815000Y-131200000D01*
X162950000Y-135620000D02*
X162950000Y-133620000D01*
X160900000Y-133620000D02*
X160900000Y-135620000D01*
X127040000Y-78730000D02*
X127040000Y-78730000D01*
X132040000Y-60730000D02*
X127040000Y-60730000D01*
X127040000Y-60730000D02*
X127040000Y-78730000D01*
X127040000Y-78730000D02*
X132040000Y-78730000D01*
X132040000Y-78730000D02*
X132040000Y-60730000D01*
X138390000Y-60730000D02*
X138390000Y-60730000D01*
X133390000Y-78730000D02*
X138390000Y-78730000D01*
X138390000Y-78730000D02*
X138390000Y-60730000D01*
X138390000Y-60730000D02*
X133390000Y-60730000D01*
X133390000Y-60730000D02*
X133390000Y-78730000D01*
X168869000Y-134330000D02*
X163871000Y-134330000D01*
X168861000Y-134470000D02*
X166524000Y-134470000D01*
X166216000Y-134470000D02*
X163879000Y-134470000D01*
X168845000Y-134610000D02*
X166843000Y-134610000D01*
X165897000Y-134610000D02*
X163895000Y-134610000D01*
X168821000Y-134750000D02*
X166990000Y-134750000D01*
X165750000Y-134750000D02*
X163919000Y-134750000D01*
X168788000Y-134890000D02*
X167082000Y-134890000D01*
X165658000Y-134890000D02*
X163952000Y-134890000D01*
X168747000Y-135030000D02*
X167138000Y-135030000D01*
X165602000Y-135030000D02*
X163993000Y-135030000D01*
X168697000Y-135170000D02*
X167165000Y-135170000D01*
X165575000Y-135170000D02*
X164043000Y-135170000D01*
X168636000Y-135310000D02*
X167168000Y-135310000D01*
X165572000Y-135310000D02*
X164104000Y-135310000D01*
X168566000Y-135450000D02*
X167146000Y-135450000D01*
X165594000Y-135450000D02*
X164174000Y-135450000D01*
X168484000Y-135590000D02*
X167096000Y-135590000D01*
X165644000Y-135590000D02*
X164256000Y-135590000D01*
X168389000Y-135730000D02*
X167014000Y-135730000D01*
X165726000Y-135730000D02*
X164351000Y-135730000D01*
X168278000Y-135870000D02*
X166882000Y-135870000D01*
X165858000Y-135870000D02*
X164462000Y-135870000D01*
X168150000Y-136010000D02*
X166635000Y-136010000D01*
X166105000Y-136010000D02*
X164590000Y-136010000D01*
X168001000Y-136150000D02*
X164739000Y-136150000D01*
X167822000Y-136290000D02*
X164918000Y-136290000D01*
X167603000Y-136430000D02*
X165137000Y-136430000D01*
X167314000Y-136570000D02*
X165426000Y-136570000D01*
X166842000Y-136710000D02*
X165898000Y-136710000D01*
X167170000Y-135255000D02*
G75*
G03X167170000Y-135255000I-800000J0D01*
G01*
X168907500Y-134255000D02*
G75*
G03X168907500Y-134255000I-2537500J0D01*
G01*
X163730000Y-73060000D02*
X151230000Y-73060000D01*
X163726000Y-73200000D02*
X151234000Y-73200000D01*
X163720000Y-73340000D02*
X151240000Y-73340000D01*
X163710000Y-73480000D02*
X151250000Y-73480000D01*
X163698000Y-73620000D02*
X151262000Y-73620000D01*
X163682000Y-73760000D02*
X151278000Y-73760000D01*
X163663000Y-73900000D02*
X151297000Y-73900000D01*
X163640000Y-74040000D02*
X151320000Y-74040000D01*
X163615000Y-74180000D02*
X151345000Y-74180000D01*
X163586000Y-74320000D02*
X151374000Y-74320000D01*
X163553000Y-74460000D02*
X158001000Y-74460000D01*
X156959000Y-74460000D02*
X151407000Y-74460000D01*
X163518000Y-74600000D02*
X158214000Y-74600000D01*
X156746000Y-74600000D02*
X151442000Y-74600000D01*
X163479000Y-74740000D02*
X158356000Y-74740000D01*
X156604000Y-74740000D02*
X151481000Y-74740000D01*
X163436000Y-74880000D02*
X158458000Y-74880000D01*
X156502000Y-74880000D02*
X151524000Y-74880000D01*
X163389000Y-75020000D02*
X158532000Y-75020000D01*
X156428000Y-75020000D02*
X151571000Y-75020000D01*
X163339000Y-75160000D02*
X158583000Y-75160000D01*
X156377000Y-75160000D02*
X151621000Y-75160000D01*
X163285000Y-75300000D02*
X158615000Y-75300000D01*
X156345000Y-75300000D02*
X151675000Y-75300000D01*
X163228000Y-75440000D02*
X158629000Y-75440000D01*
X156331000Y-75440000D02*
X151732000Y-75440000D01*
X163166000Y-75580000D02*
X158626000Y-75580000D01*
X156334000Y-75580000D02*
X151794000Y-75580000D01*
X163100000Y-75720000D02*
X158606000Y-75720000D01*
X156354000Y-75720000D02*
X151860000Y-75720000D01*
X163029000Y-75860000D02*
X158567000Y-75860000D01*
X156393000Y-75860000D02*
X151931000Y-75860000D01*
X162955000Y-76000000D02*
X158508000Y-76000000D01*
X156452000Y-76000000D02*
X152005000Y-76000000D01*
X162875000Y-76140000D02*
X158425000Y-76140000D01*
X156535000Y-76140000D02*
X152085000Y-76140000D01*
X162791000Y-76280000D02*
X158311000Y-76280000D01*
X156649000Y-76280000D02*
X152169000Y-76280000D01*
X162701000Y-76420000D02*
X158150000Y-76420000D01*
X156810000Y-76420000D02*
X152259000Y-76420000D01*
X162607000Y-76560000D02*
X157889000Y-76560000D01*
X157071000Y-76560000D02*
X152353000Y-76560000D01*
X162506000Y-76700000D02*
X152454000Y-76700000D01*
X162399000Y-76840000D02*
X152561000Y-76840000D01*
X162287000Y-76980000D02*
X152673000Y-76980000D01*
X162167000Y-77120000D02*
X152793000Y-77120000D01*
X162039000Y-77260000D02*
X152921000Y-77260000D01*
X161904000Y-77400000D02*
X153056000Y-77400000D01*
X161760000Y-77540000D02*
X153200000Y-77540000D01*
X161605000Y-77680000D02*
X153355000Y-77680000D01*
X161440000Y-77820000D02*
X153520000Y-77820000D01*
X161263000Y-77960000D02*
X153697000Y-77960000D01*
X161072000Y-78100000D02*
X153888000Y-78100000D01*
X160863000Y-78240000D02*
X154097000Y-78240000D01*
X160635000Y-78380000D02*
X154325000Y-78380000D01*
X160383000Y-78520000D02*
X154577000Y-78520000D01*
X160099000Y-78660000D02*
X154861000Y-78660000D01*
X159771000Y-78800000D02*
X155189000Y-78800000D01*
X159377000Y-78940000D02*
X155583000Y-78940000D01*
X158863000Y-79080000D02*
X156097000Y-79080000D01*
X157913000Y-79220000D02*
X157047000Y-79220000D01*
X158630000Y-75485000D02*
G75*
G03X158630000Y-75485000I-1150000J0D01*
G01*
X163767500Y-72985000D02*
G75*
G03X163767500Y-72985000I-6287500J0D01*
G01*
X154980000Y-101603975D02*
X154980000Y-101603975D01*
X159980000Y-83603975D02*
X154980000Y-83603975D01*
X154980000Y-83603975D02*
X154980000Y-101603975D01*
X154980000Y-101603975D02*
X159980000Y-101603975D01*
X159980000Y-101603975D02*
X159980000Y-83603975D01*
X160575000Y-106491000D02*
X160575000Y-114489000D01*
X160715000Y-106496000D02*
X160715000Y-114484000D01*
X160855000Y-106506000D02*
X160855000Y-114474000D01*
X160995000Y-106521000D02*
X160995000Y-114459000D01*
X161135000Y-106541000D02*
X161135000Y-114439000D01*
X161275000Y-106566000D02*
X161275000Y-110268000D01*
X161275000Y-110712000D02*
X161275000Y-114414000D01*
X161415000Y-106596000D02*
X161415000Y-109940000D01*
X161415000Y-111040000D02*
X161415000Y-114384000D01*
X161555000Y-106632000D02*
X161555000Y-109771000D01*
X161555000Y-111209000D02*
X161555000Y-114348000D01*
X161695000Y-106673000D02*
X161695000Y-109658000D01*
X161695000Y-111322000D02*
X161695000Y-114307000D01*
X161835000Y-106719000D02*
X161835000Y-109580000D01*
X161835000Y-111400000D02*
X161835000Y-114261000D01*
X161975000Y-106772000D02*
X161975000Y-109529000D01*
X161975000Y-111451000D02*
X161975000Y-114208000D01*
X162115000Y-106831000D02*
X162115000Y-109499000D01*
X162115000Y-111481000D02*
X162115000Y-114149000D01*
X162255000Y-106896000D02*
X162255000Y-109490000D01*
X162255000Y-111490000D02*
X162255000Y-114084000D01*
X162395000Y-106967000D02*
X162395000Y-109501000D01*
X162395000Y-111479000D02*
X162395000Y-114013000D01*
X162535000Y-107046000D02*
X162535000Y-109531000D01*
X162535000Y-111449000D02*
X162535000Y-113934000D01*
X162675000Y-107133000D02*
X162675000Y-109585000D01*
X162675000Y-111395000D02*
X162675000Y-113847000D01*
X162815000Y-107228000D02*
X162815000Y-109665000D01*
X162815000Y-111315000D02*
X162815000Y-113752000D01*
X162955000Y-107332000D02*
X162955000Y-109781000D01*
X162955000Y-111199000D02*
X162955000Y-113648000D01*
X163095000Y-107446000D02*
X163095000Y-109955000D01*
X163095000Y-111025000D02*
X163095000Y-113534000D01*
X163235000Y-107571000D02*
X163235000Y-110317000D01*
X163235000Y-110663000D02*
X163235000Y-113409000D01*
X163375000Y-107709000D02*
X163375000Y-113271000D01*
X163515000Y-107861000D02*
X163515000Y-113119000D01*
X163655000Y-108031000D02*
X163655000Y-112949000D01*
X163795000Y-108222000D02*
X163795000Y-112758000D01*
X163935000Y-108440000D02*
X163935000Y-112540000D01*
X164075000Y-108696000D02*
X164075000Y-112284000D01*
X164215000Y-109007000D02*
X164215000Y-111973000D01*
X164355000Y-109423000D02*
X164355000Y-111557000D01*
X164495000Y-110290000D02*
X164495000Y-110690000D01*
X163250000Y-110490000D02*
G75*
G03X163250000Y-110490000I-1000000J0D01*
G01*
X164537500Y-110490000D02*
G75*
G03X164537500Y-110490000I-4037500J0D01*
G01*
X148645000Y-113691000D02*
X148645000Y-119989000D01*
X148785000Y-113697000D02*
X148785000Y-119983000D01*
X148925000Y-113710000D02*
X148925000Y-116394000D01*
X148925000Y-117286000D02*
X148925000Y-119970000D01*
X149065000Y-113729000D02*
X149065000Y-116184000D01*
X149065000Y-117496000D02*
X149065000Y-119951000D01*
X149205000Y-113755000D02*
X149205000Y-116051000D01*
X149205000Y-117629000D02*
X149205000Y-119925000D01*
X149345000Y-113787000D02*
X149345000Y-115960000D01*
X149345000Y-117720000D02*
X149345000Y-119893000D01*
X149485000Y-113826000D02*
X149485000Y-115898000D01*
X149485000Y-117782000D02*
X149485000Y-119854000D01*
X149625000Y-113872000D02*
X149625000Y-115859000D01*
X149625000Y-117821000D02*
X149625000Y-119808000D01*
X149765000Y-113925000D02*
X149765000Y-115842000D01*
X149765000Y-117838000D02*
X149765000Y-119755000D01*
X149905000Y-113987000D02*
X149905000Y-115844000D01*
X149905000Y-117836000D02*
X149905000Y-119693000D01*
X150045000Y-114057000D02*
X150045000Y-115866000D01*
X150045000Y-117814000D02*
X150045000Y-119623000D01*
X150185000Y-114136000D02*
X150185000Y-115909000D01*
X150185000Y-117771000D02*
X150185000Y-119544000D01*
X150325000Y-114224000D02*
X150325000Y-115977000D01*
X150325000Y-117703000D02*
X150325000Y-119456000D01*
X150465000Y-114324000D02*
X150465000Y-116076000D01*
X150465000Y-117604000D02*
X150465000Y-119356000D01*
X150605000Y-114436000D02*
X150605000Y-116221000D01*
X150605000Y-117459000D02*
X150605000Y-119244000D01*
X150745000Y-114561000D02*
X150745000Y-116460000D01*
X150745000Y-117220000D02*
X150745000Y-119119000D01*
X150885000Y-114704000D02*
X150885000Y-118976000D01*
X151025000Y-114866000D02*
X151025000Y-118814000D01*
X151165000Y-115054000D02*
X151165000Y-118626000D01*
X151305000Y-115277000D02*
X151305000Y-118403000D01*
X151445000Y-115553000D02*
X151445000Y-118127000D01*
X151585000Y-115928000D02*
X151585000Y-117752000D01*
X150820000Y-116840000D02*
G75*
G03X150820000Y-116840000I-1000000J0D01*
G01*
X151757500Y-116840000D02*
G75*
G03X151757500Y-116840000I-3187500J0D01*
G01*
X189515000Y-129575000D02*
X190215000Y-129575000D01*
X190215000Y-130775000D02*
X189515000Y-130775000D01*
X192370000Y-127285000D02*
X192370000Y-127985000D01*
X191170000Y-127985000D02*
X191170000Y-127285000D01*
X147075000Y-131270000D02*
X147075000Y-129270000D01*
X145025000Y-129270000D02*
X145025000Y-131270000D01*
X162830000Y-145805000D02*
X164830000Y-145805000D01*
X164830000Y-143755000D02*
X162830000Y-143755000D01*
X148300440Y-123190000D02*
X149148800Y-122189240D01*
X149148800Y-122189240D02*
X149148800Y-124190760D01*
X149148800Y-124190760D02*
X148300440Y-123190000D01*
X148300440Y-123190000D02*
X148300440Y-124190760D01*
X148300440Y-123190000D02*
X148300440Y-122189240D01*
X146443700Y-124990000D02*
X146443700Y-124790200D01*
X146900740Y-124990000D02*
X146900740Y-124791000D01*
X151051260Y-124990000D02*
X151051260Y-124841000D01*
X146448780Y-121390000D02*
X146448780Y-121539000D01*
X146900740Y-121390000D02*
X146900740Y-121539000D01*
X151051260Y-121390000D02*
X151051260Y-121539000D01*
X146900740Y-125138980D02*
X146900740Y-124940860D01*
X146900740Y-121191020D02*
X146900740Y-121389140D01*
X151046180Y-125186440D02*
X151046180Y-124988320D01*
X146443700Y-125186440D02*
X151046180Y-125186440D01*
X146443700Y-125186440D02*
X146443700Y-124988320D01*
X146448780Y-121191020D02*
X146448780Y-121389140D01*
X146448780Y-121191020D02*
X151051260Y-121191020D01*
X151051260Y-121191020D02*
X151051260Y-121389140D01*
X142240000Y-129725420D02*
X143240760Y-130573780D01*
X143240760Y-130573780D02*
X141239240Y-130573780D01*
X141239240Y-130573780D02*
X142240000Y-129725420D01*
X142240000Y-129725420D02*
X141239240Y-129725420D01*
X142240000Y-129725420D02*
X143240760Y-129725420D01*
X140440000Y-127868680D02*
X140639800Y-127868680D01*
X140440000Y-128325720D02*
X140639000Y-128325720D01*
X140440000Y-132476240D02*
X140589000Y-132476240D01*
X144040000Y-127873760D02*
X143891000Y-127873760D01*
X144040000Y-128325720D02*
X143891000Y-128325720D01*
X144040000Y-132476240D02*
X143891000Y-132476240D01*
X140291020Y-128325720D02*
X140489140Y-128325720D01*
X144238980Y-128325720D02*
X144040860Y-128325720D01*
X140243560Y-132471160D02*
X140441680Y-132471160D01*
X140243560Y-127868680D02*
X140243560Y-132471160D01*
X140243560Y-127868680D02*
X140441680Y-127868680D01*
X144238980Y-127873760D02*
X144040860Y-127873760D01*
X144238980Y-127873760D02*
X144238980Y-132476240D01*
X144238980Y-132476240D02*
X144040860Y-132476240D01*
X151305260Y-110490000D02*
X152067260Y-110490000D01*
X145844260Y-110490000D02*
X144955260Y-110490000D01*
X151305260Y-109220000D02*
X151305260Y-111887000D01*
X151305260Y-111887000D02*
X145844260Y-111887000D01*
X145844260Y-111887000D02*
X145844260Y-109220000D01*
X145844260Y-109220000D02*
X151305260Y-109220000D01*
X145583219Y-142240000D02*
G75*
G03X145583219Y-142240000I-803219J0D01*
G01*
X145583219Y-137795000D02*
G75*
G03X145583219Y-137795000I-803219J0D01*
G01*
X172085000Y-121285000D02*
X167005000Y-121285000D01*
X174905000Y-121005000D02*
X174905000Y-122555000D01*
X174625000Y-123825000D02*
X172085000Y-123825000D01*
X172085000Y-123825000D02*
X172085000Y-121285000D01*
X167005000Y-121285000D02*
X167005000Y-126365000D01*
X167005000Y-126365000D02*
X172085000Y-126365000D01*
X174905000Y-121005000D02*
X173355000Y-121005000D01*
X174625000Y-126365000D02*
X174625000Y-123825000D01*
X172085000Y-126365000D02*
X174625000Y-126365000D01*
X173355000Y-142240000D02*
X160655000Y-142240000D01*
X160655000Y-142240000D02*
X160655000Y-139700000D01*
X160655000Y-139700000D02*
X173355000Y-139700000D01*
X176175000Y-142520000D02*
X174625000Y-142520000D01*
X173355000Y-142240000D02*
X173355000Y-139700000D01*
X174625000Y-139420000D02*
X176175000Y-139420000D01*
X176175000Y-139420000D02*
X176175000Y-142520000D01*
X139049760Y-137130840D02*
X139049760Y-137179100D01*
X139750800Y-139929820D02*
X139049760Y-139929820D01*
X139049760Y-139929820D02*
X139049760Y-139680900D01*
X139049760Y-137130840D02*
X139049760Y-136930180D01*
X139049760Y-136930180D02*
X139750800Y-136930180D01*
X195385000Y-129175000D02*
X195385000Y-131175000D01*
X193235000Y-131175000D02*
X193235000Y-129175000D01*
X158925000Y-128465000D02*
X160925000Y-128465000D01*
X160925000Y-130615000D02*
X158925000Y-130615000D01*
X189500000Y-118305000D02*
X191500000Y-118305000D01*
X191500000Y-120455000D02*
X189500000Y-120455000D01*
X189500000Y-115765000D02*
X191500000Y-115765000D01*
X191500000Y-117915000D02*
X189500000Y-117915000D01*
X179265000Y-143875000D02*
X179265000Y-141875000D01*
X181415000Y-141875000D02*
X181415000Y-143875000D01*
X181805000Y-143875000D02*
X181805000Y-141875000D01*
X183955000Y-141875000D02*
X183955000Y-143875000D01*
X150055000Y-131270000D02*
X150055000Y-129270000D01*
X152205000Y-129270000D02*
X152205000Y-131270000D01*
X137990000Y-145145000D02*
X137990000Y-143145000D01*
X140140000Y-143145000D02*
X140140000Y-145145000D01*
X166930000Y-118570000D02*
X166930000Y-118370000D01*
X166930000Y-112570000D02*
X166930000Y-112770000D01*
X173430000Y-112570000D02*
X173430000Y-112770000D01*
X173430000Y-118570000D02*
X173430000Y-118370000D01*
X173430000Y-116770000D02*
X173430000Y-114370000D01*
X166930000Y-116770000D02*
X166930000Y-114370000D01*
X166930000Y-118570000D02*
X173430000Y-118570000D01*
X173430000Y-112570000D02*
X166930000Y-112570000D01*
X171180000Y-115570000D02*
G75*
G03X171180000Y-115570000I-1000000J0D01*
G01*
X171680000Y-115570000D02*
G75*
G03X171680000Y-115570000I-1500000J0D01*
G01*
X139630000Y-130810000D02*
X127000000Y-130810000D01*
X127000000Y-130810000D02*
X127000000Y-123190000D01*
X139630000Y-123190000D02*
X127000000Y-123190000D01*
X139700000Y-130810000D02*
X139700000Y-123190000D01*
X157280000Y-132920000D02*
G75*
G03X157280000Y-132920000I-100000J0D01*
G01*
X157730000Y-133170000D02*
X157230000Y-133170000D01*
X157730000Y-136070000D02*
X157730000Y-133170000D01*
X157230000Y-136070000D02*
X157730000Y-136070000D01*
X157230000Y-133170000D02*
X157230000Y-136070000D01*
X190195000Y-128935000D02*
X186995000Y-128935000D01*
X186995000Y-128935000D02*
X186995000Y-126335000D01*
X186995000Y-126335000D02*
X190195000Y-126335000D01*
X190195000Y-126335000D02*
X190195000Y-128935000D01*
X118745000Y-107442000D02*
X118745000Y-108966000D01*
X118745000Y-98298000D02*
X118745000Y-96774000D01*
X121539000Y-99314000D02*
X115951000Y-99314000D01*
X121539000Y-99060000D02*
X115951000Y-99060000D01*
X121539000Y-98806000D02*
X115951000Y-98806000D01*
X115951000Y-98298000D02*
X121539000Y-98298000D01*
X121539000Y-98298000D02*
X121539000Y-107442000D01*
X121539000Y-107442000D02*
X115951000Y-107442000D01*
X115951000Y-107442000D02*
X115951000Y-98298000D01*
X192935000Y-139410000D02*
X192935000Y-139010000D01*
X189335000Y-139410000D02*
X189335000Y-139010000D01*
X196435000Y-140510000D02*
X185835000Y-140510000D01*
X196435000Y-139410000D02*
X185835000Y-139410000D01*
X196435000Y-146610000D02*
X196435000Y-139010000D01*
X185835000Y-139010000D02*
X185835000Y-146610000D01*
X185835000Y-146610000D02*
X196435000Y-146610000D01*
X114310000Y-84430000D02*
X114310000Y-60330000D01*
X114310000Y-60330000D02*
X121910000Y-60330000D01*
X121910000Y-60330000D02*
X121910000Y-84430000D01*
X114310000Y-84430000D02*
X121910000Y-84430000D01*
X124460000Y-70104000D02*
X124460000Y-70866000D01*
X124460000Y-64643000D02*
X124460000Y-63754000D01*
X125730000Y-70104000D02*
X123063000Y-70104000D01*
X123063000Y-70104000D02*
X123063000Y-64643000D01*
X123063000Y-64643000D02*
X125730000Y-64643000D01*
X125730000Y-64643000D02*
X125730000Y-70104000D01*
X106680000Y-66040000D02*
X106680000Y-68580000D01*
X106680000Y-68580000D02*
X101600000Y-68580000D01*
X101600000Y-68580000D02*
X101600000Y-66040000D01*
X112390000Y-61810000D02*
X112390000Y-72810000D01*
X95890000Y-72810000D02*
X112390000Y-72810000D01*
X95890000Y-61810000D02*
X95890000Y-72810000D01*
X95890000Y-61810000D02*
X112390000Y-61810000D01*
X134340000Y-88445000D02*
X131540000Y-88445000D01*
X127540000Y-88445000D02*
X124740000Y-88445000D01*
X127540000Y-110945000D02*
X124740000Y-110945000D01*
X124740000Y-110945000D02*
X124740000Y-88445000D01*
X134340000Y-110945000D02*
X134340000Y-88445000D01*
X134340000Y-110945000D02*
X131540000Y-110945000D01*
X108815000Y-139895000D02*
X108815000Y-134995000D01*
X108815000Y-134995000D02*
X98915000Y-134995000D01*
X98915000Y-134995000D02*
X98915000Y-138095000D01*
X98915000Y-138095000D02*
X97515000Y-138095000D01*
X97515000Y-138095000D02*
X97515000Y-139895000D01*
X108815000Y-139895000D02*
X108815000Y-144795000D01*
X108815000Y-144795000D02*
X98915000Y-144795000D01*
X98915000Y-144795000D02*
X98915000Y-141695000D01*
X98915000Y-141695000D02*
X97515000Y-141695000D01*
X97515000Y-141695000D02*
X97515000Y-139895000D01*
X106465000Y-134595000D02*
X106165000Y-133995000D01*
X106165000Y-133995000D02*
X106765000Y-133995000D01*
X106765000Y-133995000D02*
X106465000Y-134595000D01*
X128080000Y-139895000D02*
X128080000Y-134995000D01*
X128080000Y-134995000D02*
X118180000Y-134995000D01*
X118180000Y-134995000D02*
X118180000Y-138095000D01*
X118180000Y-138095000D02*
X116780000Y-138095000D01*
X116780000Y-138095000D02*
X116780000Y-139895000D01*
X128080000Y-139895000D02*
X128080000Y-144795000D01*
X128080000Y-144795000D02*
X118180000Y-144795000D01*
X118180000Y-144795000D02*
X118180000Y-141695000D01*
X118180000Y-141695000D02*
X116780000Y-141695000D01*
X116780000Y-141695000D02*
X116780000Y-139895000D01*
X125730000Y-134595000D02*
X125430000Y-133995000D01*
X125430000Y-133995000D02*
X126030000Y-133995000D01*
X126030000Y-133995000D02*
X125730000Y-134595000D01*
X88860000Y-135600000D02*
X88860000Y-135100000D01*
X88360000Y-139600000D02*
G75*
G03X88360000Y-139600000I-2000000J0D01*
G01*
X93360000Y-139600000D02*
G75*
G03X93360000Y-139600000I-2000000J0D01*
G01*
X93860000Y-137100000D02*
X83860000Y-137100000D01*
X93860000Y-142000000D02*
X83860000Y-142000000D01*
X93860000Y-135600000D02*
X83860000Y-135600000D01*
X93860000Y-135100000D02*
X83860000Y-135100000D01*
X83860000Y-135100000D02*
X83860000Y-144900000D01*
X83860000Y-144900000D02*
X93860000Y-144900000D01*
X93860000Y-144900000D02*
X93860000Y-135100000D01*
X140970000Y-107950000D02*
X148590000Y-107950000D01*
X140970000Y-105410000D02*
X140970000Y-107950000D01*
X135890000Y-105410000D02*
X140970000Y-105410000D01*
X135890000Y-82550000D02*
X135890000Y-105410000D01*
X140970000Y-82550000D02*
X135890000Y-82550000D01*
X140970000Y-69850000D02*
X140970000Y-82550000D01*
X148590000Y-69850000D02*
X140970000Y-69850000D01*
X148590000Y-107950000D02*
X148590000Y-69850000D01*
D14*
G36*
X172971900Y-76251903D02*
X173083450Y-76307522D01*
X173181908Y-76409931D01*
X173209023Y-76447864D01*
X173238562Y-76497500D01*
X173257728Y-76551412D01*
X173268693Y-76623364D01*
X173273629Y-76727122D01*
X173274713Y-76864101D01*
X173269818Y-77051815D01*
X173252804Y-77192758D01*
X173220177Y-77297908D01*
X173168442Y-77378243D01*
X173094104Y-77444741D01*
X173088642Y-77448678D01*
X173015380Y-77488953D01*
X172927160Y-77508880D01*
X172814962Y-77513793D01*
X172632567Y-77513793D01*
X172632491Y-77690857D01*
X172630793Y-77789470D01*
X172620450Y-77847314D01*
X172593422Y-77882006D01*
X172541668Y-77911164D01*
X172529239Y-77917121D01*
X172471077Y-77945039D01*
X172426044Y-77962672D01*
X172392559Y-77964194D01*
X172369038Y-77943781D01*
X172353900Y-77895607D01*
X172345563Y-77813846D01*
X172342444Y-77692672D01*
X172342960Y-77526260D01*
X172345529Y-77308785D01*
X172346332Y-77243736D01*
X172349222Y-77019502D01*
X172351812Y-76872821D01*
X172632414Y-76872821D01*
X172633991Y-76997326D01*
X172641000Y-77078787D01*
X172656858Y-77132515D01*
X172684981Y-77173823D01*
X172704075Y-77193971D01*
X172782135Y-77252921D01*
X172851247Y-77257720D01*
X172922560Y-77209038D01*
X172924368Y-77207241D01*
X172953383Y-77169618D01*
X172971033Y-77118484D01*
X172979936Y-77039738D01*
X172982709Y-76919276D01*
X172982759Y-76892588D01*
X172976058Y-76726583D01*
X172954248Y-76611505D01*
X172914765Y-76541254D01*
X172855044Y-76509729D01*
X172820528Y-76506552D01*
X172738611Y-76521460D01*
X172682421Y-76570548D01*
X172648598Y-76660362D01*
X172633780Y-76797445D01*
X172632414Y-76872821D01*
X172351812Y-76872821D01*
X172352287Y-76845952D01*
X172356247Y-76715382D01*
X172361826Y-76620087D01*
X172369746Y-76552364D01*
X172380731Y-76504507D01*
X172395501Y-76468813D01*
X172414782Y-76437578D01*
X172423049Y-76425824D01*
X172532712Y-76314797D01*
X172671365Y-76251847D01*
X172831754Y-76234297D01*
X172971900Y-76251903D01*
X172971900Y-76251903D01*
G37*
X172971900Y-76251903D02*
X173083450Y-76307522D01*
X173181908Y-76409931D01*
X173209023Y-76447864D01*
X173238562Y-76497500D01*
X173257728Y-76551412D01*
X173268693Y-76623364D01*
X173273629Y-76727122D01*
X173274713Y-76864101D01*
X173269818Y-77051815D01*
X173252804Y-77192758D01*
X173220177Y-77297908D01*
X173168442Y-77378243D01*
X173094104Y-77444741D01*
X173088642Y-77448678D01*
X173015380Y-77488953D01*
X172927160Y-77508880D01*
X172814962Y-77513793D01*
X172632567Y-77513793D01*
X172632491Y-77690857D01*
X172630793Y-77789470D01*
X172620450Y-77847314D01*
X172593422Y-77882006D01*
X172541668Y-77911164D01*
X172529239Y-77917121D01*
X172471077Y-77945039D01*
X172426044Y-77962672D01*
X172392559Y-77964194D01*
X172369038Y-77943781D01*
X172353900Y-77895607D01*
X172345563Y-77813846D01*
X172342444Y-77692672D01*
X172342960Y-77526260D01*
X172345529Y-77308785D01*
X172346332Y-77243736D01*
X172349222Y-77019502D01*
X172351812Y-76872821D01*
X172632414Y-76872821D01*
X172633991Y-76997326D01*
X172641000Y-77078787D01*
X172656858Y-77132515D01*
X172684981Y-77173823D01*
X172704075Y-77193971D01*
X172782135Y-77252921D01*
X172851247Y-77257720D01*
X172922560Y-77209038D01*
X172924368Y-77207241D01*
X172953383Y-77169618D01*
X172971033Y-77118484D01*
X172979936Y-77039738D01*
X172982709Y-76919276D01*
X172982759Y-76892588D01*
X172976058Y-76726583D01*
X172954248Y-76611505D01*
X172914765Y-76541254D01*
X172855044Y-76509729D01*
X172820528Y-76506552D01*
X172738611Y-76521460D01*
X172682421Y-76570548D01*
X172648598Y-76660362D01*
X172633780Y-76797445D01*
X172632414Y-76872821D01*
X172351812Y-76872821D01*
X172352287Y-76845952D01*
X172356247Y-76715382D01*
X172361826Y-76620087D01*
X172369746Y-76552364D01*
X172380731Y-76504507D01*
X172395501Y-76468813D01*
X172414782Y-76437578D01*
X172423049Y-76425824D01*
X172532712Y-76314797D01*
X172671365Y-76251847D01*
X172831754Y-76234297D01*
X172971900Y-76251903D01*
G36*
X175217429Y-76267719D02*
X175311123Y-76321914D01*
X175376264Y-76375707D01*
X175423907Y-76432066D01*
X175456728Y-76500987D01*
X175477406Y-76592468D01*
X175488620Y-76716506D01*
X175493049Y-76883098D01*
X175493563Y-77002851D01*
X175493563Y-77443659D01*
X175369483Y-77499283D01*
X175245402Y-77554907D01*
X175230805Y-77072095D01*
X175224773Y-76891779D01*
X175218445Y-76760901D01*
X175210606Y-76670511D01*
X175200037Y-76611664D01*
X175185523Y-76575413D01*
X175165848Y-76552810D01*
X175159535Y-76547917D01*
X175063888Y-76509706D01*
X174967207Y-76524827D01*
X174909655Y-76564943D01*
X174886245Y-76593370D01*
X174870039Y-76630672D01*
X174859741Y-76687223D01*
X174854049Y-76773394D01*
X174851664Y-76899558D01*
X174851264Y-77031042D01*
X174851186Y-77195999D01*
X174848361Y-77312761D01*
X174838907Y-77391510D01*
X174818940Y-77442431D01*
X174784576Y-77475706D01*
X174731932Y-77501520D01*
X174661617Y-77528344D01*
X174584820Y-77557542D01*
X174593962Y-77039346D01*
X174597643Y-76852539D01*
X174601950Y-76714490D01*
X174608123Y-76615568D01*
X174617402Y-76546145D01*
X174631027Y-76496590D01*
X174650239Y-76457273D01*
X174673402Y-76422584D01*
X174785152Y-76311770D01*
X174921513Y-76247689D01*
X175069825Y-76232339D01*
X175217429Y-76267719D01*
X175217429Y-76267719D01*
G37*
X175217429Y-76267719D02*
X175311123Y-76321914D01*
X175376264Y-76375707D01*
X175423907Y-76432066D01*
X175456728Y-76500987D01*
X175477406Y-76592468D01*
X175488620Y-76716506D01*
X175493049Y-76883098D01*
X175493563Y-77002851D01*
X175493563Y-77443659D01*
X175369483Y-77499283D01*
X175245402Y-77554907D01*
X175230805Y-77072095D01*
X175224773Y-76891779D01*
X175218445Y-76760901D01*
X175210606Y-76670511D01*
X175200037Y-76611664D01*
X175185523Y-76575413D01*
X175165848Y-76552810D01*
X175159535Y-76547917D01*
X175063888Y-76509706D01*
X174967207Y-76524827D01*
X174909655Y-76564943D01*
X174886245Y-76593370D01*
X174870039Y-76630672D01*
X174859741Y-76687223D01*
X174854049Y-76773394D01*
X174851664Y-76899558D01*
X174851264Y-77031042D01*
X174851186Y-77195999D01*
X174848361Y-77312761D01*
X174838907Y-77391510D01*
X174818940Y-77442431D01*
X174784576Y-77475706D01*
X174731932Y-77501520D01*
X174661617Y-77528344D01*
X174584820Y-77557542D01*
X174593962Y-77039346D01*
X174597643Y-76852539D01*
X174601950Y-76714490D01*
X174608123Y-76615568D01*
X174617402Y-76546145D01*
X174631027Y-76496590D01*
X174650239Y-76457273D01*
X174673402Y-76422584D01*
X174785152Y-76311770D01*
X174921513Y-76247689D01*
X175069825Y-76232339D01*
X175217429Y-76267719D01*
G36*
X171848221Y-76256015D02*
X171985061Y-76327968D01*
X172086051Y-76443766D01*
X172121925Y-76518213D01*
X172149839Y-76629992D01*
X172164129Y-76771227D01*
X172165484Y-76925371D01*
X172154595Y-77075879D01*
X172132153Y-77206205D01*
X172098850Y-77299803D01*
X172088615Y-77315922D01*
X171967382Y-77436249D01*
X171823387Y-77508317D01*
X171667139Y-77529408D01*
X171509148Y-77496802D01*
X171465180Y-77477253D01*
X171379556Y-77417012D01*
X171304408Y-77337135D01*
X171297306Y-77327004D01*
X171268439Y-77278181D01*
X171249357Y-77225990D01*
X171238084Y-77157285D01*
X171232645Y-77058918D01*
X171231062Y-76917744D01*
X171231035Y-76886092D01*
X171231107Y-76876019D01*
X171522989Y-76876019D01*
X171524687Y-77009256D01*
X171531372Y-77097674D01*
X171545425Y-77154785D01*
X171569229Y-77194102D01*
X171581379Y-77207241D01*
X171651236Y-77257172D01*
X171719059Y-77254895D01*
X171787635Y-77211584D01*
X171828535Y-77165346D01*
X171852758Y-77097857D01*
X171866361Y-76991433D01*
X171867294Y-76979020D01*
X171869616Y-76786147D01*
X171845350Y-76642900D01*
X171794824Y-76550160D01*
X171718368Y-76508807D01*
X171691076Y-76506552D01*
X171619411Y-76517893D01*
X171570390Y-76557184D01*
X171540418Y-76632326D01*
X171525899Y-76751222D01*
X171522989Y-76876019D01*
X171231107Y-76876019D01*
X171232122Y-76735659D01*
X171236688Y-76630549D01*
X171246688Y-76557714D01*
X171264079Y-76504108D01*
X171290816Y-76456681D01*
X171296724Y-76447864D01*
X171396032Y-76329007D01*
X171504242Y-76260008D01*
X171635981Y-76232619D01*
X171680717Y-76231281D01*
X171848221Y-76256015D01*
X171848221Y-76256015D01*
G37*
X171848221Y-76256015D02*
X171985061Y-76327968D01*
X172086051Y-76443766D01*
X172121925Y-76518213D01*
X172149839Y-76629992D01*
X172164129Y-76771227D01*
X172165484Y-76925371D01*
X172154595Y-77075879D01*
X172132153Y-77206205D01*
X172098850Y-77299803D01*
X172088615Y-77315922D01*
X171967382Y-77436249D01*
X171823387Y-77508317D01*
X171667139Y-77529408D01*
X171509148Y-77496802D01*
X171465180Y-77477253D01*
X171379556Y-77417012D01*
X171304408Y-77337135D01*
X171297306Y-77327004D01*
X171268439Y-77278181D01*
X171249357Y-77225990D01*
X171238084Y-77157285D01*
X171232645Y-77058918D01*
X171231062Y-76917744D01*
X171231035Y-76886092D01*
X171231107Y-76876019D01*
X171522989Y-76876019D01*
X171524687Y-77009256D01*
X171531372Y-77097674D01*
X171545425Y-77154785D01*
X171569229Y-77194102D01*
X171581379Y-77207241D01*
X171651236Y-77257172D01*
X171719059Y-77254895D01*
X171787635Y-77211584D01*
X171828535Y-77165346D01*
X171852758Y-77097857D01*
X171866361Y-76991433D01*
X171867294Y-76979020D01*
X171869616Y-76786147D01*
X171845350Y-76642900D01*
X171794824Y-76550160D01*
X171718368Y-76508807D01*
X171691076Y-76506552D01*
X171619411Y-76517893D01*
X171570390Y-76557184D01*
X171540418Y-76632326D01*
X171525899Y-76751222D01*
X171522989Y-76876019D01*
X171231107Y-76876019D01*
X171232122Y-76735659D01*
X171236688Y-76630549D01*
X171246688Y-76557714D01*
X171264079Y-76504108D01*
X171290816Y-76456681D01*
X171296724Y-76447864D01*
X171396032Y-76329007D01*
X171504242Y-76260008D01*
X171635981Y-76232619D01*
X171680717Y-76231281D01*
X171848221Y-76256015D01*
G36*
X174115552Y-76274676D02*
X174230658Y-76352111D01*
X174319611Y-76463949D01*
X174372749Y-76606265D01*
X174383497Y-76711015D01*
X174382276Y-76754726D01*
X174372056Y-76788194D01*
X174343961Y-76818179D01*
X174289116Y-76851440D01*
X174198645Y-76894738D01*
X174063672Y-76954833D01*
X174062989Y-76955134D01*
X173938751Y-77012037D01*
X173836873Y-77062565D01*
X173767767Y-77101280D01*
X173741846Y-77122740D01*
X173741839Y-77122913D01*
X173764685Y-77169644D01*
X173818109Y-77221154D01*
X173879442Y-77258261D01*
X173910515Y-77265632D01*
X173995289Y-77240138D01*
X174068293Y-77176291D01*
X174103913Y-77106094D01*
X174138180Y-77054343D01*
X174205303Y-76995409D01*
X174284208Y-76944496D01*
X174353821Y-76916809D01*
X174368377Y-76915287D01*
X174384763Y-76940321D01*
X174385750Y-77004311D01*
X174373708Y-77090593D01*
X174351007Y-77182501D01*
X174320014Y-77263369D01*
X174318448Y-77266509D01*
X174225181Y-77396734D01*
X174104304Y-77485311D01*
X173967027Y-77528786D01*
X173824560Y-77523706D01*
X173688112Y-77466616D01*
X173682045Y-77462602D01*
X173574710Y-77365326D01*
X173504132Y-77238409D01*
X173465074Y-77071526D01*
X173459832Y-77024639D01*
X173450548Y-76803329D01*
X173461678Y-76700124D01*
X173741839Y-76700124D01*
X173745479Y-76764503D01*
X173765389Y-76783291D01*
X173815026Y-76769235D01*
X173893267Y-76736009D01*
X173980726Y-76694359D01*
X173982899Y-76693256D01*
X174057030Y-76654265D01*
X174086781Y-76628244D01*
X174079445Y-76600965D01*
X174048553Y-76565121D01*
X173969960Y-76513251D01*
X173885323Y-76509439D01*
X173809403Y-76547189D01*
X173756965Y-76620001D01*
X173741839Y-76700124D01*
X173461678Y-76700124D01*
X173469644Y-76626261D01*
X173518634Y-76485829D01*
X173586836Y-76387447D01*
X173709935Y-76288030D01*
X173845528Y-76238711D01*
X173983955Y-76235568D01*
X174115552Y-76274676D01*
X174115552Y-76274676D01*
G37*
X174115552Y-76274676D02*
X174230658Y-76352111D01*
X174319611Y-76463949D01*
X174372749Y-76606265D01*
X174383497Y-76711015D01*
X174382276Y-76754726D01*
X174372056Y-76788194D01*
X174343961Y-76818179D01*
X174289116Y-76851440D01*
X174198645Y-76894738D01*
X174063672Y-76954833D01*
X174062989Y-76955134D01*
X173938751Y-77012037D01*
X173836873Y-77062565D01*
X173767767Y-77101280D01*
X173741846Y-77122740D01*
X173741839Y-77122913D01*
X173764685Y-77169644D01*
X173818109Y-77221154D01*
X173879442Y-77258261D01*
X173910515Y-77265632D01*
X173995289Y-77240138D01*
X174068293Y-77176291D01*
X174103913Y-77106094D01*
X174138180Y-77054343D01*
X174205303Y-76995409D01*
X174284208Y-76944496D01*
X174353821Y-76916809D01*
X174368377Y-76915287D01*
X174384763Y-76940321D01*
X174385750Y-77004311D01*
X174373708Y-77090593D01*
X174351007Y-77182501D01*
X174320014Y-77263369D01*
X174318448Y-77266509D01*
X174225181Y-77396734D01*
X174104304Y-77485311D01*
X173967027Y-77528786D01*
X173824560Y-77523706D01*
X173688112Y-77466616D01*
X173682045Y-77462602D01*
X173574710Y-77365326D01*
X173504132Y-77238409D01*
X173465074Y-77071526D01*
X173459832Y-77024639D01*
X173450548Y-76803329D01*
X173461678Y-76700124D01*
X173741839Y-76700124D01*
X173745479Y-76764503D01*
X173765389Y-76783291D01*
X173815026Y-76769235D01*
X173893267Y-76736009D01*
X173980726Y-76694359D01*
X173982899Y-76693256D01*
X174057030Y-76654265D01*
X174086781Y-76628244D01*
X174079445Y-76600965D01*
X174048553Y-76565121D01*
X173969960Y-76513251D01*
X173885323Y-76509439D01*
X173809403Y-76547189D01*
X173756965Y-76620001D01*
X173741839Y-76700124D01*
X173461678Y-76700124D01*
X173469644Y-76626261D01*
X173518634Y-76485829D01*
X173586836Y-76387447D01*
X173709935Y-76288030D01*
X173845528Y-76238711D01*
X173983955Y-76235568D01*
X174115552Y-76274676D01*
G36*
X176544598Y-76113857D02*
X176553154Y-76233188D01*
X176562981Y-76303506D01*
X176576599Y-76334179D01*
X176596527Y-76334571D01*
X176602989Y-76330910D01*
X176688940Y-76304398D01*
X176800745Y-76305946D01*
X176914414Y-76333199D01*
X176985510Y-76368455D01*
X177058405Y-76424778D01*
X177111693Y-76488519D01*
X177148275Y-76569510D01*
X177171050Y-76677586D01*
X177182919Y-76822580D01*
X177186782Y-77014326D01*
X177186851Y-77051109D01*
X177186897Y-77464288D01*
X177094954Y-77496339D01*
X177029652Y-77518144D01*
X176993824Y-77528297D01*
X176992770Y-77528391D01*
X176989242Y-77500860D01*
X176986239Y-77424923D01*
X176983990Y-77310565D01*
X176982724Y-77167769D01*
X176982529Y-77080951D01*
X176982123Y-76909773D01*
X176980032Y-76787088D01*
X176974947Y-76703000D01*
X176965560Y-76647614D01*
X176950561Y-76611032D01*
X176928642Y-76583359D01*
X176914957Y-76570032D01*
X176820949Y-76516328D01*
X176718364Y-76512307D01*
X176625290Y-76557725D01*
X176608078Y-76574123D01*
X176582832Y-76604957D01*
X176565320Y-76641531D01*
X176554142Y-76694415D01*
X176547896Y-76774177D01*
X176545182Y-76891385D01*
X176544598Y-77052991D01*
X176544598Y-77464288D01*
X176452655Y-77496339D01*
X176387353Y-77518144D01*
X176351525Y-77528297D01*
X176350471Y-77528391D01*
X176347775Y-77500448D01*
X176345345Y-77421630D01*
X176343278Y-77299453D01*
X176341671Y-77141432D01*
X176340623Y-76955083D01*
X176340231Y-76747920D01*
X176340230Y-76738706D01*
X176340230Y-75949020D01*
X176435115Y-75908997D01*
X176530000Y-75868973D01*
X176544598Y-76113857D01*
X176544598Y-76113857D01*
G37*
X176544598Y-76113857D02*
X176553154Y-76233188D01*
X176562981Y-76303506D01*
X176576599Y-76334179D01*
X176596527Y-76334571D01*
X176602989Y-76330910D01*
X176688940Y-76304398D01*
X176800745Y-76305946D01*
X176914414Y-76333199D01*
X176985510Y-76368455D01*
X177058405Y-76424778D01*
X177111693Y-76488519D01*
X177148275Y-76569510D01*
X177171050Y-76677586D01*
X177182919Y-76822580D01*
X177186782Y-77014326D01*
X177186851Y-77051109D01*
X177186897Y-77464288D01*
X177094954Y-77496339D01*
X177029652Y-77518144D01*
X176993824Y-77528297D01*
X176992770Y-77528391D01*
X176989242Y-77500860D01*
X176986239Y-77424923D01*
X176983990Y-77310565D01*
X176982724Y-77167769D01*
X176982529Y-77080951D01*
X176982123Y-76909773D01*
X176980032Y-76787088D01*
X176974947Y-76703000D01*
X176965560Y-76647614D01*
X176950561Y-76611032D01*
X176928642Y-76583359D01*
X176914957Y-76570032D01*
X176820949Y-76516328D01*
X176718364Y-76512307D01*
X176625290Y-76557725D01*
X176608078Y-76574123D01*
X176582832Y-76604957D01*
X176565320Y-76641531D01*
X176554142Y-76694415D01*
X176547896Y-76774177D01*
X176545182Y-76891385D01*
X176544598Y-77052991D01*
X176544598Y-77464288D01*
X176452655Y-77496339D01*
X176387353Y-77518144D01*
X176351525Y-77528297D01*
X176350471Y-77528391D01*
X176347775Y-77500448D01*
X176345345Y-77421630D01*
X176343278Y-77299453D01*
X176341671Y-77141432D01*
X176340623Y-76955083D01*
X176340231Y-76747920D01*
X176340230Y-76738706D01*
X176340230Y-75949020D01*
X176435115Y-75908997D01*
X176530000Y-75868973D01*
X176544598Y-76113857D01*
G36*
X177879944Y-76314360D02*
X177994343Y-76356842D01*
X177995652Y-76357658D01*
X178066403Y-76409730D01*
X178118636Y-76470584D01*
X178155371Y-76549887D01*
X178179634Y-76657309D01*
X178194445Y-76802517D01*
X178202829Y-76995179D01*
X178203564Y-77022628D01*
X178214120Y-77436521D01*
X178125291Y-77482456D01*
X178061018Y-77513498D01*
X178022210Y-77528206D01*
X178020415Y-77528391D01*
X178013700Y-77501250D01*
X178008365Y-77428041D01*
X178005083Y-77321081D01*
X178004368Y-77234469D01*
X178004351Y-77094162D01*
X177997937Y-77006051D01*
X177975580Y-76964025D01*
X177927732Y-76961975D01*
X177844849Y-76993790D01*
X177719713Y-77052272D01*
X177627697Y-77100845D01*
X177580371Y-77142986D01*
X177566458Y-77188916D01*
X177566437Y-77191189D01*
X177589395Y-77270311D01*
X177657370Y-77313055D01*
X177761398Y-77319246D01*
X177836330Y-77318172D01*
X177875839Y-77339753D01*
X177900478Y-77391591D01*
X177914659Y-77457632D01*
X177894223Y-77495104D01*
X177886528Y-77500467D01*
X177814083Y-77522006D01*
X177712633Y-77525055D01*
X177608157Y-77510778D01*
X177534125Y-77484688D01*
X177431772Y-77397785D01*
X177373591Y-77276816D01*
X177362069Y-77182308D01*
X177370862Y-77097062D01*
X177402680Y-77027476D01*
X177465684Y-76965672D01*
X177568031Y-76903772D01*
X177717882Y-76833897D01*
X177727012Y-76829948D01*
X177861997Y-76767588D01*
X177945294Y-76716446D01*
X177980997Y-76670488D01*
X177973203Y-76623683D01*
X177926007Y-76569998D01*
X177911894Y-76557644D01*
X177817359Y-76509741D01*
X177719406Y-76511758D01*
X177634097Y-76558724D01*
X177577496Y-76645669D01*
X177572237Y-76662734D01*
X177521023Y-76745504D01*
X177456037Y-76785372D01*
X177362069Y-76824882D01*
X177362069Y-76722658D01*
X177390653Y-76574072D01*
X177475495Y-76437784D01*
X177519645Y-76392191D01*
X177620005Y-76333674D01*
X177747635Y-76307184D01*
X177879944Y-76314360D01*
X177879944Y-76314360D01*
G37*
X177879944Y-76314360D02*
X177994343Y-76356842D01*
X177995652Y-76357658D01*
X178066403Y-76409730D01*
X178118636Y-76470584D01*
X178155371Y-76549887D01*
X178179634Y-76657309D01*
X178194445Y-76802517D01*
X178202829Y-76995179D01*
X178203564Y-77022628D01*
X178214120Y-77436521D01*
X178125291Y-77482456D01*
X178061018Y-77513498D01*
X178022210Y-77528206D01*
X178020415Y-77528391D01*
X178013700Y-77501250D01*
X178008365Y-77428041D01*
X178005083Y-77321081D01*
X178004368Y-77234469D01*
X178004351Y-77094162D01*
X177997937Y-77006051D01*
X177975580Y-76964025D01*
X177927732Y-76961975D01*
X177844849Y-76993790D01*
X177719713Y-77052272D01*
X177627697Y-77100845D01*
X177580371Y-77142986D01*
X177566458Y-77188916D01*
X177566437Y-77191189D01*
X177589395Y-77270311D01*
X177657370Y-77313055D01*
X177761398Y-77319246D01*
X177836330Y-77318172D01*
X177875839Y-77339753D01*
X177900478Y-77391591D01*
X177914659Y-77457632D01*
X177894223Y-77495104D01*
X177886528Y-77500467D01*
X177814083Y-77522006D01*
X177712633Y-77525055D01*
X177608157Y-77510778D01*
X177534125Y-77484688D01*
X177431772Y-77397785D01*
X177373591Y-77276816D01*
X177362069Y-77182308D01*
X177370862Y-77097062D01*
X177402680Y-77027476D01*
X177465684Y-76965672D01*
X177568031Y-76903772D01*
X177717882Y-76833897D01*
X177727012Y-76829948D01*
X177861997Y-76767588D01*
X177945294Y-76716446D01*
X177980997Y-76670488D01*
X177973203Y-76623683D01*
X177926007Y-76569998D01*
X177911894Y-76557644D01*
X177817359Y-76509741D01*
X177719406Y-76511758D01*
X177634097Y-76558724D01*
X177577496Y-76645669D01*
X177572237Y-76662734D01*
X177521023Y-76745504D01*
X177456037Y-76785372D01*
X177362069Y-76824882D01*
X177362069Y-76722658D01*
X177390653Y-76574072D01*
X177475495Y-76437784D01*
X177519645Y-76392191D01*
X177620005Y-76333674D01*
X177747635Y-76307184D01*
X177879944Y-76314360D01*
G36*
X178865943Y-76311920D02*
X178998565Y-76360859D01*
X179106010Y-76447419D01*
X179148032Y-76508352D01*
X179193843Y-76620161D01*
X179192891Y-76701006D01*
X179144808Y-76755378D01*
X179127017Y-76764624D01*
X179050204Y-76793450D01*
X179010976Y-76786065D01*
X178997689Y-76737658D01*
X178997012Y-76710920D01*
X178972686Y-76612548D01*
X178909281Y-76543734D01*
X178821154Y-76510498D01*
X178722663Y-76518861D01*
X178642602Y-76562296D01*
X178615561Y-76587072D01*
X178596394Y-76617129D01*
X178583446Y-76662565D01*
X178575064Y-76733476D01*
X178569593Y-76839960D01*
X178565378Y-76992112D01*
X178564287Y-77040287D01*
X178560307Y-77205095D01*
X178555781Y-77321088D01*
X178548995Y-77397833D01*
X178538231Y-77444893D01*
X178521773Y-77471835D01*
X178497906Y-77488223D01*
X178482626Y-77495463D01*
X178417733Y-77520220D01*
X178379534Y-77528391D01*
X178366912Y-77501103D01*
X178359208Y-77418603D01*
X178356380Y-77279941D01*
X178358386Y-77084162D01*
X178359011Y-77053965D01*
X178363421Y-76875349D01*
X178368635Y-76744923D01*
X178376055Y-76652492D01*
X178387082Y-76587858D01*
X178403117Y-76540825D01*
X178425561Y-76501196D01*
X178437302Y-76484215D01*
X178504619Y-76409080D01*
X178579910Y-76350638D01*
X178589128Y-76345536D01*
X178724133Y-76305260D01*
X178865943Y-76311920D01*
X178865943Y-76311920D01*
G37*
X178865943Y-76311920D02*
X178998565Y-76360859D01*
X179106010Y-76447419D01*
X179148032Y-76508352D01*
X179193843Y-76620161D01*
X179192891Y-76701006D01*
X179144808Y-76755378D01*
X179127017Y-76764624D01*
X179050204Y-76793450D01*
X179010976Y-76786065D01*
X178997689Y-76737658D01*
X178997012Y-76710920D01*
X178972686Y-76612548D01*
X178909281Y-76543734D01*
X178821154Y-76510498D01*
X178722663Y-76518861D01*
X178642602Y-76562296D01*
X178615561Y-76587072D01*
X178596394Y-76617129D01*
X178583446Y-76662565D01*
X178575064Y-76733476D01*
X178569593Y-76839960D01*
X178565378Y-76992112D01*
X178564287Y-77040287D01*
X178560307Y-77205095D01*
X178555781Y-77321088D01*
X178548995Y-77397833D01*
X178538231Y-77444893D01*
X178521773Y-77471835D01*
X178497906Y-77488223D01*
X178482626Y-77495463D01*
X178417733Y-77520220D01*
X178379534Y-77528391D01*
X178366912Y-77501103D01*
X178359208Y-77418603D01*
X178356380Y-77279941D01*
X178358386Y-77084162D01*
X178359011Y-77053965D01*
X178363421Y-76875349D01*
X178368635Y-76744923D01*
X178376055Y-76652492D01*
X178387082Y-76587858D01*
X178403117Y-76540825D01*
X178425561Y-76501196D01*
X178437302Y-76484215D01*
X178504619Y-76409080D01*
X178579910Y-76350638D01*
X178589128Y-76345536D01*
X178724133Y-76305260D01*
X178865943Y-76311920D01*
G36*
X180193914Y-76544455D02*
X180193543Y-76762661D01*
X180192108Y-76930519D01*
X180189002Y-77056070D01*
X180183622Y-77147355D01*
X180175362Y-77212415D01*
X180163616Y-77259291D01*
X180147781Y-77296024D01*
X180135790Y-77316991D01*
X180036490Y-77430694D01*
X179910588Y-77501965D01*
X179771291Y-77527538D01*
X179631805Y-77504150D01*
X179548743Y-77462119D01*
X179461545Y-77389411D01*
X179402117Y-77300612D01*
X179366261Y-77184320D01*
X179349781Y-77029135D01*
X179347447Y-76915287D01*
X179347761Y-76907106D01*
X179551724Y-76907106D01*
X179552970Y-77037657D01*
X179558678Y-77124080D01*
X179571804Y-77180618D01*
X179595306Y-77221514D01*
X179623386Y-77252362D01*
X179717688Y-77311905D01*
X179818940Y-77316992D01*
X179914636Y-77267279D01*
X179922084Y-77260543D01*
X179953874Y-77225502D01*
X179973808Y-77183811D01*
X179984600Y-77121762D01*
X179988965Y-77025644D01*
X179989655Y-76919379D01*
X179988159Y-76785880D01*
X179981964Y-76696822D01*
X179968514Y-76638293D01*
X179945251Y-76596382D01*
X179926175Y-76574123D01*
X179837563Y-76517985D01*
X179735508Y-76511235D01*
X179638095Y-76554114D01*
X179619296Y-76570032D01*
X179587293Y-76605382D01*
X179567318Y-76647502D01*
X179556593Y-76710251D01*
X179552339Y-76807487D01*
X179551724Y-76907106D01*
X179347761Y-76907106D01*
X179354504Y-76731947D01*
X179378472Y-76594195D01*
X179423548Y-76490632D01*
X179493928Y-76409856D01*
X179548743Y-76368455D01*
X179648376Y-76323728D01*
X179763855Y-76302967D01*
X179871199Y-76308525D01*
X179931264Y-76330943D01*
X179954835Y-76337323D01*
X179970477Y-76313535D01*
X179981395Y-76249788D01*
X179989655Y-76152687D01*
X179998699Y-76044541D01*
X180011261Y-75979475D01*
X180034119Y-75942268D01*
X180074051Y-75917699D01*
X180099138Y-75906819D01*
X180194023Y-75867072D01*
X180193914Y-76544455D01*
X180193914Y-76544455D01*
G37*
X180193914Y-76544455D02*
X180193543Y-76762661D01*
X180192108Y-76930519D01*
X180189002Y-77056070D01*
X180183622Y-77147355D01*
X180175362Y-77212415D01*
X180163616Y-77259291D01*
X180147781Y-77296024D01*
X180135790Y-77316991D01*
X180036490Y-77430694D01*
X179910588Y-77501965D01*
X179771291Y-77527538D01*
X179631805Y-77504150D01*
X179548743Y-77462119D01*
X179461545Y-77389411D01*
X179402117Y-77300612D01*
X179366261Y-77184320D01*
X179349781Y-77029135D01*
X179347447Y-76915287D01*
X179347761Y-76907106D01*
X179551724Y-76907106D01*
X179552970Y-77037657D01*
X179558678Y-77124080D01*
X179571804Y-77180618D01*
X179595306Y-77221514D01*
X179623386Y-77252362D01*
X179717688Y-77311905D01*
X179818940Y-77316992D01*
X179914636Y-77267279D01*
X179922084Y-77260543D01*
X179953874Y-77225502D01*
X179973808Y-77183811D01*
X179984600Y-77121762D01*
X179988965Y-77025644D01*
X179989655Y-76919379D01*
X179988159Y-76785880D01*
X179981964Y-76696822D01*
X179968514Y-76638293D01*
X179945251Y-76596382D01*
X179926175Y-76574123D01*
X179837563Y-76517985D01*
X179735508Y-76511235D01*
X179638095Y-76554114D01*
X179619296Y-76570032D01*
X179587293Y-76605382D01*
X179567318Y-76647502D01*
X179556593Y-76710251D01*
X179552339Y-76807487D01*
X179551724Y-76907106D01*
X179347761Y-76907106D01*
X179354504Y-76731947D01*
X179378472Y-76594195D01*
X179423548Y-76490632D01*
X179493928Y-76409856D01*
X179548743Y-76368455D01*
X179648376Y-76323728D01*
X179763855Y-76302967D01*
X179871199Y-76308525D01*
X179931264Y-76330943D01*
X179954835Y-76337323D01*
X179970477Y-76313535D01*
X179981395Y-76249788D01*
X179989655Y-76152687D01*
X179998699Y-76044541D01*
X180011261Y-75979475D01*
X180034119Y-75942268D01*
X180074051Y-75917699D01*
X180099138Y-75906819D01*
X180194023Y-75867072D01*
X180193914Y-76544455D01*
G36*
X181380124Y-76329840D02*
X181384579Y-76406653D01*
X181388071Y-76523391D01*
X181390315Y-76670821D01*
X181391035Y-76825455D01*
X181391035Y-77348727D01*
X181298645Y-77441117D01*
X181234978Y-77498047D01*
X181179089Y-77521107D01*
X181102702Y-77519647D01*
X181072380Y-77515934D01*
X180977610Y-77505126D01*
X180899222Y-77498933D01*
X180880115Y-77498361D01*
X180815699Y-77502102D01*
X180723571Y-77511494D01*
X180687850Y-77515934D01*
X180600114Y-77522801D01*
X180541153Y-77507885D01*
X180482690Y-77461835D01*
X180461585Y-77441117D01*
X180369195Y-77348727D01*
X180369195Y-76369947D01*
X180443558Y-76336066D01*
X180507590Y-76310970D01*
X180545052Y-76302184D01*
X180554657Y-76329950D01*
X180563635Y-76407530D01*
X180571386Y-76526348D01*
X180577314Y-76677828D01*
X180580173Y-76805805D01*
X180588161Y-77309425D01*
X180657848Y-77319278D01*
X180721229Y-77312389D01*
X180752286Y-77290083D01*
X180760967Y-77248379D01*
X180768378Y-77159544D01*
X180773931Y-77034834D01*
X180777036Y-76885507D01*
X180777484Y-76808661D01*
X180777931Y-76366287D01*
X180869874Y-76334235D01*
X180934949Y-76312443D01*
X180970347Y-76302281D01*
X180971368Y-76302184D01*
X180974920Y-76329809D01*
X180978823Y-76406411D01*
X180982751Y-76522579D01*
X180986376Y-76668904D01*
X180988908Y-76805805D01*
X180996897Y-77309425D01*
X181172069Y-77309425D01*
X181180107Y-76849965D01*
X181188146Y-76390505D01*
X181273543Y-76346344D01*
X181336593Y-76316019D01*
X181373910Y-76302258D01*
X181374987Y-76302184D01*
X181380124Y-76329840D01*
X181380124Y-76329840D01*
G37*
X181380124Y-76329840D02*
X181384579Y-76406653D01*
X181388071Y-76523391D01*
X181390315Y-76670821D01*
X181391035Y-76825455D01*
X181391035Y-77348727D01*
X181298645Y-77441117D01*
X181234978Y-77498047D01*
X181179089Y-77521107D01*
X181102702Y-77519647D01*
X181072380Y-77515934D01*
X180977610Y-77505126D01*
X180899222Y-77498933D01*
X180880115Y-77498361D01*
X180815699Y-77502102D01*
X180723571Y-77511494D01*
X180687850Y-77515934D01*
X180600114Y-77522801D01*
X180541153Y-77507885D01*
X180482690Y-77461835D01*
X180461585Y-77441117D01*
X180369195Y-77348727D01*
X180369195Y-76369947D01*
X180443558Y-76336066D01*
X180507590Y-76310970D01*
X180545052Y-76302184D01*
X180554657Y-76329950D01*
X180563635Y-76407530D01*
X180571386Y-76526348D01*
X180577314Y-76677828D01*
X180580173Y-76805805D01*
X180588161Y-77309425D01*
X180657848Y-77319278D01*
X180721229Y-77312389D01*
X180752286Y-77290083D01*
X180760967Y-77248379D01*
X180768378Y-77159544D01*
X180773931Y-77034834D01*
X180777036Y-76885507D01*
X180777484Y-76808661D01*
X180777931Y-76366287D01*
X180869874Y-76334235D01*
X180934949Y-76312443D01*
X180970347Y-76302281D01*
X180971368Y-76302184D01*
X180974920Y-76329809D01*
X180978823Y-76406411D01*
X180982751Y-76522579D01*
X180986376Y-76668904D01*
X180988908Y-76805805D01*
X180996897Y-77309425D01*
X181172069Y-77309425D01*
X181180107Y-76849965D01*
X181188146Y-76390505D01*
X181273543Y-76346344D01*
X181336593Y-76316019D01*
X181373910Y-76302258D01*
X181374987Y-76302184D01*
X181380124Y-76329840D01*
G36*
X182114406Y-76325156D02*
X182198469Y-76363393D01*
X182264450Y-76409726D01*
X182312794Y-76461532D01*
X182346172Y-76528363D01*
X182367253Y-76619769D01*
X182378707Y-76745301D01*
X182383203Y-76914508D01*
X182383678Y-77025933D01*
X182383678Y-77460627D01*
X182309316Y-77494509D01*
X182250746Y-77519272D01*
X182221730Y-77528391D01*
X182216179Y-77501257D01*
X182211775Y-77428094D01*
X182209078Y-77321263D01*
X182208506Y-77236437D01*
X182206046Y-77113887D01*
X182199412Y-77016668D01*
X182189726Y-76957134D01*
X182182032Y-76944483D01*
X182130311Y-76957402D01*
X182049117Y-76990539D01*
X181955102Y-77035461D01*
X181864917Y-77083735D01*
X181795215Y-77126928D01*
X181762648Y-77156608D01*
X181762519Y-77156929D01*
X181765320Y-77211857D01*
X181790439Y-77264292D01*
X181834541Y-77306881D01*
X181898909Y-77321126D01*
X181953921Y-77319466D01*
X182031835Y-77318245D01*
X182072732Y-77336498D01*
X182097295Y-77384726D01*
X182100392Y-77393820D01*
X182111040Y-77462598D01*
X182082565Y-77504360D01*
X182008344Y-77524263D01*
X181928168Y-77527944D01*
X181783890Y-77500658D01*
X181709203Y-77461690D01*
X181616963Y-77370148D01*
X181568043Y-77257782D01*
X181563654Y-77139051D01*
X181605001Y-77028411D01*
X181667197Y-76959080D01*
X181729294Y-76920265D01*
X181826895Y-76871125D01*
X181940632Y-76821292D01*
X181959590Y-76813677D01*
X182084521Y-76758545D01*
X182156539Y-76709954D01*
X182179700Y-76661647D01*
X182158064Y-76607370D01*
X182120920Y-76564943D01*
X182033127Y-76512702D01*
X181936530Y-76508784D01*
X181847944Y-76549041D01*
X181784186Y-76629326D01*
X181775817Y-76650040D01*
X181727096Y-76726225D01*
X181655965Y-76782785D01*
X181566207Y-76829201D01*
X181566207Y-76697584D01*
X181571490Y-76617168D01*
X181594142Y-76553786D01*
X181644367Y-76486163D01*
X181692582Y-76434076D01*
X181767554Y-76360322D01*
X181825806Y-76320702D01*
X181888372Y-76304810D01*
X181959193Y-76302184D01*
X182114406Y-76325156D01*
X182114406Y-76325156D01*
G37*
X182114406Y-76325156D02*
X182198469Y-76363393D01*
X182264450Y-76409726D01*
X182312794Y-76461532D01*
X182346172Y-76528363D01*
X182367253Y-76619769D01*
X182378707Y-76745301D01*
X182383203Y-76914508D01*
X182383678Y-77025933D01*
X182383678Y-77460627D01*
X182309316Y-77494509D01*
X182250746Y-77519272D01*
X182221730Y-77528391D01*
X182216179Y-77501257D01*
X182211775Y-77428094D01*
X182209078Y-77321263D01*
X182208506Y-77236437D01*
X182206046Y-77113887D01*
X182199412Y-77016668D01*
X182189726Y-76957134D01*
X182182032Y-76944483D01*
X182130311Y-76957402D01*
X182049117Y-76990539D01*
X181955102Y-77035461D01*
X181864917Y-77083735D01*
X181795215Y-77126928D01*
X181762648Y-77156608D01*
X181762519Y-77156929D01*
X181765320Y-77211857D01*
X181790439Y-77264292D01*
X181834541Y-77306881D01*
X181898909Y-77321126D01*
X181953921Y-77319466D01*
X182031835Y-77318245D01*
X182072732Y-77336498D01*
X182097295Y-77384726D01*
X182100392Y-77393820D01*
X182111040Y-77462598D01*
X182082565Y-77504360D01*
X182008344Y-77524263D01*
X181928168Y-77527944D01*
X181783890Y-77500658D01*
X181709203Y-77461690D01*
X181616963Y-77370148D01*
X181568043Y-77257782D01*
X181563654Y-77139051D01*
X181605001Y-77028411D01*
X181667197Y-76959080D01*
X181729294Y-76920265D01*
X181826895Y-76871125D01*
X181940632Y-76821292D01*
X181959590Y-76813677D01*
X182084521Y-76758545D01*
X182156539Y-76709954D01*
X182179700Y-76661647D01*
X182158064Y-76607370D01*
X182120920Y-76564943D01*
X182033127Y-76512702D01*
X181936530Y-76508784D01*
X181847944Y-76549041D01*
X181784186Y-76629326D01*
X181775817Y-76650040D01*
X181727096Y-76726225D01*
X181655965Y-76782785D01*
X181566207Y-76829201D01*
X181566207Y-76697584D01*
X181571490Y-76617168D01*
X181594142Y-76553786D01*
X181644367Y-76486163D01*
X181692582Y-76434076D01*
X181767554Y-76360322D01*
X181825806Y-76320702D01*
X181888372Y-76304810D01*
X181959193Y-76302184D01*
X182114406Y-76325156D01*
G36*
X183135690Y-76330018D02*
X183170585Y-76345269D01*
X183253877Y-76411235D01*
X183325103Y-76506618D01*
X183369153Y-76608406D01*
X183376322Y-76658587D01*
X183352285Y-76728647D01*
X183299561Y-76765717D01*
X183243031Y-76788164D01*
X183217146Y-76792300D01*
X183204542Y-76762283D01*
X183179654Y-76696961D01*
X183168735Y-76667445D01*
X183107508Y-76565348D01*
X183018861Y-76514423D01*
X182905193Y-76515989D01*
X182896774Y-76517994D01*
X182836088Y-76546767D01*
X182791474Y-76602859D01*
X182761002Y-76693163D01*
X182742744Y-76824571D01*
X182734771Y-77003974D01*
X182734023Y-77099433D01*
X182733652Y-77249913D01*
X182731223Y-77352495D01*
X182724760Y-77417672D01*
X182712288Y-77455938D01*
X182691833Y-77477785D01*
X182661419Y-77493707D01*
X182659661Y-77494509D01*
X182601091Y-77519272D01*
X182572075Y-77528391D01*
X182567616Y-77500822D01*
X182563799Y-77424620D01*
X182560899Y-77309541D01*
X182559191Y-77165341D01*
X182558851Y-77059814D01*
X182560588Y-76855613D01*
X182567382Y-76700697D01*
X182581607Y-76586024D01*
X182605638Y-76502551D01*
X182641848Y-76441236D01*
X182692612Y-76393034D01*
X182742739Y-76359393D01*
X182863275Y-76314619D01*
X183003557Y-76304521D01*
X183135690Y-76330018D01*
X183135690Y-76330018D01*
G37*
X183135690Y-76330018D02*
X183170585Y-76345269D01*
X183253877Y-76411235D01*
X183325103Y-76506618D01*
X183369153Y-76608406D01*
X183376322Y-76658587D01*
X183352285Y-76728647D01*
X183299561Y-76765717D01*
X183243031Y-76788164D01*
X183217146Y-76792300D01*
X183204542Y-76762283D01*
X183179654Y-76696961D01*
X183168735Y-76667445D01*
X183107508Y-76565348D01*
X183018861Y-76514423D01*
X182905193Y-76515989D01*
X182896774Y-76517994D01*
X182836088Y-76546767D01*
X182791474Y-76602859D01*
X182761002Y-76693163D01*
X182742744Y-76824571D01*
X182734771Y-77003974D01*
X182734023Y-77099433D01*
X182733652Y-77249913D01*
X182731223Y-77352495D01*
X182724760Y-77417672D01*
X182712288Y-77455938D01*
X182691833Y-77477785D01*
X182661419Y-77493707D01*
X182659661Y-77494509D01*
X182601091Y-77519272D01*
X182572075Y-77528391D01*
X182567616Y-77500822D01*
X182563799Y-77424620D01*
X182560899Y-77309541D01*
X182559191Y-77165341D01*
X182558851Y-77059814D01*
X182560588Y-76855613D01*
X182567382Y-76700697D01*
X182581607Y-76586024D01*
X182605638Y-76502551D01*
X182641848Y-76441236D01*
X182692612Y-76393034D01*
X182742739Y-76359393D01*
X182863275Y-76314619D01*
X183003557Y-76304521D01*
X183135690Y-76330018D01*
G36*
X184143439Y-76346540D02*
X184258950Y-76422034D01*
X184314664Y-76489617D01*
X184358804Y-76612255D01*
X184362309Y-76709298D01*
X184354368Y-76839056D01*
X184055115Y-76970039D01*
X183909611Y-77036958D01*
X183814537Y-77090790D01*
X183765101Y-77137416D01*
X183756511Y-77182720D01*
X183783972Y-77232582D01*
X183814253Y-77265632D01*
X183902363Y-77318633D01*
X183998196Y-77322347D01*
X184086212Y-77281041D01*
X184150869Y-77198983D01*
X184162433Y-77170008D01*
X184217825Y-77079509D01*
X184281553Y-77040940D01*
X184368966Y-77007946D01*
X184368966Y-77133034D01*
X184361238Y-77218156D01*
X184330966Y-77289938D01*
X184267518Y-77372356D01*
X184258088Y-77383066D01*
X184187513Y-77456391D01*
X184126847Y-77495742D01*
X184050950Y-77513845D01*
X183988030Y-77519774D01*
X183875487Y-77521251D01*
X183795370Y-77502535D01*
X183745390Y-77474747D01*
X183666838Y-77413641D01*
X183612463Y-77347554D01*
X183578052Y-77264441D01*
X183559388Y-77152254D01*
X183552256Y-76998946D01*
X183551687Y-76921136D01*
X183553622Y-76827853D01*
X183729899Y-76827853D01*
X183731944Y-76877896D01*
X183737039Y-76886092D01*
X183770666Y-76874958D01*
X183843030Y-76845493D01*
X183939747Y-76803601D01*
X183959973Y-76794597D01*
X184082203Y-76732442D01*
X184149547Y-76677815D01*
X184164348Y-76626649D01*
X184128947Y-76574876D01*
X184099711Y-76552000D01*
X183994216Y-76506250D01*
X183895476Y-76513808D01*
X183812812Y-76569651D01*
X183755548Y-76668753D01*
X183737188Y-76747414D01*
X183729899Y-76827853D01*
X183553622Y-76827853D01*
X183555459Y-76739351D01*
X183569359Y-76604853D01*
X183596894Y-76506916D01*
X183641572Y-76434811D01*
X183706901Y-76377813D01*
X183735383Y-76359393D01*
X183864763Y-76311422D01*
X184006412Y-76308403D01*
X184143439Y-76346540D01*
X184143439Y-76346540D01*
G37*
X184143439Y-76346540D02*
X184258950Y-76422034D01*
X184314664Y-76489617D01*
X184358804Y-76612255D01*
X184362309Y-76709298D01*
X184354368Y-76839056D01*
X184055115Y-76970039D01*
X183909611Y-77036958D01*
X183814537Y-77090790D01*
X183765101Y-77137416D01*
X183756511Y-77182720D01*
X183783972Y-77232582D01*
X183814253Y-77265632D01*
X183902363Y-77318633D01*
X183998196Y-77322347D01*
X184086212Y-77281041D01*
X184150869Y-77198983D01*
X184162433Y-77170008D01*
X184217825Y-77079509D01*
X184281553Y-77040940D01*
X184368966Y-77007946D01*
X184368966Y-77133034D01*
X184361238Y-77218156D01*
X184330966Y-77289938D01*
X184267518Y-77372356D01*
X184258088Y-77383066D01*
X184187513Y-77456391D01*
X184126847Y-77495742D01*
X184050950Y-77513845D01*
X183988030Y-77519774D01*
X183875487Y-77521251D01*
X183795370Y-77502535D01*
X183745390Y-77474747D01*
X183666838Y-77413641D01*
X183612463Y-77347554D01*
X183578052Y-77264441D01*
X183559388Y-77152254D01*
X183552256Y-76998946D01*
X183551687Y-76921136D01*
X183553622Y-76827853D01*
X183729899Y-76827853D01*
X183731944Y-76877896D01*
X183737039Y-76886092D01*
X183770666Y-76874958D01*
X183843030Y-76845493D01*
X183939747Y-76803601D01*
X183959973Y-76794597D01*
X184082203Y-76732442D01*
X184149547Y-76677815D01*
X184164348Y-76626649D01*
X184128947Y-76574876D01*
X184099711Y-76552000D01*
X183994216Y-76506250D01*
X183895476Y-76513808D01*
X183812812Y-76569651D01*
X183755548Y-76668753D01*
X183737188Y-76747414D01*
X183729899Y-76827853D01*
X183553622Y-76827853D01*
X183555459Y-76739351D01*
X183569359Y-76604853D01*
X183596894Y-76506916D01*
X183641572Y-76434811D01*
X183706901Y-76377813D01*
X183735383Y-76359393D01*
X183864763Y-76311422D01*
X184006412Y-76308403D01*
X184143439Y-76346540D01*
G36*
X178009014Y-66842998D02*
X178167006Y-66843863D01*
X178281347Y-66846205D01*
X178359407Y-66850762D01*
X178408554Y-66858270D01*
X178436159Y-66869466D01*
X178449592Y-66885088D01*
X178456221Y-66905873D01*
X178456865Y-66908563D01*
X178466935Y-66957113D01*
X178485575Y-67052905D01*
X178510845Y-67185743D01*
X178540807Y-67345431D01*
X178573522Y-67521774D01*
X178574664Y-67527967D01*
X178607433Y-67700782D01*
X178638093Y-67853469D01*
X178664664Y-67976871D01*
X178685167Y-68061831D01*
X178697626Y-68099190D01*
X178698220Y-68099852D01*
X178734919Y-68118095D01*
X178810586Y-68148497D01*
X178908878Y-68184493D01*
X178909425Y-68184685D01*
X179033233Y-68231222D01*
X179179196Y-68290504D01*
X179316781Y-68350109D01*
X179323293Y-68353056D01*
X179547390Y-68454765D01*
X180043619Y-68115897D01*
X180195846Y-68012592D01*
X180333741Y-67920237D01*
X180449315Y-67844084D01*
X180534579Y-67789385D01*
X180581544Y-67761393D01*
X180586004Y-67759317D01*
X180620134Y-67768560D01*
X180683881Y-67813156D01*
X180779731Y-67895209D01*
X180910169Y-68016821D01*
X181043328Y-68146205D01*
X181171694Y-68273702D01*
X181286581Y-68390046D01*
X181381073Y-68488052D01*
X181448253Y-68560536D01*
X181481206Y-68600313D01*
X181482432Y-68602361D01*
X181486074Y-68629656D01*
X181472350Y-68674234D01*
X181437869Y-68742112D01*
X181379239Y-68839311D01*
X181293070Y-68971851D01*
X181178200Y-69142476D01*
X181076254Y-69292655D01*
X180985123Y-69427350D01*
X180910073Y-69538740D01*
X180856369Y-69619005D01*
X180829280Y-69660325D01*
X180827574Y-69663130D01*
X180830882Y-69702721D01*
X180855953Y-69779669D01*
X180897798Y-69879432D01*
X180912712Y-69911291D01*
X180977786Y-70053226D01*
X181047212Y-70214273D01*
X181103609Y-70353621D01*
X181144247Y-70457044D01*
X181176526Y-70535642D01*
X181195178Y-70576720D01*
X181197497Y-70579885D01*
X181231803Y-70585128D01*
X181312669Y-70599494D01*
X181429343Y-70620937D01*
X181571075Y-70647413D01*
X181727110Y-70676877D01*
X181886698Y-70707283D01*
X182039085Y-70736588D01*
X182173521Y-70762745D01*
X182279252Y-70783710D01*
X182345526Y-70797439D01*
X182361782Y-70801320D01*
X182378573Y-70810900D01*
X182391249Y-70832536D01*
X182400378Y-70873531D01*
X182406531Y-70941189D01*
X182410280Y-71042812D01*
X182412192Y-71185703D01*
X182412840Y-71377165D01*
X182412874Y-71455645D01*
X182412874Y-72093906D01*
X182259598Y-72124160D01*
X182174322Y-72140564D01*
X182047070Y-72164509D01*
X181893315Y-72193107D01*
X181728534Y-72223467D01*
X181682989Y-72231806D01*
X181530932Y-72261370D01*
X181398468Y-72290442D01*
X181296714Y-72316329D01*
X181236788Y-72336337D01*
X181226805Y-72342301D01*
X181202293Y-72384534D01*
X181167148Y-72466370D01*
X181128173Y-72571683D01*
X181120442Y-72594368D01*
X181069360Y-72735018D01*
X181005954Y-72893714D01*
X180943904Y-73036225D01*
X180943598Y-73036886D01*
X180840267Y-73260440D01*
X181519961Y-74260232D01*
X181083621Y-74697300D01*
X180951649Y-74827381D01*
X180831279Y-74942048D01*
X180729273Y-75035181D01*
X180652391Y-75100658D01*
X180607393Y-75132357D01*
X180600938Y-75134368D01*
X180563040Y-75118529D01*
X180485708Y-75074496D01*
X180377389Y-75007490D01*
X180246532Y-74922734D01*
X180105052Y-74827816D01*
X179961461Y-74730998D01*
X179833435Y-74646751D01*
X179729105Y-74580258D01*
X179656600Y-74536702D01*
X179624158Y-74521264D01*
X179584576Y-74534328D01*
X179509519Y-74568750D01*
X179414468Y-74617380D01*
X179404392Y-74622785D01*
X179276391Y-74686980D01*
X179188618Y-74718463D01*
X179134028Y-74718798D01*
X179105575Y-74689548D01*
X179105410Y-74689138D01*
X179091188Y-74654498D01*
X179057269Y-74572269D01*
X179006284Y-74448814D01*
X178940862Y-74290498D01*
X178863634Y-74103686D01*
X178777229Y-73894742D01*
X178693551Y-73692446D01*
X178601588Y-73469200D01*
X178517150Y-73262392D01*
X178442769Y-73078362D01*
X178380974Y-72923451D01*
X178334297Y-72803996D01*
X178305268Y-72726339D01*
X178296322Y-72697356D01*
X178318756Y-72664110D01*
X178377439Y-72611123D01*
X178455689Y-72552704D01*
X178678534Y-72367952D01*
X178852718Y-72156182D01*
X178976154Y-71921856D01*
X179046754Y-71669434D01*
X179062431Y-71403377D01*
X179051036Y-71280575D01*
X178988950Y-71025793D01*
X178882023Y-70800801D01*
X178736889Y-70607817D01*
X178560178Y-70449061D01*
X178358522Y-70326750D01*
X178138554Y-70243105D01*
X177906906Y-70200344D01*
X177670209Y-70200687D01*
X177435095Y-70246352D01*
X177208196Y-70339559D01*
X176996144Y-70482527D01*
X176907636Y-70563383D01*
X176737889Y-70771007D01*
X176619699Y-70997895D01*
X176552278Y-71237433D01*
X176534840Y-71483007D01*
X176566598Y-71728003D01*
X176646765Y-71965808D01*
X176774555Y-72189807D01*
X176949180Y-72393387D01*
X177144312Y-72552704D01*
X177225591Y-72613602D01*
X177283009Y-72666015D01*
X177303678Y-72697406D01*
X177292856Y-72731639D01*
X177262077Y-72813419D01*
X177213874Y-72936407D01*
X177150778Y-73094263D01*
X177075322Y-73280649D01*
X176990038Y-73489226D01*
X176906219Y-73692496D01*
X176813745Y-73915933D01*
X176728089Y-74122984D01*
X176651882Y-74307286D01*
X176587753Y-74462475D01*
X176538332Y-74582188D01*
X176506248Y-74660061D01*
X176494359Y-74689138D01*
X176466274Y-74718677D01*
X176411949Y-74718591D01*
X176324395Y-74687326D01*
X176196619Y-74623329D01*
X176195608Y-74622785D01*
X176099402Y-74573121D01*
X176021631Y-74536945D01*
X175977777Y-74521408D01*
X175975842Y-74521264D01*
X175942829Y-74537024D01*
X175869946Y-74580850D01*
X175765322Y-74647557D01*
X175637090Y-74731964D01*
X175494948Y-74827816D01*
X175350233Y-74924867D01*
X175219804Y-75009270D01*
X175112110Y-75075801D01*
X175035598Y-75119238D01*
X174999062Y-75134368D01*
X174965418Y-75114482D01*
X174897776Y-75058903D01*
X174802893Y-74973754D01*
X174687530Y-74865153D01*
X174558445Y-74739221D01*
X174516229Y-74697149D01*
X174079739Y-74259931D01*
X174411977Y-73772340D01*
X174512946Y-73622605D01*
X174601562Y-73488220D01*
X174672854Y-73376969D01*
X174721850Y-73296639D01*
X174743578Y-73255014D01*
X174744215Y-73252053D01*
X174732760Y-73212818D01*
X174701949Y-73133895D01*
X174657116Y-73028509D01*
X174625647Y-72957954D01*
X174566808Y-72822876D01*
X174511396Y-72686409D01*
X174468436Y-72571103D01*
X174456766Y-72535977D01*
X174423611Y-72442174D01*
X174391201Y-72369694D01*
X174373399Y-72342301D01*
X174334114Y-72325536D01*
X174248374Y-72301770D01*
X174127303Y-72273697D01*
X173982027Y-72244009D01*
X173917012Y-72231806D01*
X173751913Y-72201468D01*
X173593552Y-72172093D01*
X173457404Y-72146569D01*
X173358943Y-72127785D01*
X173340402Y-72124160D01*
X173187127Y-72093906D01*
X173187127Y-71455645D01*
X173187471Y-71245770D01*
X173188884Y-71086980D01*
X173191936Y-70971973D01*
X173197197Y-70893446D01*
X173205237Y-70844096D01*
X173216627Y-70816619D01*
X173231937Y-70803713D01*
X173238218Y-70801320D01*
X173276104Y-70792833D01*
X173359805Y-70775900D01*
X173478567Y-70752566D01*
X173621639Y-70724875D01*
X173778268Y-70694873D01*
X173937703Y-70664604D01*
X174089191Y-70636115D01*
X174221981Y-70611449D01*
X174325319Y-70592651D01*
X174388455Y-70581767D01*
X174402503Y-70579885D01*
X174415230Y-70554704D01*
X174443400Y-70487622D01*
X174481748Y-70391333D01*
X174496391Y-70353621D01*
X174555452Y-70207921D01*
X174625000Y-70046951D01*
X174687288Y-69911291D01*
X174733121Y-69807561D01*
X174763613Y-69722326D01*
X174773792Y-69670126D01*
X174772169Y-69663130D01*
X174750657Y-69630102D01*
X174701535Y-69556643D01*
X174630077Y-69450577D01*
X174541555Y-69319726D01*
X174441241Y-69171912D01*
X174421406Y-69142734D01*
X174305012Y-68969863D01*
X174219452Y-68838226D01*
X174161316Y-68741761D01*
X174127192Y-68674408D01*
X174113669Y-68630106D01*
X174117336Y-68602794D01*
X174117430Y-68602620D01*
X174146293Y-68566746D01*
X174210133Y-68497391D01*
X174302031Y-68401745D01*
X174415067Y-68286999D01*
X174542321Y-68160341D01*
X174556672Y-68146205D01*
X174717043Y-67990903D01*
X174840805Y-67876870D01*
X174930445Y-67802002D01*
X174988448Y-67764196D01*
X175013996Y-67759317D01*
X175051282Y-67780603D01*
X175128657Y-67829773D01*
X175238133Y-67901575D01*
X175371720Y-67990755D01*
X175521430Y-68092063D01*
X175556382Y-68115897D01*
X176052610Y-68454765D01*
X176276707Y-68353056D01*
X176412989Y-68293783D01*
X176559276Y-68234170D01*
X176685035Y-68186640D01*
X176690575Y-68184685D01*
X176788943Y-68148677D01*
X176864771Y-68118229D01*
X176901718Y-68099905D01*
X176901780Y-68099852D01*
X176913504Y-68066729D01*
X176933432Y-67985267D01*
X176959587Y-67864625D01*
X176989990Y-67713959D01*
X177022663Y-67542428D01*
X177025336Y-67527967D01*
X177058110Y-67351235D01*
X177088198Y-67190810D01*
X177113661Y-67056888D01*
X177132559Y-66959663D01*
X177142953Y-66909332D01*
X177143135Y-66908563D01*
X177149461Y-66887153D01*
X177161761Y-66870988D01*
X177187406Y-66859331D01*
X177233765Y-66851445D01*
X177308208Y-66846593D01*
X177418105Y-66844039D01*
X177570825Y-66843045D01*
X177773738Y-66842874D01*
X177800000Y-66842874D01*
X178009014Y-66842998D01*
X178009014Y-66842998D01*
G37*
X178009014Y-66842998D02*
X178167006Y-66843863D01*
X178281347Y-66846205D01*
X178359407Y-66850762D01*
X178408554Y-66858270D01*
X178436159Y-66869466D01*
X178449592Y-66885088D01*
X178456221Y-66905873D01*
X178456865Y-66908563D01*
X178466935Y-66957113D01*
X178485575Y-67052905D01*
X178510845Y-67185743D01*
X178540807Y-67345431D01*
X178573522Y-67521774D01*
X178574664Y-67527967D01*
X178607433Y-67700782D01*
X178638093Y-67853469D01*
X178664664Y-67976871D01*
X178685167Y-68061831D01*
X178697626Y-68099190D01*
X178698220Y-68099852D01*
X178734919Y-68118095D01*
X178810586Y-68148497D01*
X178908878Y-68184493D01*
X178909425Y-68184685D01*
X179033233Y-68231222D01*
X179179196Y-68290504D01*
X179316781Y-68350109D01*
X179323293Y-68353056D01*
X179547390Y-68454765D01*
X180043619Y-68115897D01*
X180195846Y-68012592D01*
X180333741Y-67920237D01*
X180449315Y-67844084D01*
X180534579Y-67789385D01*
X180581544Y-67761393D01*
X180586004Y-67759317D01*
X180620134Y-67768560D01*
X180683881Y-67813156D01*
X180779731Y-67895209D01*
X180910169Y-68016821D01*
X181043328Y-68146205D01*
X181171694Y-68273702D01*
X181286581Y-68390046D01*
X181381073Y-68488052D01*
X181448253Y-68560536D01*
X181481206Y-68600313D01*
X181482432Y-68602361D01*
X181486074Y-68629656D01*
X181472350Y-68674234D01*
X181437869Y-68742112D01*
X181379239Y-68839311D01*
X181293070Y-68971851D01*
X181178200Y-69142476D01*
X181076254Y-69292655D01*
X180985123Y-69427350D01*
X180910073Y-69538740D01*
X180856369Y-69619005D01*
X180829280Y-69660325D01*
X180827574Y-69663130D01*
X180830882Y-69702721D01*
X180855953Y-69779669D01*
X180897798Y-69879432D01*
X180912712Y-69911291D01*
X180977786Y-70053226D01*
X181047212Y-70214273D01*
X181103609Y-70353621D01*
X181144247Y-70457044D01*
X181176526Y-70535642D01*
X181195178Y-70576720D01*
X181197497Y-70579885D01*
X181231803Y-70585128D01*
X181312669Y-70599494D01*
X181429343Y-70620937D01*
X181571075Y-70647413D01*
X181727110Y-70676877D01*
X181886698Y-70707283D01*
X182039085Y-70736588D01*
X182173521Y-70762745D01*
X182279252Y-70783710D01*
X182345526Y-70797439D01*
X182361782Y-70801320D01*
X182378573Y-70810900D01*
X182391249Y-70832536D01*
X182400378Y-70873531D01*
X182406531Y-70941189D01*
X182410280Y-71042812D01*
X182412192Y-71185703D01*
X182412840Y-71377165D01*
X182412874Y-71455645D01*
X182412874Y-72093906D01*
X182259598Y-72124160D01*
X182174322Y-72140564D01*
X182047070Y-72164509D01*
X181893315Y-72193107D01*
X181728534Y-72223467D01*
X181682989Y-72231806D01*
X181530932Y-72261370D01*
X181398468Y-72290442D01*
X181296714Y-72316329D01*
X181236788Y-72336337D01*
X181226805Y-72342301D01*
X181202293Y-72384534D01*
X181167148Y-72466370D01*
X181128173Y-72571683D01*
X181120442Y-72594368D01*
X181069360Y-72735018D01*
X181005954Y-72893714D01*
X180943904Y-73036225D01*
X180943598Y-73036886D01*
X180840267Y-73260440D01*
X181519961Y-74260232D01*
X181083621Y-74697300D01*
X180951649Y-74827381D01*
X180831279Y-74942048D01*
X180729273Y-75035181D01*
X180652391Y-75100658D01*
X180607393Y-75132357D01*
X180600938Y-75134368D01*
X180563040Y-75118529D01*
X180485708Y-75074496D01*
X180377389Y-75007490D01*
X180246532Y-74922734D01*
X180105052Y-74827816D01*
X179961461Y-74730998D01*
X179833435Y-74646751D01*
X179729105Y-74580258D01*
X179656600Y-74536702D01*
X179624158Y-74521264D01*
X179584576Y-74534328D01*
X179509519Y-74568750D01*
X179414468Y-74617380D01*
X179404392Y-74622785D01*
X179276391Y-74686980D01*
X179188618Y-74718463D01*
X179134028Y-74718798D01*
X179105575Y-74689548D01*
X179105410Y-74689138D01*
X179091188Y-74654498D01*
X179057269Y-74572269D01*
X179006284Y-74448814D01*
X178940862Y-74290498D01*
X178863634Y-74103686D01*
X178777229Y-73894742D01*
X178693551Y-73692446D01*
X178601588Y-73469200D01*
X178517150Y-73262392D01*
X178442769Y-73078362D01*
X178380974Y-72923451D01*
X178334297Y-72803996D01*
X178305268Y-72726339D01*
X178296322Y-72697356D01*
X178318756Y-72664110D01*
X178377439Y-72611123D01*
X178455689Y-72552704D01*
X178678534Y-72367952D01*
X178852718Y-72156182D01*
X178976154Y-71921856D01*
X179046754Y-71669434D01*
X179062431Y-71403377D01*
X179051036Y-71280575D01*
X178988950Y-71025793D01*
X178882023Y-70800801D01*
X178736889Y-70607817D01*
X178560178Y-70449061D01*
X178358522Y-70326750D01*
X178138554Y-70243105D01*
X177906906Y-70200344D01*
X177670209Y-70200687D01*
X177435095Y-70246352D01*
X177208196Y-70339559D01*
X176996144Y-70482527D01*
X176907636Y-70563383D01*
X176737889Y-70771007D01*
X176619699Y-70997895D01*
X176552278Y-71237433D01*
X176534840Y-71483007D01*
X176566598Y-71728003D01*
X176646765Y-71965808D01*
X176774555Y-72189807D01*
X176949180Y-72393387D01*
X177144312Y-72552704D01*
X177225591Y-72613602D01*
X177283009Y-72666015D01*
X177303678Y-72697406D01*
X177292856Y-72731639D01*
X177262077Y-72813419D01*
X177213874Y-72936407D01*
X177150778Y-73094263D01*
X177075322Y-73280649D01*
X176990038Y-73489226D01*
X176906219Y-73692496D01*
X176813745Y-73915933D01*
X176728089Y-74122984D01*
X176651882Y-74307286D01*
X176587753Y-74462475D01*
X176538332Y-74582188D01*
X176506248Y-74660061D01*
X176494359Y-74689138D01*
X176466274Y-74718677D01*
X176411949Y-74718591D01*
X176324395Y-74687326D01*
X176196619Y-74623329D01*
X176195608Y-74622785D01*
X176099402Y-74573121D01*
X176021631Y-74536945D01*
X175977777Y-74521408D01*
X175975842Y-74521264D01*
X175942829Y-74537024D01*
X175869946Y-74580850D01*
X175765322Y-74647557D01*
X175637090Y-74731964D01*
X175494948Y-74827816D01*
X175350233Y-74924867D01*
X175219804Y-75009270D01*
X175112110Y-75075801D01*
X175035598Y-75119238D01*
X174999062Y-75134368D01*
X174965418Y-75114482D01*
X174897776Y-75058903D01*
X174802893Y-74973754D01*
X174687530Y-74865153D01*
X174558445Y-74739221D01*
X174516229Y-74697149D01*
X174079739Y-74259931D01*
X174411977Y-73772340D01*
X174512946Y-73622605D01*
X174601562Y-73488220D01*
X174672854Y-73376969D01*
X174721850Y-73296639D01*
X174743578Y-73255014D01*
X174744215Y-73252053D01*
X174732760Y-73212818D01*
X174701949Y-73133895D01*
X174657116Y-73028509D01*
X174625647Y-72957954D01*
X174566808Y-72822876D01*
X174511396Y-72686409D01*
X174468436Y-72571103D01*
X174456766Y-72535977D01*
X174423611Y-72442174D01*
X174391201Y-72369694D01*
X174373399Y-72342301D01*
X174334114Y-72325536D01*
X174248374Y-72301770D01*
X174127303Y-72273697D01*
X173982027Y-72244009D01*
X173917012Y-72231806D01*
X173751913Y-72201468D01*
X173593552Y-72172093D01*
X173457404Y-72146569D01*
X173358943Y-72127785D01*
X173340402Y-72124160D01*
X173187127Y-72093906D01*
X173187127Y-71455645D01*
X173187471Y-71245770D01*
X173188884Y-71086980D01*
X173191936Y-70971973D01*
X173197197Y-70893446D01*
X173205237Y-70844096D01*
X173216627Y-70816619D01*
X173231937Y-70803713D01*
X173238218Y-70801320D01*
X173276104Y-70792833D01*
X173359805Y-70775900D01*
X173478567Y-70752566D01*
X173621639Y-70724875D01*
X173778268Y-70694873D01*
X173937703Y-70664604D01*
X174089191Y-70636115D01*
X174221981Y-70611449D01*
X174325319Y-70592651D01*
X174388455Y-70581767D01*
X174402503Y-70579885D01*
X174415230Y-70554704D01*
X174443400Y-70487622D01*
X174481748Y-70391333D01*
X174496391Y-70353621D01*
X174555452Y-70207921D01*
X174625000Y-70046951D01*
X174687288Y-69911291D01*
X174733121Y-69807561D01*
X174763613Y-69722326D01*
X174773792Y-69670126D01*
X174772169Y-69663130D01*
X174750657Y-69630102D01*
X174701535Y-69556643D01*
X174630077Y-69450577D01*
X174541555Y-69319726D01*
X174441241Y-69171912D01*
X174421406Y-69142734D01*
X174305012Y-68969863D01*
X174219452Y-68838226D01*
X174161316Y-68741761D01*
X174127192Y-68674408D01*
X174113669Y-68630106D01*
X174117336Y-68602794D01*
X174117430Y-68602620D01*
X174146293Y-68566746D01*
X174210133Y-68497391D01*
X174302031Y-68401745D01*
X174415067Y-68286999D01*
X174542321Y-68160341D01*
X174556672Y-68146205D01*
X174717043Y-67990903D01*
X174840805Y-67876870D01*
X174930445Y-67802002D01*
X174988448Y-67764196D01*
X175013996Y-67759317D01*
X175051282Y-67780603D01*
X175128657Y-67829773D01*
X175238133Y-67901575D01*
X175371720Y-67990755D01*
X175521430Y-68092063D01*
X175556382Y-68115897D01*
X176052610Y-68454765D01*
X176276707Y-68353056D01*
X176412989Y-68293783D01*
X176559276Y-68234170D01*
X176685035Y-68186640D01*
X176690575Y-68184685D01*
X176788943Y-68148677D01*
X176864771Y-68118229D01*
X176901718Y-68099905D01*
X176901780Y-68099852D01*
X176913504Y-68066729D01*
X176933432Y-67985267D01*
X176959587Y-67864625D01*
X176989990Y-67713959D01*
X177022663Y-67542428D01*
X177025336Y-67527967D01*
X177058110Y-67351235D01*
X177088198Y-67190810D01*
X177113661Y-67056888D01*
X177132559Y-66959663D01*
X177142953Y-66909332D01*
X177143135Y-66908563D01*
X177149461Y-66887153D01*
X177161761Y-66870988D01*
X177187406Y-66859331D01*
X177233765Y-66851445D01*
X177308208Y-66846593D01*
X177418105Y-66844039D01*
X177570825Y-66843045D01*
X177773738Y-66842874D01*
X177800000Y-66842874D01*
X178009014Y-66842998D01*
D15*
X114935000Y-110490000D02*
X123825000Y-121920000D01*
X123825000Y-121920000D02*
X106045000Y-121920000D01*
X106045000Y-121920000D02*
X114935000Y-110490000D01*
D16*
X115316000Y-115189000D02*
X113919000Y-117094000D01*
X113919000Y-117094000D02*
X115189000Y-117094000D01*
X113665000Y-118999000D02*
X113538000Y-120015000D01*
X113538000Y-120015000D02*
X114300000Y-119380000D01*
X114300000Y-119380000D02*
X113792000Y-119634000D01*
X113792000Y-119634000D02*
X115570000Y-116840000D01*
X115570000Y-116840000D02*
X114300000Y-116840000D01*
X114300000Y-116840000D02*
X116078000Y-114808000D01*
X116078000Y-114808000D02*
X115316000Y-115316000D01*
X115316000Y-115316000D02*
X115189000Y-114808000D01*
X115062000Y-114935000D02*
X113538000Y-117221000D01*
X113538000Y-117221000D02*
X114935000Y-117221000D01*
X114935000Y-117221000D02*
X113792000Y-119507000D01*
X113792000Y-119507000D02*
X113665000Y-118999000D01*
D11*
X174918810Y-135707381D02*
X174918810Y-134707381D01*
X175966429Y-135612143D02*
X175918810Y-135659762D01*
X175775953Y-135707381D01*
X175680715Y-135707381D01*
X175537857Y-135659762D01*
X175442619Y-135564524D01*
X175395000Y-135469286D01*
X175347381Y-135278810D01*
X175347381Y-135135952D01*
X175395000Y-134945476D01*
X175442619Y-134850238D01*
X175537857Y-134755000D01*
X175680715Y-134707381D01*
X175775953Y-134707381D01*
X175918810Y-134755000D01*
X175966429Y-134802619D01*
X176918810Y-135707381D02*
X176347381Y-135707381D01*
X176633095Y-135707381D02*
X176633095Y-134707381D01*
X176537857Y-134850238D01*
X176442619Y-134945476D01*
X176347381Y-134993095D01*
X197318334Y-126087143D02*
X197270715Y-126134762D01*
X197127858Y-126182381D01*
X197032620Y-126182381D01*
X196889762Y-126134762D01*
X196794524Y-126039524D01*
X196746905Y-125944286D01*
X196699286Y-125753810D01*
X196699286Y-125610952D01*
X196746905Y-125420476D01*
X196794524Y-125325238D01*
X196889762Y-125230000D01*
X197032620Y-125182381D01*
X197127858Y-125182381D01*
X197270715Y-125230000D01*
X197318334Y-125277619D01*
X198270715Y-126182381D02*
X197699286Y-126182381D01*
X197985000Y-126182381D02*
X197985000Y-125182381D01*
X197889762Y-125325238D01*
X197794524Y-125420476D01*
X197699286Y-125468095D01*
X152868334Y-144502143D02*
X152820715Y-144549762D01*
X152677858Y-144597381D01*
X152582620Y-144597381D01*
X152439762Y-144549762D01*
X152344524Y-144454524D01*
X152296905Y-144359286D01*
X152249286Y-144168810D01*
X152249286Y-144025952D01*
X152296905Y-143835476D01*
X152344524Y-143740238D01*
X152439762Y-143645000D01*
X152582620Y-143597381D01*
X152677858Y-143597381D01*
X152820715Y-143645000D01*
X152868334Y-143692619D01*
X153249286Y-143692619D02*
X153296905Y-143645000D01*
X153392143Y-143597381D01*
X153630239Y-143597381D01*
X153725477Y-143645000D01*
X153773096Y-143692619D01*
X153820715Y-143787857D01*
X153820715Y-143883095D01*
X153773096Y-144025952D01*
X153201667Y-144597381D01*
X153820715Y-144597381D01*
X195413334Y-135612143D02*
X195365715Y-135659762D01*
X195222858Y-135707381D01*
X195127620Y-135707381D01*
X194984762Y-135659762D01*
X194889524Y-135564524D01*
X194841905Y-135469286D01*
X194794286Y-135278810D01*
X194794286Y-135135952D01*
X194841905Y-134945476D01*
X194889524Y-134850238D01*
X194984762Y-134755000D01*
X195127620Y-134707381D01*
X195222858Y-134707381D01*
X195365715Y-134755000D01*
X195413334Y-134802619D01*
X195746667Y-134707381D02*
X196365715Y-134707381D01*
X196032381Y-135088333D01*
X196175239Y-135088333D01*
X196270477Y-135135952D01*
X196318096Y-135183571D01*
X196365715Y-135278810D01*
X196365715Y-135516905D01*
X196318096Y-135612143D01*
X196270477Y-135659762D01*
X196175239Y-135707381D01*
X195889524Y-135707381D01*
X195794286Y-135659762D01*
X195746667Y-135612143D01*
X183348334Y-121642143D02*
X183300715Y-121689762D01*
X183157858Y-121737381D01*
X183062620Y-121737381D01*
X182919762Y-121689762D01*
X182824524Y-121594524D01*
X182776905Y-121499286D01*
X182729286Y-121308810D01*
X182729286Y-121165952D01*
X182776905Y-120975476D01*
X182824524Y-120880238D01*
X182919762Y-120785000D01*
X183062620Y-120737381D01*
X183157858Y-120737381D01*
X183300715Y-120785000D01*
X183348334Y-120832619D01*
X184205477Y-121070714D02*
X184205477Y-121737381D01*
X183967381Y-120689762D02*
X183729286Y-121404048D01*
X184348334Y-121404048D01*
X170648334Y-132437143D02*
X170600715Y-132484762D01*
X170457858Y-132532381D01*
X170362620Y-132532381D01*
X170219762Y-132484762D01*
X170124524Y-132389524D01*
X170076905Y-132294286D01*
X170029286Y-132103810D01*
X170029286Y-131960952D01*
X170076905Y-131770476D01*
X170124524Y-131675238D01*
X170219762Y-131580000D01*
X170362620Y-131532381D01*
X170457858Y-131532381D01*
X170600715Y-131580000D01*
X170648334Y-131627619D01*
X171553096Y-131532381D02*
X171076905Y-131532381D01*
X171029286Y-132008571D01*
X171076905Y-131960952D01*
X171172143Y-131913333D01*
X171410239Y-131913333D01*
X171505477Y-131960952D01*
X171553096Y-132008571D01*
X171600715Y-132103810D01*
X171600715Y-132341905D01*
X171553096Y-132437143D01*
X171505477Y-132484762D01*
X171410239Y-132532381D01*
X171172143Y-132532381D01*
X171076905Y-132484762D01*
X171029286Y-132437143D01*
X159853334Y-138787143D02*
X159805715Y-138834762D01*
X159662858Y-138882381D01*
X159567620Y-138882381D01*
X159424762Y-138834762D01*
X159329524Y-138739524D01*
X159281905Y-138644286D01*
X159234286Y-138453810D01*
X159234286Y-138310952D01*
X159281905Y-138120476D01*
X159329524Y-138025238D01*
X159424762Y-137930000D01*
X159567620Y-137882381D01*
X159662858Y-137882381D01*
X159805715Y-137930000D01*
X159853334Y-137977619D01*
X160710477Y-137882381D02*
X160520000Y-137882381D01*
X160424762Y-137930000D01*
X160377143Y-137977619D01*
X160281905Y-138120476D01*
X160234286Y-138310952D01*
X160234286Y-138691905D01*
X160281905Y-138787143D01*
X160329524Y-138834762D01*
X160424762Y-138882381D01*
X160615239Y-138882381D01*
X160710477Y-138834762D01*
X160758096Y-138787143D01*
X160805715Y-138691905D01*
X160805715Y-138453810D01*
X160758096Y-138358571D01*
X160710477Y-138310952D01*
X160615239Y-138263333D01*
X160424762Y-138263333D01*
X160329524Y-138310952D01*
X160281905Y-138358571D01*
X160234286Y-138453810D01*
X129373334Y-80367143D02*
X129325715Y-80414762D01*
X129182858Y-80462381D01*
X129087620Y-80462381D01*
X128944762Y-80414762D01*
X128849524Y-80319524D01*
X128801905Y-80224286D01*
X128754286Y-80033810D01*
X128754286Y-79890952D01*
X128801905Y-79700476D01*
X128849524Y-79605238D01*
X128944762Y-79510000D01*
X129087620Y-79462381D01*
X129182858Y-79462381D01*
X129325715Y-79510000D01*
X129373334Y-79557619D01*
X129706667Y-79462381D02*
X130373334Y-79462381D01*
X129944762Y-80462381D01*
X135723334Y-80367143D02*
X135675715Y-80414762D01*
X135532858Y-80462381D01*
X135437620Y-80462381D01*
X135294762Y-80414762D01*
X135199524Y-80319524D01*
X135151905Y-80224286D01*
X135104286Y-80033810D01*
X135104286Y-79890952D01*
X135151905Y-79700476D01*
X135199524Y-79605238D01*
X135294762Y-79510000D01*
X135437620Y-79462381D01*
X135532858Y-79462381D01*
X135675715Y-79510000D01*
X135723334Y-79557619D01*
X136294762Y-79890952D02*
X136199524Y-79843333D01*
X136151905Y-79795714D01*
X136104286Y-79700476D01*
X136104286Y-79652857D01*
X136151905Y-79557619D01*
X136199524Y-79510000D01*
X136294762Y-79462381D01*
X136485239Y-79462381D01*
X136580477Y-79510000D01*
X136628096Y-79557619D01*
X136675715Y-79652857D01*
X136675715Y-79700476D01*
X136628096Y-79795714D01*
X136580477Y-79843333D01*
X136485239Y-79890952D01*
X136294762Y-79890952D01*
X136199524Y-79938571D01*
X136151905Y-79986190D01*
X136104286Y-80081429D01*
X136104286Y-80271905D01*
X136151905Y-80367143D01*
X136199524Y-80414762D01*
X136294762Y-80462381D01*
X136485239Y-80462381D01*
X136580477Y-80414762D01*
X136628096Y-80367143D01*
X136675715Y-80271905D01*
X136675715Y-80081429D01*
X136628096Y-79986190D01*
X136580477Y-79938571D01*
X136485239Y-79890952D01*
X170003334Y-136882143D02*
X169955715Y-136929762D01*
X169812858Y-136977381D01*
X169717620Y-136977381D01*
X169574762Y-136929762D01*
X169479524Y-136834524D01*
X169431905Y-136739286D01*
X169384286Y-136548810D01*
X169384286Y-136405952D01*
X169431905Y-136215476D01*
X169479524Y-136120238D01*
X169574762Y-136025000D01*
X169717620Y-135977381D01*
X169812858Y-135977381D01*
X169955715Y-136025000D01*
X170003334Y-136072619D01*
X170479524Y-136977381D02*
X170670000Y-136977381D01*
X170765239Y-136929762D01*
X170812858Y-136882143D01*
X170908096Y-136739286D01*
X170955715Y-136548810D01*
X170955715Y-136167857D01*
X170908096Y-136072619D01*
X170860477Y-136025000D01*
X170765239Y-135977381D01*
X170574762Y-135977381D01*
X170479524Y-136025000D01*
X170431905Y-136072619D01*
X170384286Y-136167857D01*
X170384286Y-136405952D01*
X170431905Y-136501190D01*
X170479524Y-136548810D01*
X170574762Y-136596429D01*
X170765239Y-136596429D01*
X170860477Y-136548810D01*
X170908096Y-136501190D01*
X170955715Y-136405952D01*
X156837143Y-81002143D02*
X156789524Y-81049762D01*
X156646667Y-81097381D01*
X156551429Y-81097381D01*
X156408571Y-81049762D01*
X156313333Y-80954524D01*
X156265714Y-80859286D01*
X156218095Y-80668810D01*
X156218095Y-80525952D01*
X156265714Y-80335476D01*
X156313333Y-80240238D01*
X156408571Y-80145000D01*
X156551429Y-80097381D01*
X156646667Y-80097381D01*
X156789524Y-80145000D01*
X156837143Y-80192619D01*
X157789524Y-81097381D02*
X157218095Y-81097381D01*
X157503809Y-81097381D02*
X157503809Y-80097381D01*
X157408571Y-80240238D01*
X157313333Y-80335476D01*
X157218095Y-80383095D01*
X158408571Y-80097381D02*
X158503810Y-80097381D01*
X158599048Y-80145000D01*
X158646667Y-80192619D01*
X158694286Y-80287857D01*
X158741905Y-80478333D01*
X158741905Y-80716429D01*
X158694286Y-80906905D01*
X158646667Y-81002143D01*
X158599048Y-81049762D01*
X158503810Y-81097381D01*
X158408571Y-81097381D01*
X158313333Y-81049762D01*
X158265714Y-81002143D01*
X158218095Y-80906905D01*
X158170476Y-80716429D01*
X158170476Y-80478333D01*
X158218095Y-80287857D01*
X158265714Y-80192619D01*
X158313333Y-80145000D01*
X158408571Y-80097381D01*
X156837143Y-103227143D02*
X156789524Y-103274762D01*
X156646667Y-103322381D01*
X156551429Y-103322381D01*
X156408571Y-103274762D01*
X156313333Y-103179524D01*
X156265714Y-103084286D01*
X156218095Y-102893810D01*
X156218095Y-102750952D01*
X156265714Y-102560476D01*
X156313333Y-102465238D01*
X156408571Y-102370000D01*
X156551429Y-102322381D01*
X156646667Y-102322381D01*
X156789524Y-102370000D01*
X156837143Y-102417619D01*
X157789524Y-103322381D02*
X157218095Y-103322381D01*
X157503809Y-103322381D02*
X157503809Y-102322381D01*
X157408571Y-102465238D01*
X157313333Y-102560476D01*
X157218095Y-102608095D01*
X158741905Y-103322381D02*
X158170476Y-103322381D01*
X158456190Y-103322381D02*
X158456190Y-102322381D01*
X158360952Y-102465238D01*
X158265714Y-102560476D01*
X158170476Y-102608095D01*
X159857143Y-116562143D02*
X159809524Y-116609762D01*
X159666667Y-116657381D01*
X159571429Y-116657381D01*
X159428571Y-116609762D01*
X159333333Y-116514524D01*
X159285714Y-116419286D01*
X159238095Y-116228810D01*
X159238095Y-116085952D01*
X159285714Y-115895476D01*
X159333333Y-115800238D01*
X159428571Y-115705000D01*
X159571429Y-115657381D01*
X159666667Y-115657381D01*
X159809524Y-115705000D01*
X159857143Y-115752619D01*
X160809524Y-116657381D02*
X160238095Y-116657381D01*
X160523809Y-116657381D02*
X160523809Y-115657381D01*
X160428571Y-115800238D01*
X160333333Y-115895476D01*
X160238095Y-115943095D01*
X161190476Y-115752619D02*
X161238095Y-115705000D01*
X161333333Y-115657381D01*
X161571429Y-115657381D01*
X161666667Y-115705000D01*
X161714286Y-115752619D01*
X161761905Y-115847857D01*
X161761905Y-115943095D01*
X161714286Y-116085952D01*
X161142857Y-116657381D01*
X161761905Y-116657381D01*
X151757143Y-120372143D02*
X151709524Y-120419762D01*
X151566667Y-120467381D01*
X151471429Y-120467381D01*
X151328571Y-120419762D01*
X151233333Y-120324524D01*
X151185714Y-120229286D01*
X151138095Y-120038810D01*
X151138095Y-119895952D01*
X151185714Y-119705476D01*
X151233333Y-119610238D01*
X151328571Y-119515000D01*
X151471429Y-119467381D01*
X151566667Y-119467381D01*
X151709524Y-119515000D01*
X151757143Y-119562619D01*
X152709524Y-120467381D02*
X152138095Y-120467381D01*
X152423809Y-120467381D02*
X152423809Y-119467381D01*
X152328571Y-119610238D01*
X152233333Y-119705476D01*
X152138095Y-119753095D01*
X153042857Y-119467381D02*
X153661905Y-119467381D01*
X153328571Y-119848333D01*
X153471429Y-119848333D01*
X153566667Y-119895952D01*
X153614286Y-119943571D01*
X153661905Y-120038810D01*
X153661905Y-120276905D01*
X153614286Y-120372143D01*
X153566667Y-120419762D01*
X153471429Y-120467381D01*
X153185714Y-120467381D01*
X153090476Y-120419762D01*
X153042857Y-120372143D01*
X189222143Y-132437143D02*
X189174524Y-132484762D01*
X189031667Y-132532381D01*
X188936429Y-132532381D01*
X188793571Y-132484762D01*
X188698333Y-132389524D01*
X188650714Y-132294286D01*
X188603095Y-132103810D01*
X188603095Y-131960952D01*
X188650714Y-131770476D01*
X188698333Y-131675238D01*
X188793571Y-131580000D01*
X188936429Y-131532381D01*
X189031667Y-131532381D01*
X189174524Y-131580000D01*
X189222143Y-131627619D01*
X190174524Y-132532381D02*
X189603095Y-132532381D01*
X189888809Y-132532381D02*
X189888809Y-131532381D01*
X189793571Y-131675238D01*
X189698333Y-131770476D01*
X189603095Y-131818095D01*
X191031667Y-131865714D02*
X191031667Y-132532381D01*
X190793571Y-131484762D02*
X190555476Y-132199048D01*
X191174524Y-132199048D01*
X190492143Y-125452143D02*
X190444524Y-125499762D01*
X190301667Y-125547381D01*
X190206429Y-125547381D01*
X190063571Y-125499762D01*
X189968333Y-125404524D01*
X189920714Y-125309286D01*
X189873095Y-125118810D01*
X189873095Y-124975952D01*
X189920714Y-124785476D01*
X189968333Y-124690238D01*
X190063571Y-124595000D01*
X190206429Y-124547381D01*
X190301667Y-124547381D01*
X190444524Y-124595000D01*
X190492143Y-124642619D01*
X191444524Y-125547381D02*
X190873095Y-125547381D01*
X191158809Y-125547381D02*
X191158809Y-124547381D01*
X191063571Y-124690238D01*
X190968333Y-124785476D01*
X190873095Y-124833095D01*
X192349286Y-124547381D02*
X191873095Y-124547381D01*
X191825476Y-125023571D01*
X191873095Y-124975952D01*
X191968333Y-124928333D01*
X192206429Y-124928333D01*
X192301667Y-124975952D01*
X192349286Y-125023571D01*
X192396905Y-125118810D01*
X192396905Y-125356905D01*
X192349286Y-125452143D01*
X192301667Y-125499762D01*
X192206429Y-125547381D01*
X191968333Y-125547381D01*
X191873095Y-125499762D01*
X191825476Y-125452143D01*
X145407143Y-134977143D02*
X145359524Y-135024762D01*
X145216667Y-135072381D01*
X145121429Y-135072381D01*
X144978571Y-135024762D01*
X144883333Y-134929524D01*
X144835714Y-134834286D01*
X144788095Y-134643810D01*
X144788095Y-134500952D01*
X144835714Y-134310476D01*
X144883333Y-134215238D01*
X144978571Y-134120000D01*
X145121429Y-134072381D01*
X145216667Y-134072381D01*
X145359524Y-134120000D01*
X145407143Y-134167619D01*
X146359524Y-135072381D02*
X145788095Y-135072381D01*
X146073809Y-135072381D02*
X146073809Y-134072381D01*
X145978571Y-134215238D01*
X145883333Y-134310476D01*
X145788095Y-134358095D01*
X147216667Y-134072381D02*
X147026190Y-134072381D01*
X146930952Y-134120000D01*
X146883333Y-134167619D01*
X146788095Y-134310476D01*
X146740476Y-134500952D01*
X146740476Y-134881905D01*
X146788095Y-134977143D01*
X146835714Y-135024762D01*
X146930952Y-135072381D01*
X147121429Y-135072381D01*
X147216667Y-135024762D01*
X147264286Y-134977143D01*
X147311905Y-134881905D01*
X147311905Y-134643810D01*
X147264286Y-134548571D01*
X147216667Y-134500952D01*
X147121429Y-134453333D01*
X146930952Y-134453333D01*
X146835714Y-134500952D01*
X146788095Y-134548571D01*
X146740476Y-134643810D01*
X163187143Y-147437143D02*
X163139524Y-147484762D01*
X162996667Y-147532381D01*
X162901429Y-147532381D01*
X162758571Y-147484762D01*
X162663333Y-147389524D01*
X162615714Y-147294286D01*
X162568095Y-147103810D01*
X162568095Y-146960952D01*
X162615714Y-146770476D01*
X162663333Y-146675238D01*
X162758571Y-146580000D01*
X162901429Y-146532381D01*
X162996667Y-146532381D01*
X163139524Y-146580000D01*
X163187143Y-146627619D01*
X164139524Y-147532381D02*
X163568095Y-147532381D01*
X163853809Y-147532381D02*
X163853809Y-146532381D01*
X163758571Y-146675238D01*
X163663333Y-146770476D01*
X163568095Y-146818095D01*
X164472857Y-146532381D02*
X165139524Y-146532381D01*
X164710952Y-147532381D01*
X148011925Y-126817381D02*
X148011925Y-125817381D01*
X148250020Y-125817381D01*
X148392878Y-125865000D01*
X148488116Y-125960238D01*
X148535735Y-126055476D01*
X148583354Y-126245952D01*
X148583354Y-126388810D01*
X148535735Y-126579286D01*
X148488116Y-126674524D01*
X148392878Y-126769762D01*
X148250020Y-126817381D01*
X148011925Y-126817381D01*
X149535735Y-126817381D02*
X148964306Y-126817381D01*
X149250020Y-126817381D02*
X149250020Y-125817381D01*
X149154782Y-125960238D01*
X149059544Y-126055476D01*
X148964306Y-126103095D01*
X141501905Y-136342381D02*
X141501905Y-135342381D01*
X141740000Y-135342381D01*
X141882858Y-135390000D01*
X141978096Y-135485238D01*
X142025715Y-135580476D01*
X142073334Y-135770952D01*
X142073334Y-135913810D01*
X142025715Y-136104286D01*
X141978096Y-136199524D01*
X141882858Y-136294762D01*
X141740000Y-136342381D01*
X141501905Y-136342381D01*
X142454286Y-135437619D02*
X142501905Y-135390000D01*
X142597143Y-135342381D01*
X142835239Y-135342381D01*
X142930477Y-135390000D01*
X142978096Y-135437619D01*
X143025715Y-135532857D01*
X143025715Y-135628095D01*
X142978096Y-135770952D01*
X142406667Y-136342381D01*
X143025715Y-136342381D01*
X144613334Y-113482381D02*
X144137143Y-113482381D01*
X144137143Y-112482381D01*
X144899048Y-112577619D02*
X144946667Y-112530000D01*
X145041905Y-112482381D01*
X145280001Y-112482381D01*
X145375239Y-112530000D01*
X145422858Y-112577619D01*
X145470477Y-112672857D01*
X145470477Y-112768095D01*
X145422858Y-112910952D01*
X144851429Y-113482381D01*
X145470477Y-113482381D01*
X175315714Y-120467381D02*
X175315714Y-119467381D01*
X175696667Y-119467381D01*
X175791905Y-119515000D01*
X175839524Y-119562619D01*
X175887143Y-119657857D01*
X175887143Y-119800714D01*
X175839524Y-119895952D01*
X175791905Y-119943571D01*
X175696667Y-119991190D01*
X175315714Y-119991190D01*
X176839524Y-120467381D02*
X176268095Y-120467381D01*
X176553809Y-120467381D02*
X176553809Y-119467381D01*
X176458571Y-119610238D01*
X176363333Y-119705476D01*
X176268095Y-119753095D01*
X177220476Y-119562619D02*
X177268095Y-119515000D01*
X177363333Y-119467381D01*
X177601429Y-119467381D01*
X177696667Y-119515000D01*
X177744286Y-119562619D01*
X177791905Y-119657857D01*
X177791905Y-119753095D01*
X177744286Y-119895952D01*
X177172857Y-120467381D01*
X177791905Y-120467381D01*
X176585714Y-138882381D02*
X176585714Y-137882381D01*
X176966667Y-137882381D01*
X177061905Y-137930000D01*
X177109524Y-137977619D01*
X177157143Y-138072857D01*
X177157143Y-138215714D01*
X177109524Y-138310952D01*
X177061905Y-138358571D01*
X176966667Y-138406190D01*
X176585714Y-138406190D01*
X178109524Y-138882381D02*
X177538095Y-138882381D01*
X177823809Y-138882381D02*
X177823809Y-137882381D01*
X177728571Y-138025238D01*
X177633333Y-138120476D01*
X177538095Y-138168095D01*
X178966667Y-138215714D02*
X178966667Y-138882381D01*
X178728571Y-137834762D02*
X178490476Y-138549048D01*
X179109524Y-138549048D01*
X136429762Y-138977619D02*
X136334524Y-138930000D01*
X136239286Y-138834762D01*
X136096429Y-138691905D01*
X136001190Y-138644286D01*
X135905952Y-138644286D01*
X135953571Y-138882381D02*
X135858333Y-138834762D01*
X135763095Y-138739524D01*
X135715476Y-138549048D01*
X135715476Y-138215714D01*
X135763095Y-138025238D01*
X135858333Y-137930000D01*
X135953571Y-137882381D01*
X136144048Y-137882381D01*
X136239286Y-137930000D01*
X136334524Y-138025238D01*
X136382143Y-138215714D01*
X136382143Y-138549048D01*
X136334524Y-138739524D01*
X136239286Y-138834762D01*
X136144048Y-138882381D01*
X135953571Y-138882381D01*
X137334524Y-138882381D02*
X136763095Y-138882381D01*
X137048809Y-138882381D02*
X137048809Y-137882381D01*
X136953571Y-138025238D01*
X136858333Y-138120476D01*
X136763095Y-138168095D01*
X196683334Y-130627381D02*
X196350000Y-130151190D01*
X196111905Y-130627381D02*
X196111905Y-129627381D01*
X196492858Y-129627381D01*
X196588096Y-129675000D01*
X196635715Y-129722619D01*
X196683334Y-129817857D01*
X196683334Y-129960714D01*
X196635715Y-130055952D01*
X196588096Y-130103571D01*
X196492858Y-130151190D01*
X196111905Y-130151190D01*
X197635715Y-130627381D02*
X197064286Y-130627381D01*
X197350000Y-130627381D02*
X197350000Y-129627381D01*
X197254762Y-129770238D01*
X197159524Y-129865476D01*
X197064286Y-129913095D01*
X159758334Y-132292381D02*
X159425000Y-131816190D01*
X159186905Y-132292381D02*
X159186905Y-131292381D01*
X159567858Y-131292381D01*
X159663096Y-131340000D01*
X159710715Y-131387619D01*
X159758334Y-131482857D01*
X159758334Y-131625714D01*
X159710715Y-131720952D01*
X159663096Y-131768571D01*
X159567858Y-131816190D01*
X159186905Y-131816190D01*
X160139286Y-131387619D02*
X160186905Y-131340000D01*
X160282143Y-131292381D01*
X160520239Y-131292381D01*
X160615477Y-131340000D01*
X160663096Y-131387619D01*
X160710715Y-131482857D01*
X160710715Y-131578095D01*
X160663096Y-131720952D01*
X160091667Y-132292381D01*
X160710715Y-132292381D01*
X194778334Y-119832381D02*
X194445000Y-119356190D01*
X194206905Y-119832381D02*
X194206905Y-118832381D01*
X194587858Y-118832381D01*
X194683096Y-118880000D01*
X194730715Y-118927619D01*
X194778334Y-119022857D01*
X194778334Y-119165714D01*
X194730715Y-119260952D01*
X194683096Y-119308571D01*
X194587858Y-119356190D01*
X194206905Y-119356190D01*
X195111667Y-118832381D02*
X195730715Y-118832381D01*
X195397381Y-119213333D01*
X195540239Y-119213333D01*
X195635477Y-119260952D01*
X195683096Y-119308571D01*
X195730715Y-119403810D01*
X195730715Y-119641905D01*
X195683096Y-119737143D01*
X195635477Y-119784762D01*
X195540239Y-119832381D01*
X195254524Y-119832381D01*
X195159286Y-119784762D01*
X195111667Y-119737143D01*
X194778334Y-117292381D02*
X194445000Y-116816190D01*
X194206905Y-117292381D02*
X194206905Y-116292381D01*
X194587858Y-116292381D01*
X194683096Y-116340000D01*
X194730715Y-116387619D01*
X194778334Y-116482857D01*
X194778334Y-116625714D01*
X194730715Y-116720952D01*
X194683096Y-116768571D01*
X194587858Y-116816190D01*
X194206905Y-116816190D01*
X195635477Y-116625714D02*
X195635477Y-117292381D01*
X195397381Y-116244762D02*
X195159286Y-116959048D01*
X195778334Y-116959048D01*
X180173334Y-147772381D02*
X179840000Y-147296190D01*
X179601905Y-147772381D02*
X179601905Y-146772381D01*
X179982858Y-146772381D01*
X180078096Y-146820000D01*
X180125715Y-146867619D01*
X180173334Y-146962857D01*
X180173334Y-147105714D01*
X180125715Y-147200952D01*
X180078096Y-147248571D01*
X179982858Y-147296190D01*
X179601905Y-147296190D01*
X181078096Y-146772381D02*
X180601905Y-146772381D01*
X180554286Y-147248571D01*
X180601905Y-147200952D01*
X180697143Y-147153333D01*
X180935239Y-147153333D01*
X181030477Y-147200952D01*
X181078096Y-147248571D01*
X181125715Y-147343810D01*
X181125715Y-147581905D01*
X181078096Y-147677143D01*
X181030477Y-147724762D01*
X180935239Y-147772381D01*
X180697143Y-147772381D01*
X180601905Y-147724762D01*
X180554286Y-147677143D01*
X182713334Y-147772381D02*
X182380000Y-147296190D01*
X182141905Y-147772381D02*
X182141905Y-146772381D01*
X182522858Y-146772381D01*
X182618096Y-146820000D01*
X182665715Y-146867619D01*
X182713334Y-146962857D01*
X182713334Y-147105714D01*
X182665715Y-147200952D01*
X182618096Y-147248571D01*
X182522858Y-147296190D01*
X182141905Y-147296190D01*
X183570477Y-146772381D02*
X183380000Y-146772381D01*
X183284762Y-146820000D01*
X183237143Y-146867619D01*
X183141905Y-147010476D01*
X183094286Y-147200952D01*
X183094286Y-147581905D01*
X183141905Y-147677143D01*
X183189524Y-147724762D01*
X183284762Y-147772381D01*
X183475239Y-147772381D01*
X183570477Y-147724762D01*
X183618096Y-147677143D01*
X183665715Y-147581905D01*
X183665715Y-147343810D01*
X183618096Y-147248571D01*
X183570477Y-147200952D01*
X183475239Y-147153333D01*
X183284762Y-147153333D01*
X183189524Y-147200952D01*
X183141905Y-147248571D01*
X183094286Y-147343810D01*
X150963334Y-135072381D02*
X150630000Y-134596190D01*
X150391905Y-135072381D02*
X150391905Y-134072381D01*
X150772858Y-134072381D01*
X150868096Y-134120000D01*
X150915715Y-134167619D01*
X150963334Y-134262857D01*
X150963334Y-134405714D01*
X150915715Y-134500952D01*
X150868096Y-134548571D01*
X150772858Y-134596190D01*
X150391905Y-134596190D01*
X151296667Y-134072381D02*
X151963334Y-134072381D01*
X151534762Y-135072381D01*
X138898334Y-149042381D02*
X138565000Y-148566190D01*
X138326905Y-149042381D02*
X138326905Y-148042381D01*
X138707858Y-148042381D01*
X138803096Y-148090000D01*
X138850715Y-148137619D01*
X138898334Y-148232857D01*
X138898334Y-148375714D01*
X138850715Y-148470952D01*
X138803096Y-148518571D01*
X138707858Y-148566190D01*
X138326905Y-148566190D01*
X139469762Y-148470952D02*
X139374524Y-148423333D01*
X139326905Y-148375714D01*
X139279286Y-148280476D01*
X139279286Y-148232857D01*
X139326905Y-148137619D01*
X139374524Y-148090000D01*
X139469762Y-148042381D01*
X139660239Y-148042381D01*
X139755477Y-148090000D01*
X139803096Y-148137619D01*
X139850715Y-148232857D01*
X139850715Y-148280476D01*
X139803096Y-148375714D01*
X139755477Y-148423333D01*
X139660239Y-148470952D01*
X139469762Y-148470952D01*
X139374524Y-148518571D01*
X139326905Y-148566190D01*
X139279286Y-148661429D01*
X139279286Y-148851905D01*
X139326905Y-148947143D01*
X139374524Y-148994762D01*
X139469762Y-149042381D01*
X139660239Y-149042381D01*
X139755477Y-148994762D01*
X139803096Y-148947143D01*
X139850715Y-148851905D01*
X139850715Y-148661429D01*
X139803096Y-148566190D01*
X139755477Y-148518571D01*
X139660239Y-148470952D01*
X168846667Y-119974762D02*
X168989524Y-120022381D01*
X169227620Y-120022381D01*
X169322858Y-119974762D01*
X169370477Y-119927143D01*
X169418096Y-119831905D01*
X169418096Y-119736667D01*
X169370477Y-119641429D01*
X169322858Y-119593810D01*
X169227620Y-119546190D01*
X169037143Y-119498571D01*
X168941905Y-119450952D01*
X168894286Y-119403333D01*
X168846667Y-119308095D01*
X168846667Y-119212857D01*
X168894286Y-119117619D01*
X168941905Y-119070000D01*
X169037143Y-119022381D01*
X169275239Y-119022381D01*
X169418096Y-119070000D01*
X169751429Y-119022381D02*
X169989524Y-120022381D01*
X170180001Y-119308095D01*
X170370477Y-120022381D01*
X170608572Y-119022381D01*
X171513334Y-120022381D02*
X170941905Y-120022381D01*
X171227619Y-120022381D02*
X171227619Y-119022381D01*
X171132381Y-119165238D01*
X171037143Y-119260476D01*
X170941905Y-119308095D01*
X132016667Y-132484762D02*
X132159524Y-132532381D01*
X132397620Y-132532381D01*
X132492858Y-132484762D01*
X132540477Y-132437143D01*
X132588096Y-132341905D01*
X132588096Y-132246667D01*
X132540477Y-132151429D01*
X132492858Y-132103810D01*
X132397620Y-132056190D01*
X132207143Y-132008571D01*
X132111905Y-131960952D01*
X132064286Y-131913333D01*
X132016667Y-131818095D01*
X132016667Y-131722857D01*
X132064286Y-131627619D01*
X132111905Y-131580000D01*
X132207143Y-131532381D01*
X132445239Y-131532381D01*
X132588096Y-131580000D01*
X132921429Y-131532381D02*
X133159524Y-132532381D01*
X133350001Y-131818095D01*
X133540477Y-132532381D01*
X133778572Y-131532381D01*
X134111905Y-131627619D02*
X134159524Y-131580000D01*
X134254762Y-131532381D01*
X134492858Y-131532381D01*
X134588096Y-131580000D01*
X134635715Y-131627619D01*
X134683334Y-131722857D01*
X134683334Y-131818095D01*
X134635715Y-131960952D01*
X134064286Y-132532381D01*
X134683334Y-132532381D01*
X156718095Y-136612381D02*
X156718095Y-137421905D01*
X156765714Y-137517143D01*
X156813333Y-137564762D01*
X156908571Y-137612381D01*
X157099048Y-137612381D01*
X157194286Y-137564762D01*
X157241905Y-137517143D01*
X157289524Y-137421905D01*
X157289524Y-136612381D01*
X158289524Y-137612381D02*
X157718095Y-137612381D01*
X158003809Y-137612381D02*
X158003809Y-136612381D01*
X157908571Y-136755238D01*
X157813333Y-136850476D01*
X157718095Y-136898095D01*
X187785476Y-124547381D02*
X188452143Y-125547381D01*
X188452143Y-124547381D02*
X187785476Y-125547381D01*
X189356905Y-125547381D02*
X188785476Y-125547381D01*
X189071190Y-125547381D02*
X189071190Y-124547381D01*
X188975952Y-124690238D01*
X188880714Y-124785476D01*
X188785476Y-124833095D01*
X111998333Y-102322381D02*
X112569762Y-102322381D01*
X112284047Y-103322381D02*
X112284047Y-102322381D01*
X112760238Y-102322381D02*
X113093571Y-103322381D01*
X113426905Y-102322381D01*
X113712619Y-103274762D02*
X113855476Y-103322381D01*
X114093572Y-103322381D01*
X114188810Y-103274762D01*
X114236429Y-103227143D01*
X114284048Y-103131905D01*
X114284048Y-103036667D01*
X114236429Y-102941429D01*
X114188810Y-102893810D01*
X114093572Y-102846190D01*
X113903095Y-102798571D01*
X113807857Y-102750952D01*
X113760238Y-102703333D01*
X113712619Y-102608095D01*
X113712619Y-102512857D01*
X113760238Y-102417619D01*
X113807857Y-102370000D01*
X113903095Y-102322381D01*
X114141191Y-102322381D01*
X114284048Y-102370000D01*
X115236429Y-103322381D02*
X114665000Y-103322381D01*
X114950714Y-103322381D02*
X114950714Y-102322381D01*
X114855476Y-102465238D01*
X114760238Y-102560476D01*
X114665000Y-102608095D01*
X196905714Y-143962381D02*
X196905714Y-142962381D01*
X197286667Y-142962381D01*
X197381905Y-143010000D01*
X197429524Y-143057619D01*
X197477143Y-143152857D01*
X197477143Y-143295714D01*
X197429524Y-143390952D01*
X197381905Y-143438571D01*
X197286667Y-143486190D01*
X196905714Y-143486190D01*
X198429524Y-143962381D02*
X197858095Y-143962381D01*
X198143809Y-143962381D02*
X198143809Y-142962381D01*
X198048571Y-143105238D01*
X197953333Y-143200476D01*
X197858095Y-143248095D01*
X198762857Y-142962381D02*
X199429524Y-142962381D01*
X199000952Y-143962381D01*
X117467143Y-86082143D02*
X117419524Y-86129762D01*
X117276667Y-86177381D01*
X117181429Y-86177381D01*
X117038571Y-86129762D01*
X116943333Y-86034524D01*
X116895714Y-85939286D01*
X116848095Y-85748810D01*
X116848095Y-85605952D01*
X116895714Y-85415476D01*
X116943333Y-85320238D01*
X117038571Y-85225000D01*
X117181429Y-85177381D01*
X117276667Y-85177381D01*
X117419524Y-85225000D01*
X117467143Y-85272619D01*
X118419524Y-86177381D02*
X117848095Y-86177381D01*
X118133809Y-86177381D02*
X118133809Y-85177381D01*
X118038571Y-85320238D01*
X117943333Y-85415476D01*
X117848095Y-85463095D01*
X118990952Y-85605952D02*
X118895714Y-85558333D01*
X118848095Y-85510714D01*
X118800476Y-85415476D01*
X118800476Y-85367857D01*
X118848095Y-85272619D01*
X118895714Y-85225000D01*
X118990952Y-85177381D01*
X119181429Y-85177381D01*
X119276667Y-85225000D01*
X119324286Y-85272619D01*
X119371905Y-85367857D01*
X119371905Y-85415476D01*
X119324286Y-85510714D01*
X119276667Y-85558333D01*
X119181429Y-85605952D01*
X118990952Y-85605952D01*
X118895714Y-85653571D01*
X118848095Y-85701190D01*
X118800476Y-85796429D01*
X118800476Y-85986905D01*
X118848095Y-86082143D01*
X118895714Y-86129762D01*
X118990952Y-86177381D01*
X119181429Y-86177381D01*
X119276667Y-86129762D01*
X119324286Y-86082143D01*
X119371905Y-85986905D01*
X119371905Y-85796429D01*
X119324286Y-85701190D01*
X119276667Y-85653571D01*
X119181429Y-85605952D01*
X124293334Y-75382381D02*
X123817143Y-75382381D01*
X123817143Y-74382381D01*
X124531429Y-74382381D02*
X125150477Y-74382381D01*
X124817143Y-74763333D01*
X124960001Y-74763333D01*
X125055239Y-74810952D01*
X125102858Y-74858571D01*
X125150477Y-74953810D01*
X125150477Y-75191905D01*
X125102858Y-75287143D01*
X125055239Y-75334762D01*
X124960001Y-75382381D01*
X124674286Y-75382381D01*
X124579048Y-75334762D01*
X124531429Y-75287143D01*
X103973334Y-74747381D02*
X103497143Y-74747381D01*
X103497143Y-73747381D01*
X104830477Y-74747381D02*
X104259048Y-74747381D01*
X104544762Y-74747381D02*
X104544762Y-73747381D01*
X104449524Y-73890238D01*
X104354286Y-73985476D01*
X104259048Y-74033095D01*
X110775715Y-70302381D02*
X110204286Y-70302381D01*
X110490000Y-70302381D02*
X110490000Y-69302381D01*
X110394762Y-69445238D01*
X110299524Y-69540476D01*
X110204286Y-69588095D01*
X97504286Y-69397619D02*
X97551905Y-69350000D01*
X97647143Y-69302381D01*
X97885239Y-69302381D01*
X97980477Y-69350000D01*
X98028096Y-69397619D01*
X98075715Y-69492857D01*
X98075715Y-69588095D01*
X98028096Y-69730952D01*
X97456667Y-70302381D01*
X98075715Y-70302381D01*
X97456667Y-64222381D02*
X98075715Y-64222381D01*
X97742381Y-64603333D01*
X97885239Y-64603333D01*
X97980477Y-64650952D01*
X98028096Y-64698571D01*
X98075715Y-64793810D01*
X98075715Y-65031905D01*
X98028096Y-65127143D01*
X97980477Y-65174762D01*
X97885239Y-65222381D01*
X97599524Y-65222381D01*
X97504286Y-65174762D01*
X97456667Y-65127143D01*
X110680477Y-64555714D02*
X110680477Y-65222381D01*
X110442381Y-64174762D02*
X110204286Y-64889048D01*
X110823334Y-64889048D01*
X129206667Y-114228571D02*
X128873333Y-114228571D01*
X128873333Y-114752381D02*
X128873333Y-113752381D01*
X129349524Y-113752381D01*
X130254286Y-114752381D02*
X129682857Y-114752381D01*
X129968571Y-114752381D02*
X129968571Y-113752381D01*
X129873333Y-113895238D01*
X129778095Y-113990476D01*
X129682857Y-114038095D01*
X102766905Y-146502381D02*
X102766905Y-145502381D01*
X103147858Y-145502381D01*
X103243096Y-145550000D01*
X103290715Y-145597619D01*
X103338334Y-145692857D01*
X103338334Y-145835714D01*
X103290715Y-145930952D01*
X103243096Y-145978571D01*
X103147858Y-146026190D01*
X102766905Y-146026190D01*
X104290715Y-146502381D02*
X103719286Y-146502381D01*
X104005000Y-146502381D02*
X104005000Y-145502381D01*
X103909762Y-145645238D01*
X103814524Y-145740476D01*
X103719286Y-145788095D01*
X121975714Y-146502381D02*
X121975714Y-145502381D01*
X122356667Y-145502381D01*
X122451905Y-145550000D01*
X122499524Y-145597619D01*
X122547143Y-145692857D01*
X122547143Y-145835714D01*
X122499524Y-145930952D01*
X122451905Y-145978571D01*
X122356667Y-146026190D01*
X121975714Y-146026190D01*
X123499524Y-146502381D02*
X122928095Y-146502381D01*
X123213809Y-146502381D02*
X123213809Y-145502381D01*
X123118571Y-145645238D01*
X123023333Y-145740476D01*
X122928095Y-145788095D01*
X123832857Y-145502381D02*
X124451905Y-145502381D01*
X124118571Y-145883333D01*
X124261429Y-145883333D01*
X124356667Y-145930952D01*
X124404286Y-145978571D01*
X124451905Y-146073810D01*
X124451905Y-146311905D01*
X124404286Y-146407143D01*
X124356667Y-146454762D01*
X124261429Y-146502381D01*
X123975714Y-146502381D01*
X123880476Y-146454762D01*
X123832857Y-146407143D01*
X87685714Y-146502381D02*
X87685714Y-145502381D01*
X88066667Y-145502381D01*
X88161905Y-145550000D01*
X88209524Y-145597619D01*
X88257143Y-145692857D01*
X88257143Y-145835714D01*
X88209524Y-145930952D01*
X88161905Y-145978571D01*
X88066667Y-146026190D01*
X87685714Y-146026190D01*
X89209524Y-146502381D02*
X88638095Y-146502381D01*
X88923809Y-146502381D02*
X88923809Y-145502381D01*
X88828571Y-145645238D01*
X88733333Y-145740476D01*
X88638095Y-145788095D01*
X89780952Y-145930952D02*
X89685714Y-145883333D01*
X89638095Y-145835714D01*
X89590476Y-145740476D01*
X89590476Y-145692857D01*
X89638095Y-145597619D01*
X89685714Y-145550000D01*
X89780952Y-145502381D01*
X89971429Y-145502381D01*
X90066667Y-145550000D01*
X90114286Y-145597619D01*
X90161905Y-145692857D01*
X90161905Y-145740476D01*
X90114286Y-145835714D01*
X90066667Y-145883333D01*
X89971429Y-145930952D01*
X89780952Y-145930952D01*
X89685714Y-145978571D01*
X89638095Y-146026190D01*
X89590476Y-146121429D01*
X89590476Y-146311905D01*
X89638095Y-146407143D01*
X89685714Y-146454762D01*
X89780952Y-146502381D01*
X89971429Y-146502381D01*
X90066667Y-146454762D01*
X90114286Y-146407143D01*
X90161905Y-146311905D01*
X90161905Y-146121429D01*
X90114286Y-146026190D01*
X90066667Y-145978571D01*
X89971429Y-145930952D01*
X137668095Y-106767381D02*
X137668095Y-107576905D01*
X137715714Y-107672143D01*
X137763333Y-107719762D01*
X137858571Y-107767381D01*
X138049048Y-107767381D01*
X138144286Y-107719762D01*
X138191905Y-107672143D01*
X138239524Y-107576905D01*
X138239524Y-106767381D01*
X138668095Y-106862619D02*
X138715714Y-106815000D01*
X138810952Y-106767381D01*
X139049048Y-106767381D01*
X139144286Y-106815000D01*
X139191905Y-106862619D01*
X139239524Y-106957857D01*
X139239524Y-107053095D01*
X139191905Y-107195952D01*
X138620476Y-107767381D01*
X139239524Y-107767381D01*
M02*
