G04 #@! TF.GenerationSoftware,KiCad,Pcbnew,5.1.2-f72e74a~84~ubuntu18.04.1*
G04 #@! TF.CreationDate,2019-05-07T20:49:25+02:00*
G04 #@! TF.ProjectId,slow-cooker,736c6f77-2d63-46f6-9f6b-65722e6b6963,rev?*
G04 #@! TF.SameCoordinates,Original*
G04 #@! TF.FileFunction,Profile,NP*
%FSLAX46Y46*%
G04 Gerber Fmt 4.6, Leading zero omitted, Abs format (unit mm)*
G04 Created by KiCad (PCBNEW 5.1.2-f72e74a~84~ubuntu18.04.1) date 2019-05-07 20:49:25*
%MOMM*%
%LPD*%
G04 APERTURE LIST*
%ADD10C,0.050000*%
%ADD11C,0.025000*%
G04 APERTURE END LIST*
D10*
X150495000Y-115570000D02*
X149860000Y-115570000D01*
X150495000Y-121285000D02*
X150495000Y-115570000D01*
X146685000Y-125095000D02*
X150495000Y-121285000D01*
X146050000Y-124460000D02*
X146685000Y-125095000D01*
X149860000Y-120650000D02*
X146050000Y-124460000D01*
X149860000Y-115570000D02*
X149860000Y-120650000D01*
X152400000Y-102235000D02*
X150495000Y-100330000D01*
X152400000Y-107315000D02*
X152400000Y-102235000D01*
X151130000Y-107315000D02*
X152400000Y-107315000D01*
X151130000Y-102870000D02*
X151130000Y-107315000D01*
X150495000Y-86995000D02*
X149225000Y-86995000D01*
X150495000Y-100330000D02*
X150495000Y-86995000D01*
X149225000Y-100965000D02*
X151130000Y-102870000D01*
X149225000Y-86995000D02*
X149225000Y-100965000D01*
X171450000Y-71120000D02*
X170180000Y-69850000D01*
X165735000Y-76835000D02*
X171450000Y-71120000D01*
X153035000Y-76835000D02*
X165735000Y-76835000D01*
X153035000Y-74930000D02*
X153035000Y-76835000D01*
X165100000Y-74930000D02*
X153035000Y-74930000D01*
X170180000Y-69850000D02*
X165100000Y-74930000D01*
D11*
X103505000Y-146050000D02*
X203505000Y-146050000D01*
X103505000Y-146050000D02*
X103505000Y-46050000D01*
X103505000Y-46050000D02*
X203505000Y-46050000D01*
X203505000Y-46050000D02*
X203505000Y-146050000D01*
M02*
