M48
; DRILL file {KiCad 5.1.2-f72e74a~84~ubuntu18.04.1} date Tue 07 May 2019 20:49:30 CEST
; FORMAT={-:-/ absolute / inch / decimal}
; #@! TF.CreationDate,2019-05-07T20:49:30+02:00
; #@! TF.GenerationSoftware,Kicad,Pcbnew,5.1.2-f72e74a~84~ubuntu18.04.1
; #@! TF.FileFunction,Plated,1,2,PTH
FMAT,2
INCH
T1C0.0315
T2C0.0394
T3C0.0394
T4C0.0433
T5C0.0472
T6C0.0512
T7C0.0551
T8C0.0591
%
G90
G05
T1
X4.75Y-2.75
X4.75Y-4.125
X4.925Y-5.6
X5.15Y-4.375
X5.325Y-2.1
X5.45Y-3.225
X5.73Y-5.19
X5.8Y-5.45
X5.825Y-4.375
X5.8751Y-5.4751
X5.95Y-5.5
X6.025Y-5.525
X6.0625Y-4.7875
X6.075Y-5.2
X6.1Y-5.55
X6.1Y-3.225
X6.175Y-5.575
X6.2Y-4.825
X6.225Y-4.475
X6.25Y-4.275
X6.3Y-4.75
X6.475Y-3.15
X6.55Y-4.6
X6.625Y-4.85
X6.625Y-5.35
X6.6411Y-4.05
X6.675Y-4.525
X6.725Y-4.7
X6.75Y-2.125
X6.75Y-2.375
X6.775Y-3.875
X6.825Y-3.4
X6.825Y-4.775
X6.825Y-4.85
X6.85Y-4.375
X6.86Y-4.13
X6.875Y-5.475
X6.925Y-5.15
X6.925Y-5.25
X6.9641Y-5.5026
X7.0402Y-5.5098
X7.15Y-5.4
X7.175Y-4.9
X7.225Y-5.5
X7.325Y-5.4
X7.625Y-5.575
X7.75Y-4.8
X7.85Y-2.0
X6.125Y-3.675
X6.2628Y-3.675
X6.6963Y-3.5
X6.775Y-3.5
X6.45Y-5.225
X6.45Y-5.3037
X6.425Y-4.025
X6.5037Y-4.025
X7.025Y-2.9266
X7.025Y-3.025
T2
X6.45Y-4.25
X6.45Y-4.35
X6.55Y-4.25
X6.55Y-4.35
X6.65Y-4.25
X6.65Y-4.35
X5.825Y-5.05
X5.925Y-5.05
X6.025Y-5.05
X6.125Y-5.05
X6.225Y-5.05
X5.2925Y-2.6872
X5.2925Y-2.9628
X5.6075Y-2.6872
X5.6075Y-2.9628
X6.975Y-3.375
X6.975Y-3.475
X6.975Y-3.575
X6.975Y-3.675
X6.975Y-3.775
X6.975Y-3.875
X6.975Y-3.975
X6.975Y-4.075
X6.975Y-4.175
X6.975Y-4.275
X6.975Y-4.375
X6.975Y-4.475
X6.975Y-4.575
X6.975Y-4.675
X5.25Y-5.375
X5.25Y-5.475
X5.35Y-5.375
X5.35Y-5.475
X5.45Y-5.375
X5.45Y-5.475
X5.55Y-5.375
X5.55Y-5.475
X5.65Y-5.375
X5.65Y-5.475
X5.15Y-2.425
X5.75Y-2.425
X6.225Y-4.075
X6.225Y-4.375
X6.425Y-4.525
X6.425Y-4.625
X6.425Y-4.725
X6.425Y-4.825
T3
X6.375Y-5.05
T4
X5.1Y-2.15
X5.8992Y-2.15
T5
X7.75Y-5.0872
X7.75Y-5.225
X7.75Y-5.3628
X6.475Y-2.775
X6.475Y-3.3656
X6.45Y-2.125
X7.0406Y-2.125
X5.125Y-3.525
X5.125Y-4.125
X6.45Y-2.375
X7.0406Y-2.375
X5.525Y-4.075
X5.825Y-4.075
X7.425Y-2.3
X7.6219Y-2.3
T6
X5.1Y-3.225
X5.7Y-3.225
X4.5Y-2.225
X4.7Y-2.225
X6.225Y-2.225
X6.225Y-2.425
X6.225Y-2.625
X6.225Y-2.825
X6.225Y-3.125
X6.225Y-3.325
T7
X4.3335Y-5.225
X4.3335Y-5.3904
X4.55Y-5.225
X4.55Y-5.3904
X5.5335Y-3.625
X5.5335Y-3.7904
X5.75Y-3.625
X5.75Y-3.7904
T8
X4.8801Y-4.7
X5.7699Y-4.7
T0
M30
