G04 #@! TF.GenerationSoftware,KiCad,Pcbnew,5.1.2-f72e74a~84~ubuntu18.04.1*
G04 #@! TF.CreationDate,2019-05-07T20:49:25+02:00*
G04 #@! TF.ProjectId,slow-cooker,736c6f77-2d63-46f6-9f6b-65722e6b6963,rev?*
G04 #@! TF.SameCoordinates,Original*
G04 #@! TF.FileFunction,Soldermask,Top*
G04 #@! TF.FilePolarity,Negative*
%FSLAX46Y46*%
G04 Gerber Fmt 4.6, Leading zero omitted, Abs format (unit mm)*
G04 Created by KiCad (PCBNEW 5.1.2-f72e74a~84~ubuntu18.04.1) date 2019-05-07 20:49:25*
%MOMM*%
%LPD*%
G04 APERTURE LIST*
%ADD10C,0.100000*%
G04 APERTURE END LIST*
D10*
G36*
X138540443Y-138170519D02*
G01*
X138606627Y-138177037D01*
X138776466Y-138228557D01*
X138932991Y-138312222D01*
X138937594Y-138316000D01*
X139070186Y-138424814D01*
X139153448Y-138526271D01*
X139182778Y-138562009D01*
X139266443Y-138718534D01*
X139317963Y-138888373D01*
X139335359Y-139065000D01*
X139317963Y-139241627D01*
X139266443Y-139411466D01*
X139182778Y-139567991D01*
X139153448Y-139603729D01*
X139070186Y-139705186D01*
X138968729Y-139788448D01*
X138932991Y-139817778D01*
X138776466Y-139901443D01*
X138606627Y-139952963D01*
X138540443Y-139959481D01*
X138474260Y-139966000D01*
X138385740Y-139966000D01*
X138319557Y-139959481D01*
X138253373Y-139952963D01*
X138083534Y-139901443D01*
X137927009Y-139817778D01*
X137891271Y-139788448D01*
X137789814Y-139705186D01*
X137706552Y-139603729D01*
X137677222Y-139567991D01*
X137593557Y-139411466D01*
X137542037Y-139241627D01*
X137524641Y-139065000D01*
X137542037Y-138888373D01*
X137593557Y-138718534D01*
X137677222Y-138562009D01*
X137706552Y-138526271D01*
X137789814Y-138424814D01*
X137922406Y-138316000D01*
X137927009Y-138312222D01*
X138083534Y-138228557D01*
X138253373Y-138177037D01*
X138319557Y-138170519D01*
X138385740Y-138164000D01*
X138474260Y-138164000D01*
X138540443Y-138170519D01*
X138540443Y-138170519D01*
G37*
G36*
X141080443Y-138170519D02*
G01*
X141146627Y-138177037D01*
X141316466Y-138228557D01*
X141472991Y-138312222D01*
X141477594Y-138316000D01*
X141610186Y-138424814D01*
X141693448Y-138526271D01*
X141722778Y-138562009D01*
X141806443Y-138718534D01*
X141857963Y-138888373D01*
X141875359Y-139065000D01*
X141857963Y-139241627D01*
X141806443Y-139411466D01*
X141722778Y-139567991D01*
X141693448Y-139603729D01*
X141610186Y-139705186D01*
X141508729Y-139788448D01*
X141472991Y-139817778D01*
X141316466Y-139901443D01*
X141146627Y-139952963D01*
X141080443Y-139959481D01*
X141014260Y-139966000D01*
X140925740Y-139966000D01*
X140859557Y-139959481D01*
X140793373Y-139952963D01*
X140623534Y-139901443D01*
X140467009Y-139817778D01*
X140431271Y-139788448D01*
X140329814Y-139705186D01*
X140246552Y-139603729D01*
X140217222Y-139567991D01*
X140133557Y-139411466D01*
X140082037Y-139241627D01*
X140064641Y-139065000D01*
X140082037Y-138888373D01*
X140133557Y-138718534D01*
X140217222Y-138562009D01*
X140246552Y-138526271D01*
X140329814Y-138424814D01*
X140462406Y-138316000D01*
X140467009Y-138312222D01*
X140623534Y-138228557D01*
X140793373Y-138177037D01*
X140859557Y-138170519D01*
X140925740Y-138164000D01*
X141014260Y-138164000D01*
X141080443Y-138170519D01*
X141080443Y-138170519D01*
G37*
G36*
X143620443Y-138170519D02*
G01*
X143686627Y-138177037D01*
X143856466Y-138228557D01*
X144012991Y-138312222D01*
X144017594Y-138316000D01*
X144150186Y-138424814D01*
X144233448Y-138526271D01*
X144262778Y-138562009D01*
X144346443Y-138718534D01*
X144397963Y-138888373D01*
X144415359Y-139065000D01*
X144397963Y-139241627D01*
X144346443Y-139411466D01*
X144262778Y-139567991D01*
X144233448Y-139603729D01*
X144150186Y-139705186D01*
X144048729Y-139788448D01*
X144012991Y-139817778D01*
X143856466Y-139901443D01*
X143686627Y-139952963D01*
X143620443Y-139959481D01*
X143554260Y-139966000D01*
X143465740Y-139966000D01*
X143399557Y-139959481D01*
X143333373Y-139952963D01*
X143163534Y-139901443D01*
X143007009Y-139817778D01*
X142971271Y-139788448D01*
X142869814Y-139705186D01*
X142786552Y-139603729D01*
X142757222Y-139567991D01*
X142673557Y-139411466D01*
X142622037Y-139241627D01*
X142604641Y-139065000D01*
X142622037Y-138888373D01*
X142673557Y-138718534D01*
X142757222Y-138562009D01*
X142786552Y-138526271D01*
X142869814Y-138424814D01*
X143002406Y-138316000D01*
X143007009Y-138312222D01*
X143163534Y-138228557D01*
X143333373Y-138177037D01*
X143399557Y-138170519D01*
X143465740Y-138164000D01*
X143554260Y-138164000D01*
X143620443Y-138170519D01*
X143620443Y-138170519D01*
G37*
G36*
X136000443Y-138170519D02*
G01*
X136066627Y-138177037D01*
X136236466Y-138228557D01*
X136392991Y-138312222D01*
X136397594Y-138316000D01*
X136530186Y-138424814D01*
X136613448Y-138526271D01*
X136642778Y-138562009D01*
X136726443Y-138718534D01*
X136777963Y-138888373D01*
X136795359Y-139065000D01*
X136777963Y-139241627D01*
X136726443Y-139411466D01*
X136642778Y-139567991D01*
X136613448Y-139603729D01*
X136530186Y-139705186D01*
X136428729Y-139788448D01*
X136392991Y-139817778D01*
X136236466Y-139901443D01*
X136066627Y-139952963D01*
X136000443Y-139959481D01*
X135934260Y-139966000D01*
X135845740Y-139966000D01*
X135779557Y-139959481D01*
X135713373Y-139952963D01*
X135543534Y-139901443D01*
X135387009Y-139817778D01*
X135351271Y-139788448D01*
X135249814Y-139705186D01*
X135166552Y-139603729D01*
X135137222Y-139567991D01*
X135053557Y-139411466D01*
X135002037Y-139241627D01*
X134984641Y-139065000D01*
X135002037Y-138888373D01*
X135053557Y-138718534D01*
X135137222Y-138562009D01*
X135166552Y-138526271D01*
X135249814Y-138424814D01*
X135382406Y-138316000D01*
X135387009Y-138312222D01*
X135543534Y-138228557D01*
X135713373Y-138177037D01*
X135779557Y-138170519D01*
X135845740Y-138164000D01*
X135934260Y-138164000D01*
X136000443Y-138170519D01*
X136000443Y-138170519D01*
G37*
G36*
X134251000Y-139966000D02*
G01*
X132449000Y-139966000D01*
X132449000Y-138164000D01*
X134251000Y-138164000D01*
X134251000Y-139966000D01*
X134251000Y-139966000D01*
G37*
G36*
X116041731Y-135524136D02*
G01*
X116144644Y-135534272D01*
X116340017Y-135593538D01*
X116408737Y-135614384D01*
X116638202Y-135737036D01*
X116652120Y-135744475D01*
X116707691Y-135790082D01*
X116865450Y-135919550D01*
X116994918Y-136077309D01*
X117040525Y-136132880D01*
X117040526Y-136132882D01*
X117170616Y-136376263D01*
X117170617Y-136376267D01*
X117250728Y-136640356D01*
X117277778Y-136915000D01*
X117250728Y-137189644D01*
X117223992Y-137277779D01*
X117170616Y-137453737D01*
X117047964Y-137683202D01*
X117040525Y-137697120D01*
X116994918Y-137752691D01*
X116865450Y-137910450D01*
X116707691Y-138039918D01*
X116652120Y-138085525D01*
X116652118Y-138085526D01*
X116408737Y-138215616D01*
X116340017Y-138236462D01*
X116144644Y-138295728D01*
X116041731Y-138305864D01*
X115938820Y-138316000D01*
X115201180Y-138316000D01*
X115098269Y-138305864D01*
X114995356Y-138295728D01*
X114799983Y-138236462D01*
X114731263Y-138215616D01*
X114487882Y-138085526D01*
X114487880Y-138085525D01*
X114432309Y-138039918D01*
X114274550Y-137910450D01*
X114145082Y-137752691D01*
X114099475Y-137697120D01*
X114092036Y-137683202D01*
X113969384Y-137453737D01*
X113916008Y-137277779D01*
X113889272Y-137189644D01*
X113862222Y-136915000D01*
X113889272Y-136640356D01*
X113969383Y-136376267D01*
X113969384Y-136376263D01*
X114099474Y-136132882D01*
X114099475Y-136132880D01*
X114145082Y-136077309D01*
X114274550Y-135919550D01*
X114432309Y-135790082D01*
X114487880Y-135744475D01*
X114501798Y-135737036D01*
X114731263Y-135614384D01*
X114799983Y-135593538D01*
X114995356Y-135534272D01*
X115098269Y-135524136D01*
X115201180Y-135514000D01*
X115938820Y-135514000D01*
X116041731Y-135524136D01*
X116041731Y-135524136D01*
G37*
G36*
X110541731Y-135524136D02*
G01*
X110644644Y-135534272D01*
X110840017Y-135593538D01*
X110908737Y-135614384D01*
X111138202Y-135737036D01*
X111152120Y-135744475D01*
X111207691Y-135790082D01*
X111365450Y-135919550D01*
X111494918Y-136077309D01*
X111540525Y-136132880D01*
X111540526Y-136132882D01*
X111670616Y-136376263D01*
X111670617Y-136376267D01*
X111750728Y-136640356D01*
X111777778Y-136915000D01*
X111750728Y-137189644D01*
X111723992Y-137277779D01*
X111670616Y-137453737D01*
X111547964Y-137683202D01*
X111540525Y-137697120D01*
X111494918Y-137752691D01*
X111365450Y-137910450D01*
X111207691Y-138039918D01*
X111152120Y-138085525D01*
X111152118Y-138085526D01*
X110908737Y-138215616D01*
X110840017Y-138236462D01*
X110644644Y-138295728D01*
X110541731Y-138305864D01*
X110438820Y-138316000D01*
X109701180Y-138316000D01*
X109598269Y-138305864D01*
X109495356Y-138295728D01*
X109299983Y-138236462D01*
X109231263Y-138215616D01*
X108987882Y-138085526D01*
X108987880Y-138085525D01*
X108932309Y-138039918D01*
X108774550Y-137910450D01*
X108645082Y-137752691D01*
X108599475Y-137697120D01*
X108592036Y-137683202D01*
X108469384Y-137453737D01*
X108416008Y-137277779D01*
X108389272Y-137189644D01*
X108362222Y-136915000D01*
X108389272Y-136640356D01*
X108469383Y-136376267D01*
X108469384Y-136376263D01*
X108599474Y-136132882D01*
X108599475Y-136132880D01*
X108645082Y-136077309D01*
X108774550Y-135919550D01*
X108932309Y-135790082D01*
X108987880Y-135744475D01*
X109001798Y-135737036D01*
X109231263Y-135614384D01*
X109299983Y-135593538D01*
X109495356Y-135534272D01*
X109598269Y-135524136D01*
X109701180Y-135514000D01*
X110438820Y-135514000D01*
X110541731Y-135524136D01*
X110541731Y-135524136D01*
G37*
G36*
X198101000Y-137466000D02*
G01*
X195599000Y-137466000D01*
X195599000Y-134964000D01*
X198101000Y-134964000D01*
X198101000Y-137466000D01*
X198101000Y-137466000D01*
G37*
G36*
X138540442Y-135630518D02*
G01*
X138606627Y-135637037D01*
X138776466Y-135688557D01*
X138932991Y-135772222D01*
X138968729Y-135801552D01*
X139070186Y-135884814D01*
X139153448Y-135986271D01*
X139182778Y-136022009D01*
X139266443Y-136178534D01*
X139317963Y-136348373D01*
X139335359Y-136525000D01*
X139317963Y-136701627D01*
X139266443Y-136871466D01*
X139182778Y-137027991D01*
X139153448Y-137063729D01*
X139070186Y-137165186D01*
X138968729Y-137248448D01*
X138932991Y-137277778D01*
X138776466Y-137361443D01*
X138606627Y-137412963D01*
X138540443Y-137419481D01*
X138474260Y-137426000D01*
X138385740Y-137426000D01*
X138319557Y-137419481D01*
X138253373Y-137412963D01*
X138083534Y-137361443D01*
X137927009Y-137277778D01*
X137891271Y-137248448D01*
X137789814Y-137165186D01*
X137706552Y-137063729D01*
X137677222Y-137027991D01*
X137593557Y-136871466D01*
X137542037Y-136701627D01*
X137524641Y-136525000D01*
X137542037Y-136348373D01*
X137593557Y-136178534D01*
X137677222Y-136022009D01*
X137706552Y-135986271D01*
X137789814Y-135884814D01*
X137891271Y-135801552D01*
X137927009Y-135772222D01*
X138083534Y-135688557D01*
X138253373Y-135637037D01*
X138319558Y-135630518D01*
X138385740Y-135624000D01*
X138474260Y-135624000D01*
X138540442Y-135630518D01*
X138540442Y-135630518D01*
G37*
G36*
X141080442Y-135630518D02*
G01*
X141146627Y-135637037D01*
X141316466Y-135688557D01*
X141472991Y-135772222D01*
X141508729Y-135801552D01*
X141610186Y-135884814D01*
X141693448Y-135986271D01*
X141722778Y-136022009D01*
X141806443Y-136178534D01*
X141857963Y-136348373D01*
X141875359Y-136525000D01*
X141857963Y-136701627D01*
X141806443Y-136871466D01*
X141722778Y-137027991D01*
X141693448Y-137063729D01*
X141610186Y-137165186D01*
X141508729Y-137248448D01*
X141472991Y-137277778D01*
X141316466Y-137361443D01*
X141146627Y-137412963D01*
X141080443Y-137419481D01*
X141014260Y-137426000D01*
X140925740Y-137426000D01*
X140859557Y-137419481D01*
X140793373Y-137412963D01*
X140623534Y-137361443D01*
X140467009Y-137277778D01*
X140431271Y-137248448D01*
X140329814Y-137165186D01*
X140246552Y-137063729D01*
X140217222Y-137027991D01*
X140133557Y-136871466D01*
X140082037Y-136701627D01*
X140064641Y-136525000D01*
X140082037Y-136348373D01*
X140133557Y-136178534D01*
X140217222Y-136022009D01*
X140246552Y-135986271D01*
X140329814Y-135884814D01*
X140431271Y-135801552D01*
X140467009Y-135772222D01*
X140623534Y-135688557D01*
X140793373Y-135637037D01*
X140859558Y-135630518D01*
X140925740Y-135624000D01*
X141014260Y-135624000D01*
X141080442Y-135630518D01*
X141080442Y-135630518D01*
G37*
G36*
X136000442Y-135630518D02*
G01*
X136066627Y-135637037D01*
X136236466Y-135688557D01*
X136392991Y-135772222D01*
X136428729Y-135801552D01*
X136530186Y-135884814D01*
X136613448Y-135986271D01*
X136642778Y-136022009D01*
X136726443Y-136178534D01*
X136777963Y-136348373D01*
X136795359Y-136525000D01*
X136777963Y-136701627D01*
X136726443Y-136871466D01*
X136642778Y-137027991D01*
X136613448Y-137063729D01*
X136530186Y-137165186D01*
X136428729Y-137248448D01*
X136392991Y-137277778D01*
X136236466Y-137361443D01*
X136066627Y-137412963D01*
X136000443Y-137419481D01*
X135934260Y-137426000D01*
X135845740Y-137426000D01*
X135779557Y-137419481D01*
X135713373Y-137412963D01*
X135543534Y-137361443D01*
X135387009Y-137277778D01*
X135351271Y-137248448D01*
X135249814Y-137165186D01*
X135166552Y-137063729D01*
X135137222Y-137027991D01*
X135053557Y-136871466D01*
X135002037Y-136701627D01*
X134984641Y-136525000D01*
X135002037Y-136348373D01*
X135053557Y-136178534D01*
X135137222Y-136022009D01*
X135166552Y-135986271D01*
X135249814Y-135884814D01*
X135351271Y-135801552D01*
X135387009Y-135772222D01*
X135543534Y-135688557D01*
X135713373Y-135637037D01*
X135779558Y-135630518D01*
X135845740Y-135624000D01*
X135934260Y-135624000D01*
X136000442Y-135630518D01*
X136000442Y-135630518D01*
G37*
G36*
X133460442Y-135630518D02*
G01*
X133526627Y-135637037D01*
X133696466Y-135688557D01*
X133852991Y-135772222D01*
X133888729Y-135801552D01*
X133990186Y-135884814D01*
X134073448Y-135986271D01*
X134102778Y-136022009D01*
X134186443Y-136178534D01*
X134237963Y-136348373D01*
X134255359Y-136525000D01*
X134237963Y-136701627D01*
X134186443Y-136871466D01*
X134102778Y-137027991D01*
X134073448Y-137063729D01*
X133990186Y-137165186D01*
X133888729Y-137248448D01*
X133852991Y-137277778D01*
X133696466Y-137361443D01*
X133526627Y-137412963D01*
X133460443Y-137419481D01*
X133394260Y-137426000D01*
X133305740Y-137426000D01*
X133239557Y-137419481D01*
X133173373Y-137412963D01*
X133003534Y-137361443D01*
X132847009Y-137277778D01*
X132811271Y-137248448D01*
X132709814Y-137165186D01*
X132626552Y-137063729D01*
X132597222Y-137027991D01*
X132513557Y-136871466D01*
X132462037Y-136701627D01*
X132444641Y-136525000D01*
X132462037Y-136348373D01*
X132513557Y-136178534D01*
X132597222Y-136022009D01*
X132626552Y-135986271D01*
X132709814Y-135884814D01*
X132811271Y-135801552D01*
X132847009Y-135772222D01*
X133003534Y-135688557D01*
X133173373Y-135637037D01*
X133239558Y-135630518D01*
X133305740Y-135624000D01*
X133394260Y-135624000D01*
X133460442Y-135630518D01*
X133460442Y-135630518D01*
G37*
G36*
X143620442Y-135630518D02*
G01*
X143686627Y-135637037D01*
X143856466Y-135688557D01*
X144012991Y-135772222D01*
X144048729Y-135801552D01*
X144150186Y-135884814D01*
X144233448Y-135986271D01*
X144262778Y-136022009D01*
X144346443Y-136178534D01*
X144397963Y-136348373D01*
X144415359Y-136525000D01*
X144397963Y-136701627D01*
X144346443Y-136871466D01*
X144262778Y-137027991D01*
X144233448Y-137063729D01*
X144150186Y-137165186D01*
X144048729Y-137248448D01*
X144012991Y-137277778D01*
X143856466Y-137361443D01*
X143686627Y-137412963D01*
X143620443Y-137419481D01*
X143554260Y-137426000D01*
X143465740Y-137426000D01*
X143399557Y-137419481D01*
X143333373Y-137412963D01*
X143163534Y-137361443D01*
X143007009Y-137277778D01*
X142971271Y-137248448D01*
X142869814Y-137165186D01*
X142786552Y-137063729D01*
X142757222Y-137027991D01*
X142673557Y-136871466D01*
X142622037Y-136701627D01*
X142604641Y-136525000D01*
X142622037Y-136348373D01*
X142673557Y-136178534D01*
X142757222Y-136022009D01*
X142786552Y-135986271D01*
X142869814Y-135884814D01*
X142971271Y-135801552D01*
X143007009Y-135772222D01*
X143163534Y-135688557D01*
X143333373Y-135637037D01*
X143399558Y-135630518D01*
X143465740Y-135624000D01*
X143554260Y-135624000D01*
X143620442Y-135630518D01*
X143620442Y-135630518D01*
G37*
G36*
X179021000Y-136546000D02*
G01*
X172769000Y-136546000D01*
X172769000Y-134844000D01*
X179021000Y-134844000D01*
X179021000Y-136546000D01*
X179021000Y-136546000D01*
G37*
G36*
X158611000Y-136536000D02*
G01*
X155759000Y-136536000D01*
X155759000Y-135434000D01*
X158611000Y-135434000D01*
X158611000Y-136536000D01*
X158611000Y-136536000D01*
G37*
G36*
X152851000Y-136536000D02*
G01*
X149999000Y-136536000D01*
X149999000Y-135434000D01*
X152851000Y-135434000D01*
X152851000Y-136536000D01*
X152851000Y-136536000D01*
G37*
G36*
X184103674Y-135268465D02*
G01*
X184141367Y-135279899D01*
X184176103Y-135298466D01*
X184206548Y-135323452D01*
X184231534Y-135353897D01*
X184250101Y-135388633D01*
X184261535Y-135426326D01*
X184266000Y-135471661D01*
X184266000Y-136308339D01*
X184261535Y-136353674D01*
X184250101Y-136391367D01*
X184231534Y-136426103D01*
X184206548Y-136456548D01*
X184176103Y-136481534D01*
X184141367Y-136500101D01*
X184103674Y-136511535D01*
X184058339Y-136516000D01*
X182971661Y-136516000D01*
X182926326Y-136511535D01*
X182888633Y-136500101D01*
X182853897Y-136481534D01*
X182823452Y-136456548D01*
X182798466Y-136426103D01*
X182779899Y-136391367D01*
X182768465Y-136353674D01*
X182764000Y-136308339D01*
X182764000Y-135471661D01*
X182768465Y-135426326D01*
X182779899Y-135388633D01*
X182798466Y-135353897D01*
X182823452Y-135323452D01*
X182853897Y-135298466D01*
X182888633Y-135279899D01*
X182926326Y-135268465D01*
X182971661Y-135264000D01*
X184058339Y-135264000D01*
X184103674Y-135268465D01*
X184103674Y-135268465D01*
G37*
G36*
X164078228Y-133896703D02*
G01*
X164233100Y-133960853D01*
X164372481Y-134053985D01*
X164491015Y-134172519D01*
X164584147Y-134311900D01*
X164648297Y-134466772D01*
X164681000Y-134631184D01*
X164681000Y-134798816D01*
X164648297Y-134963228D01*
X164584147Y-135118100D01*
X164491015Y-135257481D01*
X164372481Y-135376015D01*
X164233100Y-135469147D01*
X164078228Y-135533297D01*
X163913816Y-135566000D01*
X163746184Y-135566000D01*
X163581772Y-135533297D01*
X163426900Y-135469147D01*
X163287519Y-135376015D01*
X163168985Y-135257481D01*
X163075853Y-135118100D01*
X163011703Y-134963228D01*
X162979000Y-134798816D01*
X162979000Y-134631184D01*
X163011703Y-134466772D01*
X163075853Y-134311900D01*
X163168985Y-134172519D01*
X163287519Y-134053985D01*
X163426900Y-133960853D01*
X163581772Y-133896703D01*
X163746184Y-133864000D01*
X163913816Y-133864000D01*
X164078228Y-133896703D01*
X164078228Y-133896703D01*
G37*
G36*
X190916000Y-134821000D02*
G01*
X188814000Y-134821000D01*
X188814000Y-130219000D01*
X190916000Y-130219000D01*
X190916000Y-134821000D01*
X190916000Y-134821000D01*
G37*
G36*
X172496000Y-134571000D02*
G01*
X170794000Y-134571000D01*
X170794000Y-128319000D01*
X172496000Y-128319000D01*
X172496000Y-134571000D01*
X172496000Y-134571000D01*
G37*
G36*
X180996000Y-134571000D02*
G01*
X179294000Y-134571000D01*
X179294000Y-128319000D01*
X180996000Y-128319000D01*
X180996000Y-134571000D01*
X180996000Y-134571000D01*
G37*
G36*
X184103674Y-133218465D02*
G01*
X184141367Y-133229899D01*
X184176103Y-133248466D01*
X184206548Y-133273452D01*
X184231534Y-133303897D01*
X184250101Y-133338633D01*
X184261535Y-133376326D01*
X184266000Y-133421661D01*
X184266000Y-134258339D01*
X184261535Y-134303674D01*
X184250101Y-134341367D01*
X184231534Y-134376103D01*
X184206548Y-134406548D01*
X184176103Y-134431534D01*
X184141367Y-134450101D01*
X184103674Y-134461535D01*
X184058339Y-134466000D01*
X182971661Y-134466000D01*
X182926326Y-134461535D01*
X182888633Y-134450101D01*
X182853897Y-134431534D01*
X182823452Y-134406548D01*
X182798466Y-134376103D01*
X182779899Y-134341367D01*
X182768465Y-134303674D01*
X182764000Y-134258339D01*
X182764000Y-133421661D01*
X182768465Y-133376326D01*
X182779899Y-133338633D01*
X182798466Y-133303897D01*
X182823452Y-133273452D01*
X182853897Y-133248466D01*
X182888633Y-133229899D01*
X182926326Y-133218465D01*
X182971661Y-133214000D01*
X184058339Y-133214000D01*
X184103674Y-133218465D01*
X184103674Y-133218465D01*
G37*
G36*
X148543674Y-132873465D02*
G01*
X148581367Y-132884899D01*
X148616103Y-132903466D01*
X148646548Y-132928452D01*
X148671534Y-132958897D01*
X148690101Y-132993633D01*
X148701535Y-133031326D01*
X148706000Y-133076661D01*
X148706000Y-133913339D01*
X148701535Y-133958674D01*
X148690101Y-133996367D01*
X148671534Y-134031103D01*
X148646548Y-134061548D01*
X148616103Y-134086534D01*
X148581367Y-134105101D01*
X148543674Y-134116535D01*
X148498339Y-134121000D01*
X147411661Y-134121000D01*
X147366326Y-134116535D01*
X147328633Y-134105101D01*
X147293897Y-134086534D01*
X147263452Y-134061548D01*
X147238466Y-134031103D01*
X147219899Y-133996367D01*
X147208465Y-133958674D01*
X147204000Y-133913339D01*
X147204000Y-133076661D01*
X147208465Y-133031326D01*
X147219899Y-132993633D01*
X147238466Y-132958897D01*
X147263452Y-132928452D01*
X147293897Y-132903466D01*
X147328633Y-132884899D01*
X147366326Y-132873465D01*
X147411661Y-132869000D01*
X148498339Y-132869000D01*
X148543674Y-132873465D01*
X148543674Y-132873465D01*
G37*
G36*
X117144031Y-131317621D02*
G01*
X117173486Y-131326556D01*
X117200623Y-131341062D01*
X117224414Y-131360586D01*
X117243938Y-131384377D01*
X117258444Y-131411514D01*
X117267379Y-131440969D01*
X117271000Y-131477734D01*
X117271000Y-133952266D01*
X117267379Y-133989031D01*
X117258444Y-134018486D01*
X117243938Y-134045623D01*
X117224414Y-134069414D01*
X117200623Y-134088938D01*
X117173486Y-134103444D01*
X117144031Y-134112379D01*
X117107266Y-134116000D01*
X114032734Y-134116000D01*
X113995969Y-134112379D01*
X113966514Y-134103444D01*
X113939377Y-134088938D01*
X113915586Y-134069414D01*
X113896062Y-134045623D01*
X113881556Y-134018486D01*
X113872621Y-133989031D01*
X113869000Y-133952266D01*
X113869000Y-131477734D01*
X113872621Y-131440969D01*
X113881556Y-131411514D01*
X113896062Y-131384377D01*
X113915586Y-131360586D01*
X113939377Y-131341062D01*
X113966514Y-131326556D01*
X113995969Y-131317621D01*
X114032734Y-131314000D01*
X117107266Y-131314000D01*
X117144031Y-131317621D01*
X117144031Y-131317621D01*
G37*
G36*
X110541731Y-131324136D02*
G01*
X110644644Y-131334272D01*
X110840017Y-131393538D01*
X110908737Y-131414384D01*
X111111625Y-131522830D01*
X111152120Y-131544475D01*
X111189268Y-131574962D01*
X111365450Y-131719550D01*
X111481440Y-131860885D01*
X111540525Y-131932880D01*
X111540526Y-131932882D01*
X111670616Y-132176263D01*
X111670617Y-132176267D01*
X111750728Y-132440356D01*
X111777778Y-132715000D01*
X111750728Y-132989644D01*
X111723348Y-133079903D01*
X111670616Y-133253737D01*
X111547964Y-133483202D01*
X111540525Y-133497120D01*
X111494918Y-133552691D01*
X111365450Y-133710450D01*
X111227547Y-133823623D01*
X111152120Y-133885525D01*
X111152118Y-133885526D01*
X110908737Y-134015616D01*
X110857683Y-134031103D01*
X110644644Y-134095728D01*
X110549478Y-134105101D01*
X110438820Y-134116000D01*
X109701180Y-134116000D01*
X109590522Y-134105101D01*
X109495356Y-134095728D01*
X109282317Y-134031103D01*
X109231263Y-134015616D01*
X108987882Y-133885526D01*
X108987880Y-133885525D01*
X108912453Y-133823623D01*
X108774550Y-133710450D01*
X108645082Y-133552691D01*
X108599475Y-133497120D01*
X108592036Y-133483202D01*
X108469384Y-133253737D01*
X108416652Y-133079903D01*
X108389272Y-132989644D01*
X108362222Y-132715000D01*
X108389272Y-132440356D01*
X108469383Y-132176267D01*
X108469384Y-132176263D01*
X108599474Y-131932882D01*
X108599475Y-131932880D01*
X108658560Y-131860885D01*
X108774550Y-131719550D01*
X108950732Y-131574962D01*
X108987880Y-131544475D01*
X109028375Y-131522830D01*
X109231263Y-131414384D01*
X109299983Y-131393538D01*
X109495356Y-131334272D01*
X109598269Y-131324136D01*
X109701180Y-131314000D01*
X110438820Y-131314000D01*
X110541731Y-131324136D01*
X110541731Y-131324136D01*
G37*
G36*
X197153539Y-131499869D02*
G01*
X197214903Y-131512075D01*
X197442571Y-131606378D01*
X197647466Y-131743285D01*
X197821715Y-131917534D01*
X197924258Y-132071000D01*
X197958623Y-132122431D01*
X198052925Y-132350097D01*
X198101000Y-132591786D01*
X198101000Y-132838214D01*
X198052925Y-133079903D01*
X197980923Y-133253733D01*
X197958622Y-133307571D01*
X197821715Y-133512466D01*
X197647466Y-133686715D01*
X197442571Y-133823622D01*
X197442570Y-133823623D01*
X197442569Y-133823623D01*
X197214903Y-133917925D01*
X196973214Y-133966000D01*
X196726786Y-133966000D01*
X196485097Y-133917925D01*
X196257431Y-133823623D01*
X196257430Y-133823623D01*
X196257429Y-133823622D01*
X196052534Y-133686715D01*
X195878285Y-133512466D01*
X195741378Y-133307571D01*
X195719078Y-133253733D01*
X195647075Y-133079903D01*
X195599000Y-132838214D01*
X195599000Y-132591786D01*
X195647075Y-132350097D01*
X195741377Y-132122431D01*
X195775742Y-132071000D01*
X195878285Y-131917534D01*
X196052534Y-131743285D01*
X196257429Y-131606378D01*
X196485097Y-131512075D01*
X196546461Y-131499869D01*
X196726786Y-131464000D01*
X196973214Y-131464000D01*
X197153539Y-131499869D01*
X197153539Y-131499869D01*
G37*
G36*
X164681000Y-133566000D02*
G01*
X162979000Y-133566000D01*
X162979000Y-131864000D01*
X164681000Y-131864000D01*
X164681000Y-133566000D01*
X164681000Y-133566000D01*
G37*
G36*
X186419499Y-131748445D02*
G01*
X186456995Y-131759820D01*
X186491554Y-131778292D01*
X186521847Y-131803153D01*
X186546708Y-131833446D01*
X186565180Y-131868005D01*
X186576555Y-131905501D01*
X186581000Y-131950638D01*
X186581000Y-132689362D01*
X186576555Y-132734499D01*
X186565180Y-132771995D01*
X186546708Y-132806554D01*
X186521847Y-132836847D01*
X186491554Y-132861708D01*
X186456995Y-132880180D01*
X186419499Y-132891555D01*
X186374362Y-132896000D01*
X185735638Y-132896000D01*
X185690501Y-132891555D01*
X185653005Y-132880180D01*
X185618446Y-132861708D01*
X185588153Y-132836847D01*
X185563292Y-132806554D01*
X185544820Y-132771995D01*
X185533445Y-132734499D01*
X185529000Y-132689362D01*
X185529000Y-131950638D01*
X185533445Y-131905501D01*
X185544820Y-131868005D01*
X185563292Y-131833446D01*
X185588153Y-131803153D01*
X185618446Y-131778292D01*
X185653005Y-131759820D01*
X185690501Y-131748445D01*
X185735638Y-131744000D01*
X186374362Y-131744000D01*
X186419499Y-131748445D01*
X186419499Y-131748445D01*
G37*
G36*
X184103674Y-131458465D02*
G01*
X184141367Y-131469899D01*
X184176103Y-131488466D01*
X184206548Y-131513452D01*
X184231534Y-131543897D01*
X184250101Y-131578633D01*
X184261535Y-131616326D01*
X184266000Y-131661661D01*
X184266000Y-132498339D01*
X184261535Y-132543674D01*
X184250101Y-132581367D01*
X184231534Y-132616103D01*
X184206548Y-132646548D01*
X184176103Y-132671534D01*
X184141367Y-132690101D01*
X184103674Y-132701535D01*
X184058339Y-132706000D01*
X182971661Y-132706000D01*
X182926326Y-132701535D01*
X182888633Y-132690101D01*
X182853897Y-132671534D01*
X182823452Y-132646548D01*
X182798466Y-132616103D01*
X182779899Y-132581367D01*
X182768465Y-132543674D01*
X182764000Y-132498339D01*
X182764000Y-131661661D01*
X182768465Y-131616326D01*
X182779899Y-131578633D01*
X182798466Y-131543897D01*
X182823452Y-131513452D01*
X182853897Y-131488466D01*
X182888633Y-131469899D01*
X182926326Y-131458465D01*
X182971661Y-131454000D01*
X184058339Y-131454000D01*
X184103674Y-131458465D01*
X184103674Y-131458465D01*
G37*
G36*
X152851000Y-132536000D02*
G01*
X149999000Y-132536000D01*
X149999000Y-131434000D01*
X152851000Y-131434000D01*
X152851000Y-132536000D01*
X152851000Y-132536000D01*
G37*
G36*
X158611000Y-132536000D02*
G01*
X155759000Y-132536000D01*
X155759000Y-131434000D01*
X158611000Y-131434000D01*
X158611000Y-132536000D01*
X158611000Y-132536000D01*
G37*
G36*
X148543674Y-130823465D02*
G01*
X148581367Y-130834899D01*
X148616103Y-130853466D01*
X148646548Y-130878452D01*
X148671534Y-130908897D01*
X148690101Y-130943633D01*
X148701535Y-130981326D01*
X148706000Y-131026661D01*
X148706000Y-131863339D01*
X148701535Y-131908674D01*
X148690101Y-131946367D01*
X148671534Y-131981103D01*
X148646548Y-132011548D01*
X148616103Y-132036534D01*
X148581367Y-132055101D01*
X148543674Y-132066535D01*
X148498339Y-132071000D01*
X147411661Y-132071000D01*
X147366326Y-132066535D01*
X147328633Y-132055101D01*
X147293897Y-132036534D01*
X147263452Y-132011548D01*
X147238466Y-131981103D01*
X147219899Y-131946367D01*
X147208465Y-131908674D01*
X147204000Y-131863339D01*
X147204000Y-131026661D01*
X147208465Y-130981326D01*
X147219899Y-130943633D01*
X147238466Y-130908897D01*
X147263452Y-130878452D01*
X147293897Y-130853466D01*
X147328633Y-130834899D01*
X147366326Y-130823465D01*
X147411661Y-130819000D01*
X148498339Y-130819000D01*
X148543674Y-130823465D01*
X148543674Y-130823465D01*
G37*
G36*
X186419499Y-129998445D02*
G01*
X186456995Y-130009820D01*
X186491554Y-130028292D01*
X186521847Y-130053153D01*
X186546708Y-130083446D01*
X186565180Y-130118005D01*
X186576555Y-130155501D01*
X186581000Y-130200638D01*
X186581000Y-130939362D01*
X186576555Y-130984499D01*
X186565180Y-131021995D01*
X186546708Y-131056554D01*
X186521847Y-131086847D01*
X186491554Y-131111708D01*
X186456995Y-131130180D01*
X186419499Y-131141555D01*
X186374362Y-131146000D01*
X185735638Y-131146000D01*
X185690501Y-131141555D01*
X185653005Y-131130180D01*
X185618446Y-131111708D01*
X185588153Y-131086847D01*
X185563292Y-131056554D01*
X185544820Y-131021995D01*
X185533445Y-130984499D01*
X185529000Y-130939362D01*
X185529000Y-130200638D01*
X185533445Y-130155501D01*
X185544820Y-130118005D01*
X185563292Y-130083446D01*
X185588153Y-130053153D01*
X185618446Y-130028292D01*
X185653005Y-130009820D01*
X185690501Y-129998445D01*
X185735638Y-129994000D01*
X186374362Y-129994000D01*
X186419499Y-129998445D01*
X186419499Y-129998445D01*
G37*
G36*
X184103674Y-129408465D02*
G01*
X184141367Y-129419899D01*
X184176103Y-129438466D01*
X184206548Y-129463452D01*
X184231534Y-129493897D01*
X184250101Y-129528633D01*
X184261535Y-129566326D01*
X184266000Y-129611661D01*
X184266000Y-130448339D01*
X184261535Y-130493674D01*
X184250101Y-130531367D01*
X184231534Y-130566103D01*
X184206548Y-130596548D01*
X184176103Y-130621534D01*
X184141367Y-130640101D01*
X184103674Y-130651535D01*
X184058339Y-130656000D01*
X182971661Y-130656000D01*
X182926326Y-130651535D01*
X182888633Y-130640101D01*
X182853897Y-130621534D01*
X182823452Y-130596548D01*
X182798466Y-130566103D01*
X182779899Y-130531367D01*
X182768465Y-130493674D01*
X182764000Y-130448339D01*
X182764000Y-129611661D01*
X182768465Y-129566326D01*
X182779899Y-129528633D01*
X182798466Y-129493897D01*
X182823452Y-129463452D01*
X182853897Y-129438466D01*
X182888633Y-129419899D01*
X182926326Y-129408465D01*
X182971661Y-129404000D01*
X184058339Y-129404000D01*
X184103674Y-129408465D01*
X184103674Y-129408465D01*
G37*
G36*
X197214903Y-128012075D02*
G01*
X197378573Y-128079869D01*
X197442571Y-128106378D01*
X197647466Y-128243285D01*
X197821715Y-128417534D01*
X197954639Y-128616468D01*
X197958623Y-128622431D01*
X198052925Y-128850097D01*
X198101000Y-129091786D01*
X198101000Y-129338214D01*
X198072057Y-129483718D01*
X198052925Y-129579903D01*
X197958622Y-129807571D01*
X197821715Y-130012466D01*
X197647466Y-130186715D01*
X197442571Y-130323622D01*
X197442570Y-130323623D01*
X197442569Y-130323623D01*
X197214903Y-130417925D01*
X196973214Y-130466000D01*
X196726786Y-130466000D01*
X196485097Y-130417925D01*
X196257431Y-130323623D01*
X196257430Y-130323623D01*
X196257429Y-130323622D01*
X196052534Y-130186715D01*
X195878285Y-130012466D01*
X195741378Y-129807571D01*
X195647075Y-129579903D01*
X195627943Y-129483718D01*
X195599000Y-129338214D01*
X195599000Y-129091786D01*
X195647075Y-128850097D01*
X195741377Y-128622431D01*
X195745361Y-128616468D01*
X195878285Y-128417534D01*
X196052534Y-128243285D01*
X196257429Y-128106378D01*
X196321428Y-128079869D01*
X196485097Y-128012075D01*
X196726786Y-127964000D01*
X196973214Y-127964000D01*
X197214903Y-128012075D01*
X197214903Y-128012075D01*
G37*
G36*
X166688674Y-128793465D02*
G01*
X166726367Y-128804899D01*
X166761103Y-128823466D01*
X166791548Y-128848452D01*
X166816534Y-128878897D01*
X166835101Y-128913633D01*
X166846535Y-128951326D01*
X166851000Y-128996661D01*
X166851000Y-130083339D01*
X166846535Y-130128674D01*
X166835101Y-130166367D01*
X166816534Y-130201103D01*
X166791548Y-130231548D01*
X166761103Y-130256534D01*
X166726367Y-130275101D01*
X166688674Y-130286535D01*
X166643339Y-130291000D01*
X165806661Y-130291000D01*
X165761326Y-130286535D01*
X165723633Y-130275101D01*
X165688897Y-130256534D01*
X165658452Y-130231548D01*
X165633466Y-130201103D01*
X165614899Y-130166367D01*
X165603465Y-130128674D01*
X165599000Y-130083339D01*
X165599000Y-128996661D01*
X165603465Y-128951326D01*
X165614899Y-128913633D01*
X165633466Y-128878897D01*
X165658452Y-128848452D01*
X165688897Y-128823466D01*
X165723633Y-128804899D01*
X165761326Y-128793465D01*
X165806661Y-128789000D01*
X166643339Y-128789000D01*
X166688674Y-128793465D01*
X166688674Y-128793465D01*
G37*
G36*
X168738674Y-128793465D02*
G01*
X168776367Y-128804899D01*
X168811103Y-128823466D01*
X168841548Y-128848452D01*
X168866534Y-128878897D01*
X168885101Y-128913633D01*
X168896535Y-128951326D01*
X168901000Y-128996661D01*
X168901000Y-130083339D01*
X168896535Y-130128674D01*
X168885101Y-130166367D01*
X168866534Y-130201103D01*
X168841548Y-130231548D01*
X168811103Y-130256534D01*
X168776367Y-130275101D01*
X168738674Y-130286535D01*
X168693339Y-130291000D01*
X167856661Y-130291000D01*
X167811326Y-130286535D01*
X167773633Y-130275101D01*
X167738897Y-130256534D01*
X167708452Y-130231548D01*
X167683466Y-130201103D01*
X167664899Y-130166367D01*
X167653465Y-130128674D01*
X167649000Y-130083339D01*
X167649000Y-128996661D01*
X167653465Y-128951326D01*
X167664899Y-128913633D01*
X167683466Y-128878897D01*
X167708452Y-128848452D01*
X167738897Y-128823466D01*
X167773633Y-128804899D01*
X167811326Y-128793465D01*
X167856661Y-128789000D01*
X168693339Y-128789000D01*
X168738674Y-128793465D01*
X168738674Y-128793465D01*
G37*
G36*
X162304393Y-127019304D02*
G01*
X162541101Y-127117352D01*
X162541103Y-127117353D01*
X162754135Y-127259696D01*
X162935304Y-127440865D01*
X163077647Y-127653897D01*
X163077648Y-127653899D01*
X163175696Y-127890607D01*
X163225680Y-128141893D01*
X163225680Y-128398107D01*
X163175696Y-128649393D01*
X163116019Y-128793465D01*
X163077647Y-128886103D01*
X162935304Y-129099135D01*
X162754135Y-129280304D01*
X162541103Y-129422647D01*
X162541102Y-129422648D01*
X162541101Y-129422648D01*
X162304393Y-129520696D01*
X162053107Y-129570680D01*
X161796893Y-129570680D01*
X161545607Y-129520696D01*
X161308899Y-129422648D01*
X161308898Y-129422648D01*
X161308897Y-129422647D01*
X161095865Y-129280304D01*
X160914696Y-129099135D01*
X160772353Y-128886103D01*
X160733981Y-128793465D01*
X160674304Y-128649393D01*
X160624320Y-128398107D01*
X160624320Y-128141893D01*
X160674304Y-127890607D01*
X160772352Y-127653899D01*
X160772353Y-127653897D01*
X160914696Y-127440865D01*
X161095865Y-127259696D01*
X161308897Y-127117353D01*
X161308899Y-127117352D01*
X161545607Y-127019304D01*
X161796893Y-126969320D01*
X162053107Y-126969320D01*
X162304393Y-127019304D01*
X162304393Y-127019304D01*
G37*
G36*
X186643674Y-128038465D02*
G01*
X186681367Y-128049899D01*
X186716103Y-128068466D01*
X186746548Y-128093452D01*
X186771534Y-128123897D01*
X186790101Y-128158633D01*
X186801535Y-128196326D01*
X186806000Y-128241661D01*
X186806000Y-129078339D01*
X186801535Y-129123674D01*
X186790101Y-129161367D01*
X186771534Y-129196103D01*
X186746548Y-129226548D01*
X186716103Y-129251534D01*
X186681367Y-129270101D01*
X186643674Y-129281535D01*
X186598339Y-129286000D01*
X185511661Y-129286000D01*
X185466326Y-129281535D01*
X185428633Y-129270101D01*
X185393897Y-129251534D01*
X185363452Y-129226548D01*
X185338466Y-129196103D01*
X185319899Y-129161367D01*
X185308465Y-129123674D01*
X185304000Y-129078339D01*
X185304000Y-128241661D01*
X185308465Y-128196326D01*
X185319899Y-128158633D01*
X185338466Y-128123897D01*
X185363452Y-128093452D01*
X185393897Y-128068466D01*
X185428633Y-128049899D01*
X185466326Y-128038465D01*
X185511661Y-128034000D01*
X186598339Y-128034000D01*
X186643674Y-128038465D01*
X186643674Y-128038465D01*
G37*
G36*
X150605442Y-127375518D02*
G01*
X150671627Y-127382037D01*
X150841466Y-127433557D01*
X150997991Y-127517222D01*
X151033729Y-127546552D01*
X151135186Y-127629814D01*
X151202262Y-127711548D01*
X151247778Y-127767009D01*
X151247779Y-127767011D01*
X151313843Y-127890606D01*
X151331443Y-127923534D01*
X151382963Y-128093373D01*
X151400359Y-128270000D01*
X151382963Y-128446627D01*
X151331443Y-128616466D01*
X151331442Y-128616468D01*
X151289610Y-128694729D01*
X151247778Y-128772991D01*
X151230975Y-128793465D01*
X151135186Y-128910186D01*
X151033729Y-128993448D01*
X150997991Y-129022778D01*
X150997989Y-129022779D01*
X150894045Y-129078339D01*
X150841466Y-129106443D01*
X150671627Y-129157963D01*
X150605442Y-129164482D01*
X150539260Y-129171000D01*
X150450740Y-129171000D01*
X150384558Y-129164482D01*
X150318373Y-129157963D01*
X150148534Y-129106443D01*
X150095956Y-129078339D01*
X149992011Y-129022779D01*
X149992009Y-129022778D01*
X149956271Y-128993448D01*
X149854814Y-128910186D01*
X149759025Y-128793465D01*
X149742222Y-128772991D01*
X149700389Y-128694728D01*
X149658558Y-128616468D01*
X149658557Y-128616466D01*
X149607037Y-128446627D01*
X149589641Y-128270000D01*
X149607037Y-128093373D01*
X149658557Y-127923534D01*
X149676158Y-127890606D01*
X149742221Y-127767011D01*
X149742222Y-127767009D01*
X149787738Y-127711548D01*
X149854814Y-127629814D01*
X149956271Y-127546552D01*
X149992009Y-127517222D01*
X150148534Y-127433557D01*
X150318373Y-127382037D01*
X150384558Y-127375518D01*
X150450740Y-127369000D01*
X150539260Y-127369000D01*
X150605442Y-127375518D01*
X150605442Y-127375518D01*
G37*
G36*
X153145442Y-127375518D02*
G01*
X153211627Y-127382037D01*
X153381466Y-127433557D01*
X153537991Y-127517222D01*
X153573729Y-127546552D01*
X153675186Y-127629814D01*
X153742262Y-127711548D01*
X153787778Y-127767009D01*
X153787779Y-127767011D01*
X153853843Y-127890606D01*
X153871443Y-127923534D01*
X153922963Y-128093373D01*
X153940359Y-128270000D01*
X153922963Y-128446627D01*
X153871443Y-128616466D01*
X153871442Y-128616468D01*
X153829610Y-128694729D01*
X153787778Y-128772991D01*
X153770975Y-128793465D01*
X153675186Y-128910186D01*
X153573729Y-128993448D01*
X153537991Y-129022778D01*
X153537989Y-129022779D01*
X153434045Y-129078339D01*
X153381466Y-129106443D01*
X153211627Y-129157963D01*
X153145442Y-129164482D01*
X153079260Y-129171000D01*
X152990740Y-129171000D01*
X152924558Y-129164482D01*
X152858373Y-129157963D01*
X152688534Y-129106443D01*
X152635956Y-129078339D01*
X152532011Y-129022779D01*
X152532009Y-129022778D01*
X152496271Y-128993448D01*
X152394814Y-128910186D01*
X152299025Y-128793465D01*
X152282222Y-128772991D01*
X152240389Y-128694728D01*
X152198558Y-128616468D01*
X152198557Y-128616466D01*
X152147037Y-128446627D01*
X152129641Y-128270000D01*
X152147037Y-128093373D01*
X152198557Y-127923534D01*
X152216158Y-127890606D01*
X152282221Y-127767011D01*
X152282222Y-127767009D01*
X152327738Y-127711548D01*
X152394814Y-127629814D01*
X152496271Y-127546552D01*
X152532009Y-127517222D01*
X152688534Y-127433557D01*
X152858373Y-127382037D01*
X152924558Y-127375518D01*
X152990740Y-127369000D01*
X153079260Y-127369000D01*
X153145442Y-127375518D01*
X153145442Y-127375518D01*
G37*
G36*
X159016000Y-129171000D02*
G01*
X157214000Y-129171000D01*
X157214000Y-127369000D01*
X159016000Y-127369000D01*
X159016000Y-129171000D01*
X159016000Y-129171000D01*
G37*
G36*
X155685442Y-127375518D02*
G01*
X155751627Y-127382037D01*
X155921466Y-127433557D01*
X156077991Y-127517222D01*
X156113729Y-127546552D01*
X156215186Y-127629814D01*
X156282262Y-127711548D01*
X156327778Y-127767009D01*
X156327779Y-127767011D01*
X156393843Y-127890606D01*
X156411443Y-127923534D01*
X156462963Y-128093373D01*
X156480359Y-128270000D01*
X156462963Y-128446627D01*
X156411443Y-128616466D01*
X156411442Y-128616468D01*
X156369610Y-128694729D01*
X156327778Y-128772991D01*
X156310975Y-128793465D01*
X156215186Y-128910186D01*
X156113729Y-128993448D01*
X156077991Y-129022778D01*
X156077989Y-129022779D01*
X155974045Y-129078339D01*
X155921466Y-129106443D01*
X155751627Y-129157963D01*
X155685442Y-129164482D01*
X155619260Y-129171000D01*
X155530740Y-129171000D01*
X155464558Y-129164482D01*
X155398373Y-129157963D01*
X155228534Y-129106443D01*
X155175956Y-129078339D01*
X155072011Y-129022779D01*
X155072009Y-129022778D01*
X155036271Y-128993448D01*
X154934814Y-128910186D01*
X154839025Y-128793465D01*
X154822222Y-128772991D01*
X154780389Y-128694728D01*
X154738558Y-128616468D01*
X154738557Y-128616466D01*
X154687037Y-128446627D01*
X154669641Y-128270000D01*
X154687037Y-128093373D01*
X154738557Y-127923534D01*
X154756158Y-127890606D01*
X154822221Y-127767011D01*
X154822222Y-127767009D01*
X154867738Y-127711548D01*
X154934814Y-127629814D01*
X155036271Y-127546552D01*
X155072009Y-127517222D01*
X155228534Y-127433557D01*
X155398373Y-127382037D01*
X155464558Y-127375518D01*
X155530740Y-127369000D01*
X155619260Y-127369000D01*
X155685442Y-127375518D01*
X155685442Y-127375518D01*
G37*
G36*
X148065442Y-127375518D02*
G01*
X148131627Y-127382037D01*
X148301466Y-127433557D01*
X148457991Y-127517222D01*
X148493729Y-127546552D01*
X148595186Y-127629814D01*
X148662262Y-127711548D01*
X148707778Y-127767009D01*
X148707779Y-127767011D01*
X148773843Y-127890606D01*
X148791443Y-127923534D01*
X148842963Y-128093373D01*
X148860359Y-128270000D01*
X148842963Y-128446627D01*
X148791443Y-128616466D01*
X148791442Y-128616468D01*
X148749610Y-128694729D01*
X148707778Y-128772991D01*
X148690975Y-128793465D01*
X148595186Y-128910186D01*
X148493729Y-128993448D01*
X148457991Y-129022778D01*
X148457989Y-129022779D01*
X148354045Y-129078339D01*
X148301466Y-129106443D01*
X148131627Y-129157963D01*
X148065442Y-129164482D01*
X147999260Y-129171000D01*
X147910740Y-129171000D01*
X147844558Y-129164482D01*
X147778373Y-129157963D01*
X147608534Y-129106443D01*
X147555956Y-129078339D01*
X147452011Y-129022779D01*
X147452009Y-129022778D01*
X147416271Y-128993448D01*
X147314814Y-128910186D01*
X147219025Y-128793465D01*
X147202222Y-128772991D01*
X147160389Y-128694728D01*
X147118558Y-128616468D01*
X147118557Y-128616466D01*
X147067037Y-128446627D01*
X147049641Y-128270000D01*
X147067037Y-128093373D01*
X147118557Y-127923534D01*
X147136158Y-127890606D01*
X147202221Y-127767011D01*
X147202222Y-127767009D01*
X147247738Y-127711548D01*
X147314814Y-127629814D01*
X147416271Y-127546552D01*
X147452009Y-127517222D01*
X147608534Y-127433557D01*
X147778373Y-127382037D01*
X147844558Y-127375518D01*
X147910740Y-127369000D01*
X147999260Y-127369000D01*
X148065442Y-127375518D01*
X148065442Y-127375518D01*
G37*
G36*
X179021000Y-128046000D02*
G01*
X172769000Y-128046000D01*
X172769000Y-126344000D01*
X179021000Y-126344000D01*
X179021000Y-128046000D01*
X179021000Y-128046000D01*
G37*
G36*
X166958674Y-126523465D02*
G01*
X166996367Y-126534899D01*
X167031103Y-126553466D01*
X167061548Y-126578452D01*
X167086534Y-126608897D01*
X167105101Y-126643633D01*
X167116535Y-126681326D01*
X167121000Y-126726661D01*
X167121000Y-127563339D01*
X167116535Y-127608674D01*
X167105101Y-127646367D01*
X167086534Y-127681103D01*
X167061548Y-127711548D01*
X167031103Y-127736534D01*
X166996367Y-127755101D01*
X166958674Y-127766535D01*
X166913339Y-127771000D01*
X165826661Y-127771000D01*
X165781326Y-127766535D01*
X165743633Y-127755101D01*
X165708897Y-127736534D01*
X165678452Y-127711548D01*
X165653466Y-127681103D01*
X165634899Y-127646367D01*
X165623465Y-127608674D01*
X165619000Y-127563339D01*
X165619000Y-126726661D01*
X165623465Y-126681326D01*
X165634899Y-126643633D01*
X165653466Y-126608897D01*
X165678452Y-126578452D01*
X165708897Y-126553466D01*
X165743633Y-126534899D01*
X165781326Y-126523465D01*
X165826661Y-126519000D01*
X166913339Y-126519000D01*
X166958674Y-126523465D01*
X166958674Y-126523465D01*
G37*
G36*
X186643674Y-125988465D02*
G01*
X186681367Y-125999899D01*
X186716103Y-126018466D01*
X186746548Y-126043452D01*
X186771534Y-126073897D01*
X186790101Y-126108633D01*
X186801535Y-126146326D01*
X186806000Y-126191661D01*
X186806000Y-127028339D01*
X186801535Y-127073674D01*
X186790101Y-127111367D01*
X186771534Y-127146103D01*
X186746548Y-127176548D01*
X186716103Y-127201534D01*
X186681367Y-127220101D01*
X186643674Y-127231535D01*
X186598339Y-127236000D01*
X185511661Y-127236000D01*
X185466326Y-127231535D01*
X185428633Y-127220101D01*
X185393897Y-127201534D01*
X185363452Y-127176548D01*
X185338466Y-127146103D01*
X185319899Y-127111367D01*
X185308465Y-127073674D01*
X185304000Y-127028339D01*
X185304000Y-126191661D01*
X185308465Y-126146326D01*
X185319899Y-126108633D01*
X185338466Y-126073897D01*
X185363452Y-126043452D01*
X185393897Y-126018466D01*
X185428633Y-125999899D01*
X185466326Y-125988465D01*
X185511661Y-125984000D01*
X186598339Y-125984000D01*
X186643674Y-125988465D01*
X186643674Y-125988465D01*
G37*
G36*
X190916000Y-126321000D02*
G01*
X188814000Y-126321000D01*
X188814000Y-121719000D01*
X190916000Y-121719000D01*
X190916000Y-126321000D01*
X190916000Y-126321000D01*
G37*
G36*
X166958674Y-124473465D02*
G01*
X166996367Y-124484899D01*
X167031103Y-124503466D01*
X167061548Y-124528452D01*
X167086534Y-124558897D01*
X167105101Y-124593633D01*
X167116535Y-124631326D01*
X167121000Y-124676661D01*
X167121000Y-125513339D01*
X167116535Y-125558674D01*
X167105101Y-125596367D01*
X167086534Y-125631103D01*
X167061548Y-125661548D01*
X167031103Y-125686534D01*
X166996367Y-125705101D01*
X166958674Y-125716535D01*
X166913339Y-125721000D01*
X165826661Y-125721000D01*
X165781326Y-125716535D01*
X165743633Y-125705101D01*
X165708897Y-125686534D01*
X165678452Y-125661548D01*
X165653466Y-125631103D01*
X165634899Y-125596367D01*
X165623465Y-125558674D01*
X165619000Y-125513339D01*
X165619000Y-124676661D01*
X165623465Y-124631326D01*
X165634899Y-124593633D01*
X165653466Y-124558897D01*
X165678452Y-124528452D01*
X165708897Y-124503466D01*
X165743633Y-124484899D01*
X165781326Y-124473465D01*
X165826661Y-124469000D01*
X166913339Y-124469000D01*
X166958674Y-124473465D01*
X166958674Y-124473465D01*
G37*
G36*
X186419499Y-124128445D02*
G01*
X186456995Y-124139820D01*
X186491554Y-124158292D01*
X186521847Y-124183153D01*
X186546708Y-124213446D01*
X186565180Y-124248005D01*
X186576555Y-124285501D01*
X186581000Y-124330638D01*
X186581000Y-125069362D01*
X186576555Y-125114499D01*
X186565180Y-125151995D01*
X186546708Y-125186554D01*
X186521847Y-125216847D01*
X186491554Y-125241708D01*
X186456995Y-125260180D01*
X186419499Y-125271555D01*
X186374362Y-125276000D01*
X185735638Y-125276000D01*
X185690501Y-125271555D01*
X185653005Y-125260180D01*
X185618446Y-125241708D01*
X185588153Y-125216847D01*
X185563292Y-125186554D01*
X185544820Y-125151995D01*
X185533445Y-125114499D01*
X185529000Y-125069362D01*
X185529000Y-124330638D01*
X185533445Y-124285501D01*
X185544820Y-124248005D01*
X185563292Y-124213446D01*
X185588153Y-124183153D01*
X185618446Y-124158292D01*
X185653005Y-124139820D01*
X185690501Y-124128445D01*
X185735638Y-124124000D01*
X186374362Y-124124000D01*
X186419499Y-124128445D01*
X186419499Y-124128445D01*
G37*
G36*
X186419499Y-122378445D02*
G01*
X186456995Y-122389820D01*
X186491554Y-122408292D01*
X186521847Y-122433153D01*
X186546708Y-122463446D01*
X186565180Y-122498005D01*
X186576555Y-122535501D01*
X186581000Y-122580638D01*
X186581000Y-123319362D01*
X186576555Y-123364499D01*
X186565180Y-123401995D01*
X186546708Y-123436554D01*
X186521847Y-123466847D01*
X186491554Y-123491708D01*
X186456995Y-123510180D01*
X186419499Y-123521555D01*
X186374362Y-123526000D01*
X185735638Y-123526000D01*
X185690501Y-123521555D01*
X185653005Y-123510180D01*
X185618446Y-123491708D01*
X185588153Y-123466847D01*
X185563292Y-123436554D01*
X185544820Y-123401995D01*
X185533445Y-123364499D01*
X185529000Y-123319362D01*
X185529000Y-122580638D01*
X185533445Y-122535501D01*
X185544820Y-122498005D01*
X185563292Y-122463446D01*
X185588153Y-122433153D01*
X185618446Y-122408292D01*
X185653005Y-122389820D01*
X185690501Y-122378445D01*
X185735638Y-122374000D01*
X186374362Y-122374000D01*
X186419499Y-122378445D01*
X186419499Y-122378445D01*
G37*
G36*
X164096000Y-123456000D02*
G01*
X162294000Y-123456000D01*
X162294000Y-121654000D01*
X164096000Y-121654000D01*
X164096000Y-123456000D01*
X164096000Y-123456000D01*
G37*
G36*
X163305443Y-119120519D02*
G01*
X163371627Y-119127037D01*
X163541466Y-119178557D01*
X163697991Y-119262222D01*
X163733729Y-119291552D01*
X163835186Y-119374814D01*
X163918448Y-119476271D01*
X163947778Y-119512009D01*
X164031443Y-119668534D01*
X164082963Y-119838373D01*
X164100359Y-120015000D01*
X164082963Y-120191627D01*
X164031443Y-120361466D01*
X163947778Y-120517991D01*
X163936244Y-120532045D01*
X163835186Y-120655186D01*
X163733729Y-120738448D01*
X163697991Y-120767778D01*
X163541466Y-120851443D01*
X163371627Y-120902963D01*
X163305442Y-120909482D01*
X163239260Y-120916000D01*
X163150740Y-120916000D01*
X163084558Y-120909482D01*
X163018373Y-120902963D01*
X162848534Y-120851443D01*
X162692009Y-120767778D01*
X162656271Y-120738448D01*
X162554814Y-120655186D01*
X162453756Y-120532045D01*
X162442222Y-120517991D01*
X162358557Y-120361466D01*
X162307037Y-120191627D01*
X162289641Y-120015000D01*
X162307037Y-119838373D01*
X162358557Y-119668534D01*
X162442222Y-119512009D01*
X162471552Y-119476271D01*
X162554814Y-119374814D01*
X162656271Y-119291552D01*
X162692009Y-119262222D01*
X162848534Y-119178557D01*
X163018373Y-119127037D01*
X163084557Y-119120519D01*
X163150740Y-119114000D01*
X163239260Y-119114000D01*
X163305443Y-119120519D01*
X163305443Y-119120519D01*
G37*
G36*
X146934196Y-118129958D02*
G01*
X147101486Y-118199252D01*
X147170357Y-118227779D01*
X147170781Y-118227955D01*
X147383702Y-118370224D01*
X147564776Y-118551298D01*
X147707045Y-118764219D01*
X147707046Y-118764221D01*
X147805042Y-119000805D01*
X147855000Y-119251960D01*
X147855000Y-119508040D01*
X147854210Y-119512011D01*
X147805042Y-119759196D01*
X147772245Y-119838375D01*
X147720631Y-119962983D01*
X147707045Y-119995781D01*
X147564776Y-120208702D01*
X147383702Y-120389776D01*
X147170781Y-120532045D01*
X146934196Y-120630042D01*
X146683040Y-120680000D01*
X146426960Y-120680000D01*
X146175804Y-120630042D01*
X145939219Y-120532045D01*
X145726298Y-120389776D01*
X145545224Y-120208702D01*
X145402955Y-119995781D01*
X145389370Y-119962983D01*
X145337755Y-119838375D01*
X145304958Y-119759196D01*
X145255790Y-119512011D01*
X145255000Y-119508040D01*
X145255000Y-119251960D01*
X145304958Y-119000805D01*
X145402954Y-118764221D01*
X145402955Y-118764219D01*
X145545224Y-118551298D01*
X145726298Y-118370224D01*
X145939219Y-118227955D01*
X145939644Y-118227779D01*
X146008514Y-118199252D01*
X146175804Y-118129958D01*
X146426960Y-118080000D01*
X146683040Y-118080000D01*
X146934196Y-118129958D01*
X146934196Y-118129958D01*
G37*
G36*
X124334196Y-118129958D02*
G01*
X124501486Y-118199252D01*
X124570357Y-118227779D01*
X124570781Y-118227955D01*
X124783702Y-118370224D01*
X124964776Y-118551298D01*
X125107045Y-118764219D01*
X125107046Y-118764221D01*
X125205042Y-119000805D01*
X125255000Y-119251960D01*
X125255000Y-119508040D01*
X125254210Y-119512011D01*
X125205042Y-119759196D01*
X125172245Y-119838375D01*
X125120631Y-119962983D01*
X125107045Y-119995781D01*
X124964776Y-120208702D01*
X124783702Y-120389776D01*
X124570781Y-120532045D01*
X124334196Y-120630042D01*
X124083040Y-120680000D01*
X123826960Y-120680000D01*
X123575804Y-120630042D01*
X123339219Y-120532045D01*
X123126298Y-120389776D01*
X122945224Y-120208702D01*
X122802955Y-119995781D01*
X122789370Y-119962983D01*
X122737755Y-119838375D01*
X122704958Y-119759196D01*
X122655790Y-119512011D01*
X122655000Y-119508040D01*
X122655000Y-119251960D01*
X122704958Y-119000805D01*
X122802954Y-118764221D01*
X122802955Y-118764219D01*
X122945224Y-118551298D01*
X123126298Y-118370224D01*
X123339219Y-118227955D01*
X123339644Y-118227779D01*
X123408514Y-118199252D01*
X123575804Y-118129958D01*
X123826960Y-118080000D01*
X124083040Y-118080000D01*
X124334196Y-118129958D01*
X124334196Y-118129958D01*
G37*
G36*
X155893674Y-118633465D02*
G01*
X155931367Y-118644899D01*
X155966103Y-118663466D01*
X155996548Y-118688452D01*
X156021534Y-118718897D01*
X156040101Y-118753633D01*
X156051535Y-118791326D01*
X156056000Y-118836661D01*
X156056000Y-119923339D01*
X156051535Y-119968674D01*
X156040101Y-120006367D01*
X156021534Y-120041103D01*
X155996548Y-120071548D01*
X155966103Y-120096534D01*
X155931367Y-120115101D01*
X155893674Y-120126535D01*
X155848339Y-120131000D01*
X155011661Y-120131000D01*
X154966326Y-120126535D01*
X154928633Y-120115101D01*
X154893897Y-120096534D01*
X154863452Y-120071548D01*
X154838466Y-120041103D01*
X154819899Y-120006367D01*
X154808465Y-119968674D01*
X154804000Y-119923339D01*
X154804000Y-118836661D01*
X154808465Y-118791326D01*
X154819899Y-118753633D01*
X154838466Y-118718897D01*
X154863452Y-118688452D01*
X154893897Y-118663466D01*
X154928633Y-118644899D01*
X154966326Y-118633465D01*
X155011661Y-118629000D01*
X155848339Y-118629000D01*
X155893674Y-118633465D01*
X155893674Y-118633465D01*
G37*
G36*
X157943674Y-118633465D02*
G01*
X157981367Y-118644899D01*
X158016103Y-118663466D01*
X158046548Y-118688452D01*
X158071534Y-118718897D01*
X158090101Y-118753633D01*
X158101535Y-118791326D01*
X158106000Y-118836661D01*
X158106000Y-119923339D01*
X158101535Y-119968674D01*
X158090101Y-120006367D01*
X158071534Y-120041103D01*
X158046548Y-120071548D01*
X158016103Y-120096534D01*
X157981367Y-120115101D01*
X157943674Y-120126535D01*
X157898339Y-120131000D01*
X157061661Y-120131000D01*
X157016326Y-120126535D01*
X156978633Y-120115101D01*
X156943897Y-120096534D01*
X156913452Y-120071548D01*
X156888466Y-120041103D01*
X156869899Y-120006367D01*
X156858465Y-119968674D01*
X156854000Y-119923339D01*
X156854000Y-118836661D01*
X156858465Y-118791326D01*
X156869899Y-118753633D01*
X156888466Y-118718897D01*
X156913452Y-118688452D01*
X156943897Y-118663466D01*
X156978633Y-118644899D01*
X157016326Y-118633465D01*
X157061661Y-118629000D01*
X157898339Y-118629000D01*
X157943674Y-118633465D01*
X157943674Y-118633465D01*
G37*
G36*
X178066000Y-119646000D02*
G01*
X176264000Y-119646000D01*
X176264000Y-117844000D01*
X178066000Y-117844000D01*
X178066000Y-119646000D01*
X178066000Y-119646000D01*
G37*
G36*
X163305443Y-116580519D02*
G01*
X163371627Y-116587037D01*
X163541466Y-116638557D01*
X163697991Y-116722222D01*
X163733729Y-116751552D01*
X163835186Y-116834814D01*
X163918448Y-116936271D01*
X163947778Y-116972009D01*
X164031443Y-117128534D01*
X164082963Y-117298373D01*
X164100359Y-117475000D01*
X164082963Y-117651627D01*
X164031443Y-117821466D01*
X163947778Y-117977991D01*
X163918448Y-118013729D01*
X163835186Y-118115186D01*
X163733729Y-118198448D01*
X163697991Y-118227778D01*
X163541466Y-118311443D01*
X163371627Y-118362963D01*
X163305442Y-118369482D01*
X163239260Y-118376000D01*
X163150740Y-118376000D01*
X163084558Y-118369482D01*
X163018373Y-118362963D01*
X162848534Y-118311443D01*
X162692009Y-118227778D01*
X162656271Y-118198448D01*
X162554814Y-118115186D01*
X162471552Y-118013729D01*
X162442222Y-117977991D01*
X162358557Y-117821466D01*
X162307037Y-117651627D01*
X162289641Y-117475000D01*
X162307037Y-117298373D01*
X162358557Y-117128534D01*
X162442222Y-116972009D01*
X162471552Y-116936271D01*
X162554814Y-116834814D01*
X162656271Y-116751552D01*
X162692009Y-116722222D01*
X162848534Y-116638557D01*
X163018373Y-116587037D01*
X163084557Y-116580519D01*
X163150740Y-116574000D01*
X163239260Y-116574000D01*
X163305443Y-116580519D01*
X163305443Y-116580519D01*
G37*
G36*
X157926000Y-117436000D02*
G01*
X157024000Y-117436000D01*
X157024000Y-116434000D01*
X157926000Y-116434000D01*
X157926000Y-117436000D01*
X157926000Y-117436000D01*
G37*
G36*
X156026000Y-117436000D02*
G01*
X155124000Y-117436000D01*
X155124000Y-116434000D01*
X156026000Y-116434000D01*
X156026000Y-117436000D01*
X156026000Y-117436000D01*
G37*
G36*
X177275442Y-115310518D02*
G01*
X177341627Y-115317037D01*
X177511466Y-115368557D01*
X177667991Y-115452222D01*
X177703729Y-115481552D01*
X177805186Y-115564814D01*
X177888448Y-115666271D01*
X177917778Y-115702009D01*
X178001443Y-115858534D01*
X178052963Y-116028373D01*
X178070359Y-116205000D01*
X178052963Y-116381627D01*
X178001443Y-116551466D01*
X177917778Y-116707991D01*
X177888448Y-116743729D01*
X177805186Y-116845186D01*
X177703729Y-116928448D01*
X177667991Y-116957778D01*
X177511466Y-117041443D01*
X177341627Y-117092963D01*
X177275443Y-117099481D01*
X177209260Y-117106000D01*
X177120740Y-117106000D01*
X177054557Y-117099481D01*
X176988373Y-117092963D01*
X176818534Y-117041443D01*
X176662009Y-116957778D01*
X176626271Y-116928448D01*
X176524814Y-116845186D01*
X176441552Y-116743729D01*
X176412222Y-116707991D01*
X176328557Y-116551466D01*
X176277037Y-116381627D01*
X176259641Y-116205000D01*
X176277037Y-116028373D01*
X176328557Y-115858534D01*
X176412222Y-115702009D01*
X176441552Y-115666271D01*
X176524814Y-115564814D01*
X176626271Y-115481552D01*
X176662009Y-115452222D01*
X176818534Y-115368557D01*
X176988373Y-115317037D01*
X177054558Y-115310518D01*
X177120740Y-115304000D01*
X177209260Y-115304000D01*
X177275442Y-115310518D01*
X177275442Y-115310518D01*
G37*
G36*
X163305442Y-114040518D02*
G01*
X163371627Y-114047037D01*
X163541466Y-114098557D01*
X163697991Y-114182222D01*
X163729814Y-114208339D01*
X163835186Y-114294814D01*
X163896996Y-114370131D01*
X163947778Y-114432009D01*
X164031443Y-114588534D01*
X164082963Y-114758373D01*
X164100359Y-114935000D01*
X164082963Y-115111627D01*
X164031443Y-115281466D01*
X163947778Y-115437991D01*
X163918448Y-115473729D01*
X163835186Y-115575186D01*
X163733729Y-115658448D01*
X163697991Y-115687778D01*
X163541466Y-115771443D01*
X163371627Y-115822963D01*
X163305443Y-115829481D01*
X163239260Y-115836000D01*
X163150740Y-115836000D01*
X163084557Y-115829481D01*
X163018373Y-115822963D01*
X162848534Y-115771443D01*
X162692009Y-115687778D01*
X162656271Y-115658448D01*
X162554814Y-115575186D01*
X162471552Y-115473729D01*
X162442222Y-115437991D01*
X162358557Y-115281466D01*
X162307037Y-115111627D01*
X162289641Y-114935000D01*
X162307037Y-114758373D01*
X162358557Y-114588534D01*
X162442222Y-114432009D01*
X162493004Y-114370131D01*
X162554814Y-114294814D01*
X162660186Y-114208339D01*
X162692009Y-114182222D01*
X162848534Y-114098557D01*
X163018373Y-114047037D01*
X163084558Y-114040518D01*
X163150740Y-114034000D01*
X163239260Y-114034000D01*
X163305442Y-114040518D01*
X163305442Y-114040518D01*
G37*
G36*
X156976000Y-115436000D02*
G01*
X156074000Y-115436000D01*
X156074000Y-114434000D01*
X156976000Y-114434000D01*
X156976000Y-115436000D01*
X156976000Y-115436000D01*
G37*
G36*
X177275442Y-112770518D02*
G01*
X177341627Y-112777037D01*
X177511466Y-112828557D01*
X177667991Y-112912222D01*
X177676530Y-112919230D01*
X177805186Y-113024814D01*
X177884665Y-113121661D01*
X177917778Y-113162009D01*
X178001443Y-113318534D01*
X178052963Y-113488373D01*
X178070359Y-113665000D01*
X178052963Y-113841627D01*
X178001443Y-114011466D01*
X177917778Y-114167991D01*
X177894032Y-114196925D01*
X177805186Y-114305186D01*
X177726049Y-114370131D01*
X177667991Y-114417778D01*
X177511466Y-114501443D01*
X177341627Y-114552963D01*
X177275442Y-114559482D01*
X177209260Y-114566000D01*
X177120740Y-114566000D01*
X177054558Y-114559482D01*
X176988373Y-114552963D01*
X176818534Y-114501443D01*
X176662009Y-114417778D01*
X176603951Y-114370131D01*
X176524814Y-114305186D01*
X176435968Y-114196925D01*
X176412222Y-114167991D01*
X176328557Y-114011466D01*
X176277037Y-113841627D01*
X176259641Y-113665000D01*
X176277037Y-113488373D01*
X176328557Y-113318534D01*
X176412222Y-113162009D01*
X176445335Y-113121661D01*
X176524814Y-113024814D01*
X176653470Y-112919230D01*
X176662009Y-112912222D01*
X176818534Y-112828557D01*
X176988373Y-112777037D01*
X177054558Y-112770518D01*
X177120740Y-112764000D01*
X177209260Y-112764000D01*
X177275442Y-112770518D01*
X177275442Y-112770518D01*
G37*
G36*
X174598674Y-112918465D02*
G01*
X174636367Y-112929899D01*
X174671103Y-112948466D01*
X174701548Y-112973452D01*
X174726534Y-113003897D01*
X174745101Y-113038633D01*
X174756535Y-113076326D01*
X174761000Y-113121661D01*
X174761000Y-114208339D01*
X174756535Y-114253674D01*
X174745101Y-114291367D01*
X174726534Y-114326103D01*
X174701548Y-114356548D01*
X174671103Y-114381534D01*
X174636367Y-114400101D01*
X174598674Y-114411535D01*
X174553339Y-114416000D01*
X173716661Y-114416000D01*
X173671326Y-114411535D01*
X173633633Y-114400101D01*
X173598897Y-114381534D01*
X173568452Y-114356548D01*
X173543466Y-114326103D01*
X173524899Y-114291367D01*
X173513465Y-114253674D01*
X173509000Y-114208339D01*
X173509000Y-113121661D01*
X173513465Y-113076326D01*
X173524899Y-113038633D01*
X173543466Y-113003897D01*
X173568452Y-112973452D01*
X173598897Y-112948466D01*
X173633633Y-112929899D01*
X173671326Y-112918465D01*
X173716661Y-112914000D01*
X174553339Y-112914000D01*
X174598674Y-112918465D01*
X174598674Y-112918465D01*
G37*
G36*
X172548674Y-112918465D02*
G01*
X172586367Y-112929899D01*
X172621103Y-112948466D01*
X172651548Y-112973452D01*
X172676534Y-113003897D01*
X172695101Y-113038633D01*
X172706535Y-113076326D01*
X172711000Y-113121661D01*
X172711000Y-114208339D01*
X172706535Y-114253674D01*
X172695101Y-114291367D01*
X172676534Y-114326103D01*
X172651548Y-114356548D01*
X172621103Y-114381534D01*
X172586367Y-114400101D01*
X172548674Y-114411535D01*
X172503339Y-114416000D01*
X171666661Y-114416000D01*
X171621326Y-114411535D01*
X171583633Y-114400101D01*
X171548897Y-114381534D01*
X171518452Y-114356548D01*
X171493466Y-114326103D01*
X171474899Y-114291367D01*
X171463465Y-114253674D01*
X171459000Y-114208339D01*
X171459000Y-113121661D01*
X171463465Y-113076326D01*
X171474899Y-113038633D01*
X171493466Y-113003897D01*
X171518452Y-112973452D01*
X171548897Y-112948466D01*
X171583633Y-112929899D01*
X171621326Y-112918465D01*
X171666661Y-112914000D01*
X172503339Y-112914000D01*
X172548674Y-112918465D01*
X172548674Y-112918465D01*
G37*
G36*
X158392395Y-110210546D02*
G01*
X158565466Y-110282234D01*
X158612069Y-110313373D01*
X158721227Y-110386310D01*
X158853690Y-110518773D01*
X158853691Y-110518775D01*
X158957766Y-110674534D01*
X159029454Y-110847605D01*
X159066000Y-111031333D01*
X159066000Y-111218667D01*
X159029454Y-111402395D01*
X158957766Y-111575466D01*
X158957765Y-111575467D01*
X158853690Y-111731227D01*
X158721227Y-111863690D01*
X158700141Y-111877779D01*
X158565466Y-111967766D01*
X158392395Y-112039454D01*
X158208667Y-112076000D01*
X158021333Y-112076000D01*
X157837605Y-112039454D01*
X157664534Y-111967766D01*
X157529859Y-111877779D01*
X157508773Y-111863690D01*
X157376310Y-111731227D01*
X157272235Y-111575467D01*
X157272234Y-111575466D01*
X157200546Y-111402395D01*
X157164000Y-111218667D01*
X157164000Y-111031333D01*
X157200546Y-110847605D01*
X157272234Y-110674534D01*
X157376309Y-110518775D01*
X157376310Y-110518773D01*
X157508773Y-110386310D01*
X157617931Y-110313373D01*
X157664534Y-110282234D01*
X157837605Y-110210546D01*
X158021333Y-110174000D01*
X158208667Y-110174000D01*
X158392395Y-110210546D01*
X158392395Y-110210546D01*
G37*
G36*
X177275443Y-110230519D02*
G01*
X177341627Y-110237037D01*
X177511466Y-110288557D01*
X177667991Y-110372222D01*
X177685156Y-110386309D01*
X177805186Y-110484814D01*
X177888448Y-110586271D01*
X177917778Y-110622009D01*
X178001443Y-110778534D01*
X178052963Y-110948373D01*
X178070359Y-111125000D01*
X178052963Y-111301627D01*
X178001443Y-111471466D01*
X177917778Y-111627991D01*
X177888448Y-111663729D01*
X177805186Y-111765186D01*
X177703729Y-111848448D01*
X177667991Y-111877778D01*
X177511466Y-111961443D01*
X177341627Y-112012963D01*
X177275442Y-112019482D01*
X177209260Y-112026000D01*
X177120740Y-112026000D01*
X177054558Y-112019482D01*
X176988373Y-112012963D01*
X176818534Y-111961443D01*
X176662009Y-111877778D01*
X176626271Y-111848448D01*
X176524814Y-111765186D01*
X176441552Y-111663729D01*
X176412222Y-111627991D01*
X176328557Y-111471466D01*
X176277037Y-111301627D01*
X176259641Y-111125000D01*
X176277037Y-110948373D01*
X176328557Y-110778534D01*
X176412222Y-110622009D01*
X176441552Y-110586271D01*
X176524814Y-110484814D01*
X176644844Y-110386309D01*
X176662009Y-110372222D01*
X176818534Y-110288557D01*
X176988373Y-110237037D01*
X177054557Y-110230519D01*
X177120740Y-110224000D01*
X177209260Y-110224000D01*
X177275443Y-110230519D01*
X177275443Y-110230519D01*
G37*
G36*
X169020442Y-109595518D02*
G01*
X169086627Y-109602037D01*
X169256466Y-109653557D01*
X169412991Y-109737222D01*
X169448729Y-109766552D01*
X169550186Y-109849814D01*
X169633448Y-109951271D01*
X169662778Y-109987009D01*
X169746443Y-110143534D01*
X169797963Y-110313373D01*
X169815359Y-110490000D01*
X169797963Y-110666627D01*
X169746443Y-110836466D01*
X169662778Y-110992991D01*
X169633448Y-111028729D01*
X169550186Y-111130186D01*
X169448729Y-111213448D01*
X169412991Y-111242778D01*
X169256466Y-111326443D01*
X169086627Y-111377963D01*
X169020443Y-111384481D01*
X168954260Y-111391000D01*
X168865740Y-111391000D01*
X168799557Y-111384481D01*
X168733373Y-111377963D01*
X168563534Y-111326443D01*
X168407009Y-111242778D01*
X168371271Y-111213448D01*
X168269814Y-111130186D01*
X168186552Y-111028729D01*
X168157222Y-110992991D01*
X168073557Y-110836466D01*
X168022037Y-110666627D01*
X168004641Y-110490000D01*
X168022037Y-110313373D01*
X168073557Y-110143534D01*
X168157222Y-109987009D01*
X168186552Y-109951271D01*
X168269814Y-109849814D01*
X168371271Y-109766552D01*
X168407009Y-109737222D01*
X168563534Y-109653557D01*
X168733373Y-109602037D01*
X168799558Y-109595518D01*
X168865740Y-109589000D01*
X168954260Y-109589000D01*
X169020442Y-109595518D01*
X169020442Y-109595518D01*
G37*
G36*
X166480442Y-109595518D02*
G01*
X166546627Y-109602037D01*
X166716466Y-109653557D01*
X166872991Y-109737222D01*
X166908729Y-109766552D01*
X167010186Y-109849814D01*
X167093448Y-109951271D01*
X167122778Y-109987009D01*
X167206443Y-110143534D01*
X167257963Y-110313373D01*
X167275359Y-110490000D01*
X167257963Y-110666627D01*
X167206443Y-110836466D01*
X167122778Y-110992991D01*
X167093448Y-111028729D01*
X167010186Y-111130186D01*
X166908729Y-111213448D01*
X166872991Y-111242778D01*
X166716466Y-111326443D01*
X166546627Y-111377963D01*
X166480443Y-111384481D01*
X166414260Y-111391000D01*
X166325740Y-111391000D01*
X166259557Y-111384481D01*
X166193373Y-111377963D01*
X166023534Y-111326443D01*
X165867009Y-111242778D01*
X165831271Y-111213448D01*
X165729814Y-111130186D01*
X165646552Y-111028729D01*
X165617222Y-110992991D01*
X165533557Y-110836466D01*
X165482037Y-110666627D01*
X165464641Y-110490000D01*
X165482037Y-110313373D01*
X165533557Y-110143534D01*
X165617222Y-109987009D01*
X165646552Y-109951271D01*
X165729814Y-109849814D01*
X165831271Y-109766552D01*
X165867009Y-109737222D01*
X166023534Y-109653557D01*
X166193373Y-109602037D01*
X166259558Y-109595518D01*
X166325740Y-109589000D01*
X166414260Y-109589000D01*
X166480442Y-109595518D01*
X166480442Y-109595518D01*
G37*
G36*
X163940442Y-109595518D02*
G01*
X164006627Y-109602037D01*
X164176466Y-109653557D01*
X164332991Y-109737222D01*
X164368729Y-109766552D01*
X164470186Y-109849814D01*
X164553448Y-109951271D01*
X164582778Y-109987009D01*
X164666443Y-110143534D01*
X164717963Y-110313373D01*
X164735359Y-110490000D01*
X164717963Y-110666627D01*
X164666443Y-110836466D01*
X164582778Y-110992991D01*
X164553448Y-111028729D01*
X164470186Y-111130186D01*
X164368729Y-111213448D01*
X164332991Y-111242778D01*
X164176466Y-111326443D01*
X164006627Y-111377963D01*
X163940443Y-111384481D01*
X163874260Y-111391000D01*
X163785740Y-111391000D01*
X163719557Y-111384481D01*
X163653373Y-111377963D01*
X163483534Y-111326443D01*
X163327009Y-111242778D01*
X163291271Y-111213448D01*
X163189814Y-111130186D01*
X163106552Y-111028729D01*
X163077222Y-110992991D01*
X162993557Y-110836466D01*
X162942037Y-110666627D01*
X162924641Y-110490000D01*
X162942037Y-110313373D01*
X162993557Y-110143534D01*
X163077222Y-109987009D01*
X163106552Y-109951271D01*
X163189814Y-109849814D01*
X163291271Y-109766552D01*
X163327009Y-109737222D01*
X163483534Y-109653557D01*
X163653373Y-109602037D01*
X163719558Y-109595518D01*
X163785740Y-109589000D01*
X163874260Y-109589000D01*
X163940442Y-109595518D01*
X163940442Y-109595518D01*
G37*
G36*
X177275443Y-107690519D02*
G01*
X177341627Y-107697037D01*
X177511466Y-107748557D01*
X177667991Y-107832222D01*
X177703729Y-107861552D01*
X177805186Y-107944814D01*
X177888448Y-108046271D01*
X177917778Y-108082009D01*
X178001443Y-108238534D01*
X178052963Y-108408373D01*
X178070359Y-108585000D01*
X178052963Y-108761627D01*
X178001443Y-108931466D01*
X177917778Y-109087991D01*
X177888448Y-109123729D01*
X177805186Y-109225186D01*
X177703729Y-109308448D01*
X177667991Y-109337778D01*
X177511466Y-109421443D01*
X177341627Y-109472963D01*
X177275442Y-109479482D01*
X177209260Y-109486000D01*
X177120740Y-109486000D01*
X177054558Y-109479482D01*
X176988373Y-109472963D01*
X176818534Y-109421443D01*
X176662009Y-109337778D01*
X176626271Y-109308448D01*
X176524814Y-109225186D01*
X176441552Y-109123729D01*
X176412222Y-109087991D01*
X176328557Y-108931466D01*
X176277037Y-108761627D01*
X176259641Y-108585000D01*
X176277037Y-108408373D01*
X176328557Y-108238534D01*
X176412222Y-108082009D01*
X176441552Y-108046271D01*
X176524814Y-107944814D01*
X176626271Y-107861552D01*
X176662009Y-107832222D01*
X176818534Y-107748557D01*
X176988373Y-107697037D01*
X177054557Y-107690519D01*
X177120740Y-107684000D01*
X177209260Y-107684000D01*
X177275443Y-107690519D01*
X177275443Y-107690519D01*
G37*
G36*
X166480442Y-107055518D02*
G01*
X166546627Y-107062037D01*
X166716466Y-107113557D01*
X166872991Y-107197222D01*
X166908729Y-107226552D01*
X167010186Y-107309814D01*
X167093448Y-107411271D01*
X167122778Y-107447009D01*
X167206443Y-107603534D01*
X167257963Y-107773373D01*
X167275359Y-107950000D01*
X167257963Y-108126627D01*
X167206443Y-108296466D01*
X167122778Y-108452991D01*
X167093448Y-108488729D01*
X167010186Y-108590186D01*
X166908729Y-108673448D01*
X166872991Y-108702778D01*
X166716466Y-108786443D01*
X166546627Y-108837963D01*
X166480442Y-108844482D01*
X166414260Y-108851000D01*
X166325740Y-108851000D01*
X166259558Y-108844482D01*
X166193373Y-108837963D01*
X166023534Y-108786443D01*
X165867009Y-108702778D01*
X165831271Y-108673448D01*
X165729814Y-108590186D01*
X165646552Y-108488729D01*
X165617222Y-108452991D01*
X165533557Y-108296466D01*
X165482037Y-108126627D01*
X165464641Y-107950000D01*
X165482037Y-107773373D01*
X165533557Y-107603534D01*
X165617222Y-107447009D01*
X165646552Y-107411271D01*
X165729814Y-107309814D01*
X165831271Y-107226552D01*
X165867009Y-107197222D01*
X166023534Y-107113557D01*
X166193373Y-107062037D01*
X166259558Y-107055518D01*
X166325740Y-107049000D01*
X166414260Y-107049000D01*
X166480442Y-107055518D01*
X166480442Y-107055518D01*
G37*
G36*
X163940442Y-107055518D02*
G01*
X164006627Y-107062037D01*
X164176466Y-107113557D01*
X164332991Y-107197222D01*
X164368729Y-107226552D01*
X164470186Y-107309814D01*
X164553448Y-107411271D01*
X164582778Y-107447009D01*
X164666443Y-107603534D01*
X164717963Y-107773373D01*
X164735359Y-107950000D01*
X164717963Y-108126627D01*
X164666443Y-108296466D01*
X164582778Y-108452991D01*
X164553448Y-108488729D01*
X164470186Y-108590186D01*
X164368729Y-108673448D01*
X164332991Y-108702778D01*
X164176466Y-108786443D01*
X164006627Y-108837963D01*
X163940442Y-108844482D01*
X163874260Y-108851000D01*
X163785740Y-108851000D01*
X163719558Y-108844482D01*
X163653373Y-108837963D01*
X163483534Y-108786443D01*
X163327009Y-108702778D01*
X163291271Y-108673448D01*
X163189814Y-108590186D01*
X163106552Y-108488729D01*
X163077222Y-108452991D01*
X162993557Y-108296466D01*
X162942037Y-108126627D01*
X162924641Y-107950000D01*
X162942037Y-107773373D01*
X162993557Y-107603534D01*
X163077222Y-107447009D01*
X163106552Y-107411271D01*
X163189814Y-107309814D01*
X163291271Y-107226552D01*
X163327009Y-107197222D01*
X163483534Y-107113557D01*
X163653373Y-107062037D01*
X163719558Y-107055518D01*
X163785740Y-107049000D01*
X163874260Y-107049000D01*
X163940442Y-107055518D01*
X163940442Y-107055518D01*
G37*
G36*
X169811000Y-108851000D02*
G01*
X168009000Y-108851000D01*
X168009000Y-107049000D01*
X169811000Y-107049000D01*
X169811000Y-108851000D01*
X169811000Y-108851000D01*
G37*
G36*
X177275443Y-105150519D02*
G01*
X177341627Y-105157037D01*
X177511466Y-105208557D01*
X177667991Y-105292222D01*
X177703729Y-105321552D01*
X177805186Y-105404814D01*
X177888448Y-105506271D01*
X177917778Y-105542009D01*
X178001443Y-105698534D01*
X178052963Y-105868373D01*
X178070359Y-106045000D01*
X178052963Y-106221627D01*
X178001443Y-106391466D01*
X177917778Y-106547991D01*
X177888448Y-106583729D01*
X177805186Y-106685186D01*
X177703729Y-106768448D01*
X177667991Y-106797778D01*
X177511466Y-106881443D01*
X177341627Y-106932963D01*
X177275442Y-106939482D01*
X177209260Y-106946000D01*
X177120740Y-106946000D01*
X177054558Y-106939482D01*
X176988373Y-106932963D01*
X176818534Y-106881443D01*
X176662009Y-106797778D01*
X176626271Y-106768448D01*
X176524814Y-106685186D01*
X176441552Y-106583729D01*
X176412222Y-106547991D01*
X176328557Y-106391466D01*
X176277037Y-106221627D01*
X176259641Y-106045000D01*
X176277037Y-105868373D01*
X176328557Y-105698534D01*
X176412222Y-105542009D01*
X176441552Y-105506271D01*
X176524814Y-105404814D01*
X176626271Y-105321552D01*
X176662009Y-105292222D01*
X176818534Y-105208557D01*
X176988373Y-105157037D01*
X177054558Y-105150518D01*
X177120740Y-105144000D01*
X177209260Y-105144000D01*
X177275443Y-105150519D01*
X177275443Y-105150519D01*
G37*
G36*
X130420239Y-103542101D02*
G01*
X130656053Y-103613634D01*
X130873381Y-103729799D01*
X131063871Y-103886129D01*
X131220201Y-104076619D01*
X131336366Y-104293947D01*
X131407899Y-104529761D01*
X131432053Y-104775000D01*
X131407899Y-105020239D01*
X131336366Y-105256053D01*
X131220201Y-105473381D01*
X131063871Y-105663871D01*
X130873381Y-105820201D01*
X130656053Y-105936366D01*
X130420239Y-106007899D01*
X130236457Y-106026000D01*
X130113543Y-106026000D01*
X129929761Y-106007899D01*
X129693947Y-105936366D01*
X129476619Y-105820201D01*
X129286129Y-105663871D01*
X129129799Y-105473381D01*
X129013634Y-105256053D01*
X128942101Y-105020239D01*
X128917947Y-104775000D01*
X128942101Y-104529761D01*
X129013634Y-104293947D01*
X129129799Y-104076619D01*
X129286129Y-103886129D01*
X129476619Y-103729799D01*
X129693947Y-103613634D01*
X129929761Y-103542101D01*
X130113543Y-103524000D01*
X130236457Y-103524000D01*
X130420239Y-103542101D01*
X130420239Y-103542101D01*
G37*
G36*
X140559549Y-102376116D02*
G01*
X140670734Y-102398232D01*
X140818850Y-102459584D01*
X140875933Y-102483228D01*
X140880203Y-102484997D01*
X141068720Y-102610960D01*
X141229040Y-102771280D01*
X141355003Y-102959797D01*
X141441768Y-103169266D01*
X141486000Y-103391636D01*
X141486000Y-103618364D01*
X141441768Y-103840734D01*
X141355003Y-104050203D01*
X141229040Y-104238720D01*
X141068720Y-104399040D01*
X140880203Y-104525003D01*
X140880202Y-104525004D01*
X140880201Y-104525004D01*
X140818850Y-104550416D01*
X140670734Y-104611768D01*
X140559549Y-104633884D01*
X140448365Y-104656000D01*
X140221635Y-104656000D01*
X140110451Y-104633884D01*
X139999266Y-104611768D01*
X139851150Y-104550416D01*
X139789799Y-104525004D01*
X139789798Y-104525004D01*
X139789797Y-104525003D01*
X139601280Y-104399040D01*
X139440960Y-104238720D01*
X139314997Y-104050203D01*
X139228232Y-103840734D01*
X139184000Y-103618364D01*
X139184000Y-103391636D01*
X139228232Y-103169266D01*
X139314997Y-102959797D01*
X139440960Y-102771280D01*
X139601280Y-102610960D01*
X139789797Y-102484997D01*
X139794068Y-102483228D01*
X139851150Y-102459584D01*
X139999266Y-102398232D01*
X140110451Y-102376116D01*
X140221635Y-102354000D01*
X140448365Y-102354000D01*
X140559549Y-102376116D01*
X140559549Y-102376116D01*
G37*
G36*
X148179549Y-102376116D02*
G01*
X148290734Y-102398232D01*
X148438850Y-102459584D01*
X148495933Y-102483228D01*
X148500203Y-102484997D01*
X148688720Y-102610960D01*
X148849040Y-102771280D01*
X148975003Y-102959797D01*
X149061768Y-103169266D01*
X149106000Y-103391636D01*
X149106000Y-103618364D01*
X149061768Y-103840734D01*
X148975003Y-104050203D01*
X148849040Y-104238720D01*
X148688720Y-104399040D01*
X148500203Y-104525003D01*
X148500202Y-104525004D01*
X148500201Y-104525004D01*
X148438850Y-104550416D01*
X148290734Y-104611768D01*
X148179549Y-104633884D01*
X148068365Y-104656000D01*
X147841635Y-104656000D01*
X147730451Y-104633884D01*
X147619266Y-104611768D01*
X147471150Y-104550416D01*
X147409799Y-104525004D01*
X147409798Y-104525004D01*
X147409797Y-104525003D01*
X147221280Y-104399040D01*
X147060960Y-104238720D01*
X146934997Y-104050203D01*
X146848232Y-103840734D01*
X146804000Y-103618364D01*
X146804000Y-103391636D01*
X146848232Y-103169266D01*
X146934997Y-102959797D01*
X147060960Y-102771280D01*
X147221280Y-102610960D01*
X147409797Y-102484997D01*
X147414068Y-102483228D01*
X147471150Y-102459584D01*
X147619266Y-102398232D01*
X147730451Y-102376116D01*
X147841635Y-102354000D01*
X148068365Y-102354000D01*
X148179549Y-102376116D01*
X148179549Y-102376116D01*
G37*
G36*
X159066000Y-104456000D02*
G01*
X157164000Y-104456000D01*
X157164000Y-102554000D01*
X159066000Y-102554000D01*
X159066000Y-104456000D01*
X159066000Y-104456000D01*
G37*
G36*
X177275442Y-102610518D02*
G01*
X177341627Y-102617037D01*
X177511466Y-102668557D01*
X177667991Y-102752222D01*
X177691213Y-102771280D01*
X177805186Y-102864814D01*
X177883135Y-102959797D01*
X177917778Y-103002009D01*
X178001443Y-103158534D01*
X178052963Y-103328373D01*
X178070359Y-103505000D01*
X178052963Y-103681627D01*
X178001443Y-103851466D01*
X177917778Y-104007991D01*
X177888448Y-104043729D01*
X177805186Y-104145186D01*
X177703729Y-104228448D01*
X177667991Y-104257778D01*
X177511466Y-104341443D01*
X177341627Y-104392963D01*
X177279925Y-104399040D01*
X177209260Y-104406000D01*
X177120740Y-104406000D01*
X177050075Y-104399040D01*
X176988373Y-104392963D01*
X176818534Y-104341443D01*
X176662009Y-104257778D01*
X176626271Y-104228448D01*
X176524814Y-104145186D01*
X176441552Y-104043729D01*
X176412222Y-104007991D01*
X176328557Y-103851466D01*
X176277037Y-103681627D01*
X176259641Y-103505000D01*
X176277037Y-103328373D01*
X176328557Y-103158534D01*
X176412222Y-103002009D01*
X176446865Y-102959797D01*
X176524814Y-102864814D01*
X176638787Y-102771280D01*
X176662009Y-102752222D01*
X176818534Y-102668557D01*
X176988373Y-102617037D01*
X177054558Y-102610518D01*
X177120740Y-102604000D01*
X177209260Y-102604000D01*
X177275442Y-102610518D01*
X177275442Y-102610518D01*
G37*
G36*
X165443228Y-101416703D02*
G01*
X165598100Y-101480853D01*
X165737481Y-101573985D01*
X165856015Y-101692519D01*
X165949147Y-101831900D01*
X166013297Y-101986772D01*
X166046000Y-102151184D01*
X166046000Y-102318816D01*
X166013297Y-102483228D01*
X165949147Y-102638100D01*
X165856015Y-102777481D01*
X165737481Y-102896015D01*
X165598100Y-102989147D01*
X165443228Y-103053297D01*
X165278816Y-103086000D01*
X165111184Y-103086000D01*
X164946772Y-103053297D01*
X164791900Y-102989147D01*
X164652519Y-102896015D01*
X164533985Y-102777481D01*
X164440853Y-102638100D01*
X164376703Y-102483228D01*
X164344000Y-102318816D01*
X164344000Y-102151184D01*
X164376703Y-101986772D01*
X164440853Y-101831900D01*
X164533985Y-101692519D01*
X164652519Y-101573985D01*
X164791900Y-101480853D01*
X164946772Y-101416703D01*
X165111184Y-101384000D01*
X165278816Y-101384000D01*
X165443228Y-101416703D01*
X165443228Y-101416703D01*
G37*
G36*
X164046000Y-103086000D02*
G01*
X162344000Y-103086000D01*
X162344000Y-101384000D01*
X164046000Y-101384000D01*
X164046000Y-103086000D01*
X164046000Y-103086000D01*
G37*
G36*
X177275442Y-100070518D02*
G01*
X177341627Y-100077037D01*
X177511466Y-100128557D01*
X177667991Y-100212222D01*
X177676530Y-100219230D01*
X177805186Y-100324814D01*
X177884665Y-100421661D01*
X177917778Y-100462009D01*
X178001443Y-100618534D01*
X178052963Y-100788373D01*
X178070359Y-100965000D01*
X178052963Y-101141627D01*
X178001443Y-101311466D01*
X177917778Y-101467991D01*
X177907223Y-101480852D01*
X177805186Y-101605186D01*
X177726049Y-101670131D01*
X177667991Y-101717778D01*
X177511466Y-101801443D01*
X177341627Y-101852963D01*
X177275443Y-101859481D01*
X177209260Y-101866000D01*
X177120740Y-101866000D01*
X177054558Y-101859482D01*
X176988373Y-101852963D01*
X176818534Y-101801443D01*
X176662009Y-101717778D01*
X176603951Y-101670131D01*
X176524814Y-101605186D01*
X176422777Y-101480852D01*
X176412222Y-101467991D01*
X176328557Y-101311466D01*
X176277037Y-101141627D01*
X176259641Y-100965000D01*
X176277037Y-100788373D01*
X176328557Y-100618534D01*
X176412222Y-100462009D01*
X176445335Y-100421661D01*
X176524814Y-100324814D01*
X176653470Y-100219230D01*
X176662009Y-100212222D01*
X176818534Y-100128557D01*
X176988373Y-100077037D01*
X177054557Y-100070519D01*
X177120740Y-100064000D01*
X177209260Y-100064000D01*
X177275442Y-100070518D01*
X177275442Y-100070518D01*
G37*
G36*
X168348674Y-100218465D02*
G01*
X168386367Y-100229899D01*
X168421103Y-100248466D01*
X168451548Y-100273452D01*
X168476534Y-100303897D01*
X168495101Y-100338633D01*
X168506535Y-100376326D01*
X168511000Y-100421661D01*
X168511000Y-101508339D01*
X168506535Y-101553674D01*
X168495101Y-101591367D01*
X168476534Y-101626103D01*
X168451548Y-101656548D01*
X168421103Y-101681534D01*
X168386367Y-101700101D01*
X168348674Y-101711535D01*
X168303339Y-101716000D01*
X167466661Y-101716000D01*
X167421326Y-101711535D01*
X167383633Y-101700101D01*
X167348897Y-101681534D01*
X167318452Y-101656548D01*
X167293466Y-101626103D01*
X167274899Y-101591367D01*
X167263465Y-101553674D01*
X167259000Y-101508339D01*
X167259000Y-100421661D01*
X167263465Y-100376326D01*
X167274899Y-100338633D01*
X167293466Y-100303897D01*
X167318452Y-100273452D01*
X167348897Y-100248466D01*
X167383633Y-100229899D01*
X167421326Y-100218465D01*
X167466661Y-100214000D01*
X168303339Y-100214000D01*
X168348674Y-100218465D01*
X168348674Y-100218465D01*
G37*
G36*
X170398674Y-100218465D02*
G01*
X170436367Y-100229899D01*
X170471103Y-100248466D01*
X170501548Y-100273452D01*
X170526534Y-100303897D01*
X170545101Y-100338633D01*
X170556535Y-100376326D01*
X170561000Y-100421661D01*
X170561000Y-101508339D01*
X170556535Y-101553674D01*
X170545101Y-101591367D01*
X170526534Y-101626103D01*
X170501548Y-101656548D01*
X170471103Y-101681534D01*
X170436367Y-101700101D01*
X170398674Y-101711535D01*
X170353339Y-101716000D01*
X169516661Y-101716000D01*
X169471326Y-101711535D01*
X169433633Y-101700101D01*
X169398897Y-101681534D01*
X169368452Y-101656548D01*
X169343466Y-101626103D01*
X169324899Y-101591367D01*
X169313465Y-101553674D01*
X169309000Y-101508339D01*
X169309000Y-100421661D01*
X169313465Y-100376326D01*
X169324899Y-100338633D01*
X169343466Y-100303897D01*
X169368452Y-100273452D01*
X169398897Y-100248466D01*
X169433633Y-100229899D01*
X169471326Y-100218465D01*
X169516661Y-100214000D01*
X170353339Y-100214000D01*
X170398674Y-100218465D01*
X170398674Y-100218465D01*
G37*
G36*
X177275442Y-97530518D02*
G01*
X177341627Y-97537037D01*
X177511466Y-97588557D01*
X177667991Y-97672222D01*
X177672594Y-97676000D01*
X177805186Y-97784814D01*
X177888448Y-97886271D01*
X177917778Y-97922009D01*
X178001443Y-98078534D01*
X178052963Y-98248373D01*
X178070359Y-98425000D01*
X178052963Y-98601627D01*
X178001443Y-98771466D01*
X177917778Y-98927991D01*
X177888448Y-98963729D01*
X177805186Y-99065186D01*
X177703729Y-99148448D01*
X177667991Y-99177778D01*
X177511466Y-99261443D01*
X177341627Y-99312963D01*
X177275442Y-99319482D01*
X177209260Y-99326000D01*
X177120740Y-99326000D01*
X177054557Y-99319481D01*
X176988373Y-99312963D01*
X176818534Y-99261443D01*
X176662009Y-99177778D01*
X176626271Y-99148448D01*
X176524814Y-99065186D01*
X176441552Y-98963729D01*
X176412222Y-98927991D01*
X176328557Y-98771466D01*
X176277037Y-98601627D01*
X176259641Y-98425000D01*
X176277037Y-98248373D01*
X176328557Y-98078534D01*
X176412222Y-97922009D01*
X176441552Y-97886271D01*
X176524814Y-97784814D01*
X176657406Y-97676000D01*
X176662009Y-97672222D01*
X176818534Y-97588557D01*
X176988373Y-97537037D01*
X177054558Y-97530518D01*
X177120740Y-97524000D01*
X177209260Y-97524000D01*
X177275442Y-97530518D01*
X177275442Y-97530518D01*
G37*
G36*
X170236000Y-99126000D02*
G01*
X169484000Y-99126000D01*
X169484000Y-97804000D01*
X170236000Y-97804000D01*
X170236000Y-99126000D01*
X170236000Y-99126000D01*
G37*
G36*
X168336000Y-99126000D02*
G01*
X167584000Y-99126000D01*
X167584000Y-97804000D01*
X168336000Y-97804000D01*
X168336000Y-99126000D01*
X168336000Y-99126000D01*
G37*
G36*
X165666000Y-98641000D02*
G01*
X163264000Y-98641000D01*
X163264000Y-95039000D01*
X165666000Y-95039000D01*
X165666000Y-98641000D01*
X165666000Y-98641000D01*
G37*
G36*
X141021731Y-94884136D02*
G01*
X141124644Y-94894272D01*
X141320017Y-94953538D01*
X141388737Y-94974384D01*
X141618202Y-95097036D01*
X141632120Y-95104475D01*
X141687691Y-95150082D01*
X141845450Y-95279550D01*
X141974918Y-95437309D01*
X142020525Y-95492880D01*
X142020526Y-95492882D01*
X142150616Y-95736263D01*
X142150617Y-95736267D01*
X142230728Y-96000356D01*
X142257778Y-96275000D01*
X142230728Y-96549644D01*
X142203992Y-96637779D01*
X142150616Y-96813737D01*
X142027964Y-97043202D01*
X142020525Y-97057120D01*
X141974918Y-97112691D01*
X141845450Y-97270450D01*
X141687691Y-97399918D01*
X141632120Y-97445525D01*
X141632118Y-97445526D01*
X141388737Y-97575616D01*
X141320017Y-97596462D01*
X141124644Y-97655728D01*
X141021731Y-97665864D01*
X140918820Y-97676000D01*
X140181180Y-97676000D01*
X140078269Y-97665864D01*
X139975356Y-97655728D01*
X139779983Y-97596462D01*
X139711263Y-97575616D01*
X139467882Y-97445526D01*
X139467880Y-97445525D01*
X139412309Y-97399918D01*
X139254550Y-97270450D01*
X139125082Y-97112691D01*
X139079475Y-97057120D01*
X139072036Y-97043202D01*
X138949384Y-96813737D01*
X138896008Y-96637779D01*
X138869272Y-96549644D01*
X138842222Y-96275000D01*
X138869272Y-96000356D01*
X138949383Y-95736267D01*
X138949384Y-95736263D01*
X139079474Y-95492882D01*
X139079475Y-95492880D01*
X139125082Y-95437309D01*
X139254550Y-95279550D01*
X139412309Y-95150082D01*
X139467880Y-95104475D01*
X139481798Y-95097036D01*
X139711263Y-94974384D01*
X139779983Y-94953538D01*
X139975356Y-94894272D01*
X140078269Y-94884136D01*
X140181180Y-94874000D01*
X140918820Y-94874000D01*
X141021731Y-94884136D01*
X141021731Y-94884136D01*
G37*
G36*
X146521731Y-94884136D02*
G01*
X146624644Y-94894272D01*
X146820017Y-94953538D01*
X146888737Y-94974384D01*
X147118202Y-95097036D01*
X147132120Y-95104475D01*
X147187691Y-95150082D01*
X147345450Y-95279550D01*
X147474918Y-95437309D01*
X147520525Y-95492880D01*
X147520526Y-95492882D01*
X147650616Y-95736263D01*
X147650617Y-95736267D01*
X147730728Y-96000356D01*
X147757778Y-96275000D01*
X147730728Y-96549644D01*
X147703992Y-96637779D01*
X147650616Y-96813737D01*
X147527964Y-97043202D01*
X147520525Y-97057120D01*
X147474918Y-97112691D01*
X147345450Y-97270450D01*
X147187691Y-97399918D01*
X147132120Y-97445525D01*
X147132118Y-97445526D01*
X146888737Y-97575616D01*
X146820017Y-97596462D01*
X146624644Y-97655728D01*
X146521731Y-97665864D01*
X146418820Y-97676000D01*
X145681180Y-97676000D01*
X145578269Y-97665864D01*
X145475356Y-97655728D01*
X145279983Y-97596462D01*
X145211263Y-97575616D01*
X144967882Y-97445526D01*
X144967880Y-97445525D01*
X144912309Y-97399918D01*
X144754550Y-97270450D01*
X144625082Y-97112691D01*
X144579475Y-97057120D01*
X144572036Y-97043202D01*
X144449384Y-96813737D01*
X144396008Y-96637779D01*
X144369272Y-96549644D01*
X144342222Y-96275000D01*
X144369272Y-96000356D01*
X144449383Y-95736267D01*
X144449384Y-95736263D01*
X144579474Y-95492882D01*
X144579475Y-95492880D01*
X144625082Y-95437309D01*
X144754550Y-95279550D01*
X144912309Y-95150082D01*
X144967880Y-95104475D01*
X144981798Y-95097036D01*
X145211263Y-94974384D01*
X145279983Y-94953538D01*
X145475356Y-94894272D01*
X145578269Y-94884136D01*
X145681180Y-94874000D01*
X146418820Y-94874000D01*
X146521731Y-94884136D01*
X146521731Y-94884136D01*
G37*
G36*
X177275443Y-94990519D02*
G01*
X177341627Y-94997037D01*
X177511466Y-95048557D01*
X177667991Y-95132222D01*
X177703729Y-95161552D01*
X177805186Y-95244814D01*
X177888448Y-95346271D01*
X177917778Y-95382009D01*
X178001443Y-95538534D01*
X178052963Y-95708373D01*
X178070359Y-95885000D01*
X178052963Y-96061627D01*
X178001443Y-96231466D01*
X177917778Y-96387991D01*
X177888448Y-96423729D01*
X177805186Y-96525186D01*
X177703729Y-96608448D01*
X177667991Y-96637778D01*
X177511466Y-96721443D01*
X177341627Y-96772963D01*
X177275442Y-96779482D01*
X177209260Y-96786000D01*
X177120740Y-96786000D01*
X177054558Y-96779482D01*
X176988373Y-96772963D01*
X176818534Y-96721443D01*
X176662009Y-96637778D01*
X176626271Y-96608448D01*
X176524814Y-96525186D01*
X176441552Y-96423729D01*
X176412222Y-96387991D01*
X176328557Y-96231466D01*
X176277037Y-96061627D01*
X176259641Y-95885000D01*
X176277037Y-95708373D01*
X176328557Y-95538534D01*
X176412222Y-95382009D01*
X176441552Y-95346271D01*
X176524814Y-95244814D01*
X176626271Y-95161552D01*
X176662009Y-95132222D01*
X176818534Y-95048557D01*
X176988373Y-94997037D01*
X177054557Y-94990519D01*
X177120740Y-94984000D01*
X177209260Y-94984000D01*
X177275443Y-94990519D01*
X177275443Y-94990519D01*
G37*
G36*
X170236000Y-96506000D02*
G01*
X167584000Y-96506000D01*
X167584000Y-95184000D01*
X170236000Y-95184000D01*
X170236000Y-96506000D01*
X170236000Y-96506000D01*
G37*
G36*
X177275443Y-92450519D02*
G01*
X177341627Y-92457037D01*
X177511466Y-92508557D01*
X177667991Y-92592222D01*
X177676530Y-92599230D01*
X177805186Y-92704814D01*
X177884665Y-92801661D01*
X177917778Y-92842009D01*
X178001443Y-92998534D01*
X178052963Y-93168373D01*
X178070359Y-93345000D01*
X178052963Y-93521627D01*
X178001443Y-93691466D01*
X177917778Y-93847991D01*
X177894032Y-93876925D01*
X177805186Y-93985186D01*
X177726049Y-94050131D01*
X177667991Y-94097778D01*
X177511466Y-94181443D01*
X177341627Y-94232963D01*
X177275443Y-94239481D01*
X177209260Y-94246000D01*
X177120740Y-94246000D01*
X177054557Y-94239481D01*
X176988373Y-94232963D01*
X176818534Y-94181443D01*
X176662009Y-94097778D01*
X176603951Y-94050131D01*
X176524814Y-93985186D01*
X176435968Y-93876925D01*
X176412222Y-93847991D01*
X176328557Y-93691466D01*
X176277037Y-93521627D01*
X176259641Y-93345000D01*
X176277037Y-93168373D01*
X176328557Y-92998534D01*
X176412222Y-92842009D01*
X176445335Y-92801661D01*
X176524814Y-92704814D01*
X176653470Y-92599230D01*
X176662009Y-92592222D01*
X176818534Y-92508557D01*
X176988373Y-92457037D01*
X177054557Y-92450519D01*
X177120740Y-92444000D01*
X177209260Y-92444000D01*
X177275443Y-92450519D01*
X177275443Y-92450519D01*
G37*
G36*
X159323228Y-92526703D02*
G01*
X159478100Y-92590853D01*
X159617481Y-92683985D01*
X159736015Y-92802519D01*
X159829147Y-92941900D01*
X159893297Y-93096772D01*
X159926000Y-93261184D01*
X159926000Y-93428816D01*
X159893297Y-93593228D01*
X159829147Y-93748100D01*
X159736015Y-93887481D01*
X159617481Y-94006015D01*
X159478100Y-94099147D01*
X159323228Y-94163297D01*
X159158816Y-94196000D01*
X158991184Y-94196000D01*
X158826772Y-94163297D01*
X158671900Y-94099147D01*
X158532519Y-94006015D01*
X158413985Y-93887481D01*
X158320853Y-93748100D01*
X158256703Y-93593228D01*
X158224000Y-93428816D01*
X158224000Y-93261184D01*
X158256703Y-93096772D01*
X158320853Y-92941900D01*
X158413985Y-92802519D01*
X158532519Y-92683985D01*
X158671900Y-92590853D01*
X158826772Y-92526703D01*
X158991184Y-92494000D01*
X159158816Y-92494000D01*
X159323228Y-92526703D01*
X159323228Y-92526703D01*
G37*
G36*
X156426000Y-94196000D02*
G01*
X154724000Y-94196000D01*
X154724000Y-92494000D01*
X156426000Y-92494000D01*
X156426000Y-94196000D01*
X156426000Y-94196000D01*
G37*
G36*
X174598674Y-92598465D02*
G01*
X174636367Y-92609899D01*
X174671103Y-92628466D01*
X174701548Y-92653452D01*
X174726534Y-92683897D01*
X174745101Y-92718633D01*
X174756535Y-92756326D01*
X174761000Y-92801661D01*
X174761000Y-93888339D01*
X174756535Y-93933674D01*
X174745101Y-93971367D01*
X174726534Y-94006103D01*
X174701548Y-94036548D01*
X174671103Y-94061534D01*
X174636367Y-94080101D01*
X174598674Y-94091535D01*
X174553339Y-94096000D01*
X173716661Y-94096000D01*
X173671326Y-94091535D01*
X173633633Y-94080101D01*
X173598897Y-94061534D01*
X173568452Y-94036548D01*
X173543466Y-94006103D01*
X173524899Y-93971367D01*
X173513465Y-93933674D01*
X173509000Y-93888339D01*
X173509000Y-92801661D01*
X173513465Y-92756326D01*
X173524899Y-92718633D01*
X173543466Y-92683897D01*
X173568452Y-92653452D01*
X173598897Y-92628466D01*
X173633633Y-92609899D01*
X173671326Y-92598465D01*
X173716661Y-92594000D01*
X174553339Y-92594000D01*
X174598674Y-92598465D01*
X174598674Y-92598465D01*
G37*
G36*
X168348674Y-92598465D02*
G01*
X168386367Y-92609899D01*
X168421103Y-92628466D01*
X168451548Y-92653452D01*
X168476534Y-92683897D01*
X168495101Y-92718633D01*
X168506535Y-92756326D01*
X168511000Y-92801661D01*
X168511000Y-93888339D01*
X168506535Y-93933674D01*
X168495101Y-93971367D01*
X168476534Y-94006103D01*
X168451548Y-94036548D01*
X168421103Y-94061534D01*
X168386367Y-94080101D01*
X168348674Y-94091535D01*
X168303339Y-94096000D01*
X167466661Y-94096000D01*
X167421326Y-94091535D01*
X167383633Y-94080101D01*
X167348897Y-94061534D01*
X167318452Y-94036548D01*
X167293466Y-94006103D01*
X167274899Y-93971367D01*
X167263465Y-93933674D01*
X167259000Y-93888339D01*
X167259000Y-92801661D01*
X167263465Y-92756326D01*
X167274899Y-92718633D01*
X167293466Y-92683897D01*
X167318452Y-92653452D01*
X167348897Y-92628466D01*
X167383633Y-92609899D01*
X167421326Y-92598465D01*
X167466661Y-92594000D01*
X168303339Y-92594000D01*
X168348674Y-92598465D01*
X168348674Y-92598465D01*
G37*
G36*
X170398674Y-92598465D02*
G01*
X170436367Y-92609899D01*
X170471103Y-92628466D01*
X170501548Y-92653452D01*
X170526534Y-92683897D01*
X170545101Y-92718633D01*
X170556535Y-92756326D01*
X170561000Y-92801661D01*
X170561000Y-93888339D01*
X170556535Y-93933674D01*
X170545101Y-93971367D01*
X170526534Y-94006103D01*
X170501548Y-94036548D01*
X170471103Y-94061534D01*
X170436367Y-94080101D01*
X170398674Y-94091535D01*
X170353339Y-94096000D01*
X169516661Y-94096000D01*
X169471326Y-94091535D01*
X169433633Y-94080101D01*
X169398897Y-94061534D01*
X169368452Y-94036548D01*
X169343466Y-94006103D01*
X169324899Y-93971367D01*
X169313465Y-93933674D01*
X169309000Y-93888339D01*
X169309000Y-92801661D01*
X169313465Y-92756326D01*
X169324899Y-92718633D01*
X169343466Y-92683897D01*
X169368452Y-92653452D01*
X169398897Y-92628466D01*
X169433633Y-92609899D01*
X169471326Y-92598465D01*
X169516661Y-92594000D01*
X170353339Y-92594000D01*
X170398674Y-92598465D01*
X170398674Y-92598465D01*
G37*
G36*
X172548674Y-92598465D02*
G01*
X172586367Y-92609899D01*
X172621103Y-92628466D01*
X172651548Y-92653452D01*
X172676534Y-92683897D01*
X172695101Y-92718633D01*
X172706535Y-92756326D01*
X172711000Y-92801661D01*
X172711000Y-93888339D01*
X172706535Y-93933674D01*
X172695101Y-93971367D01*
X172676534Y-94006103D01*
X172651548Y-94036548D01*
X172621103Y-94061534D01*
X172586367Y-94080101D01*
X172548674Y-94091535D01*
X172503339Y-94096000D01*
X171666661Y-94096000D01*
X171621326Y-94091535D01*
X171583633Y-94080101D01*
X171548897Y-94061534D01*
X171518452Y-94036548D01*
X171493466Y-94006103D01*
X171474899Y-93971367D01*
X171463465Y-93933674D01*
X171459000Y-93888339D01*
X171459000Y-92801661D01*
X171463465Y-92756326D01*
X171474899Y-92718633D01*
X171493466Y-92683897D01*
X171518452Y-92653452D01*
X171548897Y-92628466D01*
X171583633Y-92609899D01*
X171621326Y-92598465D01*
X171666661Y-92594000D01*
X172503339Y-92594000D01*
X172548674Y-92598465D01*
X172548674Y-92598465D01*
G37*
G36*
X141021731Y-90684136D02*
G01*
X141124644Y-90694272D01*
X141320017Y-90753538D01*
X141388737Y-90774384D01*
X141591625Y-90882830D01*
X141632120Y-90904475D01*
X141687691Y-90950082D01*
X141845450Y-91079550D01*
X141974918Y-91237309D01*
X142020525Y-91292880D01*
X142020526Y-91292882D01*
X142150616Y-91536263D01*
X142150617Y-91536267D01*
X142230728Y-91800356D01*
X142257778Y-92075000D01*
X142230728Y-92349644D01*
X142202105Y-92444000D01*
X142150616Y-92613737D01*
X142028602Y-92842009D01*
X142020525Y-92857120D01*
X142013095Y-92866173D01*
X141845450Y-93070450D01*
X141726127Y-93168375D01*
X141632120Y-93245525D01*
X141632118Y-93245526D01*
X141388737Y-93375616D01*
X141320017Y-93396462D01*
X141124644Y-93455728D01*
X141021731Y-93465864D01*
X140918820Y-93476000D01*
X140181180Y-93476000D01*
X140078269Y-93465864D01*
X139975356Y-93455728D01*
X139779983Y-93396462D01*
X139711263Y-93375616D01*
X139467882Y-93245526D01*
X139467880Y-93245525D01*
X139373873Y-93168375D01*
X139254550Y-93070450D01*
X139086905Y-92866173D01*
X139079475Y-92857120D01*
X139071398Y-92842009D01*
X138949384Y-92613737D01*
X138897895Y-92444000D01*
X138869272Y-92349644D01*
X138842222Y-92075000D01*
X138869272Y-91800356D01*
X138949383Y-91536267D01*
X138949384Y-91536263D01*
X139079474Y-91292882D01*
X139079475Y-91292880D01*
X139125082Y-91237309D01*
X139254550Y-91079550D01*
X139412309Y-90950082D01*
X139467880Y-90904475D01*
X139508375Y-90882830D01*
X139711263Y-90774384D01*
X139779983Y-90753538D01*
X139975356Y-90694272D01*
X140078269Y-90684136D01*
X140181180Y-90674000D01*
X140918820Y-90674000D01*
X141021731Y-90684136D01*
X141021731Y-90684136D01*
G37*
G36*
X147624031Y-90677621D02*
G01*
X147653486Y-90686556D01*
X147680623Y-90701062D01*
X147704414Y-90720586D01*
X147723938Y-90744377D01*
X147738444Y-90771514D01*
X147747379Y-90800969D01*
X147751000Y-90837734D01*
X147751000Y-93312266D01*
X147747379Y-93349031D01*
X147738444Y-93378486D01*
X147723938Y-93405623D01*
X147704414Y-93429414D01*
X147680623Y-93448938D01*
X147653486Y-93463444D01*
X147624031Y-93472379D01*
X147587266Y-93476000D01*
X144512734Y-93476000D01*
X144475969Y-93472379D01*
X144446514Y-93463444D01*
X144419377Y-93448938D01*
X144395586Y-93429414D01*
X144376062Y-93405623D01*
X144361556Y-93378486D01*
X144352621Y-93349031D01*
X144349000Y-93312266D01*
X144349000Y-90837734D01*
X144352621Y-90800969D01*
X144361556Y-90771514D01*
X144376062Y-90744377D01*
X144395586Y-90720586D01*
X144419377Y-90701062D01*
X144446514Y-90686556D01*
X144475969Y-90677621D01*
X144512734Y-90674000D01*
X147587266Y-90674000D01*
X147624031Y-90677621D01*
X147624031Y-90677621D01*
G37*
G36*
X165666000Y-93241000D02*
G01*
X163264000Y-93241000D01*
X163264000Y-89639000D01*
X165666000Y-89639000D01*
X165666000Y-93241000D01*
X165666000Y-93241000D01*
G37*
G36*
X177275442Y-89910518D02*
G01*
X177341627Y-89917037D01*
X177511466Y-89968557D01*
X177667991Y-90052222D01*
X177703729Y-90081552D01*
X177805186Y-90164814D01*
X177888448Y-90266271D01*
X177917778Y-90302009D01*
X178001443Y-90458534D01*
X178052963Y-90628373D01*
X178070359Y-90805000D01*
X178052963Y-90981627D01*
X178001443Y-91151466D01*
X177917778Y-91307991D01*
X177888448Y-91343729D01*
X177805186Y-91445186D01*
X177703729Y-91528448D01*
X177667991Y-91557778D01*
X177511466Y-91641443D01*
X177341627Y-91692963D01*
X177275442Y-91699482D01*
X177209260Y-91706000D01*
X177120740Y-91706000D01*
X177054558Y-91699482D01*
X176988373Y-91692963D01*
X176818534Y-91641443D01*
X176662009Y-91557778D01*
X176626271Y-91528448D01*
X176524814Y-91445186D01*
X176441552Y-91343729D01*
X176412222Y-91307991D01*
X176328557Y-91151466D01*
X176277037Y-90981627D01*
X176259641Y-90805000D01*
X176277037Y-90628373D01*
X176328557Y-90458534D01*
X176412222Y-90302009D01*
X176441552Y-90266271D01*
X176524814Y-90164814D01*
X176626271Y-90081552D01*
X176662009Y-90052222D01*
X176818534Y-89968557D01*
X176988373Y-89917037D01*
X177054558Y-89910518D01*
X177120740Y-89904000D01*
X177209260Y-89904000D01*
X177275442Y-89910518D01*
X177275442Y-89910518D01*
G37*
G36*
X130539903Y-88332075D02*
G01*
X130767571Y-88426378D01*
X130972466Y-88563285D01*
X131146715Y-88737534D01*
X131283622Y-88942429D01*
X131377925Y-89170097D01*
X131426000Y-89411787D01*
X131426000Y-89658213D01*
X131377925Y-89899903D01*
X131283622Y-90127571D01*
X131146715Y-90332466D01*
X130972466Y-90506715D01*
X130767571Y-90643622D01*
X130767570Y-90643623D01*
X130767569Y-90643623D01*
X130539903Y-90737925D01*
X130298214Y-90786000D01*
X130051786Y-90786000D01*
X129810097Y-90737925D01*
X129582431Y-90643623D01*
X129582430Y-90643623D01*
X129582429Y-90643622D01*
X129377534Y-90506715D01*
X129203285Y-90332466D01*
X129066378Y-90127571D01*
X128972075Y-89899903D01*
X128924000Y-89658213D01*
X128924000Y-89411787D01*
X128972075Y-89170097D01*
X129066378Y-88942429D01*
X129203285Y-88737534D01*
X129377534Y-88563285D01*
X129582429Y-88426378D01*
X129810097Y-88332075D01*
X130051786Y-88284000D01*
X130298214Y-88284000D01*
X130539903Y-88332075D01*
X130539903Y-88332075D01*
G37*
G36*
X172936000Y-89751000D02*
G01*
X171234000Y-89751000D01*
X171234000Y-88049000D01*
X172936000Y-88049000D01*
X172936000Y-89751000D01*
X172936000Y-89751000D01*
G37*
G36*
X170333228Y-88081703D02*
G01*
X170488100Y-88145853D01*
X170627481Y-88238985D01*
X170746015Y-88357519D01*
X170839147Y-88496900D01*
X170903297Y-88651772D01*
X170936000Y-88816184D01*
X170936000Y-88983816D01*
X170903297Y-89148228D01*
X170839147Y-89303100D01*
X170746015Y-89442481D01*
X170627481Y-89561015D01*
X170488100Y-89654147D01*
X170333228Y-89718297D01*
X170168816Y-89751000D01*
X170001184Y-89751000D01*
X169836772Y-89718297D01*
X169681900Y-89654147D01*
X169542519Y-89561015D01*
X169423985Y-89442481D01*
X169330853Y-89303100D01*
X169266703Y-89148228D01*
X169234000Y-88983816D01*
X169234000Y-88816184D01*
X169266703Y-88651772D01*
X169330853Y-88496900D01*
X169423985Y-88357519D01*
X169542519Y-88238985D01*
X169681900Y-88145853D01*
X169836772Y-88081703D01*
X170001184Y-88049000D01*
X170168816Y-88049000D01*
X170333228Y-88081703D01*
X170333228Y-88081703D01*
G37*
G36*
X177275443Y-87370519D02*
G01*
X177341627Y-87377037D01*
X177511466Y-87428557D01*
X177667991Y-87512222D01*
X177703729Y-87541552D01*
X177805186Y-87624814D01*
X177888448Y-87726271D01*
X177917778Y-87762009D01*
X178001443Y-87918534D01*
X178052963Y-88088373D01*
X178070359Y-88265000D01*
X178052963Y-88441627D01*
X178001443Y-88611466D01*
X177917778Y-88767991D01*
X177888448Y-88803729D01*
X177805186Y-88905186D01*
X177709375Y-88983815D01*
X177667991Y-89017778D01*
X177511466Y-89101443D01*
X177341627Y-89152963D01*
X177275443Y-89159481D01*
X177209260Y-89166000D01*
X177120740Y-89166000D01*
X177054557Y-89159481D01*
X176988373Y-89152963D01*
X176818534Y-89101443D01*
X176662009Y-89017778D01*
X176620625Y-88983815D01*
X176524814Y-88905186D01*
X176441552Y-88803729D01*
X176412222Y-88767991D01*
X176328557Y-88611466D01*
X176277037Y-88441627D01*
X176259641Y-88265000D01*
X176277037Y-88088373D01*
X176328557Y-87918534D01*
X176412222Y-87762009D01*
X176441552Y-87726271D01*
X176524814Y-87624814D01*
X176626271Y-87541552D01*
X176662009Y-87512222D01*
X176818534Y-87428557D01*
X176988373Y-87377037D01*
X177054557Y-87370519D01*
X177120740Y-87364000D01*
X177209260Y-87364000D01*
X177275443Y-87370519D01*
X177275443Y-87370519D01*
G37*
G36*
X164829903Y-84282075D02*
G01*
X165057571Y-84376378D01*
X165262466Y-84513285D01*
X165436715Y-84687534D01*
X165571035Y-84888558D01*
X165573623Y-84892431D01*
X165667925Y-85120097D01*
X165716000Y-85361786D01*
X165716000Y-85608214D01*
X165696548Y-85706004D01*
X165667925Y-85849903D01*
X165573622Y-86077571D01*
X165436715Y-86282466D01*
X165262466Y-86456715D01*
X165057571Y-86593622D01*
X165057570Y-86593623D01*
X165057569Y-86593623D01*
X164829903Y-86687925D01*
X164588214Y-86736000D01*
X164341786Y-86736000D01*
X164100097Y-86687925D01*
X163872431Y-86593623D01*
X163872430Y-86593623D01*
X163872429Y-86593622D01*
X163667534Y-86456715D01*
X163493285Y-86282466D01*
X163356378Y-86077571D01*
X163262075Y-85849903D01*
X163233452Y-85706004D01*
X163214000Y-85608214D01*
X163214000Y-85361786D01*
X163262075Y-85120097D01*
X163356377Y-84892431D01*
X163358965Y-84888558D01*
X163493285Y-84687534D01*
X163667534Y-84513285D01*
X163872429Y-84376378D01*
X164100097Y-84282075D01*
X164341786Y-84234000D01*
X164588214Y-84234000D01*
X164829903Y-84282075D01*
X164829903Y-84282075D01*
G37*
G36*
X177275443Y-84830519D02*
G01*
X177341627Y-84837037D01*
X177511466Y-84888557D01*
X177667991Y-84972222D01*
X177703729Y-85001552D01*
X177805186Y-85084814D01*
X177888448Y-85186271D01*
X177917778Y-85222009D01*
X177917779Y-85222011D01*
X177992492Y-85361787D01*
X178001443Y-85378534D01*
X178052963Y-85548373D01*
X178070359Y-85725000D01*
X178052963Y-85901627D01*
X178001443Y-86071466D01*
X177917778Y-86227991D01*
X177888448Y-86263729D01*
X177805186Y-86365186D01*
X177703729Y-86448448D01*
X177667991Y-86477778D01*
X177511466Y-86561443D01*
X177341627Y-86612963D01*
X177275442Y-86619482D01*
X177209260Y-86626000D01*
X177120740Y-86626000D01*
X177054558Y-86619482D01*
X176988373Y-86612963D01*
X176818534Y-86561443D01*
X176662009Y-86477778D01*
X176626271Y-86448448D01*
X176524814Y-86365186D01*
X176441552Y-86263729D01*
X176412222Y-86227991D01*
X176328557Y-86071466D01*
X176277037Y-85901627D01*
X176259641Y-85725000D01*
X176277037Y-85548373D01*
X176328557Y-85378534D01*
X176337509Y-85361787D01*
X176412221Y-85222011D01*
X176412222Y-85222009D01*
X176441552Y-85186271D01*
X176524814Y-85084814D01*
X176626271Y-85001552D01*
X176662009Y-84972222D01*
X176818534Y-84888557D01*
X176988373Y-84837037D01*
X177054557Y-84830519D01*
X177120740Y-84824000D01*
X177209260Y-84824000D01*
X177275443Y-84830519D01*
X177275443Y-84830519D01*
G37*
G36*
X158494487Y-83203996D02*
G01*
X158731253Y-83302068D01*
X158731255Y-83302069D01*
X158944339Y-83444447D01*
X159125553Y-83625661D01*
X159185916Y-83716000D01*
X159267932Y-83838747D01*
X159366004Y-84075513D01*
X159416000Y-84326861D01*
X159416000Y-84583139D01*
X159366004Y-84834487D01*
X159308952Y-84972222D01*
X159267931Y-85071255D01*
X159125553Y-85284339D01*
X158944339Y-85465553D01*
X158731255Y-85607931D01*
X158731254Y-85607932D01*
X158731253Y-85607932D01*
X158494487Y-85706004D01*
X158243139Y-85756000D01*
X157986861Y-85756000D01*
X157735513Y-85706004D01*
X157498747Y-85607932D01*
X157498746Y-85607932D01*
X157498745Y-85607931D01*
X157285661Y-85465553D01*
X157104447Y-85284339D01*
X156962069Y-85071255D01*
X156921048Y-84972222D01*
X156863996Y-84834487D01*
X156814000Y-84583139D01*
X156814000Y-84326861D01*
X156863996Y-84075513D01*
X156962068Y-83838747D01*
X157044085Y-83716000D01*
X157104447Y-83625661D01*
X157285661Y-83444447D01*
X157498745Y-83302069D01*
X157498747Y-83302068D01*
X157735513Y-83203996D01*
X157986861Y-83154000D01*
X158243139Y-83154000D01*
X158494487Y-83203996D01*
X158494487Y-83203996D01*
G37*
G36*
X173286000Y-83716000D02*
G01*
X170884000Y-83716000D01*
X170884000Y-80114000D01*
X173286000Y-80114000D01*
X173286000Y-83716000D01*
X173286000Y-83716000D01*
G37*
G36*
X177483674Y-81803465D02*
G01*
X177521367Y-81814899D01*
X177556103Y-81833466D01*
X177586548Y-81858452D01*
X177611534Y-81888897D01*
X177630101Y-81923633D01*
X177641535Y-81961326D01*
X177646000Y-82006661D01*
X177646000Y-83093339D01*
X177641535Y-83138674D01*
X177630101Y-83176367D01*
X177611534Y-83211103D01*
X177586548Y-83241548D01*
X177556103Y-83266534D01*
X177521367Y-83285101D01*
X177483674Y-83296535D01*
X177438339Y-83301000D01*
X176601661Y-83301000D01*
X176556326Y-83296535D01*
X176518633Y-83285101D01*
X176483897Y-83266534D01*
X176453452Y-83241548D01*
X176428466Y-83211103D01*
X176409899Y-83176367D01*
X176398465Y-83138674D01*
X176394000Y-83093339D01*
X176394000Y-82006661D01*
X176398465Y-81961326D01*
X176409899Y-81923633D01*
X176428466Y-81888897D01*
X176453452Y-81858452D01*
X176483897Y-81833466D01*
X176518633Y-81814899D01*
X176556326Y-81803465D01*
X176601661Y-81799000D01*
X177438339Y-81799000D01*
X177483674Y-81803465D01*
X177483674Y-81803465D01*
G37*
G36*
X179533674Y-81803465D02*
G01*
X179571367Y-81814899D01*
X179606103Y-81833466D01*
X179636548Y-81858452D01*
X179661534Y-81888897D01*
X179680101Y-81923633D01*
X179691535Y-81961326D01*
X179696000Y-82006661D01*
X179696000Y-83093339D01*
X179691535Y-83138674D01*
X179680101Y-83176367D01*
X179661534Y-83211103D01*
X179636548Y-83241548D01*
X179606103Y-83266534D01*
X179571367Y-83285101D01*
X179533674Y-83296535D01*
X179488339Y-83301000D01*
X178651661Y-83301000D01*
X178606326Y-83296535D01*
X178568633Y-83285101D01*
X178533897Y-83266534D01*
X178503452Y-83241548D01*
X178478466Y-83211103D01*
X178459899Y-83176367D01*
X178448465Y-83138674D01*
X178444000Y-83093339D01*
X178444000Y-82006661D01*
X178448465Y-81961326D01*
X178459899Y-81923633D01*
X178478466Y-81888897D01*
X178503452Y-81858452D01*
X178533897Y-81833466D01*
X178568633Y-81814899D01*
X178606326Y-81803465D01*
X178651661Y-81799000D01*
X179488339Y-81799000D01*
X179533674Y-81803465D01*
X179533674Y-81803465D01*
G37*
G36*
X130891000Y-83266000D02*
G01*
X128189000Y-83266000D01*
X128189000Y-80564000D01*
X130891000Y-80564000D01*
X130891000Y-83266000D01*
X130891000Y-83266000D01*
G37*
G36*
X145044840Y-80583548D02*
G01*
X145172175Y-80622175D01*
X145299507Y-80660800D01*
X145534207Y-80786250D01*
X145739923Y-80955077D01*
X145908750Y-81160793D01*
X145908751Y-81160795D01*
X146031676Y-81390770D01*
X146034200Y-81395493D01*
X146072825Y-81522825D01*
X146111452Y-81650160D01*
X146137536Y-81915000D01*
X146111452Y-82179840D01*
X146111451Y-82179842D01*
X146034200Y-82434507D01*
X145908750Y-82669207D01*
X145739923Y-82874923D01*
X145534207Y-83043750D01*
X145299507Y-83169200D01*
X145172174Y-83207826D01*
X145044840Y-83246452D01*
X144846364Y-83266000D01*
X144713636Y-83266000D01*
X144515160Y-83246452D01*
X144387826Y-83207826D01*
X144260493Y-83169200D01*
X144025793Y-83043750D01*
X143820077Y-82874923D01*
X143651250Y-82669207D01*
X143525800Y-82434507D01*
X143448549Y-82179842D01*
X143448548Y-82179840D01*
X143422464Y-81915000D01*
X143448548Y-81650160D01*
X143487175Y-81522825D01*
X143525800Y-81395493D01*
X143528325Y-81390770D01*
X143651249Y-81160795D01*
X143651250Y-81160793D01*
X143820077Y-80955077D01*
X144025793Y-80786250D01*
X144260493Y-80660800D01*
X144387826Y-80622174D01*
X144515160Y-80583548D01*
X144713636Y-80564000D01*
X144846364Y-80564000D01*
X145044840Y-80583548D01*
X145044840Y-80583548D01*
G37*
G36*
X177483674Y-79898465D02*
G01*
X177521367Y-79909899D01*
X177556103Y-79928466D01*
X177586548Y-79953452D01*
X177611534Y-79983897D01*
X177630101Y-80018633D01*
X177641535Y-80056326D01*
X177646000Y-80101661D01*
X177646000Y-81188339D01*
X177641535Y-81233674D01*
X177630101Y-81271367D01*
X177611534Y-81306103D01*
X177586548Y-81336548D01*
X177556103Y-81361534D01*
X177521367Y-81380101D01*
X177483674Y-81391535D01*
X177438339Y-81396000D01*
X176601661Y-81396000D01*
X176556326Y-81391535D01*
X176518633Y-81380101D01*
X176483897Y-81361534D01*
X176453452Y-81336548D01*
X176428466Y-81306103D01*
X176409899Y-81271367D01*
X176398465Y-81233674D01*
X176394000Y-81188339D01*
X176394000Y-80101661D01*
X176398465Y-80056326D01*
X176409899Y-80018633D01*
X176428466Y-79983897D01*
X176453452Y-79953452D01*
X176483897Y-79928466D01*
X176518633Y-79909899D01*
X176556326Y-79898465D01*
X176601661Y-79894000D01*
X177438339Y-79894000D01*
X177483674Y-79898465D01*
X177483674Y-79898465D01*
G37*
G36*
X179533674Y-79898465D02*
G01*
X179571367Y-79909899D01*
X179606103Y-79928466D01*
X179636548Y-79953452D01*
X179661534Y-79983897D01*
X179680101Y-80018633D01*
X179691535Y-80056326D01*
X179696000Y-80101661D01*
X179696000Y-81188339D01*
X179691535Y-81233674D01*
X179680101Y-81271367D01*
X179661534Y-81306103D01*
X179636548Y-81336548D01*
X179606103Y-81361534D01*
X179571367Y-81380101D01*
X179533674Y-81391535D01*
X179488339Y-81396000D01*
X178651661Y-81396000D01*
X178606326Y-81391535D01*
X178568633Y-81380101D01*
X178533897Y-81361534D01*
X178503452Y-81336548D01*
X178478466Y-81306103D01*
X178459899Y-81271367D01*
X178448465Y-81233674D01*
X178444000Y-81188339D01*
X178444000Y-80101661D01*
X178448465Y-80056326D01*
X178459899Y-80018633D01*
X178478466Y-79983897D01*
X178503452Y-79953452D01*
X178533897Y-79928466D01*
X178568633Y-79909899D01*
X178606326Y-79898465D01*
X178651661Y-79894000D01*
X179488339Y-79894000D01*
X179533674Y-79898465D01*
X179533674Y-79898465D01*
G37*
G36*
X158494487Y-78123996D02*
G01*
X158731253Y-78222068D01*
X158731255Y-78222069D01*
X158871833Y-78316000D01*
X158944339Y-78364447D01*
X159125553Y-78545661D01*
X159267932Y-78758747D01*
X159366004Y-78995513D01*
X159416000Y-79246861D01*
X159416000Y-79503139D01*
X159366004Y-79754487D01*
X159275195Y-79973718D01*
X159267931Y-79991255D01*
X159125553Y-80204339D01*
X158944339Y-80385553D01*
X158731255Y-80527931D01*
X158731254Y-80527932D01*
X158731253Y-80527932D01*
X158494487Y-80626004D01*
X158243139Y-80676000D01*
X157986861Y-80676000D01*
X157735513Y-80626004D01*
X157498747Y-80527932D01*
X157498746Y-80527932D01*
X157498745Y-80527931D01*
X157285661Y-80385553D01*
X157104447Y-80204339D01*
X156962069Y-79991255D01*
X156954805Y-79973718D01*
X156863996Y-79754487D01*
X156814000Y-79503139D01*
X156814000Y-79246861D01*
X156863996Y-78995513D01*
X156962068Y-78758747D01*
X157104447Y-78545661D01*
X157285661Y-78364447D01*
X157358167Y-78316000D01*
X157498745Y-78222069D01*
X157498747Y-78222068D01*
X157735513Y-78123996D01*
X157986861Y-78074000D01*
X158243139Y-78074000D01*
X158494487Y-78123996D01*
X158494487Y-78123996D01*
G37*
G36*
X173286000Y-78316000D02*
G01*
X170884000Y-78316000D01*
X170884000Y-74714000D01*
X173286000Y-74714000D01*
X173286000Y-78316000D01*
X173286000Y-78316000D01*
G37*
G36*
X178683228Y-76016703D02*
G01*
X178838100Y-76080853D01*
X178977481Y-76173985D01*
X179096015Y-76292519D01*
X179189147Y-76431900D01*
X179253297Y-76586772D01*
X179286000Y-76751184D01*
X179286000Y-76918816D01*
X179253297Y-77083228D01*
X179189147Y-77238100D01*
X179096015Y-77377481D01*
X178977481Y-77496015D01*
X178838100Y-77589147D01*
X178683228Y-77653297D01*
X178518816Y-77686000D01*
X178351184Y-77686000D01*
X178186772Y-77653297D01*
X178031900Y-77589147D01*
X177892519Y-77496015D01*
X177773985Y-77377481D01*
X177680853Y-77238100D01*
X177616703Y-77083228D01*
X177584000Y-76918816D01*
X177584000Y-76751184D01*
X177616703Y-76586772D01*
X177680853Y-76431900D01*
X177773985Y-76292519D01*
X177892519Y-76173985D01*
X178031900Y-76080853D01*
X178186772Y-76016703D01*
X178351184Y-75984000D01*
X178518816Y-75984000D01*
X178683228Y-76016703D01*
X178683228Y-76016703D01*
G37*
G36*
X142732585Y-73733802D02*
G01*
X142882410Y-73763604D01*
X143164674Y-73880521D01*
X143418705Y-74050259D01*
X143634741Y-74266295D01*
X143804479Y-74520326D01*
X143921396Y-74802590D01*
X143981000Y-75102240D01*
X143981000Y-75407760D01*
X143921396Y-75707410D01*
X143804479Y-75989674D01*
X143634741Y-76243705D01*
X143418705Y-76459741D01*
X143164674Y-76629479D01*
X142882410Y-76746396D01*
X142732585Y-76776198D01*
X142582761Y-76806000D01*
X142277239Y-76806000D01*
X142127415Y-76776198D01*
X141977590Y-76746396D01*
X141695326Y-76629479D01*
X141441295Y-76459741D01*
X141225259Y-76243705D01*
X141055521Y-75989674D01*
X140938604Y-75707410D01*
X140879000Y-75407760D01*
X140879000Y-75102240D01*
X140938604Y-74802590D01*
X141055521Y-74520326D01*
X141225259Y-74266295D01*
X141441295Y-74050259D01*
X141695326Y-73880521D01*
X141977590Y-73763604D01*
X142127415Y-73733802D01*
X142277239Y-73704000D01*
X142582761Y-73704000D01*
X142732585Y-73733802D01*
X142732585Y-73733802D01*
G37*
G36*
X134732585Y-73733802D02*
G01*
X134882410Y-73763604D01*
X135164674Y-73880521D01*
X135418705Y-74050259D01*
X135634741Y-74266295D01*
X135804479Y-74520326D01*
X135921396Y-74802590D01*
X135981000Y-75102240D01*
X135981000Y-75407760D01*
X135921396Y-75707410D01*
X135804479Y-75989674D01*
X135634741Y-76243705D01*
X135418705Y-76459741D01*
X135164674Y-76629479D01*
X134882410Y-76746396D01*
X134732585Y-76776198D01*
X134582761Y-76806000D01*
X134277239Y-76806000D01*
X134127415Y-76776198D01*
X133977590Y-76746396D01*
X133695326Y-76629479D01*
X133441295Y-76459741D01*
X133225259Y-76243705D01*
X133055521Y-75989674D01*
X132938604Y-75707410D01*
X132879000Y-75407760D01*
X132879000Y-75102240D01*
X132938604Y-74802590D01*
X133055521Y-74520326D01*
X133225259Y-74266295D01*
X133441295Y-74050259D01*
X133695326Y-73880521D01*
X133977590Y-73763604D01*
X134127415Y-73733802D01*
X134277239Y-73704000D01*
X134582761Y-73704000D01*
X134732585Y-73733802D01*
X134732585Y-73733802D01*
G37*
G36*
X179286000Y-75186000D02*
G01*
X177584000Y-75186000D01*
X177584000Y-73484000D01*
X179286000Y-73484000D01*
X179286000Y-75186000D01*
X179286000Y-75186000D01*
G37*
G36*
X158494487Y-70503996D02*
G01*
X158731253Y-70602068D01*
X158731255Y-70602069D01*
X158944339Y-70744447D01*
X159125553Y-70925661D01*
X159227055Y-71077569D01*
X159267932Y-71138747D01*
X159366004Y-71375513D01*
X159416000Y-71626861D01*
X159416000Y-71883139D01*
X159366004Y-72134487D01*
X159267932Y-72371253D01*
X159267931Y-72371255D01*
X159125553Y-72584339D01*
X158944339Y-72765553D01*
X158731255Y-72907931D01*
X158731254Y-72907932D01*
X158731253Y-72907932D01*
X158494487Y-73006004D01*
X158243139Y-73056000D01*
X157986861Y-73056000D01*
X157735513Y-73006004D01*
X157498747Y-72907932D01*
X157498746Y-72907932D01*
X157498745Y-72907931D01*
X157285661Y-72765553D01*
X157104447Y-72584339D01*
X156962069Y-72371255D01*
X156962068Y-72371253D01*
X156863996Y-72134487D01*
X156814000Y-71883139D01*
X156814000Y-71626861D01*
X156863996Y-71375513D01*
X156962068Y-71138747D01*
X157002946Y-71077569D01*
X157104447Y-70925661D01*
X157285661Y-70744447D01*
X157498745Y-70602069D01*
X157498747Y-70602068D01*
X157735513Y-70503996D01*
X157986861Y-70454000D01*
X158243139Y-70454000D01*
X158494487Y-70503996D01*
X158494487Y-70503996D01*
G37*
G36*
X164829903Y-69282075D02*
G01*
X165057571Y-69376378D01*
X165262466Y-69513285D01*
X165436715Y-69687534D01*
X165573622Y-69892429D01*
X165573623Y-69892431D01*
X165667925Y-70120097D01*
X165716000Y-70361786D01*
X165716000Y-70608214D01*
X165667925Y-70849903D01*
X165573622Y-71077571D01*
X165436715Y-71282466D01*
X165262466Y-71456715D01*
X165057571Y-71593622D01*
X165057570Y-71593623D01*
X165057569Y-71593623D01*
X164829903Y-71687925D01*
X164588214Y-71736000D01*
X164341786Y-71736000D01*
X164100097Y-71687925D01*
X163872431Y-71593623D01*
X163872430Y-71593623D01*
X163872429Y-71593622D01*
X163667534Y-71456715D01*
X163493285Y-71282466D01*
X163356378Y-71077571D01*
X163262075Y-70849903D01*
X163214000Y-70608214D01*
X163214000Y-70361786D01*
X163262075Y-70120097D01*
X163356377Y-69892431D01*
X163356378Y-69892429D01*
X163493285Y-69687534D01*
X163667534Y-69513285D01*
X163872429Y-69376378D01*
X164100097Y-69282075D01*
X164341786Y-69234000D01*
X164588214Y-69234000D01*
X164829903Y-69282075D01*
X164829903Y-69282075D01*
G37*
G36*
X134732585Y-66733802D02*
G01*
X134882410Y-66763604D01*
X135164674Y-66880521D01*
X135418705Y-67050259D01*
X135634741Y-67266295D01*
X135804479Y-67520326D01*
X135921396Y-67802590D01*
X135981000Y-68102240D01*
X135981000Y-68407760D01*
X135921396Y-68707410D01*
X135804479Y-68989674D01*
X135634741Y-69243705D01*
X135418705Y-69459741D01*
X135164674Y-69629479D01*
X134882410Y-69746396D01*
X134732585Y-69776198D01*
X134582761Y-69806000D01*
X134277239Y-69806000D01*
X134127415Y-69776198D01*
X133977590Y-69746396D01*
X133695326Y-69629479D01*
X133441295Y-69459741D01*
X133225259Y-69243705D01*
X133055521Y-68989674D01*
X132938604Y-68707410D01*
X132879000Y-68407760D01*
X132879000Y-68102240D01*
X132938604Y-67802590D01*
X133055521Y-67520326D01*
X133225259Y-67266295D01*
X133441295Y-67050259D01*
X133695326Y-66880521D01*
X133977590Y-66763604D01*
X134127415Y-66733802D01*
X134277239Y-66704000D01*
X134582761Y-66704000D01*
X134732585Y-66733802D01*
X134732585Y-66733802D01*
G37*
G36*
X142732585Y-66733802D02*
G01*
X142882410Y-66763604D01*
X143164674Y-66880521D01*
X143418705Y-67050259D01*
X143634741Y-67266295D01*
X143804479Y-67520326D01*
X143921396Y-67802590D01*
X143981000Y-68102240D01*
X143981000Y-68407760D01*
X143921396Y-68707410D01*
X143804479Y-68989674D01*
X143634741Y-69243705D01*
X143418705Y-69459741D01*
X143164674Y-69629479D01*
X142882410Y-69746396D01*
X142732585Y-69776198D01*
X142582761Y-69806000D01*
X142277239Y-69806000D01*
X142127415Y-69776198D01*
X141977590Y-69746396D01*
X141695326Y-69629479D01*
X141441295Y-69459741D01*
X141225259Y-69243705D01*
X141055521Y-68989674D01*
X140938604Y-68707410D01*
X140879000Y-68407760D01*
X140879000Y-68102240D01*
X140938604Y-67802590D01*
X141055521Y-67520326D01*
X141225259Y-67266295D01*
X141441295Y-67050259D01*
X141695326Y-66880521D01*
X141977590Y-66763604D01*
X142127415Y-66733802D01*
X142277239Y-66704000D01*
X142582761Y-66704000D01*
X142732585Y-66733802D01*
X142732585Y-66733802D01*
G37*
G36*
X158494487Y-65423996D02*
G01*
X158731253Y-65522068D01*
X158731255Y-65522069D01*
X158944339Y-65664447D01*
X159125553Y-65845661D01*
X159267932Y-66058747D01*
X159366004Y-66295513D01*
X159416000Y-66546861D01*
X159416000Y-66803139D01*
X159366004Y-67054487D01*
X159267932Y-67291253D01*
X159267931Y-67291255D01*
X159125553Y-67504339D01*
X158944339Y-67685553D01*
X158731255Y-67827931D01*
X158731254Y-67827932D01*
X158731253Y-67827932D01*
X158494487Y-67926004D01*
X158243139Y-67976000D01*
X157986861Y-67976000D01*
X157735513Y-67926004D01*
X157498747Y-67827932D01*
X157498746Y-67827932D01*
X157498745Y-67827931D01*
X157285661Y-67685553D01*
X157104447Y-67504339D01*
X156962069Y-67291255D01*
X156962068Y-67291253D01*
X156863996Y-67054487D01*
X156814000Y-66803139D01*
X156814000Y-66546861D01*
X156863996Y-66295513D01*
X156962068Y-66058747D01*
X157104447Y-65845661D01*
X157285661Y-65664447D01*
X157498745Y-65522069D01*
X157498747Y-65522068D01*
X157735513Y-65423996D01*
X157986861Y-65374000D01*
X158243139Y-65374000D01*
X158494487Y-65423996D01*
X158494487Y-65423996D01*
G37*
G36*
X158494487Y-60343996D02*
G01*
X158731253Y-60442068D01*
X158731255Y-60442069D01*
X158944339Y-60584447D01*
X159125553Y-60765661D01*
X159227055Y-60917569D01*
X159267932Y-60978747D01*
X159366004Y-61215513D01*
X159416000Y-61466861D01*
X159416000Y-61723139D01*
X159366004Y-61974487D01*
X159280161Y-62181729D01*
X159267931Y-62211255D01*
X159125553Y-62424339D01*
X158944339Y-62605553D01*
X158731255Y-62747931D01*
X158731254Y-62747932D01*
X158731253Y-62747932D01*
X158494487Y-62846004D01*
X158243139Y-62896000D01*
X157986861Y-62896000D01*
X157735513Y-62846004D01*
X157498747Y-62747932D01*
X157498746Y-62747932D01*
X157498745Y-62747931D01*
X157285661Y-62605553D01*
X157104447Y-62424339D01*
X156962069Y-62211255D01*
X156949839Y-62181729D01*
X156863996Y-61974487D01*
X156814000Y-61723139D01*
X156814000Y-61466861D01*
X156863996Y-61215513D01*
X156962068Y-60978747D01*
X157002946Y-60917569D01*
X157104447Y-60765661D01*
X157285661Y-60584447D01*
X157498745Y-60442069D01*
X157498747Y-60442068D01*
X157735513Y-60343996D01*
X157986861Y-60294000D01*
X158243139Y-60294000D01*
X158494487Y-60343996D01*
X158494487Y-60343996D01*
G37*
G36*
X131116564Y-60584389D02*
G01*
X131307833Y-60663615D01*
X131307835Y-60663616D01*
X131479973Y-60778635D01*
X131626365Y-60925027D01*
X131681988Y-61008272D01*
X131741385Y-61097167D01*
X131820611Y-61288436D01*
X131861000Y-61491484D01*
X131861000Y-61698516D01*
X131820611Y-61901564D01*
X131790405Y-61974487D01*
X131741384Y-62092835D01*
X131626365Y-62264973D01*
X131479973Y-62411365D01*
X131307835Y-62526384D01*
X131307834Y-62526385D01*
X131307833Y-62526385D01*
X131116564Y-62605611D01*
X130913516Y-62646000D01*
X130706484Y-62646000D01*
X130503436Y-62605611D01*
X130312167Y-62526385D01*
X130312166Y-62526385D01*
X130312165Y-62526384D01*
X130140027Y-62411365D01*
X129993635Y-62264973D01*
X129878616Y-62092835D01*
X129829595Y-61974487D01*
X129799389Y-61901564D01*
X129759000Y-61698516D01*
X129759000Y-61491484D01*
X129799389Y-61288436D01*
X129878615Y-61097167D01*
X129938013Y-61008272D01*
X129993635Y-60925027D01*
X130140027Y-60778635D01*
X130312165Y-60663616D01*
X130312167Y-60663615D01*
X130503436Y-60584389D01*
X130706484Y-60544000D01*
X130913516Y-60544000D01*
X131116564Y-60584389D01*
X131116564Y-60584389D01*
G37*
G36*
X146153097Y-60549069D02*
G01*
X146256032Y-60559207D01*
X146454146Y-60619305D01*
X146454149Y-60619306D01*
X146537045Y-60663615D01*
X146636729Y-60716897D01*
X146796765Y-60848235D01*
X146928103Y-61008271D01*
X146973939Y-61094025D01*
X147025694Y-61190851D01*
X147025695Y-61190854D01*
X147085793Y-61388968D01*
X147106085Y-61595000D01*
X147085793Y-61801032D01*
X147055296Y-61901565D01*
X147025694Y-61999149D01*
X146975619Y-62092833D01*
X146928103Y-62181729D01*
X146796765Y-62341765D01*
X146636729Y-62473103D01*
X146550975Y-62518939D01*
X146454149Y-62570694D01*
X146454146Y-62570695D01*
X146256032Y-62630793D01*
X146153097Y-62640931D01*
X146101631Y-62646000D01*
X145998369Y-62646000D01*
X145946903Y-62640931D01*
X145843968Y-62630793D01*
X145645854Y-62570695D01*
X145645851Y-62570694D01*
X145549025Y-62518939D01*
X145463271Y-62473103D01*
X145303235Y-62341765D01*
X145171897Y-62181729D01*
X145124381Y-62092833D01*
X145074306Y-61999149D01*
X145044704Y-61901565D01*
X145014207Y-61801032D01*
X144993915Y-61595000D01*
X145014207Y-61388968D01*
X145074305Y-61190854D01*
X145074306Y-61190851D01*
X145126061Y-61094025D01*
X145171897Y-61008271D01*
X145303235Y-60848235D01*
X145463271Y-60716897D01*
X145562955Y-60663615D01*
X145645851Y-60619306D01*
X145645854Y-60619305D01*
X145843968Y-60559207D01*
X145946903Y-60549069D01*
X145998369Y-60544000D01*
X146101631Y-60544000D01*
X146153097Y-60549069D01*
X146153097Y-60549069D01*
G37*
G36*
X179194903Y-59122075D02*
G01*
X179422571Y-59216378D01*
X179627466Y-59353285D01*
X179801715Y-59527534D01*
X179865453Y-59622925D01*
X179938623Y-59732431D01*
X180032925Y-59960097D01*
X180081000Y-60201786D01*
X180081000Y-60448214D01*
X180046968Y-60619305D01*
X180032925Y-60689903D01*
X179938622Y-60917571D01*
X179801715Y-61122466D01*
X179627466Y-61296715D01*
X179422571Y-61433622D01*
X179422570Y-61433623D01*
X179422569Y-61433623D01*
X179194903Y-61527925D01*
X178953214Y-61576000D01*
X178706786Y-61576000D01*
X178465097Y-61527925D01*
X178237431Y-61433623D01*
X178237430Y-61433623D01*
X178237429Y-61433622D01*
X178032534Y-61296715D01*
X177858285Y-61122466D01*
X177721378Y-60917571D01*
X177627075Y-60689903D01*
X177613032Y-60619305D01*
X177579000Y-60448214D01*
X177579000Y-60201786D01*
X177627075Y-59960097D01*
X177721377Y-59732431D01*
X177794547Y-59622925D01*
X177858285Y-59527534D01*
X178032534Y-59353285D01*
X178237429Y-59216378D01*
X178465097Y-59122075D01*
X178706786Y-59074000D01*
X178953214Y-59074000D01*
X179194903Y-59122075D01*
X179194903Y-59122075D01*
G37*
G36*
X164194903Y-59122075D02*
G01*
X164422571Y-59216378D01*
X164627466Y-59353285D01*
X164801715Y-59527534D01*
X164865453Y-59622925D01*
X164938623Y-59732431D01*
X165032925Y-59960097D01*
X165081000Y-60201786D01*
X165081000Y-60448214D01*
X165046968Y-60619305D01*
X165032925Y-60689903D01*
X164938622Y-60917571D01*
X164801715Y-61122466D01*
X164627466Y-61296715D01*
X164422571Y-61433622D01*
X164422570Y-61433623D01*
X164422569Y-61433623D01*
X164194903Y-61527925D01*
X163953214Y-61576000D01*
X163706786Y-61576000D01*
X163465097Y-61527925D01*
X163237431Y-61433623D01*
X163237430Y-61433623D01*
X163237429Y-61433622D01*
X163032534Y-61296715D01*
X162858285Y-61122466D01*
X162721378Y-60917571D01*
X162627075Y-60689903D01*
X162613032Y-60619305D01*
X162579000Y-60448214D01*
X162579000Y-60201786D01*
X162627075Y-59960097D01*
X162721377Y-59732431D01*
X162794547Y-59622925D01*
X162858285Y-59527534D01*
X163032534Y-59353285D01*
X163237429Y-59216378D01*
X163465097Y-59122075D01*
X163706786Y-59074000D01*
X163953214Y-59074000D01*
X164194903Y-59122075D01*
X164194903Y-59122075D01*
G37*
G36*
X189846000Y-59671000D02*
G01*
X187344000Y-59671000D01*
X187344000Y-57169000D01*
X189846000Y-57169000D01*
X189846000Y-59671000D01*
X189846000Y-59671000D01*
G37*
G36*
X193959903Y-57217075D02*
G01*
X194187571Y-57311378D01*
X194392466Y-57448285D01*
X194566715Y-57622534D01*
X194703622Y-57827429D01*
X194797925Y-58055097D01*
X194846000Y-58296787D01*
X194846000Y-58543213D01*
X194797925Y-58784903D01*
X194703622Y-59012571D01*
X194566715Y-59217466D01*
X194392466Y-59391715D01*
X194187571Y-59528622D01*
X194187570Y-59528623D01*
X194187569Y-59528623D01*
X193959903Y-59622925D01*
X193718214Y-59671000D01*
X193471786Y-59671000D01*
X193230097Y-59622925D01*
X193002431Y-59528623D01*
X193002430Y-59528623D01*
X193002429Y-59528622D01*
X192797534Y-59391715D01*
X192623285Y-59217466D01*
X192486378Y-59012571D01*
X192392075Y-58784903D01*
X192344000Y-58543213D01*
X192344000Y-58296787D01*
X192392075Y-58055097D01*
X192486378Y-57827429D01*
X192623285Y-57622534D01*
X192797534Y-57448285D01*
X193002429Y-57311378D01*
X193230097Y-57217075D01*
X193471786Y-57169000D01*
X193718214Y-57169000D01*
X193959903Y-57217075D01*
X193959903Y-57217075D01*
G37*
G36*
X119774072Y-55215918D02*
G01*
X119890146Y-55263997D01*
X120019939Y-55317759D01*
X120241212Y-55465610D01*
X120429390Y-55653788D01*
X120577241Y-55875061D01*
X120679082Y-56120928D01*
X120731000Y-56381938D01*
X120731000Y-56648062D01*
X120679082Y-56909072D01*
X120577241Y-57154939D01*
X120429390Y-57376212D01*
X120241212Y-57564390D01*
X120019939Y-57712241D01*
X120019938Y-57712242D01*
X120019937Y-57712242D01*
X119774072Y-57814082D01*
X119513063Y-57866000D01*
X119246937Y-57866000D01*
X118985928Y-57814082D01*
X118740063Y-57712242D01*
X118740062Y-57712242D01*
X118740061Y-57712241D01*
X118518788Y-57564390D01*
X118330610Y-57376212D01*
X118182759Y-57154939D01*
X118080918Y-56909072D01*
X118029000Y-56648062D01*
X118029000Y-56381938D01*
X118080918Y-56120928D01*
X118182759Y-55875061D01*
X118330610Y-55653788D01*
X118518788Y-55465610D01*
X118740061Y-55317759D01*
X118869855Y-55263997D01*
X118985928Y-55215918D01*
X119246937Y-55164000D01*
X119513063Y-55164000D01*
X119774072Y-55215918D01*
X119774072Y-55215918D01*
G37*
G36*
X115651000Y-57866000D02*
G01*
X112949000Y-57866000D01*
X112949000Y-55164000D01*
X115651000Y-55164000D01*
X115651000Y-57866000D01*
X115651000Y-57866000D01*
G37*
G36*
X158494487Y-55263996D02*
G01*
X158731253Y-55362068D01*
X158731255Y-55362069D01*
X158734366Y-55364148D01*
X158944339Y-55504447D01*
X159125553Y-55685661D01*
X159267932Y-55898747D01*
X159366004Y-56135513D01*
X159416000Y-56386861D01*
X159416000Y-56643139D01*
X159366004Y-56894487D01*
X159267932Y-57131253D01*
X159267931Y-57131255D01*
X159125553Y-57344339D01*
X158944339Y-57525553D01*
X158731255Y-57667931D01*
X158731254Y-57667932D01*
X158731253Y-57667932D01*
X158494487Y-57766004D01*
X158243139Y-57816000D01*
X157986861Y-57816000D01*
X157735513Y-57766004D01*
X157498747Y-57667932D01*
X157498746Y-57667932D01*
X157498745Y-57667931D01*
X157285661Y-57525553D01*
X157104447Y-57344339D01*
X156962069Y-57131255D01*
X156962068Y-57131253D01*
X156863996Y-56894487D01*
X156814000Y-56643139D01*
X156814000Y-56386861D01*
X156863996Y-56135513D01*
X156962068Y-55898747D01*
X157104447Y-55685661D01*
X157285661Y-55504447D01*
X157495634Y-55364148D01*
X157498745Y-55362069D01*
X157498747Y-55362068D01*
X157735513Y-55263996D01*
X157986861Y-55214000D01*
X158243139Y-55214000D01*
X158494487Y-55263996D01*
X158494487Y-55263996D01*
G37*
G36*
X130391000Y-55461000D02*
G01*
X128689000Y-55461000D01*
X128689000Y-53759000D01*
X130391000Y-53759000D01*
X130391000Y-55461000D01*
X130391000Y-55461000D01*
G37*
G36*
X150088228Y-53791703D02*
G01*
X150243100Y-53855853D01*
X150382481Y-53948985D01*
X150501015Y-54067519D01*
X150594147Y-54206900D01*
X150658297Y-54361772D01*
X150691000Y-54526184D01*
X150691000Y-54693816D01*
X150658297Y-54858228D01*
X150594147Y-55013100D01*
X150501015Y-55152481D01*
X150382481Y-55271015D01*
X150243100Y-55364147D01*
X150088228Y-55428297D01*
X149923816Y-55461000D01*
X149756184Y-55461000D01*
X149591772Y-55428297D01*
X149436900Y-55364147D01*
X149297519Y-55271015D01*
X149178985Y-55152481D01*
X149085853Y-55013100D01*
X149021703Y-54858228D01*
X148989000Y-54693816D01*
X148989000Y-54526184D01*
X149021703Y-54361772D01*
X149085853Y-54206900D01*
X149178985Y-54067519D01*
X149297519Y-53948985D01*
X149436900Y-53855853D01*
X149591772Y-53791703D01*
X149756184Y-53759000D01*
X149923816Y-53759000D01*
X150088228Y-53791703D01*
X150088228Y-53791703D01*
G37*
G36*
X164194903Y-52772075D02*
G01*
X164422571Y-52866378D01*
X164627466Y-53003285D01*
X164801715Y-53177534D01*
X164938622Y-53382429D01*
X165032925Y-53610097D01*
X165081000Y-53851787D01*
X165081000Y-54098213D01*
X165032925Y-54339903D01*
X164938622Y-54567571D01*
X164801715Y-54772466D01*
X164627466Y-54946715D01*
X164422571Y-55083622D01*
X164422570Y-55083623D01*
X164422569Y-55083623D01*
X164194903Y-55177925D01*
X163953214Y-55226000D01*
X163706786Y-55226000D01*
X163465097Y-55177925D01*
X163237431Y-55083623D01*
X163237430Y-55083623D01*
X163237429Y-55083622D01*
X163032534Y-54946715D01*
X162858285Y-54772466D01*
X162721378Y-54567571D01*
X162627075Y-54339903D01*
X162579000Y-54098213D01*
X162579000Y-53851787D01*
X162627075Y-53610097D01*
X162721378Y-53382429D01*
X162858285Y-53177534D01*
X163032534Y-53003285D01*
X163237429Y-52866378D01*
X163465097Y-52772075D01*
X163706786Y-52724000D01*
X163953214Y-52724000D01*
X164194903Y-52772075D01*
X164194903Y-52772075D01*
G37*
G36*
X179194903Y-52772075D02*
G01*
X179422571Y-52866378D01*
X179627466Y-53003285D01*
X179801715Y-53177534D01*
X179938622Y-53382429D01*
X180032925Y-53610097D01*
X180081000Y-53851787D01*
X180081000Y-54098213D01*
X180032925Y-54339903D01*
X179938622Y-54567571D01*
X179801715Y-54772466D01*
X179627466Y-54946715D01*
X179422571Y-55083622D01*
X179422570Y-55083623D01*
X179422569Y-55083623D01*
X179194903Y-55177925D01*
X178953214Y-55226000D01*
X178706786Y-55226000D01*
X178465097Y-55177925D01*
X178237431Y-55083623D01*
X178237430Y-55083623D01*
X178237429Y-55083622D01*
X178032534Y-54946715D01*
X177858285Y-54772466D01*
X177721378Y-54567571D01*
X177627075Y-54339903D01*
X177579000Y-54098213D01*
X177579000Y-53851787D01*
X177627075Y-53610097D01*
X177721378Y-53382429D01*
X177858285Y-53177534D01*
X178032534Y-53003285D01*
X178237429Y-52866378D01*
X178465097Y-52772075D01*
X178706786Y-52724000D01*
X178953214Y-52724000D01*
X179194903Y-52772075D01*
X179194903Y-52772075D01*
G37*
M02*
