G04 #@! TF.FileFunction,Copper,L2,Bot,Signal*
%FSLAX46Y46*%
G04 Gerber Fmt 4.6, Leading zero omitted, Abs format (unit mm)*
G04 Created by KiCad (PCBNEW 4.0.4+dfsg1-stable) date Sun Aug 20 17:43:16 2017*
%MOMM*%
%LPD*%
G01*
G04 APERTURE LIST*
%ADD10C,0.100000*%
%ADD11R,1.300000X1.300000*%
%ADD12C,1.300000*%
%ADD13R,1.700000X1.700000*%
%ADD14C,1.700000*%
%ADD15C,1.998980*%
%ADD16C,1.143000*%
%ADD17R,1.727200X1.727200*%
%ADD18O,1.727200X1.727200*%
%ADD19R,1.727200X2.032000*%
%ADD20O,1.727200X2.032000*%
%ADD21R,2.032000X1.727200*%
%ADD22O,2.032000X1.727200*%
%ADD23C,2.540000*%
%ADD24R,2.540000X2.540000*%
%ADD25C,2.400000*%
%ADD26R,2.400000X2.400000*%
%ADD27R,1.600000X1.600000*%
%ADD28C,1.600000*%
%ADD29C,3.000000*%
%ADD30R,2.800000X2.800000*%
%ADD31C,2.800000*%
%ADD32R,2.500000X2.500000*%
%ADD33C,2.500000*%
%ADD34C,1.800000*%
%ADD35C,0.600000*%
%ADD36C,1.000000*%
%ADD37C,0.500000*%
%ADD38C,0.254000*%
G04 APERTURE END LIST*
D10*
D11*
X193580000Y-123190000D03*
D12*
X195580000Y-123190000D03*
D11*
X153035000Y-139065000D03*
D12*
X153035000Y-141065000D03*
D13*
X129540000Y-77230000D03*
D14*
X129540000Y-62230000D03*
D13*
X135890000Y-62230000D03*
D14*
X135890000Y-77230000D03*
D11*
X166370000Y-133255000D03*
D12*
X166370000Y-135255000D03*
D14*
X157480000Y-75485000D03*
D13*
X157480000Y-70485000D03*
X157480000Y-100103975D03*
D14*
X157480000Y-85103975D03*
D12*
X162250000Y-110490000D03*
D11*
X158750000Y-110490000D03*
D12*
X149820000Y-116840000D03*
D11*
X147320000Y-116840000D03*
D15*
X153591260Y-110490000D03*
X143431260Y-110490000D03*
D16*
X144780000Y-142240000D03*
X144780000Y-137795000D03*
D17*
X173355000Y-122555000D03*
D18*
X173355000Y-125095000D03*
X170815000Y-122555000D03*
X170815000Y-125095000D03*
X168275000Y-122555000D03*
X168275000Y-125095000D03*
D19*
X174625000Y-140970000D03*
D20*
X172085000Y-140970000D03*
X169545000Y-140970000D03*
X167005000Y-140970000D03*
X164465000Y-140970000D03*
X161925000Y-140970000D03*
D21*
X183000000Y-83470000D03*
D22*
X183000000Y-86010000D03*
X183000000Y-88550000D03*
X183000000Y-91090000D03*
X183000000Y-93630000D03*
X183000000Y-96170000D03*
X183000000Y-98710000D03*
X183000000Y-101250000D03*
X183000000Y-103790000D03*
X183000000Y-106330000D03*
X183000000Y-108870000D03*
X183000000Y-111410000D03*
X183000000Y-113950000D03*
X183000000Y-116490000D03*
D21*
X102000000Y-96170000D03*
D22*
X102000000Y-98710000D03*
X102000000Y-101250000D03*
X102000000Y-103790000D03*
D14*
X138430000Y-129540000D03*
X138430000Y-124460000D03*
X133350000Y-124460000D03*
X130810000Y-124460000D03*
X128270000Y-124460000D03*
X133350000Y-129540000D03*
X130810000Y-129540000D03*
X128270000Y-129540000D03*
D23*
X118745000Y-110490000D03*
D24*
X118745000Y-95250000D03*
D25*
X191135000Y-143510000D03*
X187635000Y-143510000D03*
D26*
X194635000Y-143510000D03*
D27*
X118110000Y-82530000D03*
D28*
X118110000Y-62230000D03*
D15*
X124460000Y-72390000D03*
X124460000Y-62230000D03*
D29*
X108140000Y-63810000D03*
X100140000Y-63810000D03*
X100140000Y-70810000D03*
X108140000Y-70810000D03*
X129540000Y-110945000D03*
X129540000Y-88445000D03*
D30*
X106465000Y-137795000D03*
D31*
X106465000Y-141995000D03*
X100965000Y-137795000D03*
X100965000Y-141995000D03*
D30*
X125730000Y-137795000D03*
D31*
X125730000Y-141995000D03*
X120230000Y-137795000D03*
X120230000Y-141995000D03*
D32*
X91360000Y-139700000D03*
D33*
X86360000Y-139700000D03*
X146050000Y-90170000D03*
X146050000Y-74930000D03*
X146050000Y-85090000D03*
X146050000Y-80010000D03*
X146050000Y-97790000D03*
X146050000Y-102870000D03*
D34*
X111125000Y-124460000D03*
X114300000Y-129540000D03*
D35*
X183515000Y-128905000D03*
X184150000Y-123190000D03*
X177800000Y-137160000D03*
X177800000Y-140335000D03*
X163830000Y-137795000D03*
X165735000Y-130175000D03*
X170180000Y-117570000D03*
X141605000Y-144780000D03*
X186055000Y-139065000D03*
X184785000Y-125095000D03*
X190500000Y-119380000D03*
X161925000Y-115570000D03*
X179070000Y-121285000D03*
X179070000Y-124460000D03*
X178244500Y-122555000D03*
X177165000Y-126365000D03*
X174412169Y-128692169D03*
X175260000Y-124460000D03*
X184785000Y-135255000D03*
D36*
X111125000Y-124460000D02*
X124460000Y-124460000D01*
X124460000Y-124460000D02*
X128270000Y-124460000D01*
X128270000Y-129540000D02*
X114300000Y-129540000D01*
D37*
X172085000Y-140970000D02*
X172085000Y-137820000D01*
X172085000Y-137820000D02*
X167520000Y-133255000D01*
X167520000Y-133255000D02*
X166370000Y-133255000D01*
X165470150Y-129424999D02*
X166254999Y-129424999D01*
X166254999Y-129424999D02*
X167005000Y-130175000D01*
X167005000Y-131470000D02*
X167005000Y-130175000D01*
X166370000Y-129540000D02*
X167005000Y-130175000D01*
X166370000Y-133255000D02*
X166370000Y-132105000D01*
X166370000Y-132105000D02*
X167005000Y-131470000D01*
X165470150Y-129424999D02*
X160505152Y-124460001D01*
X160505152Y-124460001D02*
X138430000Y-124460000D01*
X183515000Y-128905000D02*
X183515000Y-123825000D01*
X183515000Y-123825000D02*
X184150000Y-123190000D01*
X177800000Y-140335000D02*
X177800000Y-137160000D01*
X170180000Y-117570000D02*
X179004990Y-108745010D01*
X179004990Y-108745010D02*
X179004990Y-94932610D01*
X179004990Y-94932610D02*
X182847600Y-91090000D01*
X182847600Y-91090000D02*
X183000000Y-91090000D01*
X165735000Y-130175000D02*
X163830000Y-132080000D01*
X163830000Y-132080000D02*
X163830000Y-137795000D01*
X180340000Y-144780000D02*
X141605000Y-144780000D01*
X186055000Y-139065000D02*
X180340000Y-144780000D01*
X183000000Y-93630000D02*
X183152400Y-93630000D01*
X183152400Y-93630000D02*
X186755010Y-97232610D01*
X186755010Y-97232610D02*
X186755010Y-123124990D01*
X186755010Y-123124990D02*
X184785000Y-125095000D01*
X190500000Y-119380000D02*
X190500000Y-98425000D01*
X183000000Y-88550000D02*
X183152400Y-88550000D01*
X183152400Y-88550000D02*
X190500000Y-95897600D01*
X190500000Y-95897600D02*
X190500000Y-98425000D01*
X161925000Y-115570000D02*
X155575000Y-115570000D01*
X155575000Y-115570000D02*
X142875000Y-102870000D01*
X142875000Y-102870000D02*
X108852400Y-102870000D01*
X108852400Y-102870000D02*
X107582400Y-101600000D01*
X102152400Y-96170000D02*
X107582400Y-101600000D01*
X107582400Y-101600000D02*
X107950000Y-101967600D01*
X102000000Y-96170000D02*
X102152400Y-96170000D01*
X179070000Y-121285000D02*
X179070000Y-118464963D01*
X183000000Y-111410000D02*
X180755010Y-111410000D01*
X180755010Y-111410000D02*
X180405010Y-111760000D01*
X180405010Y-111760000D02*
X180405010Y-117129953D01*
X180405010Y-117129953D02*
X179070000Y-118464963D01*
X177800000Y-124460000D02*
X179070000Y-124460000D01*
X176530000Y-124460000D02*
X177800000Y-124460000D01*
X173355000Y-127000000D02*
X173990000Y-127000000D01*
X173990000Y-127000000D02*
X176530000Y-124460000D01*
X102000000Y-98710000D02*
X103702444Y-98710000D01*
X166015038Y-127000000D02*
X168910000Y-127000000D01*
X103702444Y-98710000D02*
X108562447Y-103570010D01*
X108562447Y-103570010D02*
X142585048Y-103570010D01*
X142585048Y-103570010D02*
X166015038Y-127000000D01*
X168910000Y-127000000D02*
X170180000Y-127000000D01*
X170180000Y-127000000D02*
X170815000Y-127000000D01*
X170815000Y-127000000D02*
X172085000Y-127000000D01*
X170815000Y-126365000D02*
X170815000Y-127000000D01*
X171450000Y-127000000D02*
X172085000Y-127000000D01*
X172085000Y-127000000D02*
X173355000Y-127000000D01*
X172720000Y-127000000D02*
X173355000Y-127000000D01*
X170815000Y-126365000D02*
X171450000Y-127000000D01*
X170180000Y-127000000D02*
X170815000Y-126365000D01*
X170815000Y-126365000D02*
X170815000Y-125095000D01*
X186055000Y-113665000D02*
X186055000Y-107950000D01*
X183000000Y-103790000D02*
X183152400Y-103790000D01*
X183152400Y-103790000D02*
X186055000Y-106692600D01*
X186055000Y-106692600D02*
X186055000Y-107950000D01*
X186055000Y-113665000D02*
X186055000Y-116840000D01*
X178244500Y-122555000D02*
X180340000Y-122555000D01*
X180340000Y-122555000D02*
X186055000Y-116840000D01*
X183000000Y-113950000D02*
X185770000Y-113950000D01*
X185770000Y-113950000D02*
X186055000Y-113665000D01*
X102000000Y-101250000D02*
X105252475Y-101250000D01*
X105252475Y-101250000D02*
X108272494Y-104270020D01*
X108272494Y-104270020D02*
X142295096Y-104270020D01*
X142295096Y-104270020D02*
X165725086Y-127700010D01*
X165725086Y-127700010D02*
X174279953Y-127700010D01*
X174279953Y-127700010D02*
X175614963Y-126365000D01*
X175614963Y-126365000D02*
X176249962Y-126365000D01*
X176249962Y-126365000D02*
X177165000Y-126365000D01*
X179705000Y-104775000D02*
X179705000Y-103505000D01*
X183000000Y-98710000D02*
X182847600Y-98710000D01*
X182847600Y-98710000D02*
X179705000Y-101852600D01*
X179705000Y-101852600D02*
X179705000Y-103505000D01*
X175260000Y-120650000D02*
X175895000Y-120650000D01*
X174625000Y-120650000D02*
X175260000Y-120650000D01*
X175260000Y-120650000D02*
X175260000Y-121285000D01*
X179705000Y-116840000D02*
X175895000Y-120650000D01*
X175895000Y-120650000D02*
X175260000Y-121285000D01*
X179705000Y-116840000D02*
X179705000Y-107315000D01*
X179705000Y-107315000D02*
X179705000Y-106680000D01*
X180340000Y-106330000D02*
X179705000Y-106965000D01*
X179705000Y-106965000D02*
X179705000Y-107315000D01*
X179705000Y-106045000D02*
X179705000Y-104775000D01*
X180340000Y-106330000D02*
X179705000Y-105695000D01*
X179705000Y-105695000D02*
X179705000Y-104775000D01*
X180340000Y-106330000D02*
X180055000Y-106330000D01*
X183000000Y-106330000D02*
X180340000Y-106330000D01*
X179705000Y-106680000D02*
X179705000Y-106045000D01*
X179990000Y-106330000D02*
X179705000Y-106045000D01*
X180340000Y-106330000D02*
X179990000Y-106330000D01*
X180055000Y-106330000D02*
X179705000Y-106680000D01*
X183000000Y-106330000D02*
X180625000Y-106330000D01*
X174412169Y-128692169D02*
X174120020Y-128400020D01*
X174120020Y-128400020D02*
X165435133Y-128400020D01*
X142005144Y-104970030D02*
X165435133Y-128400020D01*
X107982541Y-104970030D02*
X142005144Y-104970030D01*
X106802513Y-103790000D02*
X107982541Y-104970030D01*
X102000000Y-103790000D02*
X106802513Y-103790000D01*
X171450000Y-120650000D02*
X170815000Y-121285000D01*
X170815000Y-121285000D02*
X170815000Y-122555000D01*
X174625000Y-120650000D02*
X171450000Y-120650000D01*
X175260000Y-121285000D02*
X174625000Y-120650000D01*
X175260000Y-124460000D02*
X175260000Y-121285000D01*
X191135000Y-135890000D02*
X190500000Y-135255000D01*
X190500000Y-135255000D02*
X184785000Y-135255000D01*
X191135000Y-143510000D02*
X191135000Y-135890000D01*
D38*
G36*
X199352500Y-52672106D02*
X199352500Y-77502894D01*
X196972394Y-79883000D01*
X176990000Y-79883000D01*
X176940590Y-79893006D01*
X176900197Y-79920197D01*
X173900197Y-82920197D01*
X173872334Y-82962211D01*
X173863000Y-83010000D01*
X173863000Y-90292394D01*
X170937394Y-93218000D01*
X147516436Y-93218000D01*
X147960418Y-93034550D01*
X148911212Y-92085414D01*
X149426412Y-90844674D01*
X149427585Y-89501220D01*
X148914550Y-88259582D01*
X148285801Y-87629735D01*
X148911212Y-87005414D01*
X149426412Y-85764674D01*
X149426474Y-85693539D01*
X154502484Y-85693539D01*
X154954751Y-86788107D01*
X155791463Y-87626281D01*
X156885240Y-88080457D01*
X158069564Y-88081491D01*
X159164132Y-87629224D01*
X160002306Y-86792512D01*
X160456482Y-85698735D01*
X160457516Y-84514411D01*
X160005249Y-83419843D01*
X159168537Y-82581669D01*
X158074760Y-82127493D01*
X156890436Y-82126459D01*
X155795868Y-82578726D01*
X154957694Y-83415438D01*
X154503518Y-84509215D01*
X154502484Y-85693539D01*
X149426474Y-85693539D01*
X149427585Y-84421220D01*
X148914550Y-83179582D01*
X148285801Y-82549735D01*
X148911212Y-81925414D01*
X149426412Y-80684674D01*
X149427585Y-79341220D01*
X148914550Y-78099582D01*
X148285801Y-77469735D01*
X148911212Y-76845414D01*
X149426412Y-75604674D01*
X149427585Y-74261220D01*
X148914550Y-73019582D01*
X147965414Y-72068788D01*
X146724674Y-71553588D01*
X145381220Y-71552415D01*
X144139582Y-72065450D01*
X143188788Y-73014586D01*
X142673588Y-74255326D01*
X142672415Y-75598780D01*
X143185450Y-76840418D01*
X143814199Y-77470265D01*
X143188788Y-78094586D01*
X142673588Y-79335326D01*
X142672415Y-80678780D01*
X143185450Y-81920418D01*
X143814199Y-82550265D01*
X143188788Y-83174586D01*
X142673588Y-84415326D01*
X142672415Y-85758780D01*
X143185450Y-87000418D01*
X143814199Y-87630265D01*
X143188788Y-88254586D01*
X142673588Y-89495326D01*
X142672415Y-90838780D01*
X143185450Y-92080418D01*
X144134586Y-93031212D01*
X144584422Y-93218000D01*
X138255000Y-93218000D01*
X138205590Y-93228006D01*
X138165197Y-93255197D01*
X135165197Y-96255197D01*
X135137334Y-96297211D01*
X135128000Y-96345000D01*
X135128000Y-96642394D01*
X132202394Y-99568000D01*
X131525111Y-99568000D01*
X131525343Y-99301891D01*
X131223782Y-98572057D01*
X130665880Y-98013181D01*
X129936573Y-97710346D01*
X129146891Y-97709657D01*
X128417057Y-98011218D01*
X127858181Y-98569120D01*
X127555346Y-99298427D01*
X127555111Y-99568000D01*
X112272606Y-99568000D01*
X109347000Y-96642394D01*
X109347000Y-95075000D01*
X109336994Y-95025590D01*
X109309803Y-94985197D01*
X108304606Y-93980000D01*
X115306330Y-93980000D01*
X115306330Y-96520000D01*
X115454644Y-97308219D01*
X115920480Y-98032150D01*
X116631266Y-98517809D01*
X117475000Y-98688670D01*
X120015000Y-98688670D01*
X120803219Y-98540356D01*
X121527150Y-98074520D01*
X122012809Y-97363734D01*
X122183670Y-96520000D01*
X122183670Y-93980000D01*
X122035356Y-93191781D01*
X121569520Y-92467850D01*
X120858734Y-91982191D01*
X120015000Y-91811330D01*
X117475000Y-91811330D01*
X116686781Y-91959644D01*
X115962850Y-92425480D01*
X115477191Y-93136266D01*
X115306330Y-93980000D01*
X108304606Y-93980000D01*
X106309803Y-91985197D01*
X106267789Y-91957334D01*
X106220000Y-91948000D01*
X100790000Y-91948000D01*
X100740590Y-91958006D01*
X100700197Y-91985197D01*
X97700197Y-94985197D01*
X97672334Y-95027211D01*
X97663000Y-95075000D01*
X97663000Y-104950000D01*
X97673006Y-104999410D01*
X97700197Y-105039803D01*
X100700197Y-108039803D01*
X100742211Y-108067666D01*
X100790000Y-108077000D01*
X116353934Y-108077000D01*
X115866843Y-108563242D01*
X115348591Y-109811331D01*
X115347412Y-111162741D01*
X115863484Y-112411732D01*
X116818242Y-113368157D01*
X118066331Y-113886409D01*
X119417741Y-113887588D01*
X120666732Y-113371516D01*
X121623157Y-112416758D01*
X122141409Y-111168669D01*
X122142588Y-109817259D01*
X121626516Y-108568268D01*
X121136104Y-108077000D01*
X127279176Y-108077000D01*
X126466972Y-108887787D01*
X125913631Y-110220380D01*
X125912372Y-111663290D01*
X126463386Y-112996846D01*
X127482787Y-114018028D01*
X128815380Y-114571369D01*
X130258290Y-114572628D01*
X131591846Y-114021614D01*
X132613028Y-113002213D01*
X133166369Y-111669620D01*
X133167628Y-110226710D01*
X132616614Y-108893154D01*
X131801883Y-108077000D01*
X132202394Y-108077000D01*
X135128000Y-111002606D01*
X135128000Y-146807394D01*
X132582894Y-149352500D01*
X82682106Y-149352500D01*
X80647500Y-147317894D01*
X80647500Y-143436724D01*
X99702882Y-143436724D01*
X99850455Y-143745106D01*
X100605031Y-144038405D01*
X101414409Y-144020614D01*
X102079545Y-143745106D01*
X102227118Y-143436724D01*
X100965000Y-142174605D01*
X99702882Y-143436724D01*
X80647500Y-143436724D01*
X80647500Y-141033320D01*
X85206285Y-141033320D01*
X85335533Y-141326123D01*
X86035806Y-141594388D01*
X86785435Y-141574250D01*
X87384467Y-141326123D01*
X87513715Y-141033320D01*
X86360000Y-139879605D01*
X85206285Y-141033320D01*
X80647500Y-141033320D01*
X80647500Y-139375806D01*
X84465612Y-139375806D01*
X84485750Y-140125435D01*
X84733877Y-140724467D01*
X85026680Y-140853715D01*
X86180395Y-139700000D01*
X86539605Y-139700000D01*
X87693320Y-140853715D01*
X87986123Y-140724467D01*
X88254388Y-140024194D01*
X88253356Y-139985750D01*
X89475000Y-139985750D01*
X89475000Y-141076310D01*
X89571673Y-141309699D01*
X89750302Y-141488327D01*
X89983691Y-141585000D01*
X91074250Y-141585000D01*
X91233000Y-141426250D01*
X91233000Y-139827000D01*
X91487000Y-139827000D01*
X91487000Y-141426250D01*
X91645750Y-141585000D01*
X92736309Y-141585000D01*
X92969698Y-141488327D01*
X93148327Y-141309699D01*
X93245000Y-141076310D01*
X93245000Y-139985750D01*
X93086250Y-139827000D01*
X91487000Y-139827000D01*
X91233000Y-139827000D01*
X89633750Y-139827000D01*
X89475000Y-139985750D01*
X88253356Y-139985750D01*
X88234250Y-139274565D01*
X87986123Y-138675533D01*
X87693320Y-138546285D01*
X86539605Y-139700000D01*
X86180395Y-139700000D01*
X85026680Y-138546285D01*
X84733877Y-138675533D01*
X84465612Y-139375806D01*
X80647500Y-139375806D01*
X80647500Y-138366680D01*
X85206285Y-138366680D01*
X86360000Y-139520395D01*
X87513715Y-138366680D01*
X87494739Y-138323690D01*
X89475000Y-138323690D01*
X89475000Y-139414250D01*
X89633750Y-139573000D01*
X91233000Y-139573000D01*
X91233000Y-137973750D01*
X91487000Y-137973750D01*
X91487000Y-139573000D01*
X93086250Y-139573000D01*
X93245000Y-139414250D01*
X93245000Y-138493486D01*
X97437389Y-138493486D01*
X97973211Y-139790275D01*
X98964506Y-140783302D01*
X99212612Y-140886325D01*
X98921595Y-141635031D01*
X98939386Y-142444409D01*
X99214894Y-143109545D01*
X99523276Y-143257118D01*
X100785395Y-141995000D01*
X100771253Y-141980858D01*
X100950858Y-141801253D01*
X100965000Y-141815395D01*
X100979143Y-141801253D01*
X101158748Y-141980858D01*
X101144605Y-141995000D01*
X102406724Y-143257118D01*
X102715106Y-143109545D01*
X102937525Y-142537322D01*
X102937389Y-142693486D01*
X103473211Y-143990275D01*
X104464506Y-144983302D01*
X105760358Y-145521386D01*
X107163486Y-145522611D01*
X108460275Y-144986789D01*
X109453302Y-143995494D01*
X109685323Y-143436724D01*
X118967882Y-143436724D01*
X119115455Y-143745106D01*
X119870031Y-144038405D01*
X120679409Y-144020614D01*
X121344545Y-143745106D01*
X121492118Y-143436724D01*
X120230000Y-142174605D01*
X118967882Y-143436724D01*
X109685323Y-143436724D01*
X109991386Y-142699642D01*
X109992611Y-141296514D01*
X109456789Y-139999725D01*
X108500000Y-139041264D01*
X108500000Y-138493486D01*
X116702389Y-138493486D01*
X117238211Y-139790275D01*
X118229506Y-140783302D01*
X118477612Y-140886325D01*
X118186595Y-141635031D01*
X118204386Y-142444409D01*
X118479894Y-143109545D01*
X118788276Y-143257118D01*
X120050395Y-141995000D01*
X120036253Y-141980858D01*
X120215858Y-141801253D01*
X120230000Y-141815395D01*
X120244143Y-141801253D01*
X120423748Y-141980858D01*
X120409605Y-141995000D01*
X121671724Y-143257118D01*
X121980106Y-143109545D01*
X122202525Y-142537322D01*
X122202389Y-142693486D01*
X122738211Y-143990275D01*
X123729506Y-144983302D01*
X125025358Y-145521386D01*
X126428486Y-145522611D01*
X127725275Y-144986789D01*
X128718302Y-143995494D01*
X129256386Y-142699642D01*
X129257611Y-141296514D01*
X128721789Y-139999725D01*
X127765000Y-139041264D01*
X127765000Y-138080750D01*
X127606250Y-137922000D01*
X125857000Y-137922000D01*
X125857000Y-137942000D01*
X125603000Y-137942000D01*
X125603000Y-137922000D01*
X125583000Y-137922000D01*
X125583000Y-137668000D01*
X125603000Y-137668000D01*
X125603000Y-135918750D01*
X125857000Y-135918750D01*
X125857000Y-137668000D01*
X127606250Y-137668000D01*
X127765000Y-137509250D01*
X127765000Y-136268691D01*
X127668327Y-136035302D01*
X127489699Y-135856673D01*
X127256310Y-135760000D01*
X126015750Y-135760000D01*
X125857000Y-135918750D01*
X125603000Y-135918750D01*
X125444250Y-135760000D01*
X124203690Y-135760000D01*
X123970301Y-135856673D01*
X123791673Y-136035302D01*
X123695000Y-136268691D01*
X123695000Y-136944984D01*
X123221789Y-135799725D01*
X122230494Y-134806698D01*
X120934642Y-134268614D01*
X119531514Y-134267389D01*
X118234725Y-134803211D01*
X117241698Y-135794506D01*
X116703614Y-137090358D01*
X116702389Y-138493486D01*
X108500000Y-138493486D01*
X108500000Y-138080750D01*
X108341250Y-137922000D01*
X106592000Y-137922000D01*
X106592000Y-137942000D01*
X106338000Y-137942000D01*
X106338000Y-137922000D01*
X106318000Y-137922000D01*
X106318000Y-137668000D01*
X106338000Y-137668000D01*
X106338000Y-135918750D01*
X106592000Y-135918750D01*
X106592000Y-137668000D01*
X108341250Y-137668000D01*
X108500000Y-137509250D01*
X108500000Y-136268691D01*
X108403327Y-136035302D01*
X108224699Y-135856673D01*
X107991310Y-135760000D01*
X106750750Y-135760000D01*
X106592000Y-135918750D01*
X106338000Y-135918750D01*
X106179250Y-135760000D01*
X104938690Y-135760000D01*
X104705301Y-135856673D01*
X104526673Y-136035302D01*
X104430000Y-136268691D01*
X104430000Y-136944984D01*
X103956789Y-135799725D01*
X102965494Y-134806698D01*
X101669642Y-134268614D01*
X100266514Y-134267389D01*
X98969725Y-134803211D01*
X97976698Y-135794506D01*
X97438614Y-137090358D01*
X97437389Y-138493486D01*
X93245000Y-138493486D01*
X93245000Y-138323690D01*
X93148327Y-138090301D01*
X92969698Y-137911673D01*
X92736309Y-137815000D01*
X91645750Y-137815000D01*
X91487000Y-137973750D01*
X91233000Y-137973750D01*
X91074250Y-137815000D01*
X89983691Y-137815000D01*
X89750302Y-137911673D01*
X89571673Y-138090301D01*
X89475000Y-138323690D01*
X87494739Y-138323690D01*
X87384467Y-138073877D01*
X86684194Y-137805612D01*
X85934565Y-137825750D01*
X85335533Y-138073877D01*
X85206285Y-138366680D01*
X80647500Y-138366680D01*
X80647500Y-125059466D01*
X108097476Y-125059466D01*
X108557338Y-126172417D01*
X109408104Y-127024669D01*
X110520251Y-127486473D01*
X111724466Y-127487524D01*
X112316582Y-127242867D01*
X111735331Y-127823104D01*
X111273527Y-128935251D01*
X111272476Y-130139466D01*
X111732338Y-131252417D01*
X112583104Y-132104669D01*
X113695251Y-132566473D01*
X114899466Y-132567524D01*
X115868808Y-132167000D01*
X126833594Y-132167000D01*
X127675240Y-132516482D01*
X128859564Y-132517516D01*
X129540323Y-132236232D01*
X130215240Y-132516482D01*
X131399564Y-132517516D01*
X132494132Y-132065249D01*
X133332306Y-131228537D01*
X133416798Y-131025059D01*
X133644089Y-131025257D01*
X134190086Y-130799656D01*
X134608188Y-130382283D01*
X134834742Y-129836681D01*
X134835257Y-129245911D01*
X134609656Y-128699914D01*
X134192283Y-128281812D01*
X133646681Y-128055258D01*
X133417553Y-128055058D01*
X133335249Y-127855868D01*
X132498537Y-127017694D01*
X132457175Y-127000519D01*
X132494132Y-126985249D01*
X133332306Y-126148537D01*
X133416798Y-125945059D01*
X133644089Y-125945257D01*
X134190086Y-125719656D01*
X134608188Y-125302283D01*
X134834742Y-124756681D01*
X134835257Y-124165911D01*
X134609656Y-123619914D01*
X134192283Y-123201812D01*
X133646681Y-122975258D01*
X133417553Y-122975058D01*
X133335249Y-122775868D01*
X132498537Y-121937694D01*
X131404760Y-121483518D01*
X130220436Y-121482484D01*
X129539677Y-121763768D01*
X128864760Y-121483518D01*
X127680436Y-121482484D01*
X126832124Y-121833000D01*
X112691786Y-121833000D01*
X111729749Y-121433527D01*
X110525534Y-121432476D01*
X109412583Y-121892338D01*
X108560331Y-122743104D01*
X108098527Y-123855251D01*
X108097476Y-125059466D01*
X80647500Y-125059466D01*
X80647500Y-89163290D01*
X125912372Y-89163290D01*
X126463386Y-90496846D01*
X127482787Y-91518028D01*
X128815380Y-92071369D01*
X130258290Y-92072628D01*
X131591846Y-91521614D01*
X132613028Y-90502213D01*
X133166369Y-89169620D01*
X133167628Y-87726710D01*
X132616614Y-86393154D01*
X131597213Y-85371972D01*
X130264620Y-84818631D01*
X128821710Y-84817372D01*
X127488154Y-85368386D01*
X126466972Y-86387787D01*
X125913631Y-87720380D01*
X125912372Y-89163290D01*
X80647500Y-89163290D01*
X80647500Y-81730000D01*
X115141330Y-81730000D01*
X115141330Y-83330000D01*
X115289644Y-84118219D01*
X115755480Y-84842150D01*
X116466266Y-85327809D01*
X117310000Y-85498670D01*
X118910000Y-85498670D01*
X119698219Y-85350356D01*
X120422150Y-84884520D01*
X120907809Y-84173734D01*
X121078670Y-83330000D01*
X121078670Y-81730000D01*
X120930356Y-80941781D01*
X120464520Y-80217850D01*
X119753734Y-79732191D01*
X118910000Y-79561330D01*
X117310000Y-79561330D01*
X116521781Y-79709644D01*
X115797850Y-80175480D01*
X115312191Y-80886266D01*
X115141330Y-81730000D01*
X80647500Y-81730000D01*
X80647500Y-77515750D01*
X128055000Y-77515750D01*
X128055000Y-78206309D01*
X128151673Y-78439698D01*
X128330301Y-78618327D01*
X128563690Y-78715000D01*
X129254250Y-78715000D01*
X129413000Y-78556250D01*
X129413000Y-77357000D01*
X129667000Y-77357000D01*
X129667000Y-78556250D01*
X129825750Y-78715000D01*
X130516310Y-78715000D01*
X130749699Y-78618327D01*
X130928327Y-78439698D01*
X130996978Y-78273958D01*
X135025647Y-78273958D01*
X135105920Y-78525259D01*
X135661279Y-78726718D01*
X136251458Y-78700315D01*
X136674080Y-78525259D01*
X136754353Y-78273958D01*
X135890000Y-77409605D01*
X135025647Y-78273958D01*
X130996978Y-78273958D01*
X131025000Y-78206309D01*
X131025000Y-77515750D01*
X130866250Y-77357000D01*
X129667000Y-77357000D01*
X129413000Y-77357000D01*
X128213750Y-77357000D01*
X128055000Y-77515750D01*
X80647500Y-77515750D01*
X80647500Y-76253691D01*
X128055000Y-76253691D01*
X128055000Y-76944250D01*
X128213750Y-77103000D01*
X129413000Y-77103000D01*
X129413000Y-75903750D01*
X129667000Y-75903750D01*
X129667000Y-77103000D01*
X130866250Y-77103000D01*
X130967971Y-77001279D01*
X134393282Y-77001279D01*
X134419685Y-77591458D01*
X134594741Y-78014080D01*
X134846042Y-78094353D01*
X135710395Y-77230000D01*
X136069605Y-77230000D01*
X136933958Y-78094353D01*
X137185259Y-78014080D01*
X137386718Y-77458721D01*
X137360315Y-76868542D01*
X137185259Y-76445920D01*
X136933958Y-76365647D01*
X136069605Y-77230000D01*
X135710395Y-77230000D01*
X134846042Y-76365647D01*
X134594741Y-76445920D01*
X134393282Y-77001279D01*
X130967971Y-77001279D01*
X131025000Y-76944250D01*
X131025000Y-76253691D01*
X130996979Y-76186042D01*
X135025647Y-76186042D01*
X135890000Y-77050395D01*
X136754353Y-76186042D01*
X136674080Y-75934741D01*
X136118721Y-75733282D01*
X135528542Y-75759685D01*
X135105920Y-75934741D01*
X135025647Y-76186042D01*
X130996979Y-76186042D01*
X130928327Y-76020302D01*
X130749699Y-75841673D01*
X130516310Y-75745000D01*
X129825750Y-75745000D01*
X129667000Y-75903750D01*
X129413000Y-75903750D01*
X129254250Y-75745000D01*
X128563690Y-75745000D01*
X128330301Y-75841673D01*
X128151673Y-76020302D01*
X128055000Y-76253691D01*
X80647500Y-76253691D01*
X80647500Y-64528290D01*
X96512372Y-64528290D01*
X97063386Y-65861846D01*
X98082787Y-66883028D01*
X99111936Y-67310368D01*
X98088154Y-67733386D01*
X97066972Y-68752787D01*
X96513631Y-70085380D01*
X96512372Y-71528290D01*
X97063386Y-72861846D01*
X98082787Y-73883028D01*
X99415380Y-74436369D01*
X100858290Y-74437628D01*
X102191846Y-73886614D01*
X103213028Y-72867213D01*
X103766369Y-71534620D01*
X103767628Y-70091710D01*
X103216614Y-68758154D01*
X102197213Y-67736972D01*
X101168064Y-67309632D01*
X102191846Y-66886614D01*
X103213028Y-65867213D01*
X103766369Y-64534620D01*
X103766374Y-64528290D01*
X104512372Y-64528290D01*
X105063386Y-65861846D01*
X106082787Y-66883028D01*
X107111936Y-67310368D01*
X106088154Y-67733386D01*
X105066972Y-68752787D01*
X104513631Y-70085380D01*
X104512372Y-71528290D01*
X105063386Y-72861846D01*
X106082787Y-73883028D01*
X107415380Y-74436369D01*
X108858290Y-74437628D01*
X110191846Y-73886614D01*
X111070823Y-73009169D01*
X121332968Y-73009169D01*
X121807945Y-74158701D01*
X122686673Y-75038964D01*
X123835374Y-75515947D01*
X125079169Y-75517032D01*
X126228701Y-75042055D01*
X127108964Y-74163327D01*
X127585947Y-73014626D01*
X127587032Y-71770831D01*
X127112055Y-70621299D01*
X126233327Y-69741036D01*
X125977965Y-69635000D01*
X154461330Y-69635000D01*
X154461330Y-71335000D01*
X154609644Y-72123219D01*
X155075480Y-72847150D01*
X155570110Y-73185116D01*
X154957694Y-73796463D01*
X154503518Y-74890240D01*
X154502484Y-76074564D01*
X154954751Y-77169132D01*
X155791463Y-78007306D01*
X156885240Y-78461482D01*
X158069564Y-78462516D01*
X159164132Y-78010249D01*
X160002306Y-77173537D01*
X160456482Y-76079760D01*
X160457516Y-74895436D01*
X160005249Y-73800868D01*
X159387524Y-73182063D01*
X159842150Y-72889520D01*
X160327809Y-72178734D01*
X160498670Y-71335000D01*
X160498670Y-69635000D01*
X160350356Y-68846781D01*
X159884520Y-68122850D01*
X159173734Y-67637191D01*
X158330000Y-67466330D01*
X156630000Y-67466330D01*
X155841781Y-67614644D01*
X155117850Y-68080480D01*
X154632191Y-68791266D01*
X154461330Y-69635000D01*
X125977965Y-69635000D01*
X125084626Y-69264053D01*
X123840831Y-69262968D01*
X122691299Y-69737945D01*
X121811036Y-70616673D01*
X121334053Y-71765374D01*
X121332968Y-73009169D01*
X111070823Y-73009169D01*
X111213028Y-72867213D01*
X111766369Y-71534620D01*
X111767628Y-70091710D01*
X111216614Y-68758154D01*
X110197213Y-67736972D01*
X109168064Y-67309632D01*
X110191846Y-66886614D01*
X111213028Y-65867213D01*
X111766369Y-64534620D01*
X111767628Y-63091710D01*
X111651089Y-62809662D01*
X115182493Y-62809662D01*
X115627164Y-63885846D01*
X116449823Y-64709943D01*
X117525229Y-65156490D01*
X118689662Y-65157507D01*
X119765846Y-64712836D01*
X120589943Y-63890177D01*
X121022206Y-62849169D01*
X121332968Y-62849169D01*
X121807945Y-63998701D01*
X122686673Y-64878964D01*
X123835374Y-65355947D01*
X125079169Y-65357032D01*
X126228701Y-64882055D01*
X127106373Y-64005914D01*
X127851463Y-64752306D01*
X128945240Y-65206482D01*
X130129564Y-65207516D01*
X131224132Y-64755249D01*
X132062306Y-63918537D01*
X132516482Y-62824760D01*
X132517516Y-61640436D01*
X132409906Y-61380000D01*
X132871330Y-61380000D01*
X132871330Y-63080000D01*
X133019644Y-63868219D01*
X133485480Y-64592150D01*
X134196266Y-65077809D01*
X135040000Y-65248670D01*
X136740000Y-65248670D01*
X137528219Y-65100356D01*
X138252150Y-64634520D01*
X138737809Y-63923734D01*
X138908670Y-63080000D01*
X138908670Y-61380000D01*
X138760356Y-60591781D01*
X138294520Y-59867850D01*
X137583734Y-59382191D01*
X136740000Y-59211330D01*
X135040000Y-59211330D01*
X134251781Y-59359644D01*
X133527850Y-59825480D01*
X133042191Y-60536266D01*
X132871330Y-61380000D01*
X132409906Y-61380000D01*
X132065249Y-60545868D01*
X131228537Y-59707694D01*
X130134760Y-59253518D01*
X128950436Y-59252484D01*
X127855868Y-59704751D01*
X127105039Y-60454271D01*
X126233327Y-59581036D01*
X125084626Y-59104053D01*
X123840831Y-59102968D01*
X122691299Y-59577945D01*
X121811036Y-60456673D01*
X121334053Y-61605374D01*
X121332968Y-62849169D01*
X121022206Y-62849169D01*
X121036490Y-62814771D01*
X121037507Y-61650338D01*
X120592836Y-60574154D01*
X119770177Y-59750057D01*
X118694771Y-59303510D01*
X117530338Y-59302493D01*
X116454154Y-59747164D01*
X115630057Y-60569823D01*
X115183510Y-61645229D01*
X115182493Y-62809662D01*
X111651089Y-62809662D01*
X111216614Y-61758154D01*
X110197213Y-60736972D01*
X108864620Y-60183631D01*
X107421710Y-60182372D01*
X106088154Y-60733386D01*
X105066972Y-61752787D01*
X104513631Y-63085380D01*
X104512372Y-64528290D01*
X103766374Y-64528290D01*
X103767628Y-63091710D01*
X103216614Y-61758154D01*
X102197213Y-60736972D01*
X100864620Y-60183631D01*
X99421710Y-60182372D01*
X98088154Y-60733386D01*
X97066972Y-61752787D01*
X96513631Y-63085380D01*
X96512372Y-64528290D01*
X80647500Y-64528290D01*
X80647500Y-52707106D01*
X82707106Y-50647500D01*
X197327894Y-50647500D01*
X199352500Y-52672106D01*
X199352500Y-52672106D01*
G37*
X199352500Y-52672106D02*
X199352500Y-77502894D01*
X196972394Y-79883000D01*
X176990000Y-79883000D01*
X176940590Y-79893006D01*
X176900197Y-79920197D01*
X173900197Y-82920197D01*
X173872334Y-82962211D01*
X173863000Y-83010000D01*
X173863000Y-90292394D01*
X170937394Y-93218000D01*
X147516436Y-93218000D01*
X147960418Y-93034550D01*
X148911212Y-92085414D01*
X149426412Y-90844674D01*
X149427585Y-89501220D01*
X148914550Y-88259582D01*
X148285801Y-87629735D01*
X148911212Y-87005414D01*
X149426412Y-85764674D01*
X149426474Y-85693539D01*
X154502484Y-85693539D01*
X154954751Y-86788107D01*
X155791463Y-87626281D01*
X156885240Y-88080457D01*
X158069564Y-88081491D01*
X159164132Y-87629224D01*
X160002306Y-86792512D01*
X160456482Y-85698735D01*
X160457516Y-84514411D01*
X160005249Y-83419843D01*
X159168537Y-82581669D01*
X158074760Y-82127493D01*
X156890436Y-82126459D01*
X155795868Y-82578726D01*
X154957694Y-83415438D01*
X154503518Y-84509215D01*
X154502484Y-85693539D01*
X149426474Y-85693539D01*
X149427585Y-84421220D01*
X148914550Y-83179582D01*
X148285801Y-82549735D01*
X148911212Y-81925414D01*
X149426412Y-80684674D01*
X149427585Y-79341220D01*
X148914550Y-78099582D01*
X148285801Y-77469735D01*
X148911212Y-76845414D01*
X149426412Y-75604674D01*
X149427585Y-74261220D01*
X148914550Y-73019582D01*
X147965414Y-72068788D01*
X146724674Y-71553588D01*
X145381220Y-71552415D01*
X144139582Y-72065450D01*
X143188788Y-73014586D01*
X142673588Y-74255326D01*
X142672415Y-75598780D01*
X143185450Y-76840418D01*
X143814199Y-77470265D01*
X143188788Y-78094586D01*
X142673588Y-79335326D01*
X142672415Y-80678780D01*
X143185450Y-81920418D01*
X143814199Y-82550265D01*
X143188788Y-83174586D01*
X142673588Y-84415326D01*
X142672415Y-85758780D01*
X143185450Y-87000418D01*
X143814199Y-87630265D01*
X143188788Y-88254586D01*
X142673588Y-89495326D01*
X142672415Y-90838780D01*
X143185450Y-92080418D01*
X144134586Y-93031212D01*
X144584422Y-93218000D01*
X138255000Y-93218000D01*
X138205590Y-93228006D01*
X138165197Y-93255197D01*
X135165197Y-96255197D01*
X135137334Y-96297211D01*
X135128000Y-96345000D01*
X135128000Y-96642394D01*
X132202394Y-99568000D01*
X131525111Y-99568000D01*
X131525343Y-99301891D01*
X131223782Y-98572057D01*
X130665880Y-98013181D01*
X129936573Y-97710346D01*
X129146891Y-97709657D01*
X128417057Y-98011218D01*
X127858181Y-98569120D01*
X127555346Y-99298427D01*
X127555111Y-99568000D01*
X112272606Y-99568000D01*
X109347000Y-96642394D01*
X109347000Y-95075000D01*
X109336994Y-95025590D01*
X109309803Y-94985197D01*
X108304606Y-93980000D01*
X115306330Y-93980000D01*
X115306330Y-96520000D01*
X115454644Y-97308219D01*
X115920480Y-98032150D01*
X116631266Y-98517809D01*
X117475000Y-98688670D01*
X120015000Y-98688670D01*
X120803219Y-98540356D01*
X121527150Y-98074520D01*
X122012809Y-97363734D01*
X122183670Y-96520000D01*
X122183670Y-93980000D01*
X122035356Y-93191781D01*
X121569520Y-92467850D01*
X120858734Y-91982191D01*
X120015000Y-91811330D01*
X117475000Y-91811330D01*
X116686781Y-91959644D01*
X115962850Y-92425480D01*
X115477191Y-93136266D01*
X115306330Y-93980000D01*
X108304606Y-93980000D01*
X106309803Y-91985197D01*
X106267789Y-91957334D01*
X106220000Y-91948000D01*
X100790000Y-91948000D01*
X100740590Y-91958006D01*
X100700197Y-91985197D01*
X97700197Y-94985197D01*
X97672334Y-95027211D01*
X97663000Y-95075000D01*
X97663000Y-104950000D01*
X97673006Y-104999410D01*
X97700197Y-105039803D01*
X100700197Y-108039803D01*
X100742211Y-108067666D01*
X100790000Y-108077000D01*
X116353934Y-108077000D01*
X115866843Y-108563242D01*
X115348591Y-109811331D01*
X115347412Y-111162741D01*
X115863484Y-112411732D01*
X116818242Y-113368157D01*
X118066331Y-113886409D01*
X119417741Y-113887588D01*
X120666732Y-113371516D01*
X121623157Y-112416758D01*
X122141409Y-111168669D01*
X122142588Y-109817259D01*
X121626516Y-108568268D01*
X121136104Y-108077000D01*
X127279176Y-108077000D01*
X126466972Y-108887787D01*
X125913631Y-110220380D01*
X125912372Y-111663290D01*
X126463386Y-112996846D01*
X127482787Y-114018028D01*
X128815380Y-114571369D01*
X130258290Y-114572628D01*
X131591846Y-114021614D01*
X132613028Y-113002213D01*
X133166369Y-111669620D01*
X133167628Y-110226710D01*
X132616614Y-108893154D01*
X131801883Y-108077000D01*
X132202394Y-108077000D01*
X135128000Y-111002606D01*
X135128000Y-146807394D01*
X132582894Y-149352500D01*
X82682106Y-149352500D01*
X80647500Y-147317894D01*
X80647500Y-143436724D01*
X99702882Y-143436724D01*
X99850455Y-143745106D01*
X100605031Y-144038405D01*
X101414409Y-144020614D01*
X102079545Y-143745106D01*
X102227118Y-143436724D01*
X100965000Y-142174605D01*
X99702882Y-143436724D01*
X80647500Y-143436724D01*
X80647500Y-141033320D01*
X85206285Y-141033320D01*
X85335533Y-141326123D01*
X86035806Y-141594388D01*
X86785435Y-141574250D01*
X87384467Y-141326123D01*
X87513715Y-141033320D01*
X86360000Y-139879605D01*
X85206285Y-141033320D01*
X80647500Y-141033320D01*
X80647500Y-139375806D01*
X84465612Y-139375806D01*
X84485750Y-140125435D01*
X84733877Y-140724467D01*
X85026680Y-140853715D01*
X86180395Y-139700000D01*
X86539605Y-139700000D01*
X87693320Y-140853715D01*
X87986123Y-140724467D01*
X88254388Y-140024194D01*
X88253356Y-139985750D01*
X89475000Y-139985750D01*
X89475000Y-141076310D01*
X89571673Y-141309699D01*
X89750302Y-141488327D01*
X89983691Y-141585000D01*
X91074250Y-141585000D01*
X91233000Y-141426250D01*
X91233000Y-139827000D01*
X91487000Y-139827000D01*
X91487000Y-141426250D01*
X91645750Y-141585000D01*
X92736309Y-141585000D01*
X92969698Y-141488327D01*
X93148327Y-141309699D01*
X93245000Y-141076310D01*
X93245000Y-139985750D01*
X93086250Y-139827000D01*
X91487000Y-139827000D01*
X91233000Y-139827000D01*
X89633750Y-139827000D01*
X89475000Y-139985750D01*
X88253356Y-139985750D01*
X88234250Y-139274565D01*
X87986123Y-138675533D01*
X87693320Y-138546285D01*
X86539605Y-139700000D01*
X86180395Y-139700000D01*
X85026680Y-138546285D01*
X84733877Y-138675533D01*
X84465612Y-139375806D01*
X80647500Y-139375806D01*
X80647500Y-138366680D01*
X85206285Y-138366680D01*
X86360000Y-139520395D01*
X87513715Y-138366680D01*
X87494739Y-138323690D01*
X89475000Y-138323690D01*
X89475000Y-139414250D01*
X89633750Y-139573000D01*
X91233000Y-139573000D01*
X91233000Y-137973750D01*
X91487000Y-137973750D01*
X91487000Y-139573000D01*
X93086250Y-139573000D01*
X93245000Y-139414250D01*
X93245000Y-138493486D01*
X97437389Y-138493486D01*
X97973211Y-139790275D01*
X98964506Y-140783302D01*
X99212612Y-140886325D01*
X98921595Y-141635031D01*
X98939386Y-142444409D01*
X99214894Y-143109545D01*
X99523276Y-143257118D01*
X100785395Y-141995000D01*
X100771253Y-141980858D01*
X100950858Y-141801253D01*
X100965000Y-141815395D01*
X100979143Y-141801253D01*
X101158748Y-141980858D01*
X101144605Y-141995000D01*
X102406724Y-143257118D01*
X102715106Y-143109545D01*
X102937525Y-142537322D01*
X102937389Y-142693486D01*
X103473211Y-143990275D01*
X104464506Y-144983302D01*
X105760358Y-145521386D01*
X107163486Y-145522611D01*
X108460275Y-144986789D01*
X109453302Y-143995494D01*
X109685323Y-143436724D01*
X118967882Y-143436724D01*
X119115455Y-143745106D01*
X119870031Y-144038405D01*
X120679409Y-144020614D01*
X121344545Y-143745106D01*
X121492118Y-143436724D01*
X120230000Y-142174605D01*
X118967882Y-143436724D01*
X109685323Y-143436724D01*
X109991386Y-142699642D01*
X109992611Y-141296514D01*
X109456789Y-139999725D01*
X108500000Y-139041264D01*
X108500000Y-138493486D01*
X116702389Y-138493486D01*
X117238211Y-139790275D01*
X118229506Y-140783302D01*
X118477612Y-140886325D01*
X118186595Y-141635031D01*
X118204386Y-142444409D01*
X118479894Y-143109545D01*
X118788276Y-143257118D01*
X120050395Y-141995000D01*
X120036253Y-141980858D01*
X120215858Y-141801253D01*
X120230000Y-141815395D01*
X120244143Y-141801253D01*
X120423748Y-141980858D01*
X120409605Y-141995000D01*
X121671724Y-143257118D01*
X121980106Y-143109545D01*
X122202525Y-142537322D01*
X122202389Y-142693486D01*
X122738211Y-143990275D01*
X123729506Y-144983302D01*
X125025358Y-145521386D01*
X126428486Y-145522611D01*
X127725275Y-144986789D01*
X128718302Y-143995494D01*
X129256386Y-142699642D01*
X129257611Y-141296514D01*
X128721789Y-139999725D01*
X127765000Y-139041264D01*
X127765000Y-138080750D01*
X127606250Y-137922000D01*
X125857000Y-137922000D01*
X125857000Y-137942000D01*
X125603000Y-137942000D01*
X125603000Y-137922000D01*
X125583000Y-137922000D01*
X125583000Y-137668000D01*
X125603000Y-137668000D01*
X125603000Y-135918750D01*
X125857000Y-135918750D01*
X125857000Y-137668000D01*
X127606250Y-137668000D01*
X127765000Y-137509250D01*
X127765000Y-136268691D01*
X127668327Y-136035302D01*
X127489699Y-135856673D01*
X127256310Y-135760000D01*
X126015750Y-135760000D01*
X125857000Y-135918750D01*
X125603000Y-135918750D01*
X125444250Y-135760000D01*
X124203690Y-135760000D01*
X123970301Y-135856673D01*
X123791673Y-136035302D01*
X123695000Y-136268691D01*
X123695000Y-136944984D01*
X123221789Y-135799725D01*
X122230494Y-134806698D01*
X120934642Y-134268614D01*
X119531514Y-134267389D01*
X118234725Y-134803211D01*
X117241698Y-135794506D01*
X116703614Y-137090358D01*
X116702389Y-138493486D01*
X108500000Y-138493486D01*
X108500000Y-138080750D01*
X108341250Y-137922000D01*
X106592000Y-137922000D01*
X106592000Y-137942000D01*
X106338000Y-137942000D01*
X106338000Y-137922000D01*
X106318000Y-137922000D01*
X106318000Y-137668000D01*
X106338000Y-137668000D01*
X106338000Y-135918750D01*
X106592000Y-135918750D01*
X106592000Y-137668000D01*
X108341250Y-137668000D01*
X108500000Y-137509250D01*
X108500000Y-136268691D01*
X108403327Y-136035302D01*
X108224699Y-135856673D01*
X107991310Y-135760000D01*
X106750750Y-135760000D01*
X106592000Y-135918750D01*
X106338000Y-135918750D01*
X106179250Y-135760000D01*
X104938690Y-135760000D01*
X104705301Y-135856673D01*
X104526673Y-136035302D01*
X104430000Y-136268691D01*
X104430000Y-136944984D01*
X103956789Y-135799725D01*
X102965494Y-134806698D01*
X101669642Y-134268614D01*
X100266514Y-134267389D01*
X98969725Y-134803211D01*
X97976698Y-135794506D01*
X97438614Y-137090358D01*
X97437389Y-138493486D01*
X93245000Y-138493486D01*
X93245000Y-138323690D01*
X93148327Y-138090301D01*
X92969698Y-137911673D01*
X92736309Y-137815000D01*
X91645750Y-137815000D01*
X91487000Y-137973750D01*
X91233000Y-137973750D01*
X91074250Y-137815000D01*
X89983691Y-137815000D01*
X89750302Y-137911673D01*
X89571673Y-138090301D01*
X89475000Y-138323690D01*
X87494739Y-138323690D01*
X87384467Y-138073877D01*
X86684194Y-137805612D01*
X85934565Y-137825750D01*
X85335533Y-138073877D01*
X85206285Y-138366680D01*
X80647500Y-138366680D01*
X80647500Y-125059466D01*
X108097476Y-125059466D01*
X108557338Y-126172417D01*
X109408104Y-127024669D01*
X110520251Y-127486473D01*
X111724466Y-127487524D01*
X112316582Y-127242867D01*
X111735331Y-127823104D01*
X111273527Y-128935251D01*
X111272476Y-130139466D01*
X111732338Y-131252417D01*
X112583104Y-132104669D01*
X113695251Y-132566473D01*
X114899466Y-132567524D01*
X115868808Y-132167000D01*
X126833594Y-132167000D01*
X127675240Y-132516482D01*
X128859564Y-132517516D01*
X129540323Y-132236232D01*
X130215240Y-132516482D01*
X131399564Y-132517516D01*
X132494132Y-132065249D01*
X133332306Y-131228537D01*
X133416798Y-131025059D01*
X133644089Y-131025257D01*
X134190086Y-130799656D01*
X134608188Y-130382283D01*
X134834742Y-129836681D01*
X134835257Y-129245911D01*
X134609656Y-128699914D01*
X134192283Y-128281812D01*
X133646681Y-128055258D01*
X133417553Y-128055058D01*
X133335249Y-127855868D01*
X132498537Y-127017694D01*
X132457175Y-127000519D01*
X132494132Y-126985249D01*
X133332306Y-126148537D01*
X133416798Y-125945059D01*
X133644089Y-125945257D01*
X134190086Y-125719656D01*
X134608188Y-125302283D01*
X134834742Y-124756681D01*
X134835257Y-124165911D01*
X134609656Y-123619914D01*
X134192283Y-123201812D01*
X133646681Y-122975258D01*
X133417553Y-122975058D01*
X133335249Y-122775868D01*
X132498537Y-121937694D01*
X131404760Y-121483518D01*
X130220436Y-121482484D01*
X129539677Y-121763768D01*
X128864760Y-121483518D01*
X127680436Y-121482484D01*
X126832124Y-121833000D01*
X112691786Y-121833000D01*
X111729749Y-121433527D01*
X110525534Y-121432476D01*
X109412583Y-121892338D01*
X108560331Y-122743104D01*
X108098527Y-123855251D01*
X108097476Y-125059466D01*
X80647500Y-125059466D01*
X80647500Y-89163290D01*
X125912372Y-89163290D01*
X126463386Y-90496846D01*
X127482787Y-91518028D01*
X128815380Y-92071369D01*
X130258290Y-92072628D01*
X131591846Y-91521614D01*
X132613028Y-90502213D01*
X133166369Y-89169620D01*
X133167628Y-87726710D01*
X132616614Y-86393154D01*
X131597213Y-85371972D01*
X130264620Y-84818631D01*
X128821710Y-84817372D01*
X127488154Y-85368386D01*
X126466972Y-86387787D01*
X125913631Y-87720380D01*
X125912372Y-89163290D01*
X80647500Y-89163290D01*
X80647500Y-81730000D01*
X115141330Y-81730000D01*
X115141330Y-83330000D01*
X115289644Y-84118219D01*
X115755480Y-84842150D01*
X116466266Y-85327809D01*
X117310000Y-85498670D01*
X118910000Y-85498670D01*
X119698219Y-85350356D01*
X120422150Y-84884520D01*
X120907809Y-84173734D01*
X121078670Y-83330000D01*
X121078670Y-81730000D01*
X120930356Y-80941781D01*
X120464520Y-80217850D01*
X119753734Y-79732191D01*
X118910000Y-79561330D01*
X117310000Y-79561330D01*
X116521781Y-79709644D01*
X115797850Y-80175480D01*
X115312191Y-80886266D01*
X115141330Y-81730000D01*
X80647500Y-81730000D01*
X80647500Y-77515750D01*
X128055000Y-77515750D01*
X128055000Y-78206309D01*
X128151673Y-78439698D01*
X128330301Y-78618327D01*
X128563690Y-78715000D01*
X129254250Y-78715000D01*
X129413000Y-78556250D01*
X129413000Y-77357000D01*
X129667000Y-77357000D01*
X129667000Y-78556250D01*
X129825750Y-78715000D01*
X130516310Y-78715000D01*
X130749699Y-78618327D01*
X130928327Y-78439698D01*
X130996978Y-78273958D01*
X135025647Y-78273958D01*
X135105920Y-78525259D01*
X135661279Y-78726718D01*
X136251458Y-78700315D01*
X136674080Y-78525259D01*
X136754353Y-78273958D01*
X135890000Y-77409605D01*
X135025647Y-78273958D01*
X130996978Y-78273958D01*
X131025000Y-78206309D01*
X131025000Y-77515750D01*
X130866250Y-77357000D01*
X129667000Y-77357000D01*
X129413000Y-77357000D01*
X128213750Y-77357000D01*
X128055000Y-77515750D01*
X80647500Y-77515750D01*
X80647500Y-76253691D01*
X128055000Y-76253691D01*
X128055000Y-76944250D01*
X128213750Y-77103000D01*
X129413000Y-77103000D01*
X129413000Y-75903750D01*
X129667000Y-75903750D01*
X129667000Y-77103000D01*
X130866250Y-77103000D01*
X130967971Y-77001279D01*
X134393282Y-77001279D01*
X134419685Y-77591458D01*
X134594741Y-78014080D01*
X134846042Y-78094353D01*
X135710395Y-77230000D01*
X136069605Y-77230000D01*
X136933958Y-78094353D01*
X137185259Y-78014080D01*
X137386718Y-77458721D01*
X137360315Y-76868542D01*
X137185259Y-76445920D01*
X136933958Y-76365647D01*
X136069605Y-77230000D01*
X135710395Y-77230000D01*
X134846042Y-76365647D01*
X134594741Y-76445920D01*
X134393282Y-77001279D01*
X130967971Y-77001279D01*
X131025000Y-76944250D01*
X131025000Y-76253691D01*
X130996979Y-76186042D01*
X135025647Y-76186042D01*
X135890000Y-77050395D01*
X136754353Y-76186042D01*
X136674080Y-75934741D01*
X136118721Y-75733282D01*
X135528542Y-75759685D01*
X135105920Y-75934741D01*
X135025647Y-76186042D01*
X130996979Y-76186042D01*
X130928327Y-76020302D01*
X130749699Y-75841673D01*
X130516310Y-75745000D01*
X129825750Y-75745000D01*
X129667000Y-75903750D01*
X129413000Y-75903750D01*
X129254250Y-75745000D01*
X128563690Y-75745000D01*
X128330301Y-75841673D01*
X128151673Y-76020302D01*
X128055000Y-76253691D01*
X80647500Y-76253691D01*
X80647500Y-64528290D01*
X96512372Y-64528290D01*
X97063386Y-65861846D01*
X98082787Y-66883028D01*
X99111936Y-67310368D01*
X98088154Y-67733386D01*
X97066972Y-68752787D01*
X96513631Y-70085380D01*
X96512372Y-71528290D01*
X97063386Y-72861846D01*
X98082787Y-73883028D01*
X99415380Y-74436369D01*
X100858290Y-74437628D01*
X102191846Y-73886614D01*
X103213028Y-72867213D01*
X103766369Y-71534620D01*
X103767628Y-70091710D01*
X103216614Y-68758154D01*
X102197213Y-67736972D01*
X101168064Y-67309632D01*
X102191846Y-66886614D01*
X103213028Y-65867213D01*
X103766369Y-64534620D01*
X103766374Y-64528290D01*
X104512372Y-64528290D01*
X105063386Y-65861846D01*
X106082787Y-66883028D01*
X107111936Y-67310368D01*
X106088154Y-67733386D01*
X105066972Y-68752787D01*
X104513631Y-70085380D01*
X104512372Y-71528290D01*
X105063386Y-72861846D01*
X106082787Y-73883028D01*
X107415380Y-74436369D01*
X108858290Y-74437628D01*
X110191846Y-73886614D01*
X111070823Y-73009169D01*
X121332968Y-73009169D01*
X121807945Y-74158701D01*
X122686673Y-75038964D01*
X123835374Y-75515947D01*
X125079169Y-75517032D01*
X126228701Y-75042055D01*
X127108964Y-74163327D01*
X127585947Y-73014626D01*
X127587032Y-71770831D01*
X127112055Y-70621299D01*
X126233327Y-69741036D01*
X125977965Y-69635000D01*
X154461330Y-69635000D01*
X154461330Y-71335000D01*
X154609644Y-72123219D01*
X155075480Y-72847150D01*
X155570110Y-73185116D01*
X154957694Y-73796463D01*
X154503518Y-74890240D01*
X154502484Y-76074564D01*
X154954751Y-77169132D01*
X155791463Y-78007306D01*
X156885240Y-78461482D01*
X158069564Y-78462516D01*
X159164132Y-78010249D01*
X160002306Y-77173537D01*
X160456482Y-76079760D01*
X160457516Y-74895436D01*
X160005249Y-73800868D01*
X159387524Y-73182063D01*
X159842150Y-72889520D01*
X160327809Y-72178734D01*
X160498670Y-71335000D01*
X160498670Y-69635000D01*
X160350356Y-68846781D01*
X159884520Y-68122850D01*
X159173734Y-67637191D01*
X158330000Y-67466330D01*
X156630000Y-67466330D01*
X155841781Y-67614644D01*
X155117850Y-68080480D01*
X154632191Y-68791266D01*
X154461330Y-69635000D01*
X125977965Y-69635000D01*
X125084626Y-69264053D01*
X123840831Y-69262968D01*
X122691299Y-69737945D01*
X121811036Y-70616673D01*
X121334053Y-71765374D01*
X121332968Y-73009169D01*
X111070823Y-73009169D01*
X111213028Y-72867213D01*
X111766369Y-71534620D01*
X111767628Y-70091710D01*
X111216614Y-68758154D01*
X110197213Y-67736972D01*
X109168064Y-67309632D01*
X110191846Y-66886614D01*
X111213028Y-65867213D01*
X111766369Y-64534620D01*
X111767628Y-63091710D01*
X111651089Y-62809662D01*
X115182493Y-62809662D01*
X115627164Y-63885846D01*
X116449823Y-64709943D01*
X117525229Y-65156490D01*
X118689662Y-65157507D01*
X119765846Y-64712836D01*
X120589943Y-63890177D01*
X121022206Y-62849169D01*
X121332968Y-62849169D01*
X121807945Y-63998701D01*
X122686673Y-64878964D01*
X123835374Y-65355947D01*
X125079169Y-65357032D01*
X126228701Y-64882055D01*
X127106373Y-64005914D01*
X127851463Y-64752306D01*
X128945240Y-65206482D01*
X130129564Y-65207516D01*
X131224132Y-64755249D01*
X132062306Y-63918537D01*
X132516482Y-62824760D01*
X132517516Y-61640436D01*
X132409906Y-61380000D01*
X132871330Y-61380000D01*
X132871330Y-63080000D01*
X133019644Y-63868219D01*
X133485480Y-64592150D01*
X134196266Y-65077809D01*
X135040000Y-65248670D01*
X136740000Y-65248670D01*
X137528219Y-65100356D01*
X138252150Y-64634520D01*
X138737809Y-63923734D01*
X138908670Y-63080000D01*
X138908670Y-61380000D01*
X138760356Y-60591781D01*
X138294520Y-59867850D01*
X137583734Y-59382191D01*
X136740000Y-59211330D01*
X135040000Y-59211330D01*
X134251781Y-59359644D01*
X133527850Y-59825480D01*
X133042191Y-60536266D01*
X132871330Y-61380000D01*
X132409906Y-61380000D01*
X132065249Y-60545868D01*
X131228537Y-59707694D01*
X130134760Y-59253518D01*
X128950436Y-59252484D01*
X127855868Y-59704751D01*
X127105039Y-60454271D01*
X126233327Y-59581036D01*
X125084626Y-59104053D01*
X123840831Y-59102968D01*
X122691299Y-59577945D01*
X121811036Y-60456673D01*
X121334053Y-61605374D01*
X121332968Y-62849169D01*
X121022206Y-62849169D01*
X121036490Y-62814771D01*
X121037507Y-61650338D01*
X120592836Y-60574154D01*
X119770177Y-59750057D01*
X118694771Y-59303510D01*
X117530338Y-59302493D01*
X116454154Y-59747164D01*
X115630057Y-60569823D01*
X115183510Y-61645229D01*
X115182493Y-62809662D01*
X111651089Y-62809662D01*
X111216614Y-61758154D01*
X110197213Y-60736972D01*
X108864620Y-60183631D01*
X107421710Y-60182372D01*
X106088154Y-60733386D01*
X105066972Y-61752787D01*
X104513631Y-63085380D01*
X104512372Y-64528290D01*
X103766374Y-64528290D01*
X103767628Y-63091710D01*
X103216614Y-61758154D01*
X102197213Y-60736972D01*
X100864620Y-60183631D01*
X99421710Y-60182372D01*
X98088154Y-60733386D01*
X97066972Y-61752787D01*
X96513631Y-63085380D01*
X96512372Y-64528290D01*
X80647500Y-64528290D01*
X80647500Y-52707106D01*
X82707106Y-50647500D01*
X197327894Y-50647500D01*
X199352500Y-52672106D01*
G36*
X181650594Y-84333600D02*
X181673395Y-84454779D01*
X181745012Y-84566074D01*
X181854286Y-84640738D01*
X181984000Y-84667006D01*
X182231593Y-84667006D01*
X182085680Y-84718046D01*
X181649268Y-85107964D01*
X181395291Y-85635209D01*
X181392642Y-85650974D01*
X181513783Y-85883000D01*
X182873000Y-85883000D01*
X182873000Y-85863000D01*
X183127000Y-85863000D01*
X183127000Y-85883000D01*
X184486217Y-85883000D01*
X184607358Y-85650974D01*
X184604709Y-85635209D01*
X184350732Y-85107964D01*
X183914320Y-84718046D01*
X183768407Y-84667006D01*
X184016000Y-84667006D01*
X184137179Y-84644205D01*
X184248474Y-84572588D01*
X184323138Y-84463314D01*
X184349406Y-84333600D01*
X184349406Y-83312000D01*
X195067394Y-83312000D01*
X197993000Y-86237606D01*
X197993000Y-144902394D01*
X195067394Y-147828000D01*
X140847606Y-147828000D01*
X137923777Y-144904171D01*
X140977891Y-144904171D01*
X141073145Y-145134703D01*
X141249369Y-145311235D01*
X141479735Y-145406891D01*
X141729171Y-145407109D01*
X141850444Y-145357000D01*
X180339995Y-145357000D01*
X180340000Y-145357001D01*
X180560808Y-145313078D01*
X180748001Y-145188001D01*
X181128826Y-144807175D01*
X186517430Y-144807175D01*
X186640565Y-145094788D01*
X187322734Y-145354707D01*
X188052443Y-145333786D01*
X188629435Y-145094788D01*
X188752570Y-144807175D01*
X187635000Y-143689605D01*
X186517430Y-144807175D01*
X181128826Y-144807175D01*
X182738267Y-143197734D01*
X185790293Y-143197734D01*
X185811214Y-143927443D01*
X186050212Y-144504435D01*
X186337825Y-144627570D01*
X187455395Y-143510000D01*
X187814605Y-143510000D01*
X188932175Y-144627570D01*
X189219788Y-144504435D01*
X189479707Y-143822266D01*
X189458786Y-143092557D01*
X189219788Y-142515565D01*
X188932175Y-142392430D01*
X187814605Y-143510000D01*
X187455395Y-143510000D01*
X186337825Y-142392430D01*
X186050212Y-142515565D01*
X185790293Y-143197734D01*
X182738267Y-143197734D01*
X183723176Y-142212825D01*
X186517430Y-142212825D01*
X187635000Y-143330395D01*
X188752570Y-142212825D01*
X188629435Y-141925212D01*
X187947266Y-141665293D01*
X187217557Y-141686214D01*
X186640565Y-141925212D01*
X186517430Y-142212825D01*
X183723176Y-142212825D01*
X186289464Y-139646537D01*
X186409703Y-139596855D01*
X186586235Y-139420631D01*
X186681891Y-139190265D01*
X186682109Y-138940829D01*
X186586855Y-138710297D01*
X186410631Y-138533765D01*
X186180265Y-138438109D01*
X185930829Y-138437891D01*
X185700297Y-138533145D01*
X185523765Y-138709369D01*
X185473445Y-138830554D01*
X180100998Y-144203000D01*
X141850416Y-144203000D01*
X141730265Y-144153109D01*
X141480829Y-144152891D01*
X141250297Y-144248145D01*
X141073765Y-144424369D01*
X140978109Y-144654735D01*
X140977891Y-144904171D01*
X137923777Y-144904171D01*
X137922000Y-144902394D01*
X137922000Y-142417939D01*
X143881344Y-142417939D01*
X144017844Y-142748295D01*
X144270376Y-143001267D01*
X144600493Y-143138344D01*
X144957939Y-143138656D01*
X145288295Y-143002156D01*
X145541267Y-142749624D01*
X145678344Y-142419507D01*
X145678656Y-142062061D01*
X145638145Y-141964016D01*
X152315590Y-141964016D01*
X152371271Y-142194611D01*
X152854078Y-142362622D01*
X153364428Y-142333083D01*
X153698729Y-142194611D01*
X153754410Y-141964016D01*
X153035000Y-141244605D01*
X152315590Y-141964016D01*
X145638145Y-141964016D01*
X145542156Y-141731705D01*
X145289624Y-141478733D01*
X144959507Y-141341656D01*
X144602061Y-141341344D01*
X144271705Y-141477844D01*
X144018733Y-141730376D01*
X143881656Y-142060493D01*
X143881344Y-142417939D01*
X137922000Y-142417939D01*
X137922000Y-140884078D01*
X151737378Y-140884078D01*
X151766917Y-141394428D01*
X151905389Y-141728729D01*
X152135984Y-141784410D01*
X152855395Y-141065000D01*
X153214605Y-141065000D01*
X153934016Y-141784410D01*
X154164611Y-141728729D01*
X154332622Y-141245922D01*
X154306308Y-140791289D01*
X160734400Y-140791289D01*
X160734400Y-141148711D01*
X160825029Y-141604334D01*
X161083119Y-141990592D01*
X161469377Y-142248682D01*
X161925000Y-142339311D01*
X162380623Y-142248682D01*
X162766881Y-141990592D01*
X163024971Y-141604334D01*
X163115600Y-141148711D01*
X163115600Y-140791289D01*
X163274400Y-140791289D01*
X163274400Y-141148711D01*
X163365029Y-141604334D01*
X163623119Y-141990592D01*
X164009377Y-142248682D01*
X164465000Y-142339311D01*
X164920623Y-142248682D01*
X165306881Y-141990592D01*
X165564971Y-141604334D01*
X165655600Y-141148711D01*
X165655600Y-140791289D01*
X165814400Y-140791289D01*
X165814400Y-141148711D01*
X165905029Y-141604334D01*
X166163119Y-141990592D01*
X166549377Y-142248682D01*
X167005000Y-142339311D01*
X167460623Y-142248682D01*
X167846881Y-141990592D01*
X168104971Y-141604334D01*
X168195600Y-141148711D01*
X168195600Y-140791289D01*
X168354400Y-140791289D01*
X168354400Y-141148711D01*
X168445029Y-141604334D01*
X168703119Y-141990592D01*
X169089377Y-142248682D01*
X169545000Y-142339311D01*
X170000623Y-142248682D01*
X170386881Y-141990592D01*
X170644971Y-141604334D01*
X170735600Y-141148711D01*
X170735600Y-140791289D01*
X170644971Y-140335666D01*
X170386881Y-139949408D01*
X170000623Y-139691318D01*
X169545000Y-139600689D01*
X169089377Y-139691318D01*
X168703119Y-139949408D01*
X168445029Y-140335666D01*
X168354400Y-140791289D01*
X168195600Y-140791289D01*
X168104971Y-140335666D01*
X167846881Y-139949408D01*
X167460623Y-139691318D01*
X167005000Y-139600689D01*
X166549377Y-139691318D01*
X166163119Y-139949408D01*
X165905029Y-140335666D01*
X165814400Y-140791289D01*
X165655600Y-140791289D01*
X165564971Y-140335666D01*
X165306881Y-139949408D01*
X164920623Y-139691318D01*
X164465000Y-139600689D01*
X164009377Y-139691318D01*
X163623119Y-139949408D01*
X163365029Y-140335666D01*
X163274400Y-140791289D01*
X163115600Y-140791289D01*
X163024971Y-140335666D01*
X162766881Y-139949408D01*
X162380623Y-139691318D01*
X161925000Y-139600689D01*
X161469377Y-139691318D01*
X161083119Y-139949408D01*
X160825029Y-140335666D01*
X160734400Y-140791289D01*
X154306308Y-140791289D01*
X154303083Y-140735572D01*
X154164611Y-140401271D01*
X153934016Y-140345590D01*
X153214605Y-141065000D01*
X152855395Y-141065000D01*
X152135984Y-140345590D01*
X151905389Y-140401271D01*
X151737378Y-140884078D01*
X137922000Y-140884078D01*
X137922000Y-138637046D01*
X144117559Y-138637046D01*
X144163552Y-138859533D01*
X144617855Y-139014405D01*
X145096844Y-138983633D01*
X145396448Y-138859533D01*
X145442441Y-138637046D01*
X144780000Y-137974605D01*
X144117559Y-138637046D01*
X137922000Y-138637046D01*
X137922000Y-137632855D01*
X143560595Y-137632855D01*
X143591367Y-138111844D01*
X143715467Y-138411448D01*
X143937954Y-138457441D01*
X144600395Y-137795000D01*
X144959605Y-137795000D01*
X145622046Y-138457441D01*
X145827350Y-138415000D01*
X152051594Y-138415000D01*
X152051594Y-139715000D01*
X152074395Y-139836179D01*
X152146012Y-139947474D01*
X152255286Y-140022138D01*
X152345893Y-140040487D01*
X152315590Y-140165984D01*
X153035000Y-140885395D01*
X153754410Y-140165984D01*
X153724236Y-140041023D01*
X153806179Y-140025605D01*
X153917474Y-139953988D01*
X153992138Y-139844714D01*
X154018406Y-139715000D01*
X154018406Y-138415000D01*
X153995605Y-138293821D01*
X153923988Y-138182526D01*
X153814714Y-138107862D01*
X153685000Y-138081594D01*
X152385000Y-138081594D01*
X152263821Y-138104395D01*
X152152526Y-138176012D01*
X152077862Y-138285286D01*
X152051594Y-138415000D01*
X145827350Y-138415000D01*
X145844533Y-138411448D01*
X145999405Y-137957145D01*
X145968633Y-137478156D01*
X145844533Y-137178552D01*
X145622046Y-137132559D01*
X144959605Y-137795000D01*
X144600395Y-137795000D01*
X143937954Y-137132559D01*
X143715467Y-137178552D01*
X143560595Y-137632855D01*
X137922000Y-137632855D01*
X137922000Y-136952954D01*
X144117559Y-136952954D01*
X144780000Y-137615395D01*
X145442441Y-136952954D01*
X145396448Y-136730467D01*
X144942145Y-136575595D01*
X144463156Y-136606367D01*
X144163552Y-136730467D01*
X144117559Y-136952954D01*
X137922000Y-136952954D01*
X137922000Y-130603497D01*
X138194853Y-130716795D01*
X138663093Y-130717204D01*
X139095846Y-130538394D01*
X139427230Y-130207588D01*
X139606795Y-129775147D01*
X139607204Y-129306907D01*
X139428394Y-128874154D01*
X139097588Y-128542770D01*
X138665147Y-128363205D01*
X138196907Y-128362796D01*
X137922000Y-128476385D01*
X137922000Y-125523497D01*
X138194853Y-125636795D01*
X138663093Y-125637204D01*
X139095846Y-125458394D01*
X139427230Y-125127588D01*
X139464845Y-125037000D01*
X160266150Y-125037001D01*
X165062147Y-129832997D01*
X165062149Y-129833000D01*
X165168577Y-129904112D01*
X165153445Y-129940554D01*
X163421999Y-131671999D01*
X163296922Y-131859192D01*
X163252999Y-132080000D01*
X163253000Y-132080005D01*
X163253000Y-137549584D01*
X163203109Y-137669735D01*
X163202891Y-137919171D01*
X163298145Y-138149703D01*
X163474369Y-138326235D01*
X163704735Y-138421891D01*
X163954171Y-138422109D01*
X164184703Y-138326855D01*
X164361235Y-138150631D01*
X164456891Y-137920265D01*
X164457109Y-137670829D01*
X164407000Y-137549556D01*
X164407000Y-136154016D01*
X165650590Y-136154016D01*
X165706271Y-136384611D01*
X166189078Y-136552622D01*
X166699428Y-136523083D01*
X167033729Y-136384611D01*
X167089410Y-136154016D01*
X166370000Y-135434605D01*
X165650590Y-136154016D01*
X164407000Y-136154016D01*
X164407000Y-135074078D01*
X165072378Y-135074078D01*
X165101917Y-135584428D01*
X165240389Y-135918729D01*
X165470984Y-135974410D01*
X166190395Y-135255000D01*
X166549605Y-135255000D01*
X167269016Y-135974410D01*
X167499611Y-135918729D01*
X167667622Y-135435922D01*
X167638083Y-134925572D01*
X167499611Y-134591271D01*
X167269016Y-134535590D01*
X166549605Y-135255000D01*
X166190395Y-135255000D01*
X165470984Y-134535590D01*
X165240389Y-134591271D01*
X165072378Y-135074078D01*
X164407000Y-135074078D01*
X164407000Y-132319002D01*
X165969464Y-130756537D01*
X166089703Y-130706855D01*
X166266235Y-130530631D01*
X166347917Y-130333918D01*
X166428000Y-130414001D01*
X166428000Y-131230999D01*
X165961999Y-131696999D01*
X165836922Y-131884192D01*
X165792999Y-132105000D01*
X165793000Y-132105005D01*
X165793000Y-132271594D01*
X165720000Y-132271594D01*
X165598821Y-132294395D01*
X165487526Y-132366012D01*
X165412862Y-132475286D01*
X165386594Y-132605000D01*
X165386594Y-133905000D01*
X165409395Y-134026179D01*
X165481012Y-134137474D01*
X165590286Y-134212138D01*
X165680893Y-134230487D01*
X165650590Y-134355984D01*
X166370000Y-135075395D01*
X167089410Y-134355984D01*
X167059236Y-134231023D01*
X167141179Y-134215605D01*
X167252474Y-134143988D01*
X167327138Y-134034714D01*
X167353406Y-133905000D01*
X167353406Y-133904408D01*
X171508000Y-138059002D01*
X171508000Y-139772420D01*
X171243119Y-139949408D01*
X170985029Y-140335666D01*
X170894400Y-140791289D01*
X170894400Y-141148711D01*
X170985029Y-141604334D01*
X171243119Y-141990592D01*
X171629377Y-142248682D01*
X172085000Y-142339311D01*
X172540623Y-142248682D01*
X172926881Y-141990592D01*
X173126400Y-141691991D01*
X173126400Y-142112309D01*
X173223073Y-142345698D01*
X173401701Y-142524327D01*
X173635090Y-142621000D01*
X174339250Y-142621000D01*
X174498000Y-142462250D01*
X174498000Y-141097000D01*
X174752000Y-141097000D01*
X174752000Y-142462250D01*
X174910750Y-142621000D01*
X175614910Y-142621000D01*
X175848299Y-142524327D01*
X176026927Y-142345698D01*
X176123600Y-142112309D01*
X176123600Y-141255750D01*
X175964850Y-141097000D01*
X174752000Y-141097000D01*
X174498000Y-141097000D01*
X174478000Y-141097000D01*
X174478000Y-140843000D01*
X174498000Y-140843000D01*
X174498000Y-139477750D01*
X174752000Y-139477750D01*
X174752000Y-140843000D01*
X175964850Y-140843000D01*
X176123600Y-140684250D01*
X176123600Y-139827691D01*
X176026927Y-139594302D01*
X175848299Y-139415673D01*
X175614910Y-139319000D01*
X174910750Y-139319000D01*
X174752000Y-139477750D01*
X174498000Y-139477750D01*
X174339250Y-139319000D01*
X173635090Y-139319000D01*
X173401701Y-139415673D01*
X173223073Y-139594302D01*
X173126400Y-139827691D01*
X173126400Y-140248009D01*
X172926881Y-139949408D01*
X172662000Y-139772420D01*
X172662000Y-137820005D01*
X172662001Y-137820000D01*
X172618078Y-137599192D01*
X172493001Y-137411999D01*
X172365173Y-137284171D01*
X177172891Y-137284171D01*
X177223000Y-137405444D01*
X177223000Y-140089584D01*
X177173109Y-140209735D01*
X177172891Y-140459171D01*
X177268145Y-140689703D01*
X177444369Y-140866235D01*
X177674735Y-140961891D01*
X177924171Y-140962109D01*
X178154703Y-140866855D01*
X178331235Y-140690631D01*
X178426891Y-140460265D01*
X178427109Y-140210829D01*
X178377000Y-140089556D01*
X178377000Y-137405416D01*
X178426891Y-137285265D01*
X178427109Y-137035829D01*
X178331855Y-136805297D01*
X178155631Y-136628765D01*
X177925265Y-136533109D01*
X177675829Y-136532891D01*
X177445297Y-136628145D01*
X177268765Y-136804369D01*
X177173109Y-137034735D01*
X177172891Y-137284171D01*
X172365173Y-137284171D01*
X170460173Y-135379171D01*
X184157891Y-135379171D01*
X184253145Y-135609703D01*
X184429369Y-135786235D01*
X184659735Y-135881891D01*
X184909171Y-135882109D01*
X185030444Y-135832000D01*
X190260998Y-135832000D01*
X190558000Y-136129001D01*
X190558000Y-142096195D01*
X190271154Y-142214717D01*
X189841227Y-142643894D01*
X189608265Y-143204928D01*
X189607735Y-143812407D01*
X189839717Y-144373846D01*
X190268894Y-144803773D01*
X190829928Y-145036735D01*
X191437407Y-145037265D01*
X191998846Y-144805283D01*
X192428773Y-144376106D01*
X192661735Y-143815072D01*
X192662265Y-143207593D01*
X192430283Y-142646154D01*
X192094716Y-142310000D01*
X193101594Y-142310000D01*
X193101594Y-144710000D01*
X193124395Y-144831179D01*
X193196012Y-144942474D01*
X193305286Y-145017138D01*
X193435000Y-145043406D01*
X195835000Y-145043406D01*
X195956179Y-145020605D01*
X196067474Y-144948988D01*
X196142138Y-144839714D01*
X196168406Y-144710000D01*
X196168406Y-142310000D01*
X196145605Y-142188821D01*
X196073988Y-142077526D01*
X195964714Y-142002862D01*
X195835000Y-141976594D01*
X193435000Y-141976594D01*
X193313821Y-141999395D01*
X193202526Y-142071012D01*
X193127862Y-142180286D01*
X193101594Y-142310000D01*
X192094716Y-142310000D01*
X192001106Y-142216227D01*
X191712000Y-142096180D01*
X191712000Y-135890005D01*
X191712001Y-135890000D01*
X191668078Y-135669192D01*
X191611441Y-135584428D01*
X191543001Y-135481999D01*
X191542998Y-135481997D01*
X190908001Y-134846999D01*
X190720808Y-134721922D01*
X190500000Y-134677999D01*
X190499995Y-134678000D01*
X185030416Y-134678000D01*
X184910265Y-134628109D01*
X184660829Y-134627891D01*
X184430297Y-134723145D01*
X184253765Y-134899369D01*
X184158109Y-135129735D01*
X184157891Y-135379171D01*
X170460173Y-135379171D01*
X167928001Y-132846999D01*
X167740808Y-132721922D01*
X167520000Y-132677999D01*
X167519995Y-132678000D01*
X167353406Y-132678000D01*
X167353406Y-132605000D01*
X167330605Y-132483821D01*
X167258988Y-132372526D01*
X167149714Y-132297862D01*
X167020000Y-132271594D01*
X167019408Y-132271594D01*
X167412998Y-131878003D01*
X167413001Y-131878001D01*
X167538078Y-131690808D01*
X167541819Y-131671999D01*
X167582001Y-131470000D01*
X167582000Y-131469995D01*
X167582000Y-130175005D01*
X167582001Y-130175000D01*
X167538078Y-129954192D01*
X167418445Y-129775147D01*
X167413001Y-129766999D01*
X167412998Y-129766997D01*
X166778001Y-129131999D01*
X166663000Y-129016998D01*
X166603168Y-128977020D01*
X173851452Y-128977020D01*
X173880314Y-129046872D01*
X174056538Y-129223404D01*
X174286904Y-129319060D01*
X174536340Y-129319278D01*
X174766872Y-129224024D01*
X174943404Y-129047800D01*
X174951139Y-129029171D01*
X182887891Y-129029171D01*
X182983145Y-129259703D01*
X183159369Y-129436235D01*
X183389735Y-129531891D01*
X183639171Y-129532109D01*
X183869703Y-129436855D01*
X184046235Y-129260631D01*
X184141891Y-129030265D01*
X184142109Y-128780829D01*
X184092000Y-128659556D01*
X184092000Y-124064002D01*
X184384465Y-123771536D01*
X184504703Y-123721855D01*
X184681235Y-123545631D01*
X184776891Y-123315265D01*
X184777109Y-123065829D01*
X184681855Y-122835297D01*
X184505631Y-122658765D01*
X184275265Y-122563109D01*
X184025829Y-122562891D01*
X183795297Y-122658145D01*
X183618765Y-122834369D01*
X183568445Y-122955554D01*
X183106999Y-123416999D01*
X182981922Y-123604192D01*
X182937999Y-123825000D01*
X182938000Y-123825005D01*
X182938000Y-128659584D01*
X182888109Y-128779735D01*
X182887891Y-129029171D01*
X174951139Y-129029171D01*
X175039060Y-128817434D01*
X175039278Y-128567998D01*
X174944024Y-128337466D01*
X174767800Y-128160934D01*
X174669708Y-128120203D01*
X174687954Y-128108011D01*
X175853964Y-126942000D01*
X176919584Y-126942000D01*
X177039735Y-126991891D01*
X177289171Y-126992109D01*
X177519703Y-126896855D01*
X177696235Y-126720631D01*
X177791891Y-126490265D01*
X177792109Y-126240829D01*
X177696855Y-126010297D01*
X177520631Y-125833765D01*
X177290265Y-125738109D01*
X177040829Y-125737891D01*
X176919556Y-125788000D01*
X176018001Y-125788000D01*
X176769001Y-125037000D01*
X178824584Y-125037000D01*
X178944735Y-125086891D01*
X179194171Y-125087109D01*
X179424703Y-124991855D01*
X179601235Y-124815631D01*
X179696891Y-124585265D01*
X179697109Y-124335829D01*
X179601855Y-124105297D01*
X179425631Y-123928765D01*
X179195265Y-123833109D01*
X178945829Y-123832891D01*
X178824556Y-123883000D01*
X176530000Y-123883000D01*
X176309191Y-123926922D01*
X176242170Y-123971704D01*
X176121999Y-124051999D01*
X176121997Y-124052002D01*
X175872800Y-124301199D01*
X175837000Y-124214556D01*
X175837000Y-122679171D01*
X177617391Y-122679171D01*
X177712645Y-122909703D01*
X177888869Y-123086235D01*
X178119235Y-123181891D01*
X178368671Y-123182109D01*
X178489944Y-123132000D01*
X180339995Y-123132000D01*
X180340000Y-123132001D01*
X180560808Y-123088078D01*
X180748001Y-122963001D01*
X186178010Y-117532991D01*
X186178010Y-122885988D01*
X184550534Y-124513464D01*
X184430297Y-124563145D01*
X184253765Y-124739369D01*
X184158109Y-124969735D01*
X184157891Y-125219171D01*
X184253145Y-125449703D01*
X184429369Y-125626235D01*
X184659735Y-125721891D01*
X184909171Y-125722109D01*
X185139703Y-125626855D01*
X185316235Y-125450631D01*
X185366555Y-125329447D01*
X187163011Y-123532991D01*
X187288088Y-123345798D01*
X187332011Y-123124990D01*
X187332010Y-123124985D01*
X187332010Y-122540000D01*
X192596594Y-122540000D01*
X192596594Y-123840000D01*
X192619395Y-123961179D01*
X192691012Y-124072474D01*
X192800286Y-124147138D01*
X192930000Y-124173406D01*
X194230000Y-124173406D01*
X194351179Y-124150605D01*
X194446890Y-124089016D01*
X194860590Y-124089016D01*
X194916271Y-124319611D01*
X195399078Y-124487622D01*
X195909428Y-124458083D01*
X196243729Y-124319611D01*
X196299410Y-124089016D01*
X195580000Y-123369605D01*
X194860590Y-124089016D01*
X194446890Y-124089016D01*
X194462474Y-124078988D01*
X194537138Y-123969714D01*
X194555487Y-123879107D01*
X194680984Y-123909410D01*
X195400395Y-123190000D01*
X195759605Y-123190000D01*
X196479016Y-123909410D01*
X196709611Y-123853729D01*
X196877622Y-123370922D01*
X196848083Y-122860572D01*
X196709611Y-122526271D01*
X196479016Y-122470590D01*
X195759605Y-123190000D01*
X195400395Y-123190000D01*
X194680984Y-122470590D01*
X194556023Y-122500764D01*
X194540605Y-122418821D01*
X194468988Y-122307526D01*
X194444779Y-122290984D01*
X194860590Y-122290984D01*
X195580000Y-123010395D01*
X196299410Y-122290984D01*
X196243729Y-122060389D01*
X195760922Y-121892378D01*
X195250572Y-121921917D01*
X194916271Y-122060389D01*
X194860590Y-122290984D01*
X194444779Y-122290984D01*
X194359714Y-122232862D01*
X194230000Y-122206594D01*
X192930000Y-122206594D01*
X192808821Y-122229395D01*
X192697526Y-122301012D01*
X192622862Y-122410286D01*
X192596594Y-122540000D01*
X187332010Y-122540000D01*
X187332010Y-97232615D01*
X187332011Y-97232610D01*
X187288088Y-97011802D01*
X187163011Y-96824609D01*
X184302796Y-93964394D01*
X184369311Y-93630000D01*
X184278682Y-93174377D01*
X184020592Y-92788119D01*
X183634334Y-92530029D01*
X183178711Y-92439400D01*
X182821289Y-92439400D01*
X182365666Y-92530029D01*
X181979408Y-92788119D01*
X181721318Y-93174377D01*
X181630689Y-93630000D01*
X181721318Y-94085623D01*
X181979408Y-94471881D01*
X182365666Y-94729971D01*
X182821289Y-94820600D01*
X183178711Y-94820600D01*
X183469213Y-94762815D01*
X186178010Y-97471612D01*
X186178010Y-105999609D01*
X184302796Y-104124394D01*
X184369311Y-103790000D01*
X184278682Y-103334377D01*
X184020592Y-102948119D01*
X183634334Y-102690029D01*
X183178711Y-102599400D01*
X182821289Y-102599400D01*
X182365666Y-102690029D01*
X181979408Y-102948119D01*
X181721318Y-103334377D01*
X181630689Y-103790000D01*
X181721318Y-104245623D01*
X181979408Y-104631881D01*
X182365666Y-104889971D01*
X182821289Y-104980600D01*
X183178711Y-104980600D01*
X183469214Y-104922815D01*
X185478000Y-106931601D01*
X185478000Y-113373000D01*
X184197580Y-113373000D01*
X184020592Y-113108119D01*
X183634334Y-112850029D01*
X183178711Y-112759400D01*
X182821289Y-112759400D01*
X182365666Y-112850029D01*
X181979408Y-113108119D01*
X181721318Y-113494377D01*
X181630689Y-113950000D01*
X181721318Y-114405623D01*
X181979408Y-114791881D01*
X182365666Y-115049971D01*
X182821289Y-115140600D01*
X183178711Y-115140600D01*
X183634334Y-115049971D01*
X184020592Y-114791881D01*
X184197580Y-114527000D01*
X185478000Y-114527000D01*
X185478000Y-116600999D01*
X180100998Y-121978000D01*
X178489916Y-121978000D01*
X178369765Y-121928109D01*
X178120329Y-121927891D01*
X177889797Y-122023145D01*
X177713265Y-122199369D01*
X177617609Y-122429735D01*
X177617391Y-122679171D01*
X175837000Y-122679171D01*
X175837000Y-121524002D01*
X176302998Y-121058003D01*
X176303001Y-121058001D01*
X178493000Y-118868001D01*
X178493000Y-121039584D01*
X178443109Y-121159735D01*
X178442891Y-121409171D01*
X178538145Y-121639703D01*
X178714369Y-121816235D01*
X178944735Y-121911891D01*
X179194171Y-121912109D01*
X179424703Y-121816855D01*
X179601235Y-121640631D01*
X179696891Y-121410265D01*
X179697109Y-121160829D01*
X179647000Y-121039556D01*
X179647000Y-118703965D01*
X180813008Y-117537956D01*
X180813011Y-117537954D01*
X180938088Y-117350761D01*
X180982010Y-117129953D01*
X180982010Y-116490000D01*
X181630689Y-116490000D01*
X181721318Y-116945623D01*
X181979408Y-117331881D01*
X182365666Y-117589971D01*
X182821289Y-117680600D01*
X183178711Y-117680600D01*
X183634334Y-117589971D01*
X184020592Y-117331881D01*
X184278682Y-116945623D01*
X184369311Y-116490000D01*
X184278682Y-116034377D01*
X184020592Y-115648119D01*
X183634334Y-115390029D01*
X183178711Y-115299400D01*
X182821289Y-115299400D01*
X182365666Y-115390029D01*
X181979408Y-115648119D01*
X181721318Y-116034377D01*
X181630689Y-116490000D01*
X180982010Y-116490000D01*
X180982010Y-111999002D01*
X180994011Y-111987000D01*
X181802420Y-111987000D01*
X181979408Y-112251881D01*
X182365666Y-112509971D01*
X182821289Y-112600600D01*
X183178711Y-112600600D01*
X183634334Y-112509971D01*
X184020592Y-112251881D01*
X184278682Y-111865623D01*
X184369311Y-111410000D01*
X184278682Y-110954377D01*
X184020592Y-110568119D01*
X183634334Y-110310029D01*
X183178711Y-110219400D01*
X182821289Y-110219400D01*
X182365666Y-110310029D01*
X181979408Y-110568119D01*
X181802420Y-110833000D01*
X180755015Y-110833000D01*
X180755010Y-110832999D01*
X180534202Y-110876922D01*
X180347009Y-111001999D01*
X180347007Y-111002002D01*
X180282000Y-111067009D01*
X180282000Y-108870000D01*
X181630689Y-108870000D01*
X181721318Y-109325623D01*
X181979408Y-109711881D01*
X182365666Y-109969971D01*
X182821289Y-110060600D01*
X183178711Y-110060600D01*
X183634334Y-109969971D01*
X184020592Y-109711881D01*
X184278682Y-109325623D01*
X184369311Y-108870000D01*
X184278682Y-108414377D01*
X184020592Y-108028119D01*
X183634334Y-107770029D01*
X183178711Y-107679400D01*
X182821289Y-107679400D01*
X182365666Y-107770029D01*
X181979408Y-108028119D01*
X181721318Y-108414377D01*
X181630689Y-108870000D01*
X180282000Y-108870000D01*
X180282000Y-107204002D01*
X180579001Y-106907000D01*
X181802420Y-106907000D01*
X181979408Y-107171881D01*
X182365666Y-107429971D01*
X182821289Y-107520600D01*
X183178711Y-107520600D01*
X183634334Y-107429971D01*
X184020592Y-107171881D01*
X184278682Y-106785623D01*
X184369311Y-106330000D01*
X184278682Y-105874377D01*
X184020592Y-105488119D01*
X183634334Y-105230029D01*
X183178711Y-105139400D01*
X182821289Y-105139400D01*
X182365666Y-105230029D01*
X181979408Y-105488119D01*
X181802420Y-105753000D01*
X180579001Y-105753000D01*
X180282000Y-105455998D01*
X180282000Y-102091602D01*
X181123601Y-101250000D01*
X181630689Y-101250000D01*
X181721318Y-101705623D01*
X181979408Y-102091881D01*
X182365666Y-102349971D01*
X182821289Y-102440600D01*
X183178711Y-102440600D01*
X183634334Y-102349971D01*
X184020592Y-102091881D01*
X184278682Y-101705623D01*
X184369311Y-101250000D01*
X184278682Y-100794377D01*
X184020592Y-100408119D01*
X183634334Y-100150029D01*
X183178711Y-100059400D01*
X182821289Y-100059400D01*
X182365666Y-100150029D01*
X181979408Y-100408119D01*
X181721318Y-100794377D01*
X181630689Y-101250000D01*
X181123601Y-101250000D01*
X182530786Y-99842815D01*
X182821289Y-99900600D01*
X183178711Y-99900600D01*
X183634334Y-99809971D01*
X184020592Y-99551881D01*
X184278682Y-99165623D01*
X184369311Y-98710000D01*
X184278682Y-98254377D01*
X184020592Y-97868119D01*
X183634334Y-97610029D01*
X183178711Y-97519400D01*
X182821289Y-97519400D01*
X182365666Y-97610029D01*
X181979408Y-97868119D01*
X181721318Y-98254377D01*
X181630689Y-98710000D01*
X181697204Y-99044395D01*
X179581990Y-101159608D01*
X179581990Y-96170000D01*
X181630689Y-96170000D01*
X181721318Y-96625623D01*
X181979408Y-97011881D01*
X182365666Y-97269971D01*
X182821289Y-97360600D01*
X183178711Y-97360600D01*
X183634334Y-97269971D01*
X184020592Y-97011881D01*
X184278682Y-96625623D01*
X184369311Y-96170000D01*
X184278682Y-95714377D01*
X184020592Y-95328119D01*
X183634334Y-95070029D01*
X183178711Y-94979400D01*
X182821289Y-94979400D01*
X182365666Y-95070029D01*
X181979408Y-95328119D01*
X181721318Y-95714377D01*
X181630689Y-96170000D01*
X179581990Y-96170000D01*
X179581990Y-95171612D01*
X182530786Y-92222815D01*
X182821289Y-92280600D01*
X183178711Y-92280600D01*
X183634334Y-92189971D01*
X184020592Y-91931881D01*
X184278682Y-91545623D01*
X184369311Y-91090000D01*
X184278682Y-90634377D01*
X184020592Y-90248119D01*
X183634334Y-89990029D01*
X183178711Y-89899400D01*
X182821289Y-89899400D01*
X182365666Y-89990029D01*
X181979408Y-90248119D01*
X181721318Y-90634377D01*
X181630689Y-91090000D01*
X181697204Y-91424395D01*
X178596989Y-94524609D01*
X178471912Y-94711802D01*
X178427989Y-94932610D01*
X178427990Y-94932615D01*
X178427990Y-108506009D01*
X169945534Y-116988464D01*
X169825297Y-117038145D01*
X169648765Y-117214369D01*
X169553109Y-117444735D01*
X169552891Y-117694171D01*
X169648145Y-117924703D01*
X169824369Y-118101235D01*
X170054735Y-118196891D01*
X170304171Y-118197109D01*
X170534703Y-118101855D01*
X170711235Y-117925631D01*
X170761555Y-117804447D01*
X179128000Y-109438001D01*
X179128000Y-116600999D01*
X175655998Y-120073000D01*
X174625005Y-120073000D01*
X174625000Y-120072999D01*
X174624995Y-120073000D01*
X171450005Y-120073000D01*
X171450000Y-120072999D01*
X171229192Y-120116922D01*
X171041999Y-120241999D01*
X171041997Y-120242002D01*
X170406999Y-120876999D01*
X170281922Y-121064192D01*
X170237999Y-121285000D01*
X170238000Y-121285005D01*
X170238000Y-121512806D01*
X169973119Y-121689794D01*
X169715029Y-122076052D01*
X169624400Y-122531675D01*
X169624400Y-122578325D01*
X169715029Y-123033948D01*
X169973119Y-123420206D01*
X170359377Y-123678296D01*
X170815000Y-123768925D01*
X171270623Y-123678296D01*
X171656881Y-123420206D01*
X171914971Y-123033948D01*
X172005600Y-122578325D01*
X172005600Y-122531675D01*
X171914971Y-122076052D01*
X171657955Y-121691400D01*
X172157994Y-121691400D01*
X172157994Y-123418600D01*
X172180795Y-123539779D01*
X172252412Y-123651074D01*
X172361686Y-123725738D01*
X172491400Y-123752006D01*
X174218600Y-123752006D01*
X174339779Y-123729205D01*
X174451074Y-123657588D01*
X174525738Y-123548314D01*
X174552006Y-123418600D01*
X174552006Y-121691400D01*
X174529205Y-121570221D01*
X174457588Y-121458926D01*
X174348314Y-121384262D01*
X174218600Y-121357994D01*
X172491400Y-121357994D01*
X172370221Y-121380795D01*
X172258926Y-121452412D01*
X172184262Y-121561686D01*
X172157994Y-121691400D01*
X171657955Y-121691400D01*
X171656881Y-121689794D01*
X171398712Y-121517290D01*
X171689001Y-121227000D01*
X174385998Y-121227000D01*
X174683000Y-121524001D01*
X174683000Y-124214584D01*
X174633109Y-124334735D01*
X174632891Y-124584171D01*
X174728145Y-124814703D01*
X174904369Y-124991235D01*
X175101082Y-125072917D01*
X173750998Y-126423000D01*
X171689001Y-126423000D01*
X171398712Y-126132710D01*
X171656881Y-125960206D01*
X171914971Y-125573948D01*
X172005600Y-125118325D01*
X172005600Y-125071675D01*
X172164400Y-125071675D01*
X172164400Y-125118325D01*
X172255029Y-125573948D01*
X172513119Y-125960206D01*
X172899377Y-126218296D01*
X173355000Y-126308925D01*
X173810623Y-126218296D01*
X174196881Y-125960206D01*
X174454971Y-125573948D01*
X174545600Y-125118325D01*
X174545600Y-125071675D01*
X174454971Y-124616052D01*
X174196881Y-124229794D01*
X173810623Y-123971704D01*
X173355000Y-123881075D01*
X172899377Y-123971704D01*
X172513119Y-124229794D01*
X172255029Y-124616052D01*
X172164400Y-125071675D01*
X172005600Y-125071675D01*
X171914971Y-124616052D01*
X171656881Y-124229794D01*
X171270623Y-123971704D01*
X170815000Y-123881075D01*
X170359377Y-123971704D01*
X169973119Y-124229794D01*
X169715029Y-124616052D01*
X169702734Y-124677864D01*
X169481821Y-124206510D01*
X169049947Y-123812312D01*
X168727760Y-123678866D01*
X168730623Y-123678296D01*
X169116881Y-123420206D01*
X169374971Y-123033948D01*
X169465600Y-122578325D01*
X169465600Y-122531675D01*
X169374971Y-122076052D01*
X169116881Y-121689794D01*
X168730623Y-121431704D01*
X168275000Y-121341075D01*
X167819377Y-121431704D01*
X167433119Y-121689794D01*
X167175029Y-122076052D01*
X167084400Y-122531675D01*
X167084400Y-122578325D01*
X167175029Y-123033948D01*
X167433119Y-123420206D01*
X167819377Y-123678296D01*
X167822240Y-123678866D01*
X167500053Y-123812312D01*
X167068179Y-124206510D01*
X166820032Y-124735973D01*
X166940531Y-124968000D01*
X168148000Y-124968000D01*
X168148000Y-124948000D01*
X168402000Y-124948000D01*
X168402000Y-124968000D01*
X168422000Y-124968000D01*
X168422000Y-125222000D01*
X168402000Y-125222000D01*
X168402000Y-125242000D01*
X168148000Y-125242000D01*
X168148000Y-125222000D01*
X166940531Y-125222000D01*
X166820032Y-125454027D01*
X167068179Y-125983490D01*
X167500053Y-126377688D01*
X167609452Y-126423000D01*
X166254039Y-126423000D01*
X155978039Y-116147000D01*
X161679584Y-116147000D01*
X161799735Y-116196891D01*
X162049171Y-116197109D01*
X162279703Y-116101855D01*
X162456235Y-115925631D01*
X162551891Y-115695265D01*
X162552109Y-115445829D01*
X162456855Y-115215297D01*
X162280631Y-115038765D01*
X162050265Y-114943109D01*
X161800829Y-114942891D01*
X161679556Y-114993000D01*
X155814001Y-114993000D01*
X151573699Y-110752697D01*
X152264541Y-110752697D01*
X152466061Y-111240414D01*
X152838883Y-111613887D01*
X153326247Y-111816259D01*
X153853957Y-111816719D01*
X154341674Y-111615199D01*
X154715147Y-111242377D01*
X154917519Y-110755013D01*
X154917979Y-110227303D01*
X154757950Y-109840000D01*
X157766594Y-109840000D01*
X157766594Y-111140000D01*
X157789395Y-111261179D01*
X157861012Y-111372474D01*
X157970286Y-111447138D01*
X158100000Y-111473406D01*
X159400000Y-111473406D01*
X159521179Y-111450605D01*
X159616890Y-111389016D01*
X161530590Y-111389016D01*
X161586271Y-111619611D01*
X162069078Y-111787622D01*
X162579428Y-111758083D01*
X162913729Y-111619611D01*
X162969410Y-111389016D01*
X162250000Y-110669605D01*
X161530590Y-111389016D01*
X159616890Y-111389016D01*
X159632474Y-111378988D01*
X159707138Y-111269714D01*
X159733406Y-111140000D01*
X159733406Y-110309078D01*
X160952378Y-110309078D01*
X160981917Y-110819428D01*
X161120389Y-111153729D01*
X161350984Y-111209410D01*
X162070395Y-110490000D01*
X162429605Y-110490000D01*
X163149016Y-111209410D01*
X163379611Y-111153729D01*
X163547622Y-110670922D01*
X163518083Y-110160572D01*
X163379611Y-109826271D01*
X163149016Y-109770590D01*
X162429605Y-110490000D01*
X162070395Y-110490000D01*
X161350984Y-109770590D01*
X161120389Y-109826271D01*
X160952378Y-110309078D01*
X159733406Y-110309078D01*
X159733406Y-109840000D01*
X159710605Y-109718821D01*
X159638988Y-109607526D01*
X159614779Y-109590984D01*
X161530590Y-109590984D01*
X162250000Y-110310395D01*
X162969410Y-109590984D01*
X162913729Y-109360389D01*
X162430922Y-109192378D01*
X161920572Y-109221917D01*
X161586271Y-109360389D01*
X161530590Y-109590984D01*
X159614779Y-109590984D01*
X159529714Y-109532862D01*
X159400000Y-109506594D01*
X158100000Y-109506594D01*
X157978821Y-109529395D01*
X157867526Y-109601012D01*
X157792862Y-109710286D01*
X157766594Y-109840000D01*
X154757950Y-109840000D01*
X154716459Y-109739586D01*
X154343637Y-109366113D01*
X153856273Y-109163741D01*
X153328563Y-109163281D01*
X152840846Y-109364801D01*
X152467373Y-109737623D01*
X152265001Y-110224987D01*
X152264541Y-110752697D01*
X151573699Y-110752697D01*
X144003310Y-103182308D01*
X144472727Y-103182308D01*
X144712305Y-103762132D01*
X145155535Y-104206136D01*
X145734939Y-104446725D01*
X146362308Y-104447273D01*
X146942132Y-104207695D01*
X147386136Y-103764465D01*
X147626725Y-103185061D01*
X147627273Y-102557692D01*
X147387695Y-101977868D01*
X146944465Y-101533864D01*
X146365061Y-101293275D01*
X145737692Y-101292727D01*
X145157868Y-101532305D01*
X144713864Y-101975535D01*
X144473275Y-102554939D01*
X144472727Y-103182308D01*
X144003310Y-103182308D01*
X143283001Y-102461999D01*
X143095808Y-102336922D01*
X142875000Y-102292999D01*
X142874995Y-102293000D01*
X137922000Y-102293000D01*
X137922000Y-100389725D01*
X155995000Y-100389725D01*
X155995000Y-101080284D01*
X156091673Y-101313673D01*
X156270301Y-101492302D01*
X156503690Y-101588975D01*
X157194250Y-101588975D01*
X157353000Y-101430225D01*
X157353000Y-100230975D01*
X157607000Y-100230975D01*
X157607000Y-101430225D01*
X157765750Y-101588975D01*
X158456310Y-101588975D01*
X158689699Y-101492302D01*
X158868327Y-101313673D01*
X158965000Y-101080284D01*
X158965000Y-100389725D01*
X158806250Y-100230975D01*
X157607000Y-100230975D01*
X157353000Y-100230975D01*
X156153750Y-100230975D01*
X155995000Y-100389725D01*
X137922000Y-100389725D01*
X137922000Y-99123320D01*
X144896285Y-99123320D01*
X145025533Y-99416123D01*
X145725806Y-99684388D01*
X146475435Y-99664250D01*
X147074467Y-99416123D01*
X147201796Y-99127666D01*
X155995000Y-99127666D01*
X155995000Y-99818225D01*
X156153750Y-99976975D01*
X157353000Y-99976975D01*
X157353000Y-98777725D01*
X157607000Y-98777725D01*
X157607000Y-99976975D01*
X158806250Y-99976975D01*
X158965000Y-99818225D01*
X158965000Y-99127666D01*
X158868327Y-98894277D01*
X158689699Y-98715648D01*
X158456310Y-98618975D01*
X157765750Y-98618975D01*
X157607000Y-98777725D01*
X157353000Y-98777725D01*
X157194250Y-98618975D01*
X156503690Y-98618975D01*
X156270301Y-98715648D01*
X156091673Y-98894277D01*
X155995000Y-99127666D01*
X147201796Y-99127666D01*
X147203715Y-99123320D01*
X146050000Y-97969605D01*
X144896285Y-99123320D01*
X137922000Y-99123320D01*
X137922000Y-98937606D01*
X139393800Y-97465806D01*
X144155612Y-97465806D01*
X144175750Y-98215435D01*
X144423877Y-98814467D01*
X144716680Y-98943715D01*
X145870395Y-97790000D01*
X146229605Y-97790000D01*
X147383320Y-98943715D01*
X147676123Y-98814467D01*
X147944388Y-98114194D01*
X147924250Y-97364565D01*
X147676123Y-96765533D01*
X147383320Y-96636285D01*
X146229605Y-97790000D01*
X145870395Y-97790000D01*
X144716680Y-96636285D01*
X144423877Y-96765533D01*
X144155612Y-97465806D01*
X139393800Y-97465806D01*
X140847606Y-96012000D01*
X145392197Y-96012000D01*
X145025533Y-96163877D01*
X144896285Y-96456680D01*
X146050000Y-97610395D01*
X147203715Y-96456680D01*
X147074467Y-96163877D01*
X146678011Y-96012000D01*
X174165000Y-96012000D01*
X174214410Y-96001994D01*
X174254803Y-95974803D01*
X177254803Y-92974803D01*
X177282666Y-92932789D01*
X177292000Y-92885000D01*
X177292000Y-86369026D01*
X181392642Y-86369026D01*
X181395291Y-86384791D01*
X181649268Y-86912036D01*
X182085680Y-87301954D01*
X182457039Y-87431854D01*
X182365666Y-87450029D01*
X181979408Y-87708119D01*
X181721318Y-88094377D01*
X181630689Y-88550000D01*
X181721318Y-89005623D01*
X181979408Y-89391881D01*
X182365666Y-89649971D01*
X182821289Y-89740600D01*
X183178711Y-89740600D01*
X183469214Y-89682815D01*
X189923000Y-96136601D01*
X189923000Y-119134584D01*
X189873109Y-119254735D01*
X189872891Y-119504171D01*
X189968145Y-119734703D01*
X190144369Y-119911235D01*
X190374735Y-120006891D01*
X190624171Y-120007109D01*
X190854703Y-119911855D01*
X191031235Y-119735631D01*
X191126891Y-119505265D01*
X191127109Y-119255829D01*
X191077000Y-119134556D01*
X191077000Y-95897605D01*
X191077001Y-95897600D01*
X191033078Y-95676792D01*
X190921372Y-95509611D01*
X190908001Y-95489599D01*
X190907998Y-95489597D01*
X184302796Y-88884394D01*
X184369311Y-88550000D01*
X184278682Y-88094377D01*
X184020592Y-87708119D01*
X183634334Y-87450029D01*
X183542961Y-87431854D01*
X183914320Y-87301954D01*
X184350732Y-86912036D01*
X184604709Y-86384791D01*
X184607358Y-86369026D01*
X184486217Y-86137000D01*
X183127000Y-86137000D01*
X183127000Y-86157000D01*
X182873000Y-86157000D01*
X182873000Y-86137000D01*
X181513783Y-86137000D01*
X181392642Y-86369026D01*
X177292000Y-86369026D01*
X177292000Y-86237606D01*
X180217606Y-83312000D01*
X181650594Y-83312000D01*
X181650594Y-84333600D01*
X181650594Y-84333600D01*
G37*
X181650594Y-84333600D02*
X181673395Y-84454779D01*
X181745012Y-84566074D01*
X181854286Y-84640738D01*
X181984000Y-84667006D01*
X182231593Y-84667006D01*
X182085680Y-84718046D01*
X181649268Y-85107964D01*
X181395291Y-85635209D01*
X181392642Y-85650974D01*
X181513783Y-85883000D01*
X182873000Y-85883000D01*
X182873000Y-85863000D01*
X183127000Y-85863000D01*
X183127000Y-85883000D01*
X184486217Y-85883000D01*
X184607358Y-85650974D01*
X184604709Y-85635209D01*
X184350732Y-85107964D01*
X183914320Y-84718046D01*
X183768407Y-84667006D01*
X184016000Y-84667006D01*
X184137179Y-84644205D01*
X184248474Y-84572588D01*
X184323138Y-84463314D01*
X184349406Y-84333600D01*
X184349406Y-83312000D01*
X195067394Y-83312000D01*
X197993000Y-86237606D01*
X197993000Y-144902394D01*
X195067394Y-147828000D01*
X140847606Y-147828000D01*
X137923777Y-144904171D01*
X140977891Y-144904171D01*
X141073145Y-145134703D01*
X141249369Y-145311235D01*
X141479735Y-145406891D01*
X141729171Y-145407109D01*
X141850444Y-145357000D01*
X180339995Y-145357000D01*
X180340000Y-145357001D01*
X180560808Y-145313078D01*
X180748001Y-145188001D01*
X181128826Y-144807175D01*
X186517430Y-144807175D01*
X186640565Y-145094788D01*
X187322734Y-145354707D01*
X188052443Y-145333786D01*
X188629435Y-145094788D01*
X188752570Y-144807175D01*
X187635000Y-143689605D01*
X186517430Y-144807175D01*
X181128826Y-144807175D01*
X182738267Y-143197734D01*
X185790293Y-143197734D01*
X185811214Y-143927443D01*
X186050212Y-144504435D01*
X186337825Y-144627570D01*
X187455395Y-143510000D01*
X187814605Y-143510000D01*
X188932175Y-144627570D01*
X189219788Y-144504435D01*
X189479707Y-143822266D01*
X189458786Y-143092557D01*
X189219788Y-142515565D01*
X188932175Y-142392430D01*
X187814605Y-143510000D01*
X187455395Y-143510000D01*
X186337825Y-142392430D01*
X186050212Y-142515565D01*
X185790293Y-143197734D01*
X182738267Y-143197734D01*
X183723176Y-142212825D01*
X186517430Y-142212825D01*
X187635000Y-143330395D01*
X188752570Y-142212825D01*
X188629435Y-141925212D01*
X187947266Y-141665293D01*
X187217557Y-141686214D01*
X186640565Y-141925212D01*
X186517430Y-142212825D01*
X183723176Y-142212825D01*
X186289464Y-139646537D01*
X186409703Y-139596855D01*
X186586235Y-139420631D01*
X186681891Y-139190265D01*
X186682109Y-138940829D01*
X186586855Y-138710297D01*
X186410631Y-138533765D01*
X186180265Y-138438109D01*
X185930829Y-138437891D01*
X185700297Y-138533145D01*
X185523765Y-138709369D01*
X185473445Y-138830554D01*
X180100998Y-144203000D01*
X141850416Y-144203000D01*
X141730265Y-144153109D01*
X141480829Y-144152891D01*
X141250297Y-144248145D01*
X141073765Y-144424369D01*
X140978109Y-144654735D01*
X140977891Y-144904171D01*
X137923777Y-144904171D01*
X137922000Y-144902394D01*
X137922000Y-142417939D01*
X143881344Y-142417939D01*
X144017844Y-142748295D01*
X144270376Y-143001267D01*
X144600493Y-143138344D01*
X144957939Y-143138656D01*
X145288295Y-143002156D01*
X145541267Y-142749624D01*
X145678344Y-142419507D01*
X145678656Y-142062061D01*
X145638145Y-141964016D01*
X152315590Y-141964016D01*
X152371271Y-142194611D01*
X152854078Y-142362622D01*
X153364428Y-142333083D01*
X153698729Y-142194611D01*
X153754410Y-141964016D01*
X153035000Y-141244605D01*
X152315590Y-141964016D01*
X145638145Y-141964016D01*
X145542156Y-141731705D01*
X145289624Y-141478733D01*
X144959507Y-141341656D01*
X144602061Y-141341344D01*
X144271705Y-141477844D01*
X144018733Y-141730376D01*
X143881656Y-142060493D01*
X143881344Y-142417939D01*
X137922000Y-142417939D01*
X137922000Y-140884078D01*
X151737378Y-140884078D01*
X151766917Y-141394428D01*
X151905389Y-141728729D01*
X152135984Y-141784410D01*
X152855395Y-141065000D01*
X153214605Y-141065000D01*
X153934016Y-141784410D01*
X154164611Y-141728729D01*
X154332622Y-141245922D01*
X154306308Y-140791289D01*
X160734400Y-140791289D01*
X160734400Y-141148711D01*
X160825029Y-141604334D01*
X161083119Y-141990592D01*
X161469377Y-142248682D01*
X161925000Y-142339311D01*
X162380623Y-142248682D01*
X162766881Y-141990592D01*
X163024971Y-141604334D01*
X163115600Y-141148711D01*
X163115600Y-140791289D01*
X163274400Y-140791289D01*
X163274400Y-141148711D01*
X163365029Y-141604334D01*
X163623119Y-141990592D01*
X164009377Y-142248682D01*
X164465000Y-142339311D01*
X164920623Y-142248682D01*
X165306881Y-141990592D01*
X165564971Y-141604334D01*
X165655600Y-141148711D01*
X165655600Y-140791289D01*
X165814400Y-140791289D01*
X165814400Y-141148711D01*
X165905029Y-141604334D01*
X166163119Y-141990592D01*
X166549377Y-142248682D01*
X167005000Y-142339311D01*
X167460623Y-142248682D01*
X167846881Y-141990592D01*
X168104971Y-141604334D01*
X168195600Y-141148711D01*
X168195600Y-140791289D01*
X168354400Y-140791289D01*
X168354400Y-141148711D01*
X168445029Y-141604334D01*
X168703119Y-141990592D01*
X169089377Y-142248682D01*
X169545000Y-142339311D01*
X170000623Y-142248682D01*
X170386881Y-141990592D01*
X170644971Y-141604334D01*
X170735600Y-141148711D01*
X170735600Y-140791289D01*
X170644971Y-140335666D01*
X170386881Y-139949408D01*
X170000623Y-139691318D01*
X169545000Y-139600689D01*
X169089377Y-139691318D01*
X168703119Y-139949408D01*
X168445029Y-140335666D01*
X168354400Y-140791289D01*
X168195600Y-140791289D01*
X168104971Y-140335666D01*
X167846881Y-139949408D01*
X167460623Y-139691318D01*
X167005000Y-139600689D01*
X166549377Y-139691318D01*
X166163119Y-139949408D01*
X165905029Y-140335666D01*
X165814400Y-140791289D01*
X165655600Y-140791289D01*
X165564971Y-140335666D01*
X165306881Y-139949408D01*
X164920623Y-139691318D01*
X164465000Y-139600689D01*
X164009377Y-139691318D01*
X163623119Y-139949408D01*
X163365029Y-140335666D01*
X163274400Y-140791289D01*
X163115600Y-140791289D01*
X163024971Y-140335666D01*
X162766881Y-139949408D01*
X162380623Y-139691318D01*
X161925000Y-139600689D01*
X161469377Y-139691318D01*
X161083119Y-139949408D01*
X160825029Y-140335666D01*
X160734400Y-140791289D01*
X154306308Y-140791289D01*
X154303083Y-140735572D01*
X154164611Y-140401271D01*
X153934016Y-140345590D01*
X153214605Y-141065000D01*
X152855395Y-141065000D01*
X152135984Y-140345590D01*
X151905389Y-140401271D01*
X151737378Y-140884078D01*
X137922000Y-140884078D01*
X137922000Y-138637046D01*
X144117559Y-138637046D01*
X144163552Y-138859533D01*
X144617855Y-139014405D01*
X145096844Y-138983633D01*
X145396448Y-138859533D01*
X145442441Y-138637046D01*
X144780000Y-137974605D01*
X144117559Y-138637046D01*
X137922000Y-138637046D01*
X137922000Y-137632855D01*
X143560595Y-137632855D01*
X143591367Y-138111844D01*
X143715467Y-138411448D01*
X143937954Y-138457441D01*
X144600395Y-137795000D01*
X144959605Y-137795000D01*
X145622046Y-138457441D01*
X145827350Y-138415000D01*
X152051594Y-138415000D01*
X152051594Y-139715000D01*
X152074395Y-139836179D01*
X152146012Y-139947474D01*
X152255286Y-140022138D01*
X152345893Y-140040487D01*
X152315590Y-140165984D01*
X153035000Y-140885395D01*
X153754410Y-140165984D01*
X153724236Y-140041023D01*
X153806179Y-140025605D01*
X153917474Y-139953988D01*
X153992138Y-139844714D01*
X154018406Y-139715000D01*
X154018406Y-138415000D01*
X153995605Y-138293821D01*
X153923988Y-138182526D01*
X153814714Y-138107862D01*
X153685000Y-138081594D01*
X152385000Y-138081594D01*
X152263821Y-138104395D01*
X152152526Y-138176012D01*
X152077862Y-138285286D01*
X152051594Y-138415000D01*
X145827350Y-138415000D01*
X145844533Y-138411448D01*
X145999405Y-137957145D01*
X145968633Y-137478156D01*
X145844533Y-137178552D01*
X145622046Y-137132559D01*
X144959605Y-137795000D01*
X144600395Y-137795000D01*
X143937954Y-137132559D01*
X143715467Y-137178552D01*
X143560595Y-137632855D01*
X137922000Y-137632855D01*
X137922000Y-136952954D01*
X144117559Y-136952954D01*
X144780000Y-137615395D01*
X145442441Y-136952954D01*
X145396448Y-136730467D01*
X144942145Y-136575595D01*
X144463156Y-136606367D01*
X144163552Y-136730467D01*
X144117559Y-136952954D01*
X137922000Y-136952954D01*
X137922000Y-130603497D01*
X138194853Y-130716795D01*
X138663093Y-130717204D01*
X139095846Y-130538394D01*
X139427230Y-130207588D01*
X139606795Y-129775147D01*
X139607204Y-129306907D01*
X139428394Y-128874154D01*
X139097588Y-128542770D01*
X138665147Y-128363205D01*
X138196907Y-128362796D01*
X137922000Y-128476385D01*
X137922000Y-125523497D01*
X138194853Y-125636795D01*
X138663093Y-125637204D01*
X139095846Y-125458394D01*
X139427230Y-125127588D01*
X139464845Y-125037000D01*
X160266150Y-125037001D01*
X165062147Y-129832997D01*
X165062149Y-129833000D01*
X165168577Y-129904112D01*
X165153445Y-129940554D01*
X163421999Y-131671999D01*
X163296922Y-131859192D01*
X163252999Y-132080000D01*
X163253000Y-132080005D01*
X163253000Y-137549584D01*
X163203109Y-137669735D01*
X163202891Y-137919171D01*
X163298145Y-138149703D01*
X163474369Y-138326235D01*
X163704735Y-138421891D01*
X163954171Y-138422109D01*
X164184703Y-138326855D01*
X164361235Y-138150631D01*
X164456891Y-137920265D01*
X164457109Y-137670829D01*
X164407000Y-137549556D01*
X164407000Y-136154016D01*
X165650590Y-136154016D01*
X165706271Y-136384611D01*
X166189078Y-136552622D01*
X166699428Y-136523083D01*
X167033729Y-136384611D01*
X167089410Y-136154016D01*
X166370000Y-135434605D01*
X165650590Y-136154016D01*
X164407000Y-136154016D01*
X164407000Y-135074078D01*
X165072378Y-135074078D01*
X165101917Y-135584428D01*
X165240389Y-135918729D01*
X165470984Y-135974410D01*
X166190395Y-135255000D01*
X166549605Y-135255000D01*
X167269016Y-135974410D01*
X167499611Y-135918729D01*
X167667622Y-135435922D01*
X167638083Y-134925572D01*
X167499611Y-134591271D01*
X167269016Y-134535590D01*
X166549605Y-135255000D01*
X166190395Y-135255000D01*
X165470984Y-134535590D01*
X165240389Y-134591271D01*
X165072378Y-135074078D01*
X164407000Y-135074078D01*
X164407000Y-132319002D01*
X165969464Y-130756537D01*
X166089703Y-130706855D01*
X166266235Y-130530631D01*
X166347917Y-130333918D01*
X166428000Y-130414001D01*
X166428000Y-131230999D01*
X165961999Y-131696999D01*
X165836922Y-131884192D01*
X165792999Y-132105000D01*
X165793000Y-132105005D01*
X165793000Y-132271594D01*
X165720000Y-132271594D01*
X165598821Y-132294395D01*
X165487526Y-132366012D01*
X165412862Y-132475286D01*
X165386594Y-132605000D01*
X165386594Y-133905000D01*
X165409395Y-134026179D01*
X165481012Y-134137474D01*
X165590286Y-134212138D01*
X165680893Y-134230487D01*
X165650590Y-134355984D01*
X166370000Y-135075395D01*
X167089410Y-134355984D01*
X167059236Y-134231023D01*
X167141179Y-134215605D01*
X167252474Y-134143988D01*
X167327138Y-134034714D01*
X167353406Y-133905000D01*
X167353406Y-133904408D01*
X171508000Y-138059002D01*
X171508000Y-139772420D01*
X171243119Y-139949408D01*
X170985029Y-140335666D01*
X170894400Y-140791289D01*
X170894400Y-141148711D01*
X170985029Y-141604334D01*
X171243119Y-141990592D01*
X171629377Y-142248682D01*
X172085000Y-142339311D01*
X172540623Y-142248682D01*
X172926881Y-141990592D01*
X173126400Y-141691991D01*
X173126400Y-142112309D01*
X173223073Y-142345698D01*
X173401701Y-142524327D01*
X173635090Y-142621000D01*
X174339250Y-142621000D01*
X174498000Y-142462250D01*
X174498000Y-141097000D01*
X174752000Y-141097000D01*
X174752000Y-142462250D01*
X174910750Y-142621000D01*
X175614910Y-142621000D01*
X175848299Y-142524327D01*
X176026927Y-142345698D01*
X176123600Y-142112309D01*
X176123600Y-141255750D01*
X175964850Y-141097000D01*
X174752000Y-141097000D01*
X174498000Y-141097000D01*
X174478000Y-141097000D01*
X174478000Y-140843000D01*
X174498000Y-140843000D01*
X174498000Y-139477750D01*
X174752000Y-139477750D01*
X174752000Y-140843000D01*
X175964850Y-140843000D01*
X176123600Y-140684250D01*
X176123600Y-139827691D01*
X176026927Y-139594302D01*
X175848299Y-139415673D01*
X175614910Y-139319000D01*
X174910750Y-139319000D01*
X174752000Y-139477750D01*
X174498000Y-139477750D01*
X174339250Y-139319000D01*
X173635090Y-139319000D01*
X173401701Y-139415673D01*
X173223073Y-139594302D01*
X173126400Y-139827691D01*
X173126400Y-140248009D01*
X172926881Y-139949408D01*
X172662000Y-139772420D01*
X172662000Y-137820005D01*
X172662001Y-137820000D01*
X172618078Y-137599192D01*
X172493001Y-137411999D01*
X172365173Y-137284171D01*
X177172891Y-137284171D01*
X177223000Y-137405444D01*
X177223000Y-140089584D01*
X177173109Y-140209735D01*
X177172891Y-140459171D01*
X177268145Y-140689703D01*
X177444369Y-140866235D01*
X177674735Y-140961891D01*
X177924171Y-140962109D01*
X178154703Y-140866855D01*
X178331235Y-140690631D01*
X178426891Y-140460265D01*
X178427109Y-140210829D01*
X178377000Y-140089556D01*
X178377000Y-137405416D01*
X178426891Y-137285265D01*
X178427109Y-137035829D01*
X178331855Y-136805297D01*
X178155631Y-136628765D01*
X177925265Y-136533109D01*
X177675829Y-136532891D01*
X177445297Y-136628145D01*
X177268765Y-136804369D01*
X177173109Y-137034735D01*
X177172891Y-137284171D01*
X172365173Y-137284171D01*
X170460173Y-135379171D01*
X184157891Y-135379171D01*
X184253145Y-135609703D01*
X184429369Y-135786235D01*
X184659735Y-135881891D01*
X184909171Y-135882109D01*
X185030444Y-135832000D01*
X190260998Y-135832000D01*
X190558000Y-136129001D01*
X190558000Y-142096195D01*
X190271154Y-142214717D01*
X189841227Y-142643894D01*
X189608265Y-143204928D01*
X189607735Y-143812407D01*
X189839717Y-144373846D01*
X190268894Y-144803773D01*
X190829928Y-145036735D01*
X191437407Y-145037265D01*
X191998846Y-144805283D01*
X192428773Y-144376106D01*
X192661735Y-143815072D01*
X192662265Y-143207593D01*
X192430283Y-142646154D01*
X192094716Y-142310000D01*
X193101594Y-142310000D01*
X193101594Y-144710000D01*
X193124395Y-144831179D01*
X193196012Y-144942474D01*
X193305286Y-145017138D01*
X193435000Y-145043406D01*
X195835000Y-145043406D01*
X195956179Y-145020605D01*
X196067474Y-144948988D01*
X196142138Y-144839714D01*
X196168406Y-144710000D01*
X196168406Y-142310000D01*
X196145605Y-142188821D01*
X196073988Y-142077526D01*
X195964714Y-142002862D01*
X195835000Y-141976594D01*
X193435000Y-141976594D01*
X193313821Y-141999395D01*
X193202526Y-142071012D01*
X193127862Y-142180286D01*
X193101594Y-142310000D01*
X192094716Y-142310000D01*
X192001106Y-142216227D01*
X191712000Y-142096180D01*
X191712000Y-135890005D01*
X191712001Y-135890000D01*
X191668078Y-135669192D01*
X191611441Y-135584428D01*
X191543001Y-135481999D01*
X191542998Y-135481997D01*
X190908001Y-134846999D01*
X190720808Y-134721922D01*
X190500000Y-134677999D01*
X190499995Y-134678000D01*
X185030416Y-134678000D01*
X184910265Y-134628109D01*
X184660829Y-134627891D01*
X184430297Y-134723145D01*
X184253765Y-134899369D01*
X184158109Y-135129735D01*
X184157891Y-135379171D01*
X170460173Y-135379171D01*
X167928001Y-132846999D01*
X167740808Y-132721922D01*
X167520000Y-132677999D01*
X167519995Y-132678000D01*
X167353406Y-132678000D01*
X167353406Y-132605000D01*
X167330605Y-132483821D01*
X167258988Y-132372526D01*
X167149714Y-132297862D01*
X167020000Y-132271594D01*
X167019408Y-132271594D01*
X167412998Y-131878003D01*
X167413001Y-131878001D01*
X167538078Y-131690808D01*
X167541819Y-131671999D01*
X167582001Y-131470000D01*
X167582000Y-131469995D01*
X167582000Y-130175005D01*
X167582001Y-130175000D01*
X167538078Y-129954192D01*
X167418445Y-129775147D01*
X167413001Y-129766999D01*
X167412998Y-129766997D01*
X166778001Y-129131999D01*
X166663000Y-129016998D01*
X166603168Y-128977020D01*
X173851452Y-128977020D01*
X173880314Y-129046872D01*
X174056538Y-129223404D01*
X174286904Y-129319060D01*
X174536340Y-129319278D01*
X174766872Y-129224024D01*
X174943404Y-129047800D01*
X174951139Y-129029171D01*
X182887891Y-129029171D01*
X182983145Y-129259703D01*
X183159369Y-129436235D01*
X183389735Y-129531891D01*
X183639171Y-129532109D01*
X183869703Y-129436855D01*
X184046235Y-129260631D01*
X184141891Y-129030265D01*
X184142109Y-128780829D01*
X184092000Y-128659556D01*
X184092000Y-124064002D01*
X184384465Y-123771536D01*
X184504703Y-123721855D01*
X184681235Y-123545631D01*
X184776891Y-123315265D01*
X184777109Y-123065829D01*
X184681855Y-122835297D01*
X184505631Y-122658765D01*
X184275265Y-122563109D01*
X184025829Y-122562891D01*
X183795297Y-122658145D01*
X183618765Y-122834369D01*
X183568445Y-122955554D01*
X183106999Y-123416999D01*
X182981922Y-123604192D01*
X182937999Y-123825000D01*
X182938000Y-123825005D01*
X182938000Y-128659584D01*
X182888109Y-128779735D01*
X182887891Y-129029171D01*
X174951139Y-129029171D01*
X175039060Y-128817434D01*
X175039278Y-128567998D01*
X174944024Y-128337466D01*
X174767800Y-128160934D01*
X174669708Y-128120203D01*
X174687954Y-128108011D01*
X175853964Y-126942000D01*
X176919584Y-126942000D01*
X177039735Y-126991891D01*
X177289171Y-126992109D01*
X177519703Y-126896855D01*
X177696235Y-126720631D01*
X177791891Y-126490265D01*
X177792109Y-126240829D01*
X177696855Y-126010297D01*
X177520631Y-125833765D01*
X177290265Y-125738109D01*
X177040829Y-125737891D01*
X176919556Y-125788000D01*
X176018001Y-125788000D01*
X176769001Y-125037000D01*
X178824584Y-125037000D01*
X178944735Y-125086891D01*
X179194171Y-125087109D01*
X179424703Y-124991855D01*
X179601235Y-124815631D01*
X179696891Y-124585265D01*
X179697109Y-124335829D01*
X179601855Y-124105297D01*
X179425631Y-123928765D01*
X179195265Y-123833109D01*
X178945829Y-123832891D01*
X178824556Y-123883000D01*
X176530000Y-123883000D01*
X176309191Y-123926922D01*
X176242170Y-123971704D01*
X176121999Y-124051999D01*
X176121997Y-124052002D01*
X175872800Y-124301199D01*
X175837000Y-124214556D01*
X175837000Y-122679171D01*
X177617391Y-122679171D01*
X177712645Y-122909703D01*
X177888869Y-123086235D01*
X178119235Y-123181891D01*
X178368671Y-123182109D01*
X178489944Y-123132000D01*
X180339995Y-123132000D01*
X180340000Y-123132001D01*
X180560808Y-123088078D01*
X180748001Y-122963001D01*
X186178010Y-117532991D01*
X186178010Y-122885988D01*
X184550534Y-124513464D01*
X184430297Y-124563145D01*
X184253765Y-124739369D01*
X184158109Y-124969735D01*
X184157891Y-125219171D01*
X184253145Y-125449703D01*
X184429369Y-125626235D01*
X184659735Y-125721891D01*
X184909171Y-125722109D01*
X185139703Y-125626855D01*
X185316235Y-125450631D01*
X185366555Y-125329447D01*
X187163011Y-123532991D01*
X187288088Y-123345798D01*
X187332011Y-123124990D01*
X187332010Y-123124985D01*
X187332010Y-122540000D01*
X192596594Y-122540000D01*
X192596594Y-123840000D01*
X192619395Y-123961179D01*
X192691012Y-124072474D01*
X192800286Y-124147138D01*
X192930000Y-124173406D01*
X194230000Y-124173406D01*
X194351179Y-124150605D01*
X194446890Y-124089016D01*
X194860590Y-124089016D01*
X194916271Y-124319611D01*
X195399078Y-124487622D01*
X195909428Y-124458083D01*
X196243729Y-124319611D01*
X196299410Y-124089016D01*
X195580000Y-123369605D01*
X194860590Y-124089016D01*
X194446890Y-124089016D01*
X194462474Y-124078988D01*
X194537138Y-123969714D01*
X194555487Y-123879107D01*
X194680984Y-123909410D01*
X195400395Y-123190000D01*
X195759605Y-123190000D01*
X196479016Y-123909410D01*
X196709611Y-123853729D01*
X196877622Y-123370922D01*
X196848083Y-122860572D01*
X196709611Y-122526271D01*
X196479016Y-122470590D01*
X195759605Y-123190000D01*
X195400395Y-123190000D01*
X194680984Y-122470590D01*
X194556023Y-122500764D01*
X194540605Y-122418821D01*
X194468988Y-122307526D01*
X194444779Y-122290984D01*
X194860590Y-122290984D01*
X195580000Y-123010395D01*
X196299410Y-122290984D01*
X196243729Y-122060389D01*
X195760922Y-121892378D01*
X195250572Y-121921917D01*
X194916271Y-122060389D01*
X194860590Y-122290984D01*
X194444779Y-122290984D01*
X194359714Y-122232862D01*
X194230000Y-122206594D01*
X192930000Y-122206594D01*
X192808821Y-122229395D01*
X192697526Y-122301012D01*
X192622862Y-122410286D01*
X192596594Y-122540000D01*
X187332010Y-122540000D01*
X187332010Y-97232615D01*
X187332011Y-97232610D01*
X187288088Y-97011802D01*
X187163011Y-96824609D01*
X184302796Y-93964394D01*
X184369311Y-93630000D01*
X184278682Y-93174377D01*
X184020592Y-92788119D01*
X183634334Y-92530029D01*
X183178711Y-92439400D01*
X182821289Y-92439400D01*
X182365666Y-92530029D01*
X181979408Y-92788119D01*
X181721318Y-93174377D01*
X181630689Y-93630000D01*
X181721318Y-94085623D01*
X181979408Y-94471881D01*
X182365666Y-94729971D01*
X182821289Y-94820600D01*
X183178711Y-94820600D01*
X183469213Y-94762815D01*
X186178010Y-97471612D01*
X186178010Y-105999609D01*
X184302796Y-104124394D01*
X184369311Y-103790000D01*
X184278682Y-103334377D01*
X184020592Y-102948119D01*
X183634334Y-102690029D01*
X183178711Y-102599400D01*
X182821289Y-102599400D01*
X182365666Y-102690029D01*
X181979408Y-102948119D01*
X181721318Y-103334377D01*
X181630689Y-103790000D01*
X181721318Y-104245623D01*
X181979408Y-104631881D01*
X182365666Y-104889971D01*
X182821289Y-104980600D01*
X183178711Y-104980600D01*
X183469214Y-104922815D01*
X185478000Y-106931601D01*
X185478000Y-113373000D01*
X184197580Y-113373000D01*
X184020592Y-113108119D01*
X183634334Y-112850029D01*
X183178711Y-112759400D01*
X182821289Y-112759400D01*
X182365666Y-112850029D01*
X181979408Y-113108119D01*
X181721318Y-113494377D01*
X181630689Y-113950000D01*
X181721318Y-114405623D01*
X181979408Y-114791881D01*
X182365666Y-115049971D01*
X182821289Y-115140600D01*
X183178711Y-115140600D01*
X183634334Y-115049971D01*
X184020592Y-114791881D01*
X184197580Y-114527000D01*
X185478000Y-114527000D01*
X185478000Y-116600999D01*
X180100998Y-121978000D01*
X178489916Y-121978000D01*
X178369765Y-121928109D01*
X178120329Y-121927891D01*
X177889797Y-122023145D01*
X177713265Y-122199369D01*
X177617609Y-122429735D01*
X177617391Y-122679171D01*
X175837000Y-122679171D01*
X175837000Y-121524002D01*
X176302998Y-121058003D01*
X176303001Y-121058001D01*
X178493000Y-118868001D01*
X178493000Y-121039584D01*
X178443109Y-121159735D01*
X178442891Y-121409171D01*
X178538145Y-121639703D01*
X178714369Y-121816235D01*
X178944735Y-121911891D01*
X179194171Y-121912109D01*
X179424703Y-121816855D01*
X179601235Y-121640631D01*
X179696891Y-121410265D01*
X179697109Y-121160829D01*
X179647000Y-121039556D01*
X179647000Y-118703965D01*
X180813008Y-117537956D01*
X180813011Y-117537954D01*
X180938088Y-117350761D01*
X180982010Y-117129953D01*
X180982010Y-116490000D01*
X181630689Y-116490000D01*
X181721318Y-116945623D01*
X181979408Y-117331881D01*
X182365666Y-117589971D01*
X182821289Y-117680600D01*
X183178711Y-117680600D01*
X183634334Y-117589971D01*
X184020592Y-117331881D01*
X184278682Y-116945623D01*
X184369311Y-116490000D01*
X184278682Y-116034377D01*
X184020592Y-115648119D01*
X183634334Y-115390029D01*
X183178711Y-115299400D01*
X182821289Y-115299400D01*
X182365666Y-115390029D01*
X181979408Y-115648119D01*
X181721318Y-116034377D01*
X181630689Y-116490000D01*
X180982010Y-116490000D01*
X180982010Y-111999002D01*
X180994011Y-111987000D01*
X181802420Y-111987000D01*
X181979408Y-112251881D01*
X182365666Y-112509971D01*
X182821289Y-112600600D01*
X183178711Y-112600600D01*
X183634334Y-112509971D01*
X184020592Y-112251881D01*
X184278682Y-111865623D01*
X184369311Y-111410000D01*
X184278682Y-110954377D01*
X184020592Y-110568119D01*
X183634334Y-110310029D01*
X183178711Y-110219400D01*
X182821289Y-110219400D01*
X182365666Y-110310029D01*
X181979408Y-110568119D01*
X181802420Y-110833000D01*
X180755015Y-110833000D01*
X180755010Y-110832999D01*
X180534202Y-110876922D01*
X180347009Y-111001999D01*
X180347007Y-111002002D01*
X180282000Y-111067009D01*
X180282000Y-108870000D01*
X181630689Y-108870000D01*
X181721318Y-109325623D01*
X181979408Y-109711881D01*
X182365666Y-109969971D01*
X182821289Y-110060600D01*
X183178711Y-110060600D01*
X183634334Y-109969971D01*
X184020592Y-109711881D01*
X184278682Y-109325623D01*
X184369311Y-108870000D01*
X184278682Y-108414377D01*
X184020592Y-108028119D01*
X183634334Y-107770029D01*
X183178711Y-107679400D01*
X182821289Y-107679400D01*
X182365666Y-107770029D01*
X181979408Y-108028119D01*
X181721318Y-108414377D01*
X181630689Y-108870000D01*
X180282000Y-108870000D01*
X180282000Y-107204002D01*
X180579001Y-106907000D01*
X181802420Y-106907000D01*
X181979408Y-107171881D01*
X182365666Y-107429971D01*
X182821289Y-107520600D01*
X183178711Y-107520600D01*
X183634334Y-107429971D01*
X184020592Y-107171881D01*
X184278682Y-106785623D01*
X184369311Y-106330000D01*
X184278682Y-105874377D01*
X184020592Y-105488119D01*
X183634334Y-105230029D01*
X183178711Y-105139400D01*
X182821289Y-105139400D01*
X182365666Y-105230029D01*
X181979408Y-105488119D01*
X181802420Y-105753000D01*
X180579001Y-105753000D01*
X180282000Y-105455998D01*
X180282000Y-102091602D01*
X181123601Y-101250000D01*
X181630689Y-101250000D01*
X181721318Y-101705623D01*
X181979408Y-102091881D01*
X182365666Y-102349971D01*
X182821289Y-102440600D01*
X183178711Y-102440600D01*
X183634334Y-102349971D01*
X184020592Y-102091881D01*
X184278682Y-101705623D01*
X184369311Y-101250000D01*
X184278682Y-100794377D01*
X184020592Y-100408119D01*
X183634334Y-100150029D01*
X183178711Y-100059400D01*
X182821289Y-100059400D01*
X182365666Y-100150029D01*
X181979408Y-100408119D01*
X181721318Y-100794377D01*
X181630689Y-101250000D01*
X181123601Y-101250000D01*
X182530786Y-99842815D01*
X182821289Y-99900600D01*
X183178711Y-99900600D01*
X183634334Y-99809971D01*
X184020592Y-99551881D01*
X184278682Y-99165623D01*
X184369311Y-98710000D01*
X184278682Y-98254377D01*
X184020592Y-97868119D01*
X183634334Y-97610029D01*
X183178711Y-97519400D01*
X182821289Y-97519400D01*
X182365666Y-97610029D01*
X181979408Y-97868119D01*
X181721318Y-98254377D01*
X181630689Y-98710000D01*
X181697204Y-99044395D01*
X179581990Y-101159608D01*
X179581990Y-96170000D01*
X181630689Y-96170000D01*
X181721318Y-96625623D01*
X181979408Y-97011881D01*
X182365666Y-97269971D01*
X182821289Y-97360600D01*
X183178711Y-97360600D01*
X183634334Y-97269971D01*
X184020592Y-97011881D01*
X184278682Y-96625623D01*
X184369311Y-96170000D01*
X184278682Y-95714377D01*
X184020592Y-95328119D01*
X183634334Y-95070029D01*
X183178711Y-94979400D01*
X182821289Y-94979400D01*
X182365666Y-95070029D01*
X181979408Y-95328119D01*
X181721318Y-95714377D01*
X181630689Y-96170000D01*
X179581990Y-96170000D01*
X179581990Y-95171612D01*
X182530786Y-92222815D01*
X182821289Y-92280600D01*
X183178711Y-92280600D01*
X183634334Y-92189971D01*
X184020592Y-91931881D01*
X184278682Y-91545623D01*
X184369311Y-91090000D01*
X184278682Y-90634377D01*
X184020592Y-90248119D01*
X183634334Y-89990029D01*
X183178711Y-89899400D01*
X182821289Y-89899400D01*
X182365666Y-89990029D01*
X181979408Y-90248119D01*
X181721318Y-90634377D01*
X181630689Y-91090000D01*
X181697204Y-91424395D01*
X178596989Y-94524609D01*
X178471912Y-94711802D01*
X178427989Y-94932610D01*
X178427990Y-94932615D01*
X178427990Y-108506009D01*
X169945534Y-116988464D01*
X169825297Y-117038145D01*
X169648765Y-117214369D01*
X169553109Y-117444735D01*
X169552891Y-117694171D01*
X169648145Y-117924703D01*
X169824369Y-118101235D01*
X170054735Y-118196891D01*
X170304171Y-118197109D01*
X170534703Y-118101855D01*
X170711235Y-117925631D01*
X170761555Y-117804447D01*
X179128000Y-109438001D01*
X179128000Y-116600999D01*
X175655998Y-120073000D01*
X174625005Y-120073000D01*
X174625000Y-120072999D01*
X174624995Y-120073000D01*
X171450005Y-120073000D01*
X171450000Y-120072999D01*
X171229192Y-120116922D01*
X171041999Y-120241999D01*
X171041997Y-120242002D01*
X170406999Y-120876999D01*
X170281922Y-121064192D01*
X170237999Y-121285000D01*
X170238000Y-121285005D01*
X170238000Y-121512806D01*
X169973119Y-121689794D01*
X169715029Y-122076052D01*
X169624400Y-122531675D01*
X169624400Y-122578325D01*
X169715029Y-123033948D01*
X169973119Y-123420206D01*
X170359377Y-123678296D01*
X170815000Y-123768925D01*
X171270623Y-123678296D01*
X171656881Y-123420206D01*
X171914971Y-123033948D01*
X172005600Y-122578325D01*
X172005600Y-122531675D01*
X171914971Y-122076052D01*
X171657955Y-121691400D01*
X172157994Y-121691400D01*
X172157994Y-123418600D01*
X172180795Y-123539779D01*
X172252412Y-123651074D01*
X172361686Y-123725738D01*
X172491400Y-123752006D01*
X174218600Y-123752006D01*
X174339779Y-123729205D01*
X174451074Y-123657588D01*
X174525738Y-123548314D01*
X174552006Y-123418600D01*
X174552006Y-121691400D01*
X174529205Y-121570221D01*
X174457588Y-121458926D01*
X174348314Y-121384262D01*
X174218600Y-121357994D01*
X172491400Y-121357994D01*
X172370221Y-121380795D01*
X172258926Y-121452412D01*
X172184262Y-121561686D01*
X172157994Y-121691400D01*
X171657955Y-121691400D01*
X171656881Y-121689794D01*
X171398712Y-121517290D01*
X171689001Y-121227000D01*
X174385998Y-121227000D01*
X174683000Y-121524001D01*
X174683000Y-124214584D01*
X174633109Y-124334735D01*
X174632891Y-124584171D01*
X174728145Y-124814703D01*
X174904369Y-124991235D01*
X175101082Y-125072917D01*
X173750998Y-126423000D01*
X171689001Y-126423000D01*
X171398712Y-126132710D01*
X171656881Y-125960206D01*
X171914971Y-125573948D01*
X172005600Y-125118325D01*
X172005600Y-125071675D01*
X172164400Y-125071675D01*
X172164400Y-125118325D01*
X172255029Y-125573948D01*
X172513119Y-125960206D01*
X172899377Y-126218296D01*
X173355000Y-126308925D01*
X173810623Y-126218296D01*
X174196881Y-125960206D01*
X174454971Y-125573948D01*
X174545600Y-125118325D01*
X174545600Y-125071675D01*
X174454971Y-124616052D01*
X174196881Y-124229794D01*
X173810623Y-123971704D01*
X173355000Y-123881075D01*
X172899377Y-123971704D01*
X172513119Y-124229794D01*
X172255029Y-124616052D01*
X172164400Y-125071675D01*
X172005600Y-125071675D01*
X171914971Y-124616052D01*
X171656881Y-124229794D01*
X171270623Y-123971704D01*
X170815000Y-123881075D01*
X170359377Y-123971704D01*
X169973119Y-124229794D01*
X169715029Y-124616052D01*
X169702734Y-124677864D01*
X169481821Y-124206510D01*
X169049947Y-123812312D01*
X168727760Y-123678866D01*
X168730623Y-123678296D01*
X169116881Y-123420206D01*
X169374971Y-123033948D01*
X169465600Y-122578325D01*
X169465600Y-122531675D01*
X169374971Y-122076052D01*
X169116881Y-121689794D01*
X168730623Y-121431704D01*
X168275000Y-121341075D01*
X167819377Y-121431704D01*
X167433119Y-121689794D01*
X167175029Y-122076052D01*
X167084400Y-122531675D01*
X167084400Y-122578325D01*
X167175029Y-123033948D01*
X167433119Y-123420206D01*
X167819377Y-123678296D01*
X167822240Y-123678866D01*
X167500053Y-123812312D01*
X167068179Y-124206510D01*
X166820032Y-124735973D01*
X166940531Y-124968000D01*
X168148000Y-124968000D01*
X168148000Y-124948000D01*
X168402000Y-124948000D01*
X168402000Y-124968000D01*
X168422000Y-124968000D01*
X168422000Y-125222000D01*
X168402000Y-125222000D01*
X168402000Y-125242000D01*
X168148000Y-125242000D01*
X168148000Y-125222000D01*
X166940531Y-125222000D01*
X166820032Y-125454027D01*
X167068179Y-125983490D01*
X167500053Y-126377688D01*
X167609452Y-126423000D01*
X166254039Y-126423000D01*
X155978039Y-116147000D01*
X161679584Y-116147000D01*
X161799735Y-116196891D01*
X162049171Y-116197109D01*
X162279703Y-116101855D01*
X162456235Y-115925631D01*
X162551891Y-115695265D01*
X162552109Y-115445829D01*
X162456855Y-115215297D01*
X162280631Y-115038765D01*
X162050265Y-114943109D01*
X161800829Y-114942891D01*
X161679556Y-114993000D01*
X155814001Y-114993000D01*
X151573699Y-110752697D01*
X152264541Y-110752697D01*
X152466061Y-111240414D01*
X152838883Y-111613887D01*
X153326247Y-111816259D01*
X153853957Y-111816719D01*
X154341674Y-111615199D01*
X154715147Y-111242377D01*
X154917519Y-110755013D01*
X154917979Y-110227303D01*
X154757950Y-109840000D01*
X157766594Y-109840000D01*
X157766594Y-111140000D01*
X157789395Y-111261179D01*
X157861012Y-111372474D01*
X157970286Y-111447138D01*
X158100000Y-111473406D01*
X159400000Y-111473406D01*
X159521179Y-111450605D01*
X159616890Y-111389016D01*
X161530590Y-111389016D01*
X161586271Y-111619611D01*
X162069078Y-111787622D01*
X162579428Y-111758083D01*
X162913729Y-111619611D01*
X162969410Y-111389016D01*
X162250000Y-110669605D01*
X161530590Y-111389016D01*
X159616890Y-111389016D01*
X159632474Y-111378988D01*
X159707138Y-111269714D01*
X159733406Y-111140000D01*
X159733406Y-110309078D01*
X160952378Y-110309078D01*
X160981917Y-110819428D01*
X161120389Y-111153729D01*
X161350984Y-111209410D01*
X162070395Y-110490000D01*
X162429605Y-110490000D01*
X163149016Y-111209410D01*
X163379611Y-111153729D01*
X163547622Y-110670922D01*
X163518083Y-110160572D01*
X163379611Y-109826271D01*
X163149016Y-109770590D01*
X162429605Y-110490000D01*
X162070395Y-110490000D01*
X161350984Y-109770590D01*
X161120389Y-109826271D01*
X160952378Y-110309078D01*
X159733406Y-110309078D01*
X159733406Y-109840000D01*
X159710605Y-109718821D01*
X159638988Y-109607526D01*
X159614779Y-109590984D01*
X161530590Y-109590984D01*
X162250000Y-110310395D01*
X162969410Y-109590984D01*
X162913729Y-109360389D01*
X162430922Y-109192378D01*
X161920572Y-109221917D01*
X161586271Y-109360389D01*
X161530590Y-109590984D01*
X159614779Y-109590984D01*
X159529714Y-109532862D01*
X159400000Y-109506594D01*
X158100000Y-109506594D01*
X157978821Y-109529395D01*
X157867526Y-109601012D01*
X157792862Y-109710286D01*
X157766594Y-109840000D01*
X154757950Y-109840000D01*
X154716459Y-109739586D01*
X154343637Y-109366113D01*
X153856273Y-109163741D01*
X153328563Y-109163281D01*
X152840846Y-109364801D01*
X152467373Y-109737623D01*
X152265001Y-110224987D01*
X152264541Y-110752697D01*
X151573699Y-110752697D01*
X144003310Y-103182308D01*
X144472727Y-103182308D01*
X144712305Y-103762132D01*
X145155535Y-104206136D01*
X145734939Y-104446725D01*
X146362308Y-104447273D01*
X146942132Y-104207695D01*
X147386136Y-103764465D01*
X147626725Y-103185061D01*
X147627273Y-102557692D01*
X147387695Y-101977868D01*
X146944465Y-101533864D01*
X146365061Y-101293275D01*
X145737692Y-101292727D01*
X145157868Y-101532305D01*
X144713864Y-101975535D01*
X144473275Y-102554939D01*
X144472727Y-103182308D01*
X144003310Y-103182308D01*
X143283001Y-102461999D01*
X143095808Y-102336922D01*
X142875000Y-102292999D01*
X142874995Y-102293000D01*
X137922000Y-102293000D01*
X137922000Y-100389725D01*
X155995000Y-100389725D01*
X155995000Y-101080284D01*
X156091673Y-101313673D01*
X156270301Y-101492302D01*
X156503690Y-101588975D01*
X157194250Y-101588975D01*
X157353000Y-101430225D01*
X157353000Y-100230975D01*
X157607000Y-100230975D01*
X157607000Y-101430225D01*
X157765750Y-101588975D01*
X158456310Y-101588975D01*
X158689699Y-101492302D01*
X158868327Y-101313673D01*
X158965000Y-101080284D01*
X158965000Y-100389725D01*
X158806250Y-100230975D01*
X157607000Y-100230975D01*
X157353000Y-100230975D01*
X156153750Y-100230975D01*
X155995000Y-100389725D01*
X137922000Y-100389725D01*
X137922000Y-99123320D01*
X144896285Y-99123320D01*
X145025533Y-99416123D01*
X145725806Y-99684388D01*
X146475435Y-99664250D01*
X147074467Y-99416123D01*
X147201796Y-99127666D01*
X155995000Y-99127666D01*
X155995000Y-99818225D01*
X156153750Y-99976975D01*
X157353000Y-99976975D01*
X157353000Y-98777725D01*
X157607000Y-98777725D01*
X157607000Y-99976975D01*
X158806250Y-99976975D01*
X158965000Y-99818225D01*
X158965000Y-99127666D01*
X158868327Y-98894277D01*
X158689699Y-98715648D01*
X158456310Y-98618975D01*
X157765750Y-98618975D01*
X157607000Y-98777725D01*
X157353000Y-98777725D01*
X157194250Y-98618975D01*
X156503690Y-98618975D01*
X156270301Y-98715648D01*
X156091673Y-98894277D01*
X155995000Y-99127666D01*
X147201796Y-99127666D01*
X147203715Y-99123320D01*
X146050000Y-97969605D01*
X144896285Y-99123320D01*
X137922000Y-99123320D01*
X137922000Y-98937606D01*
X139393800Y-97465806D01*
X144155612Y-97465806D01*
X144175750Y-98215435D01*
X144423877Y-98814467D01*
X144716680Y-98943715D01*
X145870395Y-97790000D01*
X146229605Y-97790000D01*
X147383320Y-98943715D01*
X147676123Y-98814467D01*
X147944388Y-98114194D01*
X147924250Y-97364565D01*
X147676123Y-96765533D01*
X147383320Y-96636285D01*
X146229605Y-97790000D01*
X145870395Y-97790000D01*
X144716680Y-96636285D01*
X144423877Y-96765533D01*
X144155612Y-97465806D01*
X139393800Y-97465806D01*
X140847606Y-96012000D01*
X145392197Y-96012000D01*
X145025533Y-96163877D01*
X144896285Y-96456680D01*
X146050000Y-97610395D01*
X147203715Y-96456680D01*
X147074467Y-96163877D01*
X146678011Y-96012000D01*
X174165000Y-96012000D01*
X174214410Y-96001994D01*
X174254803Y-95974803D01*
X177254803Y-92974803D01*
X177282666Y-92932789D01*
X177292000Y-92885000D01*
X177292000Y-86369026D01*
X181392642Y-86369026D01*
X181395291Y-86384791D01*
X181649268Y-86912036D01*
X182085680Y-87301954D01*
X182457039Y-87431854D01*
X182365666Y-87450029D01*
X181979408Y-87708119D01*
X181721318Y-88094377D01*
X181630689Y-88550000D01*
X181721318Y-89005623D01*
X181979408Y-89391881D01*
X182365666Y-89649971D01*
X182821289Y-89740600D01*
X183178711Y-89740600D01*
X183469214Y-89682815D01*
X189923000Y-96136601D01*
X189923000Y-119134584D01*
X189873109Y-119254735D01*
X189872891Y-119504171D01*
X189968145Y-119734703D01*
X190144369Y-119911235D01*
X190374735Y-120006891D01*
X190624171Y-120007109D01*
X190854703Y-119911855D01*
X191031235Y-119735631D01*
X191126891Y-119505265D01*
X191127109Y-119255829D01*
X191077000Y-119134556D01*
X191077000Y-95897605D01*
X191077001Y-95897600D01*
X191033078Y-95676792D01*
X190921372Y-95509611D01*
X190908001Y-95489599D01*
X190907998Y-95489597D01*
X184302796Y-88884394D01*
X184369311Y-88550000D01*
X184278682Y-88094377D01*
X184020592Y-87708119D01*
X183634334Y-87450029D01*
X183542961Y-87431854D01*
X183914320Y-87301954D01*
X184350732Y-86912036D01*
X184604709Y-86384791D01*
X184607358Y-86369026D01*
X184486217Y-86137000D01*
X183127000Y-86137000D01*
X183127000Y-86157000D01*
X182873000Y-86157000D01*
X182873000Y-86137000D01*
X181513783Y-86137000D01*
X181392642Y-86369026D01*
X177292000Y-86369026D01*
X177292000Y-86237606D01*
X180217606Y-83312000D01*
X181650594Y-83312000D01*
X181650594Y-84333600D01*
G36*
X160102112Y-123883001D02*
X139465104Y-123883000D01*
X139428394Y-123794154D01*
X139097588Y-123462770D01*
X138665147Y-123283205D01*
X138196907Y-123282796D01*
X137922000Y-123396385D01*
X137922000Y-116190000D01*
X146336594Y-116190000D01*
X146336594Y-117490000D01*
X146359395Y-117611179D01*
X146431012Y-117722474D01*
X146540286Y-117797138D01*
X146670000Y-117823406D01*
X147970000Y-117823406D01*
X148091179Y-117800605D01*
X148186890Y-117739016D01*
X149100590Y-117739016D01*
X149156271Y-117969611D01*
X149639078Y-118137622D01*
X150149428Y-118108083D01*
X150483729Y-117969611D01*
X150539410Y-117739016D01*
X149820000Y-117019605D01*
X149100590Y-117739016D01*
X148186890Y-117739016D01*
X148202474Y-117728988D01*
X148277138Y-117619714D01*
X148303406Y-117490000D01*
X148303406Y-116659078D01*
X148522378Y-116659078D01*
X148551917Y-117169428D01*
X148690389Y-117503729D01*
X148920984Y-117559410D01*
X149640395Y-116840000D01*
X149999605Y-116840000D01*
X150719016Y-117559410D01*
X150949611Y-117503729D01*
X151117622Y-117020922D01*
X151088083Y-116510572D01*
X150949611Y-116176271D01*
X150719016Y-116120590D01*
X149999605Y-116840000D01*
X149640395Y-116840000D01*
X148920984Y-116120590D01*
X148690389Y-116176271D01*
X148522378Y-116659078D01*
X148303406Y-116659078D01*
X148303406Y-116190000D01*
X148280605Y-116068821D01*
X148208988Y-115957526D01*
X148184779Y-115940984D01*
X149100590Y-115940984D01*
X149820000Y-116660395D01*
X150539410Y-115940984D01*
X150483729Y-115710389D01*
X150000922Y-115542378D01*
X149490572Y-115571917D01*
X149156271Y-115710389D01*
X149100590Y-115940984D01*
X148184779Y-115940984D01*
X148099714Y-115882862D01*
X147970000Y-115856594D01*
X146670000Y-115856594D01*
X146548821Y-115879395D01*
X146437526Y-115951012D01*
X146362862Y-116060286D01*
X146336594Y-116190000D01*
X137922000Y-116190000D01*
X137922000Y-110752697D01*
X142104541Y-110752697D01*
X142306061Y-111240414D01*
X142678883Y-111613887D01*
X143166247Y-111816259D01*
X143693957Y-111816719D01*
X144181674Y-111615199D01*
X144555147Y-111242377D01*
X144757519Y-110755013D01*
X144757979Y-110227303D01*
X144556459Y-109739586D01*
X144183637Y-109366113D01*
X143696273Y-109163741D01*
X143168563Y-109163281D01*
X142680846Y-109364801D01*
X142307373Y-109737623D01*
X142105001Y-110224987D01*
X142104541Y-110752697D01*
X137922000Y-110752697D01*
X137922000Y-105547030D01*
X141766142Y-105547030D01*
X160102112Y-123883001D01*
X160102112Y-123883001D01*
G37*
X160102112Y-123883001D02*
X139465104Y-123883000D01*
X139428394Y-123794154D01*
X139097588Y-123462770D01*
X138665147Y-123283205D01*
X138196907Y-123282796D01*
X137922000Y-123396385D01*
X137922000Y-116190000D01*
X146336594Y-116190000D01*
X146336594Y-117490000D01*
X146359395Y-117611179D01*
X146431012Y-117722474D01*
X146540286Y-117797138D01*
X146670000Y-117823406D01*
X147970000Y-117823406D01*
X148091179Y-117800605D01*
X148186890Y-117739016D01*
X149100590Y-117739016D01*
X149156271Y-117969611D01*
X149639078Y-118137622D01*
X150149428Y-118108083D01*
X150483729Y-117969611D01*
X150539410Y-117739016D01*
X149820000Y-117019605D01*
X149100590Y-117739016D01*
X148186890Y-117739016D01*
X148202474Y-117728988D01*
X148277138Y-117619714D01*
X148303406Y-117490000D01*
X148303406Y-116659078D01*
X148522378Y-116659078D01*
X148551917Y-117169428D01*
X148690389Y-117503729D01*
X148920984Y-117559410D01*
X149640395Y-116840000D01*
X149999605Y-116840000D01*
X150719016Y-117559410D01*
X150949611Y-117503729D01*
X151117622Y-117020922D01*
X151088083Y-116510572D01*
X150949611Y-116176271D01*
X150719016Y-116120590D01*
X149999605Y-116840000D01*
X149640395Y-116840000D01*
X148920984Y-116120590D01*
X148690389Y-116176271D01*
X148522378Y-116659078D01*
X148303406Y-116659078D01*
X148303406Y-116190000D01*
X148280605Y-116068821D01*
X148208988Y-115957526D01*
X148184779Y-115940984D01*
X149100590Y-115940984D01*
X149820000Y-116660395D01*
X150539410Y-115940984D01*
X150483729Y-115710389D01*
X150000922Y-115542378D01*
X149490572Y-115571917D01*
X149156271Y-115710389D01*
X149100590Y-115940984D01*
X148184779Y-115940984D01*
X148099714Y-115882862D01*
X147970000Y-115856594D01*
X146670000Y-115856594D01*
X146548821Y-115879395D01*
X146437526Y-115951012D01*
X146362862Y-116060286D01*
X146336594Y-116190000D01*
X137922000Y-116190000D01*
X137922000Y-110752697D01*
X142104541Y-110752697D01*
X142306061Y-111240414D01*
X142678883Y-111613887D01*
X143166247Y-111816259D01*
X143693957Y-111816719D01*
X144181674Y-111615199D01*
X144555147Y-111242377D01*
X144757519Y-110755013D01*
X144757979Y-110227303D01*
X144556459Y-109739586D01*
X144183637Y-109366113D01*
X143696273Y-109163741D01*
X143168563Y-109163281D01*
X142680846Y-109364801D01*
X142307373Y-109737623D01*
X142105001Y-110224987D01*
X142104541Y-110752697D01*
X137922000Y-110752697D01*
X137922000Y-105547030D01*
X141766142Y-105547030D01*
X160102112Y-123883001D01*
M02*
